<svg width="390" height="350" viewBox="0 0 390 350" fill="none" xmlns="http://www.w3.org/2000/svg">
<path opacity="0.3" d="M187.715 138.429C187.715 134.878 184.836 132 181.286 132C177.736 132 174.857 134.878 174.857 138.429C174.857 141.979 177.736 144.857 181.286 144.857C184.836 144.857 187.715 141.979 187.715 138.429Z" fill="#B2F58B"/>
<g filter="url(#filter0_dd)">
<path d="M355 0H35C32.2386 0 30 2.23858 30 5V135C30 137.761 32.2386 140 35 140H355C357.761 140 360 137.761 360 135V5C360 2.23858 357.761 0 355 0Z" fill="white"/>
</g>
<g filter="url(#filter1_dd)">
<path d="M185 150H35C32.2386 150 30 152.239 30 155V285C30 287.761 32.2386 290 35 290H185C187.761 290 190 287.761 190 285V155C190 152.239 187.761 150 185 150Z" fill="white"/>
</g>
<g filter="url(#filter2_dd)">
<path d="M355 150H206C203.239 150 201 152.239 201 155V285C201 287.761 203.239 290 206 290H355C357.761 290 360 287.761 360 285V155C360 152.239 357.761 150 355 150Z" fill="white"/>
</g>
<path d="M82.683 241.154C82.683 243.317 80.068 245.071 76.842 245.071C73.615 245.071 71 243.317 71 241.154C71 238.99 73.615 237.236 76.842 237.236C80.068 237.236 82.683 238.99 82.683 241.154Z" fill="white"/>
<path d="M100.208 241.154C100.208 243.317 97.5929 245.071 94.3659 245.071C91.1399 245.071 88.5249 243.317 88.5249 241.154C88.5249 238.99 91.1399 237.236 94.3659 237.236C97.5929 237.236 100.208 238.99 100.208 241.154Z" fill="white"/>
<path d="M117.733 241.154C117.733 243.317 115.117 245.071 111.891 245.071C108.665 245.071 106.05 243.317 106.05 241.154C106.05 238.99 108.665 237.236 111.891 237.236C115.117 237.236 117.733 238.99 117.733 241.154Z" fill="white"/>
<path d="M71 245.5V265.5C71 267.985 73.015 270 75.5 270C77.985 270 80 267.985 80 265.5V245.5C80 243.015 77.985 241 75.5 241C73.015 241 71 243.015 71 245.5Z" fill="#EC4899" fill-opacity="0.5"/>
<path d="M54 253.5V265.5C54 267.985 56.015 270 58.5 270C60.985 270 63 267.985 63 265.5V253.5C63 251.015 60.985 249 58.5 249C56.015 249 54 251.015 54 253.5Z" fill="#EC4899" fill-opacity="0.5"/>
<path d="M88 222.859V265.499C88 267.984 90.015 269.999 92.5 269.999C94.985 269.999 97 267.984 97 265.499V222.859C97 220.374 94.985 218.359 92.5 218.359C90.015 218.359 88 220.374 88 222.859Z" fill="#EC4899" fill-opacity="0.5"/>
<path d="M105 193.354V265.501C105 267.986 107.015 270.001 109.5 270.001C111.985 270.001 114 267.986 114 265.501V193.354C114 190.868 111.985 188.854 109.5 188.854C107.015 188.854 105 190.868 105 193.354Z" fill="#DB2777" fill-opacity="0.4"/>
<path d="M122 183.518V265.501C122 267.986 124.015 270.001 126.5 270.001C128.985 270.001 131 267.986 131 265.501V183.518C131 181.032 128.985 179.018 126.5 179.018C124.015 179.018 122 181.032 122 183.518Z" fill="#DB2777" fill-opacity="0.4"/>
<path d="M156 174.5V265.5C156 267.985 158.015 270 160.5 270C162.985 270 165 267.985 165 265.5V174.5C165 172.015 162.985 170 160.5 170C158.015 170 156 172.015 156 174.5Z" fill="#EC4899" fill-opacity="0.6"/>
<path d="M105 236.5V265.5C105 267.985 107.015 270 109.5 270C111.985 270 114 267.985 114 265.5V236.5C114 234.015 111.985 232 109.5 232C107.015 232 105 234.015 105 236.5Z" fill="#EC4899"/>
<path d="M88 255.5V265.5C88 267.985 90.015 270 92.5 270C94.985 270 97 267.985 97 265.5V255.5C97 253.015 94.985 251 92.5 251C90.015 251 88 253.015 88 255.5Z" fill="#EC4899"/>
<path d="M122 226.5V265.5C122 267.985 124.015 270 126.5 270C128.985 270 131 267.985 131 265.5V226.5C131 224.015 128.985 222 126.5 222C124.015 222 122 224.015 122 226.5Z" fill="#EC4899"/>
<path d="M139 241.5V257.5C139 259.985 141.015 262 143.5 262C145.985 262 148 259.985 148 257.5V241.5C148 239.015 145.985 237 143.5 237C141.015 237 139 239.015 139 241.5Z" fill="#03C97D"/>
<path d="M156 216.5V265.5C156 267.985 158.015 270 160.5 270C162.985 270 165 267.985 165 265.5V216.5C165 214.015 162.985 212 160.5 212C158.015 212 156 214.015 156 216.5Z" fill="#EC4899"/>
<path d="M139 193.354V265.501C139 267.986 141.015 270.001 143.5 270.001C145.985 270.001 148 267.986 148 265.501V193.354C148 190.868 145.985 188.854 143.5 188.854C141.015 188.854 139 190.868 139 193.354Z" fill="#EC4899" fill-opacity="0.4"/>
<path d="M139 232.5V265.5C139 267.985 141.015 270 143.5 270C145.985 270 148 267.985 148 265.5V232.5C148 230.015 145.985 228 143.5 228C141.015 228 139 230.015 139 232.5Z" fill="#EC4899"/>
<path d="M280.5 178C288.198 178 295.751 180.091 302.35 184.048C308.95 188.006 314.36 193.683 317.99 200.472C321.61 207.262 323.33 214.908 322.95 222.597C322.57 230.285 320.11 237.725 315.83 244.124L296.4 231.131C298.32 228.251 299.43 224.903 299.6 221.443C299.77 217.984 299 214.543 297.37 211.488C295.736 208.432 293.305 205.878 290.334 204.097C287.363 202.316 283.964 201.375 280.5 201.375V178Z" fill="#DB2777"/>
<path d="M315.83 244.124C311.83 250.105 306.38 254.972 299.98 258.271C293.59 261.569 286.463 263.19 279.272 262.982C272.08 262.774 265.059 260.744 258.866 257.082C252.674 253.42 247.512 248.245 243.865 242.043L264.014 230.195C265.655 232.985 267.978 235.314 270.765 236.962C273.552 238.61 276.711 239.523 279.947 239.617C283.183 239.711 286.39 238.981 289.268 237.497C292.145 236.013 294.598 233.822 296.4 231.131L315.83 244.124Z" fill="#EC4899" fill-opacity="0.9"/>
<path d="M243.865 242.043C239.856 235.225 237.828 227.424 238.011 219.516C238.194 211.609 240.581 203.909 244.901 197.284L264.481 210.053C262.536 213.034 261.463 216.499 261.38 220.057C261.298 223.616 262.21 227.126 264.014 230.195L243.865 242.043Z" fill="#EC4899" fill-opacity="0.4"/>
<path d="M244.901 197.284C250.285 189.029 258.37 182.901 267.774 179.95L274.773 202.253C270.542 203.581 266.903 206.338 264.481 210.053L244.901 197.284Z" fill="#DB2777" fill-opacity="0.8"/>
<path d="M267.774 179.95C271.892 178.658 276.184 178 280.5 178V201.375C278.558 201.375 276.627 201.671 274.773 202.253L267.774 179.95Z" fill="white"/>
<path d="M82.662 97.165C65.836 97.165 65.836 120 50 120H340C324.16 120 324.16 89.291 307.34 89.291C291.502 89.291 291.502 71.968 275.666 71.968C259.829 71.968 259.829 34.961 243.003 34.961C227.167 34.961 227.167 37.323 211.331 37.323C195.495 37.323 195.495 20 178.669 20C161.843 20 162.833 75.118 146.997 75.118C130.171 75.118 132.169 52.283 114.334 52.283C96.5 52.283 98.498 97.165 82.662 97.165Z" fill="#EC4899" fill-opacity="0.5"/>
<path d="M82.662 111.338C65.836 111.338 65.836 119.999 50 119.999H340C324.16 119.999 324.16 94.8033 307.34 94.8033C291.502 94.8033 291.836 73.9454 276 73.9454C260.164 73.9454 259.829 60.9444 243.003 60.9444C227.5 60.8174 227.167 72.7554 211.331 72.7554C195.495 72.7554 194.826 66.5444 178 66.5444C161.5 65.7214 162.833 97.1653 146.997 97.1653C130.171 97.1653 130.171 77.4803 114.334 77.4803C98.498 77.4803 98.498 111.338 82.662 111.338Z" fill="#EC4899"/>
<path d="M114.334 97.9671C98.4981 97.9671 98.4981 120 82.6621 120H114.334H146.997H178.669H211.331H243.003H275.666H307.34H340C324.16 120 324.16 99.5991 307.34 99.5991C291.502 99.5991 291.502 83.2781 275.666 83.2781C259.829 83.2781 259.826 73.123 243 73.123C227.164 73.123 226.836 93.5781 211 93.5781C195.164 93.5781 195.495 85.7261 178.669 85.7261C162.833 85.7261 162.833 118.368 146.997 118.368C130.171 118.368 130.171 97.9671 114.334 97.9671Z" fill="#DB2777"/>
<defs>
<filter id="filter0_dd" x="0" y="0" width="390" height="200" filterUnits="userSpaceOnUse" color-interpolation-filters="sRGB">
<feFlood flood-opacity="0" result="BackgroundImageFix"/>
<feColorMatrix in="SourceAlpha" type="matrix" values="0 0 0 0 0 0 0 0 0 0 0 0 0 0 0 0 0 0 127 0" result="hardAlpha"/>
<feOffset dy="30"/>
<feGaussianBlur stdDeviation="15"/>
<feColorMatrix type="matrix" values="0 0 0 0 0 0 0 0 0 0 0 0 0 0 0 0 0 0 0.05 0"/>
<feBlend mode="normal" in2="BackgroundImageFix" result="effect1_dropShadow"/>
<feColorMatrix in="SourceAlpha" type="matrix" values="0 0 0 0 0 0 0 0 0 0 0 0 0 0 0 0 0 0 127 0" result="hardAlpha"/>
<feOffset dy="5"/>
<feGaussianBlur stdDeviation="2.5"/>
<feColorMatrix type="matrix" values="0 0 0 0 0 0 0 0 0 0 0 0 0 0 0 0 0 0 0.05 0"/>
<feBlend mode="normal" in2="effect1_dropShadow" result="effect2_dropShadow"/>
<feBlend mode="normal" in="SourceGraphic" in2="effect2_dropShadow" result="shape"/>
</filter>
<filter id="filter1_dd" x="0" y="150" width="220" height="200" filterUnits="userSpaceOnUse" color-interpolation-filters="sRGB">
<feFlood flood-opacity="0" result="BackgroundImageFix"/>
<feColorMatrix in="SourceAlpha" type="matrix" values="0 0 0 0 0 0 0 0 0 0 0 0 0 0 0 0 0 0 127 0" result="hardAlpha"/>
<feOffset dy="30"/>
<feGaussianBlur stdDeviation="15"/>
<feColorMatrix type="matrix" values="0 0 0 0 0 0 0 0 0 0 0 0 0 0 0 0 0 0 0.05 0"/>
<feBlend mode="normal" in2="BackgroundImageFix" result="effect1_dropShadow"/>
<feColorMatrix in="SourceAlpha" type="matrix" values="0 0 0 0 0 0 0 0 0 0 0 0 0 0 0 0 0 0 127 0" result="hardAlpha"/>
<feOffset dy="5"/>
<feGaussianBlur stdDeviation="2.5"/>
<feColorMatrix type="matrix" values="0 0 0 0 0 0 0 0 0 0 0 0 0 0 0 0 0 0 0.05 0"/>
<feBlend mode="normal" in2="effect1_dropShadow" result="effect2_dropShadow"/>
<feBlend mode="normal" in="SourceGraphic" in2="effect2_dropShadow" result="shape"/>
</filter>
<filter id="filter2_dd" x="171" y="150" width="219" height="200" filterUnits="userSpaceOnUse" color-interpolation-filters="sRGB">
<feFlood flood-opacity="0" result="BackgroundImageFix"/>
<feColorMatrix in="SourceAlpha" type="matrix" values="0 0 0 0 0 0 0 0 0 0 0 0 0 0 0 0 0 0 127 0" result="hardAlpha"/>
<feOffset dy="30"/>
<feGaussianBlur stdDeviation="15"/>
<feColorMatrix type="matrix" values="0 0 0 0 0 0 0 0 0 0 0 0 0 0 0 0 0 0 0.05 0"/>
<feBlend mode="normal" in2="BackgroundImageFix" result="effect1_dropShadow"/>
<feColorMatrix in="SourceAlpha" type="matrix" values="0 0 0 0 0 0 0 0 0 0 0 0 0 0 0 0 0 0 127 0" result="hardAlpha"/>
<feOffset dy="5"/>
<feGaussianBlur stdDeviation="2.5"/>
<feColorMatrix type="matrix" values="0 0 0 0 0 0 0 0 0 0 0 0 0 0 0 0 0 0 0.05 0"/>
<feBlend mode="normal" in2="effect1_dropShadow" result="effect2_dropShadow"/>
<feBlend mode="normal" in="SourceGraphic" in2="effect2_dropShadow" result="shape"/>
</filter>
</defs>
</svg>
