<svg viewBox="0 0 280 314" fill="none" xmlns="http://www.w3.org/2000/svg">
<circle cx="140" cy="160.665" r="83.3333" fill="#D0F4FB"/>
<circle cx="140" cy="160.667" r="66.6667" fill="#2563EB" fill-opacity="0.6"/>
<circle cx="140" cy="160.667" r="50.6667" fill="black"/>
<g filter="url(#filter0_dd)">
<path fill-rule="evenodd" clip-rule="evenodd" d="M33.3333 56.6641C31.4924 56.6641 30 58.1565 30 59.9974V126.664C30 128.505 31.4924 129.997 33.3333 129.997H70L81.0572 141.055C81.8971 141.895 83.3333 141.3 83.3333 140.112V129.997H93.3333C95.1743 129.997 96.6667 128.505 96.6667 126.664V59.9974C96.6667 58.1564 95.1743 56.6641 93.3333 56.6641H33.3333Z" fill="white"/>
</g>
<g clip-path="url(#clip0)">
<path fill-rule="evenodd" clip-rule="evenodd" d="M71.3333 78.6667C71.3333 80.7495 70.5986 82.6607 69.3742 84.1553L73.3472 88.1283L71.4616 90.0139L67.3852 85.9375C66.0274 86.8204 64.4069 87.3333 62.6667 87.3333C57.8802 87.3333 54 83.4531 54 78.6667C54 73.8802 57.8802 70 62.6667 70C67.4531 70 71.3333 73.8802 71.3333 78.6667ZM61.3333 78C61.3333 77.6318 61.6318 77.3333 62 77.3333H63.3333C63.7015 77.3333 64 77.6318 64 78V82C64 82.3682 63.7015 82.6667 63.3333 82.6667H62C61.6318 82.6667 61.3333 82.3682 61.3333 82V78ZM62 74C61.6318 74 61.3333 74.2985 61.3333 74.6667V75.3333C61.3333 75.7015 61.6318 76 62 76H63.3333C63.7015 76 64 75.7015 64 75.3333V74.6667C64 74.2985 63.7015 74 63.3333 74H62Z" fill="#2563EB" fill-opacity="0.8"/>
</g>
<path d="M47.9379 97.218C47.1712 97.218 46.5679 97.4746 46.1279 97.988C45.6879 98.5013 45.4679 99.2046 45.4679 100.098C45.4679 100.985 45.6712 101.688 46.0779 102.208C46.4912 102.721 47.1079 102.978 47.9279 102.978C48.2412 102.978 48.5379 102.951 48.8179 102.898C49.0979 102.845 49.3712 102.778 49.6379 102.698V103.478C49.3712 103.578 49.0946 103.651 48.8079 103.698C48.5279 103.745 48.1912 103.768 47.7979 103.768C47.0712 103.768 46.4646 103.618 45.9779 103.318C45.4912 103.018 45.1246 102.591 44.8779 102.038C44.6379 101.485 44.5179 100.835 44.5179 100.088C44.5179 99.368 44.6479 98.7346 44.9079 98.188C45.1746 97.6346 45.5646 97.2046 46.0779 96.898C46.5912 96.5846 47.2146 96.428 47.9479 96.428C48.7012 96.428 49.3579 96.568 49.9179 96.848L49.5579 97.608C49.3379 97.508 49.0912 97.418 48.8179 97.338C48.5512 97.258 48.2579 97.218 47.9379 97.218ZM52.8063 98.218C53.4596 98.218 53.9429 98.3613 54.2563 98.648C54.5696 98.9346 54.7263 99.3913 54.7263 100.018V103.668H54.0863L53.9163 102.908H53.8763C53.6429 103.201 53.3963 103.418 53.1363 103.558C52.8829 103.698 52.5296 103.768 52.0763 103.768C51.5896 103.768 51.1863 103.641 50.8663 103.388C50.5463 103.128 50.3863 102.725 50.3863 102.178C50.3863 101.645 50.5963 101.235 51.0163 100.948C51.4363 100.655 52.0829 100.495 52.9563 100.468L53.8663 100.438V100.118C53.8663 99.6713 53.7696 99.3613 53.5763 99.188C53.3829 99.0146 53.1096 98.928 52.7563 98.928C52.4763 98.928 52.2096 98.9713 51.9563 99.058C51.7029 99.138 51.4663 99.2313 51.2463 99.338L50.9763 98.678C51.2096 98.5513 51.4863 98.4446 51.8063 98.358C52.1263 98.2646 52.4596 98.218 52.8063 98.218ZM53.0663 101.078C52.3996 101.105 51.9363 101.211 51.6763 101.398C51.4229 101.585 51.2963 101.848 51.2963 102.188C51.2963 102.488 51.3863 102.708 51.5663 102.848C51.7529 102.988 51.9896 103.058 52.2763 103.058C52.7296 103.058 53.1063 102.935 53.4063 102.688C53.7063 102.435 53.8563 102.048 53.8563 101.528V101.048L53.0663 101.078ZM57.8717 103.048C58.0051 103.048 58.1417 103.038 58.2817 103.018C58.4217 102.991 58.5351 102.965 58.6217 102.938V103.608C58.5284 103.655 58.3951 103.691 58.2217 103.718C58.0484 103.751 57.8817 103.768 57.7217 103.768C57.4417 103.768 57.1817 103.721 56.9417 103.628C56.7084 103.528 56.5184 103.358 56.3717 103.118C56.2251 102.878 56.1517 102.541 56.1517 102.108V98.988H55.3917V98.568L56.1617 98.218L56.5117 97.078H57.0317V98.308H58.5817V98.988H57.0317V102.088C57.0317 102.415 57.1084 102.658 57.2617 102.818C57.4217 102.971 57.6251 103.048 57.8717 103.048ZM61.465 98.208C61.925 98.208 62.3184 98.308 62.645 98.508C62.9784 98.708 63.2317 98.9913 63.405 99.358C63.585 99.718 63.675 100.141 63.675 100.628V101.158H60.005C60.0184 101.765 60.1717 102.228 60.465 102.548C60.765 102.861 61.1817 103.018 61.715 103.018C62.055 103.018 62.355 102.988 62.615 102.928C62.8817 102.861 63.155 102.768 63.435 102.648V103.418C63.1617 103.538 62.8917 103.625 62.625 103.678C62.3584 103.738 62.0417 103.768 61.675 103.768C61.1684 103.768 60.7184 103.665 60.325 103.458C59.9384 103.251 59.635 102.945 59.415 102.538C59.2017 102.125 59.095 101.621 59.095 101.028C59.095 100.441 59.1917 99.938 59.385 99.518C59.585 99.098 59.8617 98.7746 60.215 98.548C60.575 98.3213 60.9917 98.208 61.465 98.208ZM61.455 98.928C61.035 98.928 60.7017 99.0646 60.455 99.338C60.215 99.6046 60.0717 99.978 60.025 100.458H62.755C62.7484 100.005 62.6417 99.638 62.435 99.358C62.2284 99.0713 61.9017 98.928 61.455 98.928ZM66.6395 98.208C66.9929 98.208 67.3095 98.2746 67.5895 98.408C67.8762 98.5413 68.1195 98.7446 68.3195 99.018H68.3695L68.4895 98.308H69.1895V103.758C69.1895 104.525 68.9929 105.101 68.5995 105.488C68.2129 105.875 67.6095 106.068 66.7895 106.068C66.0029 106.068 65.3595 105.955 64.8595 105.728V104.918C65.3862 105.198 66.0462 105.338 66.8395 105.338C67.2995 105.338 67.6595 105.201 67.9195 104.928C68.1862 104.661 68.3195 104.295 68.3195 103.828V103.618C68.3195 103.538 68.3229 103.425 68.3295 103.278C68.3362 103.125 68.3429 103.018 68.3495 102.958H68.3095C67.9495 103.498 67.3962 103.768 66.6495 103.768C65.9562 103.768 65.4129 103.525 65.0195 103.038C64.6329 102.551 64.4395 101.871 64.4395 100.998C64.4395 100.145 64.6329 99.468 65.0195 98.968C65.4129 98.4613 65.9529 98.208 66.6395 98.208ZM66.7595 98.948C66.3129 98.948 65.9662 99.128 65.7195 99.488C65.4729 99.8413 65.3495 100.348 65.3495 101.008C65.3495 101.668 65.4695 102.175 65.7095 102.528C65.9562 102.875 66.3129 103.048 66.7795 103.048C67.3195 103.048 67.7129 102.905 67.9595 102.618C68.2062 102.325 68.3295 101.855 68.3295 101.208V100.998C68.3295 100.265 68.2029 99.7413 67.9495 99.428C67.6962 99.108 67.2995 98.948 66.7595 98.948ZM75.2519 100.978C75.2519 101.865 75.0252 102.551 74.5719 103.038C74.1252 103.525 73.5186 103.768 72.7519 103.768C72.2786 103.768 71.8552 103.661 71.4819 103.448C71.1152 103.228 70.8252 102.911 70.6119 102.498C70.3986 102.078 70.2919 101.571 70.2919 100.978C70.2919 100.091 70.5152 99.408 70.9619 98.928C71.4086 98.448 72.0152 98.208 72.7819 98.208C73.2686 98.208 73.6952 98.318 74.0619 98.538C74.4352 98.7513 74.7252 99.0646 74.9319 99.478C75.1452 99.8846 75.2519 100.385 75.2519 100.978ZM71.2019 100.978C71.2019 101.611 71.3252 102.115 71.5719 102.488C71.8252 102.855 72.2252 103.038 72.7719 103.038C73.3119 103.038 73.7086 102.855 73.9619 102.488C74.2152 102.115 74.3419 101.611 74.3419 100.978C74.3419 100.345 74.2152 99.848 73.9619 99.488C73.7086 99.128 73.3086 98.948 72.7619 98.948C72.2152 98.948 71.8186 99.128 71.5719 99.488C71.3252 99.848 71.2019 100.345 71.2019 100.978ZM78.8466 98.208C78.9466 98.208 79.0532 98.2146 79.1666 98.228C79.2866 98.2346 79.3899 98.248 79.4766 98.268L79.3666 99.078C79.2799 99.058 79.1832 99.0413 79.0766 99.028C78.9766 99.0146 78.8799 99.008 78.7866 99.008C78.5132 99.008 78.2566 99.0846 78.0166 99.238C77.7766 99.3846 77.5832 99.5946 77.4366 99.868C77.2966 100.135 77.2266 100.448 77.2266 100.808V103.668H76.3466V98.308H77.0666L77.1666 99.288H77.2066C77.3799 98.9946 77.6032 98.7413 77.8766 98.528C78.1499 98.3146 78.4732 98.208 78.8466 98.208ZM79.3374 98.308H80.2774L81.4374 101.358C81.5374 101.625 81.6274 101.881 81.7074 102.128C81.7874 102.368 81.8474 102.598 81.8874 102.818H81.9274C81.9674 102.651 82.0308 102.435 82.1174 102.168C82.2041 101.895 82.2941 101.621 82.3874 101.348L83.4774 98.308H84.4274L82.1174 104.408C81.9308 104.915 81.6874 105.318 81.3874 105.618C81.0941 105.918 80.6874 106.068 80.1674 106.068C80.0074 106.068 79.8674 106.058 79.7474 106.038C79.6274 106.025 79.5241 106.008 79.4374 105.988V105.288C79.5108 105.301 79.5974 105.315 79.6974 105.328C79.8041 105.341 79.9141 105.348 80.0274 105.348C80.3341 105.348 80.5808 105.261 80.7674 105.088C80.9608 104.915 81.1108 104.685 81.2174 104.398L81.4974 103.688L79.3374 98.308ZM41.8335 109.528C42.7269 109.528 43.4002 109.661 43.8535 109.928C44.3135 110.188 44.5435 110.645 44.5435 111.298C44.5435 111.718 44.4269 112.068 44.1935 112.348C43.9602 112.621 43.6235 112.798 43.1835 112.878V112.928C43.4835 112.975 43.7535 113.061 43.9935 113.188C44.2402 113.315 44.4335 113.495 44.5735 113.728C44.7135 113.961 44.7835 114.265 44.7835 114.638C44.7835 115.285 44.5602 115.785 44.1135 116.138C43.6735 116.491 43.0702 116.668 42.3035 116.668H39.7935V109.528H41.8335ZM42.0135 112.568C42.6269 112.568 43.0469 112.471 43.2735 112.278C43.5002 112.078 43.6135 111.785 43.6135 111.398C43.6135 111.005 43.4735 110.725 43.1935 110.558C42.9202 110.385 42.4802 110.298 41.8735 110.298H40.6935V112.568H42.0135ZM40.6935 113.318V115.908H42.1335C42.7669 115.908 43.2069 115.785 43.4535 115.538C43.7002 115.291 43.8235 114.968 43.8235 114.568C43.8235 114.195 43.6935 113.895 43.4335 113.668C43.1802 113.435 42.7235 113.318 42.0635 113.318H40.6935ZM48.3774 111.208C48.4774 111.208 48.5841 111.215 48.6974 111.228C48.8174 111.235 48.9208 111.248 49.0074 111.268L48.8974 112.078C48.8108 112.058 48.7141 112.041 48.6074 112.028C48.5074 112.015 48.4108 112.008 48.3174 112.008C48.0441 112.008 47.7874 112.085 47.5474 112.238C47.3074 112.385 47.1141 112.595 46.9674 112.868C46.8274 113.135 46.7574 113.448 46.7574 113.808V116.668H45.8774V111.308H46.5974L46.6974 112.288H46.7374C46.9108 111.995 47.1341 111.741 47.4074 111.528C47.6808 111.315 48.0041 111.208 48.3774 111.208ZM51.583 111.208C52.043 111.208 52.4363 111.308 52.763 111.508C53.0963 111.708 53.3497 111.991 53.523 112.358C53.703 112.718 53.793 113.141 53.793 113.628V114.158H50.123C50.1363 114.765 50.2897 115.228 50.583 115.548C50.883 115.861 51.2997 116.018 51.833 116.018C52.173 116.018 52.473 115.988 52.733 115.928C52.9997 115.861 53.273 115.768 53.553 115.648V116.418C53.2797 116.538 53.0097 116.625 52.743 116.678C52.4763 116.738 52.1597 116.768 51.793 116.768C51.2863 116.768 50.8363 116.665 50.443 116.458C50.0563 116.251 49.753 115.945 49.533 115.538C49.3197 115.125 49.213 114.621 49.213 114.028C49.213 113.441 49.3097 112.938 49.503 112.518C49.703 112.098 49.9797 111.775 50.333 111.548C50.693 111.321 51.1097 111.208 51.583 111.208ZM51.573 111.928C51.153 111.928 50.8197 112.065 50.573 112.338C50.333 112.605 50.1897 112.978 50.143 113.458H52.873C52.8663 113.005 52.7597 112.638 52.553 112.358C52.3463 112.071 52.0197 111.928 51.573 111.928ZM56.8875 111.218C57.5409 111.218 58.0242 111.361 58.3375 111.648C58.6509 111.935 58.8075 112.391 58.8075 113.018V116.668H58.1675L57.9975 115.908H57.9575C57.7242 116.201 57.4775 116.418 57.2175 116.558C56.9642 116.698 56.6109 116.768 56.1575 116.768C55.6709 116.768 55.2675 116.641 54.9475 116.388C54.6275 116.128 54.4675 115.725 54.4675 115.178C54.4675 114.645 54.6775 114.235 55.0975 113.948C55.5175 113.655 56.1642 113.495 57.0375 113.468L57.9475 113.438V113.118C57.9475 112.671 57.8509 112.361 57.6575 112.188C57.4642 112.015 57.1909 111.928 56.8375 111.928C56.5575 111.928 56.2909 111.971 56.0375 112.058C55.7842 112.138 55.5475 112.231 55.3275 112.338L55.0575 111.678C55.2909 111.551 55.5675 111.445 55.8875 111.358C56.2075 111.265 56.5409 111.218 56.8875 111.218ZM57.1475 114.078C56.4809 114.105 56.0175 114.211 55.7575 114.398C55.5042 114.585 55.3775 114.848 55.3775 115.188C55.3775 115.488 55.4675 115.708 55.6475 115.848C55.8342 115.988 56.0709 116.058 56.3575 116.058C56.8109 116.058 57.1875 115.935 57.4875 115.688C57.7875 115.435 57.9375 115.048 57.9375 114.528V114.048L57.1475 114.078ZM61.033 113.038C61.033 113.145 61.0263 113.285 61.013 113.458C61.0063 113.631 60.9997 113.781 60.993 113.908H61.033C61.073 113.855 61.133 113.778 61.213 113.678C61.293 113.578 61.373 113.478 61.453 113.378C61.5397 113.271 61.613 113.185 61.673 113.118L63.383 111.308H64.413L62.243 113.598L64.563 116.668H63.503L61.643 114.168L61.033 114.698V116.668H60.163V109.068H61.033V113.038ZM67.1048 116.768C66.4381 116.768 65.9048 116.538 65.5048 116.078C65.1048 115.611 64.9048 114.918 64.9048 113.998C64.9048 113.078 65.1048 112.385 65.5048 111.918C65.9115 111.445 66.4481 111.208 67.1148 111.208C67.5281 111.208 67.8648 111.285 68.1248 111.438C68.3915 111.591 68.6081 111.778 68.7748 111.998H68.8348C68.8281 111.911 68.8148 111.785 68.7948 111.618C68.7815 111.445 68.7748 111.308 68.7748 111.208V109.068H69.6548V116.668H68.9448L68.8148 115.948H68.7748C68.6148 116.175 68.4015 116.368 68.1348 116.528C67.8681 116.688 67.5248 116.768 67.1048 116.768ZM67.2448 116.038C67.8115 116.038 68.2081 115.885 68.4348 115.578C68.6681 115.265 68.7848 114.795 68.7848 114.168V114.008C68.7848 113.341 68.6748 112.831 68.4548 112.478C68.2348 112.118 67.8281 111.938 67.2348 111.938C66.7615 111.938 66.4048 112.128 66.1648 112.508C65.9315 112.881 65.8148 113.385 65.8148 114.018C65.8148 114.658 65.9315 115.155 66.1648 115.508C66.4048 115.861 66.7648 116.038 67.2448 116.038ZM75.7171 113.978C75.7171 114.865 75.4905 115.551 75.0371 116.038C74.5905 116.525 73.9838 116.768 73.2171 116.768C72.7438 116.768 72.3205 116.661 71.9471 116.448C71.5805 116.228 71.2905 115.911 71.0771 115.498C70.8638 115.078 70.7571 114.571 70.7571 113.978C70.7571 113.091 70.9805 112.408 71.4271 111.928C71.8738 111.448 72.4805 111.208 73.2471 111.208C73.7338 111.208 74.1605 111.318 74.5271 111.538C74.9005 111.751 75.1905 112.065 75.3971 112.478C75.6105 112.885 75.7171 113.385 75.7171 113.978ZM71.6671 113.978C71.6671 114.611 71.7905 115.115 72.0371 115.488C72.2905 115.855 72.6905 116.038 73.2371 116.038C73.7771 116.038 74.1738 115.855 74.4271 115.488C74.6805 115.115 74.8071 114.611 74.8071 113.978C74.8071 113.345 74.6805 112.848 74.4271 112.488C74.1738 112.128 73.7738 111.948 73.2271 111.948C72.6805 111.948 72.2838 112.128 72.0371 112.488C71.7905 112.848 71.6671 113.345 71.6671 113.978ZM80.0765 113.638C79.9898 113.365 79.9132 113.098 79.8465 112.838C79.7865 112.571 79.7398 112.365 79.7065 112.218H79.6665C79.6398 112.365 79.5965 112.571 79.5365 112.838C79.4765 113.098 79.3998 113.368 79.3065 113.648L78.3465 116.658H77.3465L75.8765 111.298H76.7865L77.5265 114.158C77.5998 114.445 77.6698 114.735 77.7365 115.028C77.8032 115.321 77.8498 115.565 77.8765 115.758H77.9165C77.9432 115.645 77.9732 115.505 78.0065 115.338C78.0465 115.171 78.0898 114.998 78.1365 114.818C78.1832 114.631 78.2298 114.465 78.2765 114.318L79.2265 111.298H80.1865L81.1065 114.318C81.1798 114.545 81.2498 114.791 81.3165 115.058C81.3898 115.325 81.4398 115.555 81.4665 115.748H81.5065C81.5265 115.581 81.5698 115.351 81.6365 115.058C81.7098 114.765 81.7865 114.465 81.8665 114.158L82.6165 111.298H83.5165L82.0265 116.658H80.9965L80.0765 113.638ZM86.7578 111.208C87.3978 111.208 87.8812 111.365 88.2078 111.678C88.5345 111.985 88.6978 112.485 88.6978 113.178V116.668H87.8278V113.238C87.8278 112.378 87.4278 111.948 86.6278 111.948C86.0345 111.948 85.6245 112.115 85.3978 112.448C85.1712 112.781 85.0578 113.261 85.0578 113.888V116.668H84.1778V111.308H84.8878L85.0178 112.038H85.0678C85.2412 111.758 85.4812 111.551 85.7878 111.418C86.0945 111.278 86.4178 111.208 86.7578 111.208Z" fill="#61696B"/>
<g filter="url(#filter1_dd)">
<path fill-rule="evenodd" clip-rule="evenodd" d="M110 30C108.159 30 106.667 31.4924 106.667 33.3333V100C106.667 101.841 108.159 103.333 110 103.333H133.333L138.807 114.282C139.299 115.264 140.701 115.264 141.192 114.282L146.667 103.333H170C171.841 103.333 173.333 101.841 173.333 100V33.3333C173.333 31.4924 171.841 30 170 30H110Z" fill="white"/>
</g>
<path d="M130.531 73.23H133.001V76.73C132.615 76.8567 132.225 76.95 131.831 77.01C131.438 77.07 130.991 77.1 130.491 77.1C129.751 77.1 129.128 76.9533 128.621 76.66C128.115 76.36 127.728 75.9367 127.461 75.39C127.201 74.8367 127.071 74.1833 127.071 73.43C127.071 72.6833 127.218 72.0367 127.511 71.49C127.805 70.9433 128.225 70.52 128.771 70.22C129.325 69.9133 129.991 69.76 130.771 69.76C131.171 69.76 131.548 69.7967 131.901 69.87C132.261 69.9433 132.595 70.0467 132.901 70.18L132.561 70.96C132.308 70.8467 132.021 70.75 131.701 70.67C131.388 70.59 131.061 70.55 130.721 70.55C129.868 70.55 129.201 70.8067 128.721 71.32C128.248 71.8333 128.011 72.5367 128.011 73.43C128.011 73.9967 128.101 74.5 128.281 74.94C128.468 75.3733 128.758 75.7133 129.151 75.96C129.545 76.2 130.061 76.32 130.701 76.32C131.015 76.32 131.281 76.3033 131.501 76.27C131.721 76.2367 131.921 76.1967 132.101 76.15V74.03H130.531V73.23ZM135.167 77H134.287V69.4H135.167V77ZM141.225 74.31C141.225 75.1967 140.998 75.8833 140.545 76.37C140.098 76.8567 139.492 77.1 138.725 77.1C138.252 77.1 137.828 76.9933 137.455 76.78C137.088 76.56 136.798 76.2433 136.585 75.83C136.372 75.41 136.265 74.9033 136.265 74.31C136.265 73.4233 136.488 72.74 136.935 72.26C137.382 71.78 137.988 71.54 138.755 71.54C139.242 71.54 139.668 71.65 140.035 71.87C140.408 72.0833 140.698 72.3967 140.905 72.81C141.118 73.2167 141.225 73.7167 141.225 74.31ZM137.175 74.31C137.175 74.9433 137.298 75.4467 137.545 75.82C137.798 76.1867 138.198 76.37 138.745 76.37C139.285 76.37 139.682 76.1867 139.935 75.82C140.188 75.4467 140.315 74.9433 140.315 74.31C140.315 73.6767 140.188 73.18 139.935 72.82C139.682 72.46 139.282 72.28 138.735 72.28C138.188 72.28 137.792 72.46 137.545 72.82C137.298 73.18 137.175 73.6767 137.175 74.31ZM143.2 71.25C143.2 71.4767 143.193 71.69 143.18 71.89C143.173 72.0833 143.163 72.2367 143.15 72.35H143.2C143.353 72.1233 143.563 71.9333 143.83 71.78C144.096 71.6267 144.44 71.55 144.86 71.55C145.526 71.55 146.06 71.7833 146.46 72.25C146.866 72.71 147.07 73.4 147.07 74.32C147.07 75.24 146.866 75.9333 146.46 76.4C146.053 76.8667 145.52 77.1 144.86 77.1C144.44 77.1 144.096 77.0233 143.83 76.87C143.563 76.7167 143.353 76.5333 143.2 76.32H143.13L142.95 77H142.32V69.4H143.2V71.25ZM144.71 72.28C144.143 72.28 143.75 72.4433 143.53 72.77C143.31 73.0967 143.2 73.6033 143.2 74.29V74.33C143.2 74.99 143.306 75.4967 143.52 75.85C143.74 76.1967 144.143 76.37 144.73 76.37C145.21 76.37 145.566 76.1933 145.8 75.84C146.04 75.4867 146.16 74.9767 146.16 74.31C146.16 72.9567 145.676 72.28 144.71 72.28ZM150.202 71.55C150.855 71.55 151.339 71.6933 151.652 71.98C151.965 72.2667 152.122 72.7233 152.122 73.35V77H151.482L151.312 76.24H151.272C151.039 76.5333 150.792 76.75 150.532 76.89C150.279 77.03 149.925 77.1 149.472 77.1C148.985 77.1 148.582 76.9733 148.262 76.72C147.942 76.46 147.782 76.0567 147.782 75.51C147.782 74.9767 147.992 74.5667 148.412 74.28C148.832 73.9867 149.479 73.8267 150.352 73.8L151.262 73.77V73.45C151.262 73.0033 151.165 72.6933 150.972 72.52C150.779 72.3467 150.505 72.26 150.152 72.26C149.872 72.26 149.605 72.3033 149.352 72.39C149.099 72.47 148.862 72.5633 148.642 72.67L148.372 72.01C148.605 71.8833 148.882 71.7767 149.202 71.69C149.522 71.5967 149.855 71.55 150.202 71.55ZM150.462 74.41C149.795 74.4367 149.332 74.5433 149.072 74.73C148.819 74.9167 148.692 75.18 148.692 75.52C148.692 75.82 148.782 76.04 148.962 76.18C149.149 76.32 149.385 76.39 149.672 76.39C150.125 76.39 150.502 76.2667 150.802 76.02C151.102 75.7667 151.252 75.38 151.252 74.86V74.38L150.462 74.41ZM154.357 77H153.477V69.4H154.357V77ZM125.543 82.86C126.429 82.86 127.083 83.03 127.503 83.37C127.929 83.7033 128.143 84.21 128.143 84.89C128.143 85.27 128.073 85.5867 127.933 85.84C127.793 86.0933 127.613 86.2967 127.393 86.45C127.179 86.5967 126.953 86.7133 126.713 86.8L128.673 90H127.623L125.893 87.05H124.473V90H123.573V82.86H125.543ZM125.493 83.64H124.473V86.29H125.543C126.123 86.29 126.546 86.1767 126.813 85.95C127.079 85.7167 127.213 85.3767 127.213 84.93C127.213 84.4633 127.073 84.1333 126.793 83.94C126.513 83.74 126.079 83.64 125.493 83.64ZM131.403 84.55C132.057 84.55 132.54 84.6933 132.853 84.98C133.167 85.2667 133.323 85.7233 133.323 86.35V90H132.683L132.513 89.24H132.473C132.24 89.5333 131.993 89.75 131.733 89.89C131.48 90.03 131.127 90.1 130.673 90.1C130.187 90.1 129.783 89.9733 129.463 89.72C129.143 89.46 128.983 89.0567 128.983 88.51C128.983 87.9767 129.193 87.5667 129.613 87.28C130.033 86.9867 130.68 86.8267 131.553 86.8L132.463 86.77V86.45C132.463 86.0033 132.367 85.6933 132.173 85.52C131.98 85.3467 131.707 85.26 131.353 85.26C131.073 85.26 130.807 85.3033 130.553 85.39C130.3 85.47 130.063 85.5633 129.843 85.67L129.573 85.01C129.807 84.8833 130.083 84.7767 130.403 84.69C130.723 84.5967 131.057 84.55 131.403 84.55ZM131.663 87.41C130.997 87.4367 130.533 87.5433 130.273 87.73C130.02 87.9167 129.893 88.18 129.893 88.52C129.893 88.82 129.983 89.04 130.163 89.18C130.35 89.32 130.587 89.39 130.873 89.39C131.327 89.39 131.703 89.2667 132.003 89.02C132.303 88.7667 132.453 88.38 132.453 87.86V87.38L131.663 87.41ZM137.259 84.54C137.899 84.54 138.382 84.6967 138.709 85.01C139.035 85.3167 139.199 85.8167 139.199 86.51V90H138.329V86.57C138.329 85.71 137.929 85.28 137.129 85.28C136.535 85.28 136.125 85.4467 135.899 85.78C135.672 86.1133 135.559 86.5933 135.559 87.22V90H134.679V84.64H135.389L135.519 85.37H135.569C135.742 85.09 135.982 84.8833 136.289 84.75C136.595 84.61 136.919 84.54 137.259 84.54ZM141.43 86.37C141.43 86.4767 141.424 86.6167 141.41 86.79C141.404 86.9633 141.397 87.1133 141.39 87.24H141.43C141.47 87.1867 141.53 87.11 141.61 87.01C141.69 86.91 141.77 86.81 141.85 86.71C141.937 86.6033 142.01 86.5167 142.07 86.45L143.78 84.64H144.81L142.64 86.93L144.96 90H143.9L142.04 87.5L141.43 88.03V90H140.56V82.4H141.43V86.37ZM146.052 82.63C146.186 82.63 146.302 82.6767 146.402 82.77C146.509 82.8567 146.562 82.9967 146.562 83.19C146.562 83.3767 146.509 83.5167 146.402 83.61C146.302 83.7033 146.186 83.75 146.052 83.75C145.906 83.75 145.782 83.7033 145.682 83.61C145.582 83.5167 145.532 83.3767 145.532 83.19C145.532 82.9967 145.582 82.8567 145.682 82.77C145.782 82.6767 145.906 82.63 146.052 82.63ZM146.482 84.64V90H145.602V84.64H146.482ZM150.46 84.54C151.1 84.54 151.584 84.6967 151.91 85.01C152.237 85.3167 152.4 85.8167 152.4 86.51V90H151.53V86.57C151.53 85.71 151.13 85.28 150.33 85.28C149.737 85.28 149.327 85.4467 149.1 85.78C148.874 86.1133 148.76 86.5933 148.76 87.22V90H147.88V84.64H148.59L148.72 85.37H148.77C148.944 85.09 149.184 84.8833 149.49 84.75C149.797 84.61 150.12 84.54 150.46 84.54ZM155.662 84.54C156.015 84.54 156.332 84.6067 156.612 84.74C156.899 84.8733 157.142 85.0767 157.342 85.35H157.392L157.512 84.64H158.212V90.09C158.212 90.8567 158.015 91.4333 157.622 91.82C157.235 92.2067 156.632 92.4 155.812 92.4C155.025 92.4 154.382 92.2867 153.882 92.06V91.25C154.409 91.53 155.069 91.67 155.862 91.67C156.322 91.67 156.682 91.5333 156.942 91.26C157.209 90.9933 157.342 90.6267 157.342 90.16V89.95C157.342 89.87 157.345 89.7567 157.352 89.61C157.359 89.4567 157.365 89.35 157.372 89.29H157.332C156.972 89.83 156.419 90.1 155.672 90.1C154.979 90.1 154.435 89.8567 154.042 89.37C153.655 88.8833 153.462 88.2033 153.462 87.33C153.462 86.4767 153.655 85.8 154.042 85.3C154.435 84.7933 154.975 84.54 155.662 84.54ZM155.782 85.28C155.335 85.28 154.989 85.46 154.742 85.82C154.495 86.1733 154.372 86.68 154.372 87.34C154.372 88 154.492 88.5067 154.732 88.86C154.979 89.2067 155.335 89.38 155.802 89.38C156.342 89.38 156.735 89.2367 156.982 88.95C157.229 88.6567 157.352 88.1867 157.352 87.54V87.33C157.352 86.5967 157.225 86.0733 156.972 85.76C156.719 85.44 156.322 85.28 155.782 85.28Z" fill="#61696B"/>
<g filter="url(#filter2_dd)">
<path fill-rule="evenodd" clip-rule="evenodd" d="M133.333 283.336C135.174 283.336 136.667 281.844 136.667 280.003L136.666 213.336C136.666 211.495 135.174 210.003 133.333 210.003L116.666 210.003L116.666 200.005C116.666 198.818 115.23 198.223 114.39 199.063L103.45 210.003L73.3332 210.003C71.4922 210.003 69.9998 211.495 69.9998 213.336L69.9998 280.003C69.9998 281.844 71.4922 283.336 73.3332 283.336L133.333 283.336Z" fill="white"/>
</g>
<path d="M79.5062 249.86L76.9562 257H76.0562L73.5062 249.86H74.4462L76.0562 254.44C76.1628 254.733 76.2528 255.01 76.3262 255.27C76.3995 255.523 76.4595 255.767 76.5062 256C76.5528 255.767 76.6128 255.52 76.6862 255.26C76.7595 255 76.8495 254.72 76.9562 254.42L78.5562 249.86H79.5062ZM80.5022 249.63C80.6356 249.63 80.7522 249.677 80.8522 249.77C80.9589 249.857 81.0122 249.997 81.0122 250.19C81.0122 250.377 80.9589 250.517 80.8522 250.61C80.7522 250.703 80.6356 250.75 80.5022 250.75C80.3556 250.75 80.2322 250.703 80.1322 250.61C80.0322 250.517 79.9822 250.377 79.9822 250.19C79.9822 249.997 80.0322 249.857 80.1322 249.77C80.2322 249.677 80.3556 249.63 80.5022 249.63ZM80.9322 251.64V257H80.0522V251.64H80.9322ZM85.8204 255.52C85.8204 256.04 85.627 256.433 85.2404 256.7C84.8537 256.967 84.3337 257.1 83.6804 257.1C83.307 257.1 82.9837 257.07 82.7104 257.01C82.4437 256.95 82.207 256.867 82.0004 256.76V255.96C82.2137 256.067 82.4704 256.167 82.7704 256.26C83.077 256.347 83.387 256.39 83.7004 256.39C84.147 256.39 84.4704 256.32 84.6704 256.18C84.8704 256.033 84.9704 255.84 84.9704 255.6C84.9704 255.467 84.9337 255.347 84.8604 255.24C84.787 255.133 84.6537 255.027 84.4604 254.92C84.2737 254.813 84.0037 254.693 83.6504 254.56C83.3037 254.427 83.007 254.293 82.7604 254.16C82.5137 254.027 82.3237 253.867 82.1904 253.68C82.057 253.493 81.9904 253.253 81.9904 252.96C81.9904 252.507 82.1737 252.157 82.5404 251.91C82.9137 251.663 83.4004 251.54 84.0004 251.54C84.327 251.54 84.6304 251.573 84.9104 251.64C85.197 251.7 85.4637 251.787 85.7104 251.9L85.4104 252.6C85.1837 252.507 84.947 252.427 84.7004 252.36C84.4537 252.293 84.2004 252.26 83.9404 252.26C83.5804 252.26 83.3037 252.32 83.1104 252.44C82.9237 252.553 82.8304 252.71 82.8304 252.91C82.8304 253.057 82.8737 253.183 82.9604 253.29C83.047 253.39 83.1904 253.49 83.3904 253.59C83.597 253.683 83.8704 253.797 84.2104 253.93C84.5504 254.057 84.8404 254.187 85.0804 254.32C85.3204 254.453 85.5037 254.617 85.6304 254.81C85.757 254.997 85.8204 255.233 85.8204 255.52ZM91.2955 251.64V257H90.5755L90.4455 256.29H90.4055C90.2322 256.57 89.9922 256.777 89.6855 256.91C89.3789 257.037 89.0522 257.1 88.7055 257.1C88.0589 257.1 87.5722 256.947 87.2455 256.64C86.9189 256.327 86.7555 255.83 86.7555 255.15V251.64H87.6455V255.09C87.6455 255.943 88.0422 256.37 88.8355 256.37C89.4289 256.37 89.8389 256.203 90.0655 255.87C90.2989 255.537 90.4155 255.057 90.4155 254.43V251.64H91.2955ZM94.7272 251.55C95.3805 251.55 95.8638 251.693 96.1772 251.98C96.4905 252.267 96.6472 252.723 96.6472 253.35V257H96.0072L95.8372 256.24H95.7972C95.5638 256.533 95.3172 256.75 95.0572 256.89C94.8038 257.03 94.4505 257.1 93.9972 257.1C93.5105 257.1 93.1072 256.973 92.7872 256.72C92.4672 256.46 92.3072 256.057 92.3072 255.51C92.3072 254.977 92.5172 254.567 92.9372 254.28C93.3572 253.987 94.0038 253.827 94.8772 253.8L95.7872 253.77V253.45C95.7872 253.003 95.6905 252.693 95.4972 252.52C95.3038 252.347 95.0305 252.26 94.6772 252.26C94.3972 252.26 94.1305 252.303 93.8772 252.39C93.6238 252.47 93.3872 252.563 93.1672 252.67L92.8972 252.01C93.1305 251.883 93.4072 251.777 93.7272 251.69C94.0472 251.597 94.3805 251.55 94.7272 251.55ZM94.9872 254.41C94.3205 254.437 93.8572 254.543 93.5972 254.73C93.3438 254.917 93.2172 255.18 93.2172 255.52C93.2172 255.82 93.3072 256.04 93.4872 256.18C93.6738 256.32 93.9105 256.39 94.1972 256.39C94.6505 256.39 95.0272 256.267 95.3272 256.02C95.6272 255.767 95.7772 255.38 95.7772 254.86V254.38L94.9872 254.41ZM98.8826 257H98.0026V249.4H98.8826V257ZM105.758 250.55C104.992 250.55 104.388 250.807 103.948 251.32C103.508 251.833 103.288 252.537 103.288 253.43C103.288 254.317 103.492 255.02 103.898 255.54C104.312 256.053 104.928 256.31 105.748 256.31C106.062 256.31 106.358 256.283 106.638 256.23C106.918 256.177 107.192 256.11 107.458 256.03V256.81C107.192 256.91 106.915 256.983 106.628 257.03C106.348 257.077 106.012 257.1 105.618 257.1C104.892 257.1 104.285 256.95 103.798 256.65C103.312 256.35 102.945 255.923 102.698 255.37C102.458 254.817 102.338 254.167 102.338 253.42C102.338 252.7 102.468 252.067 102.728 251.52C102.995 250.967 103.385 250.537 103.898 250.23C104.412 249.917 105.035 249.76 105.768 249.76C106.522 249.76 107.178 249.9 107.738 250.18L107.378 250.94C107.158 250.84 106.912 250.75 106.638 250.67C106.372 250.59 106.078 250.55 105.758 250.55ZM109.477 251.63C109.477 251.897 109.46 252.147 109.427 252.38H109.487C109.66 252.107 109.893 251.9 110.187 251.76C110.487 251.62 110.81 251.55 111.157 251.55C111.81 251.55 112.3 251.707 112.627 252.02C112.953 252.327 113.117 252.823 113.117 253.51V257H112.247V253.57C112.247 252.71 111.847 252.28 111.047 252.28C110.447 252.28 110.033 252.45 109.807 252.79C109.587 253.123 109.477 253.603 109.477 254.23V257H108.597V249.4H109.477V251.63ZM116.508 251.55C117.162 251.55 117.645 251.693 117.958 251.98C118.272 252.267 118.428 252.723 118.428 253.35V257H117.788L117.618 256.24H117.578C117.345 256.533 117.098 256.75 116.838 256.89C116.585 257.03 116.232 257.1 115.778 257.1C115.292 257.1 114.888 256.973 114.568 256.72C114.248 256.46 114.088 256.057 114.088 255.51C114.088 254.977 114.298 254.567 114.718 254.28C115.138 253.987 115.785 253.827 116.658 253.8L117.568 253.77V253.45C117.568 253.003 117.472 252.693 117.278 252.52C117.085 252.347 116.812 252.26 116.458 252.26C116.178 252.26 115.912 252.303 115.658 252.39C115.405 252.47 115.168 252.563 114.948 252.67L114.678 252.01C114.912 251.883 115.188 251.777 115.508 251.69C115.828 251.597 116.162 251.55 116.508 251.55ZM116.768 254.41C116.102 254.437 115.638 254.543 115.378 254.73C115.125 254.917 114.998 255.18 114.998 255.52C114.998 255.82 115.088 256.04 115.268 256.18C115.455 256.32 115.692 256.39 115.978 256.39C116.432 256.39 116.808 256.267 117.108 256.02C117.408 255.767 117.558 255.38 117.558 254.86V254.38L116.768 254.41ZM122.284 251.54C122.384 251.54 122.491 251.547 122.604 251.56C122.724 251.567 122.827 251.58 122.914 251.6L122.804 252.41C122.717 252.39 122.621 252.373 122.514 252.36C122.414 252.347 122.317 252.34 122.224 252.34C121.951 252.34 121.694 252.417 121.454 252.57C121.214 252.717 121.021 252.927 120.874 253.2C120.734 253.467 120.664 253.78 120.664 254.14V257H119.784V251.64H120.504L120.604 252.62H120.644C120.817 252.327 121.041 252.073 121.314 251.86C121.587 251.647 121.911 251.54 122.284 251.54ZM125.405 256.38C125.538 256.38 125.675 256.37 125.815 256.35C125.955 256.323 126.068 256.297 126.155 256.27V256.94C126.061 256.987 125.928 257.023 125.755 257.05C125.581 257.083 125.415 257.1 125.255 257.1C124.975 257.1 124.715 257.053 124.475 256.96C124.241 256.86 124.051 256.69 123.905 256.45C123.758 256.21 123.685 255.873 123.685 255.44V252.32H122.925V251.9L123.695 251.55L124.045 250.41H124.565V251.64H126.115V252.32H124.565V255.42C124.565 255.747 124.641 255.99 124.795 256.15C124.955 256.303 125.158 256.38 125.405 256.38ZM130.418 255.52C130.418 256.04 130.225 256.433 129.838 256.7C129.451 256.967 128.931 257.1 128.278 257.1C127.905 257.1 127.581 257.07 127.308 257.01C127.041 256.95 126.805 256.867 126.598 256.76V255.96C126.811 256.067 127.068 256.167 127.368 256.26C127.675 256.347 127.985 256.39 128.298 256.39C128.745 256.39 129.068 256.32 129.268 256.18C129.468 256.033 129.568 255.84 129.568 255.6C129.568 255.467 129.531 255.347 129.458 255.24C129.385 255.133 129.251 255.027 129.058 254.92C128.871 254.813 128.601 254.693 128.248 254.56C127.901 254.427 127.605 254.293 127.358 254.16C127.111 254.027 126.921 253.867 126.788 253.68C126.655 253.493 126.588 253.253 126.588 252.96C126.588 252.507 126.771 252.157 127.138 251.91C127.511 251.663 127.998 251.54 128.598 251.54C128.925 251.54 129.228 251.573 129.508 251.64C129.795 251.7 130.061 251.787 130.308 251.9L130.008 252.6C129.781 252.507 129.545 252.427 129.298 252.36C129.051 252.293 128.798 252.26 128.538 252.26C128.178 252.26 127.901 252.32 127.708 252.44C127.521 252.553 127.428 252.71 127.428 252.91C127.428 253.057 127.471 253.183 127.558 253.29C127.645 253.39 127.788 253.49 127.988 253.59C128.195 253.683 128.468 253.797 128.808 253.93C129.148 254.057 129.438 254.187 129.678 254.32C129.918 254.453 130.101 254.617 130.228 254.81C130.355 254.997 130.418 255.233 130.418 255.52ZM85.4948 262.75C86.0281 262.75 86.4481 262.887 86.7548 263.16C87.0681 263.427 87.2248 263.803 87.2248 264.29C87.2248 264.71 87.0881 265.067 86.8148 265.36C86.5481 265.653 86.2081 265.92 85.7948 266.16L87.7248 268.02C87.8981 267.813 88.0381 267.577 88.1448 267.31C88.2581 267.037 88.3515 266.743 88.4248 266.43H89.3148C89.2081 266.857 89.0748 267.253 88.9148 267.62C88.7548 267.987 88.5481 268.307 88.2948 268.58L89.7548 270H88.5648L87.6948 269.16C87.3815 269.44 87.0315 269.667 86.6448 269.84C86.2581 270.013 85.7881 270.1 85.2348 270.1C84.5481 270.1 84.0015 269.93 83.5948 269.59C83.1881 269.25 82.9848 268.767 82.9848 268.14C82.9848 267.627 83.1215 267.217 83.3948 266.91C83.6748 266.597 84.0515 266.307 84.5248 266.04C84.3115 265.8 84.1115 265.543 83.9248 265.27C83.7448 264.997 83.6548 264.677 83.6548 264.31C83.6548 263.817 83.8181 263.433 84.1448 263.16C84.4781 262.887 84.9281 262.75 85.4948 262.75ZM85.4648 263.47C85.1848 263.47 84.9548 263.543 84.7748 263.69C84.6015 263.837 84.5148 264.04 84.5148 264.3C84.5148 264.54 84.5781 264.763 84.7048 264.97C84.8315 265.17 85.0148 265.393 85.2548 265.64C85.6481 265.413 85.9281 265.2 86.0948 265C86.2681 264.793 86.3548 264.557 86.3548 264.29C86.3548 264.05 86.2748 263.853 86.1148 263.7C85.9548 263.547 85.7381 263.47 85.4648 263.47ZM85.0548 266.59C84.6948 266.803 84.4115 267.02 84.2048 267.24C84.0048 267.46 83.9048 267.75 83.9048 268.11C83.9048 268.477 84.0281 268.77 84.2748 268.99C84.5215 269.21 84.8515 269.32 85.2648 269.32C85.6915 269.32 86.0581 269.25 86.3648 269.11C86.6715 268.97 86.9281 268.803 87.1348 268.61L85.0548 266.59ZM95.8467 266.23H98.3167V269.73C97.93 269.857 97.54 269.95 97.1467 270.01C96.7533 270.07 96.3067 270.1 95.8067 270.1C95.0667 270.1 94.4433 269.953 93.9367 269.66C93.43 269.36 93.0433 268.937 92.7767 268.39C92.5167 267.837 92.3867 267.183 92.3867 266.43C92.3867 265.683 92.5333 265.037 92.8267 264.49C93.12 263.943 93.54 263.52 94.0867 263.22C94.64 262.913 95.3067 262.76 96.0867 262.76C96.4867 262.76 96.8633 262.797 97.2167 262.87C97.5767 262.943 97.91 263.047 98.2167 263.18L97.8767 263.96C97.6233 263.847 97.3367 263.75 97.0167 263.67C96.7033 263.59 96.3767 263.55 96.0367 263.55C95.1833 263.55 94.5167 263.807 94.0367 264.32C93.5633 264.833 93.3267 265.537 93.3267 266.43C93.3267 266.997 93.4167 267.5 93.5967 267.94C93.7833 268.373 94.0733 268.713 94.4667 268.96C94.86 269.2 95.3767 269.32 96.0167 269.32C96.33 269.32 96.5967 269.303 96.8167 269.27C97.0367 269.237 97.2367 269.197 97.4167 269.15V267.03H95.8467V266.23ZM102.102 264.54C102.202 264.54 102.309 264.547 102.422 264.56C102.542 264.567 102.645 264.58 102.732 264.6L102.622 265.41C102.535 265.39 102.439 265.373 102.332 265.36C102.232 265.347 102.135 265.34 102.042 265.34C101.769 265.34 101.512 265.417 101.272 265.57C101.032 265.717 100.839 265.927 100.692 266.2C100.552 266.467 100.482 266.78 100.482 267.14V270H99.6021V264.64H100.322L100.422 265.62H100.462C100.635 265.327 100.859 265.073 101.132 264.86C101.405 264.647 101.729 264.54 102.102 264.54ZM105.268 264.55C105.921 264.55 106.404 264.693 106.718 264.98C107.031 265.267 107.188 265.723 107.188 266.35V270H106.548L106.378 269.24H106.338C106.104 269.533 105.858 269.75 105.598 269.89C105.344 270.03 104.991 270.1 104.538 270.1C104.051 270.1 103.648 269.973 103.328 269.72C103.008 269.46 102.848 269.057 102.848 268.51C102.848 267.977 103.058 267.567 103.478 267.28C103.898 266.987 104.544 266.827 105.418 266.8L106.328 266.77V266.45C106.328 266.003 106.231 265.693 106.038 265.52C105.844 265.347 105.571 265.26 105.218 265.26C104.938 265.26 104.671 265.303 104.418 265.39C104.164 265.47 103.928 265.563 103.708 265.67L103.438 265.01C103.671 264.883 103.948 264.777 104.268 264.69C104.588 264.597 104.921 264.55 105.268 264.55ZM105.528 267.41C104.861 267.437 104.398 267.543 104.138 267.73C103.884 267.917 103.758 268.18 103.758 268.52C103.758 268.82 103.848 269.04 104.028 269.18C104.214 269.32 104.451 269.39 104.738 269.39C105.191 269.39 105.568 269.267 105.868 269.02C106.168 268.767 106.318 268.38 106.318 267.86V267.38L105.528 267.41ZM111.093 264.54C111.753 264.54 112.283 264.77 112.683 265.23C113.09 265.69 113.293 266.383 113.293 267.31C113.293 268.223 113.09 268.917 112.683 269.39C112.283 269.863 111.75 270.1 111.083 270.1C110.67 270.1 110.326 270.023 110.053 269.87C109.786 269.71 109.576 269.527 109.423 269.32H109.363C109.376 269.433 109.39 269.577 109.403 269.75C109.416 269.923 109.423 270.073 109.423 270.2V272.4H108.543V264.64H109.263L109.383 265.37H109.423C109.583 265.137 109.793 264.94 110.053 264.78C110.313 264.62 110.66 264.54 111.093 264.54ZM110.933 265.28C110.386 265.28 110 265.433 109.773 265.74C109.553 266.047 109.436 266.513 109.423 267.14V267.31C109.423 267.97 109.53 268.48 109.743 268.84C109.963 269.193 110.366 269.37 110.953 269.37C111.28 269.37 111.546 269.28 111.753 269.1C111.966 268.92 112.123 268.677 112.223 268.37C112.33 268.057 112.383 267.7 112.383 267.3C112.383 266.687 112.263 266.197 112.023 265.83C111.79 265.463 111.426 265.28 110.933 265.28ZM115.275 264.63C115.275 264.897 115.259 265.147 115.225 265.38H115.285C115.459 265.107 115.692 264.9 115.985 264.76C116.285 264.62 116.609 264.55 116.955 264.55C117.609 264.55 118.099 264.707 118.425 265.02C118.752 265.327 118.915 265.823 118.915 266.51V270H118.045V266.57C118.045 265.71 117.645 265.28 116.845 265.28C116.245 265.28 115.832 265.45 115.605 265.79C115.385 266.123 115.275 266.603 115.275 267.23V270H114.395V262.4H115.275V264.63ZM123.767 268.52C123.767 269.04 123.574 269.433 123.187 269.7C122.8 269.967 122.28 270.1 121.627 270.1C121.254 270.1 120.93 270.07 120.657 270.01C120.39 269.95 120.154 269.867 119.947 269.76V268.96C120.16 269.067 120.417 269.167 120.717 269.26C121.024 269.347 121.334 269.39 121.647 269.39C122.094 269.39 122.417 269.32 122.617 269.18C122.817 269.033 122.917 268.84 122.917 268.6C122.917 268.467 122.88 268.347 122.807 268.24C122.734 268.133 122.6 268.027 122.407 267.92C122.22 267.813 121.95 267.693 121.597 267.56C121.25 267.427 120.954 267.293 120.707 267.16C120.46 267.027 120.27 266.867 120.137 266.68C120.004 266.493 119.937 266.253 119.937 265.96C119.937 265.507 120.12 265.157 120.487 264.91C120.86 264.663 121.347 264.54 121.947 264.54C122.274 264.54 122.577 264.573 122.857 264.64C123.144 264.7 123.41 264.787 123.657 264.9L123.357 265.6C123.13 265.507 122.894 265.427 122.647 265.36C122.4 265.293 122.147 265.26 121.887 265.26C121.527 265.26 121.25 265.32 121.057 265.44C120.87 265.553 120.777 265.71 120.777 265.91C120.777 266.057 120.82 266.183 120.907 266.29C120.994 266.39 121.137 266.49 121.337 266.59C121.544 266.683 121.817 266.797 122.157 266.93C122.497 267.057 122.787 267.187 123.027 267.32C123.267 267.453 123.45 267.617 123.577 267.81C123.704 267.997 123.767 268.233 123.767 268.52Z" fill="#61696B"/>
<g filter="url(#filter3_dd)">
<path fill-rule="evenodd" clip-rule="evenodd" d="M206.667 283.336C208.508 283.336 210 281.844 210 280.003L210 213.336C210 211.495 208.508 210.003 206.667 210.003L176.549 210.003L165.609 199.063C164.77 198.223 163.333 198.818 163.333 200.005L163.333 210.003L146.667 210.003C144.826 210.003 143.333 211.495 143.333 213.336L143.333 280.003C143.333 281.844 144.826 283.336 146.667 283.336L206.667 283.336Z" fill="white"/>
</g>
<g clip-path="url(#clip1)">
<path fill-rule="evenodd" clip-rule="evenodd" d="M186.667 233.331C186.667 238.117 182.189 241.997 176.667 241.997C174.831 241.997 173.112 241.569 171.633 240.821L168.569 242.135C168.062 242.352 167.525 241.895 167.659 241.36L168.436 238.254C167.32 236.856 166.667 235.159 166.667 233.331C166.667 228.544 171.144 224.664 176.667 224.664C182.189 224.664 186.667 228.544 186.667 233.331ZM172.333 234.665C173.254 234.665 174 233.919 174 232.999C174 232.078 173.254 231.332 172.333 231.332C171.413 231.332 170.667 232.078 170.667 232.999C170.667 233.919 171.413 234.665 172.333 234.665ZM178.667 232.999C178.667 233.919 177.92 234.665 177 234.665C176.079 234.665 175.333 233.919 175.333 232.999C175.333 232.078 176.079 231.332 177 231.332C177.92 231.332 178.667 232.078 178.667 232.999ZM181.667 234.665C182.587 234.665 183.333 233.919 183.333 232.999C183.333 232.078 182.587 231.332 181.667 231.332C180.746 231.332 180 232.078 180 232.999C180 233.919 180.746 234.665 181.667 234.665Z" fill="#EC4899"/>
</g>
<path d="M149.974 249.86C150.907 249.86 151.587 250.043 152.014 250.41C152.441 250.777 152.654 251.293 152.654 251.96C152.654 252.353 152.564 252.723 152.384 253.07C152.211 253.41 151.914 253.687 151.494 253.9C151.081 254.113 150.517 254.22 149.804 254.22H148.984V257H148.084V249.86H149.974ZM149.894 250.63H148.984V253.45H149.704C150.384 253.45 150.891 253.34 151.224 253.12C151.557 252.9 151.724 252.527 151.724 252C151.724 251.54 151.577 251.197 151.284 250.97C150.991 250.743 150.527 250.63 149.894 250.63ZM155.789 251.54C156.249 251.54 156.642 251.64 156.969 251.84C157.302 252.04 157.555 252.323 157.729 252.69C157.909 253.05 157.999 253.473 157.999 253.96V254.49H154.329C154.342 255.097 154.495 255.56 154.789 255.88C155.089 256.193 155.505 256.35 156.039 256.35C156.379 256.35 156.679 256.32 156.939 256.26C157.205 256.193 157.479 256.1 157.759 255.98V256.75C157.485 256.87 157.215 256.957 156.949 257.01C156.682 257.07 156.365 257.1 155.999 257.1C155.492 257.1 155.042 256.997 154.649 256.79C154.262 256.583 153.959 256.277 153.739 255.87C153.525 255.457 153.419 254.953 153.419 254.36C153.419 253.773 153.515 253.27 153.709 252.85C153.909 252.43 154.185 252.107 154.539 251.88C154.899 251.653 155.315 251.54 155.789 251.54ZM155.779 252.26C155.359 252.26 155.025 252.397 154.779 252.67C154.539 252.937 154.395 253.31 154.349 253.79H157.079C157.072 253.337 156.965 252.97 156.759 252.69C156.552 252.403 156.225 252.26 155.779 252.26ZM161.563 251.54C161.663 251.54 161.77 251.547 161.883 251.56C162.003 251.567 162.107 251.58 162.193 251.6L162.083 252.41C161.997 252.39 161.9 252.373 161.793 252.36C161.693 252.347 161.597 252.34 161.503 252.34C161.23 252.34 160.973 252.417 160.733 252.57C160.493 252.717 160.3 252.927 160.153 253.2C160.013 253.467 159.943 253.78 159.943 254.14V257H159.063V251.64H159.783L159.883 252.62H159.923C160.097 252.327 160.32 252.073 160.593 251.86C160.867 251.647 161.19 251.54 161.563 251.54ZM166.384 255.52C166.384 256.04 166.191 256.433 165.804 256.7C165.417 256.967 164.897 257.1 164.244 257.1C163.871 257.1 163.547 257.07 163.274 257.01C163.007 256.95 162.771 256.867 162.564 256.76V255.96C162.777 256.067 163.034 256.167 163.334 256.26C163.641 256.347 163.951 256.39 164.264 256.39C164.711 256.39 165.034 256.32 165.234 256.18C165.434 256.033 165.534 255.84 165.534 255.6C165.534 255.467 165.497 255.347 165.424 255.24C165.351 255.133 165.217 255.027 165.024 254.92C164.837 254.813 164.567 254.693 164.214 254.56C163.867 254.427 163.571 254.293 163.324 254.16C163.077 254.027 162.887 253.867 162.754 253.68C162.621 253.493 162.554 253.253 162.554 252.96C162.554 252.507 162.737 252.157 163.104 251.91C163.477 251.663 163.964 251.54 164.564 251.54C164.891 251.54 165.194 251.573 165.474 251.64C165.761 251.7 166.027 251.787 166.274 251.9L165.974 252.6C165.747 252.507 165.511 252.427 165.264 252.36C165.017 252.293 164.764 252.26 164.504 252.26C164.144 252.26 163.867 252.32 163.674 252.44C163.487 252.553 163.394 252.71 163.394 252.91C163.394 253.057 163.437 253.183 163.524 253.29C163.611 253.39 163.754 253.49 163.954 253.59C164.161 253.683 164.434 253.797 164.774 253.93C165.114 254.057 165.404 254.187 165.644 254.32C165.884 254.453 166.067 254.617 166.194 254.81C166.321 254.997 166.384 255.233 166.384 255.52ZM172.039 254.31C172.039 255.197 171.813 255.883 171.359 256.37C170.913 256.857 170.306 257.1 169.539 257.1C169.066 257.1 168.643 256.993 168.269 256.78C167.903 256.56 167.613 256.243 167.399 255.83C167.186 255.41 167.079 254.903 167.079 254.31C167.079 253.423 167.303 252.74 167.749 252.26C168.196 251.78 168.803 251.54 169.569 251.54C170.056 251.54 170.483 251.65 170.849 251.87C171.223 252.083 171.513 252.397 171.719 252.81C171.933 253.217 172.039 253.717 172.039 254.31ZM167.989 254.31C167.989 254.943 168.113 255.447 168.359 255.82C168.613 256.187 169.013 256.37 169.559 256.37C170.099 256.37 170.496 256.187 170.749 255.82C171.003 255.447 171.129 254.943 171.129 254.31C171.129 253.677 171.003 253.18 170.749 252.82C170.496 252.46 170.096 252.28 169.549 252.28C169.003 252.28 168.606 252.46 168.359 252.82C168.113 253.18 167.989 253.677 167.989 254.31ZM175.714 251.54C176.354 251.54 176.837 251.697 177.164 252.01C177.491 252.317 177.654 252.817 177.654 253.51V257H176.784V253.57C176.784 252.71 176.384 252.28 175.584 252.28C174.991 252.28 174.581 252.447 174.354 252.78C174.127 253.113 174.014 253.593 174.014 254.22V257H173.134V251.64H173.844L173.974 252.37H174.024C174.197 252.09 174.437 251.883 174.744 251.75C175.051 251.61 175.374 251.54 175.714 251.54ZM181.046 251.55C181.699 251.55 182.182 251.693 182.496 251.98C182.809 252.267 182.966 252.723 182.966 253.35V257H182.326L182.156 256.24H182.116C181.882 256.533 181.636 256.75 181.376 256.89C181.122 257.03 180.769 257.1 180.316 257.1C179.829 257.1 179.426 256.973 179.106 256.72C178.786 256.46 178.626 256.057 178.626 255.51C178.626 254.977 178.836 254.567 179.256 254.28C179.676 253.987 180.322 253.827 181.196 253.8L182.106 253.77V253.45C182.106 253.003 182.009 252.693 181.816 252.52C181.622 252.347 181.349 252.26 180.996 252.26C180.716 252.26 180.449 252.303 180.196 252.39C179.942 252.47 179.706 252.563 179.486 252.67L179.216 252.01C179.449 251.883 179.726 251.777 180.046 251.69C180.366 251.597 180.699 251.55 181.046 251.55ZM181.306 254.41C180.639 254.437 180.176 254.543 179.916 254.73C179.662 254.917 179.536 255.18 179.536 255.52C179.536 255.82 179.626 256.04 179.806 256.18C179.992 256.32 180.229 256.39 180.516 256.39C180.969 256.39 181.346 256.267 181.646 256.02C181.946 255.767 182.096 255.38 182.096 254.86V254.38L181.306 254.41ZM185.201 257H184.321V249.4H185.201V257ZM187.049 249.63C187.182 249.63 187.299 249.677 187.399 249.77C187.506 249.857 187.559 249.997 187.559 250.19C187.559 250.377 187.506 250.517 187.399 250.61C187.299 250.703 187.182 250.75 187.049 250.75C186.902 250.75 186.779 250.703 186.679 250.61C186.579 250.517 186.529 250.377 186.529 250.19C186.529 249.997 186.579 249.857 186.679 249.77C186.779 249.677 186.902 249.63 187.049 249.63ZM187.479 251.64V257H186.599V251.64H187.479ZM192.337 257H188.417V256.42L191.297 252.32H188.587V251.64H192.267V252.3L189.427 256.32H192.337V257ZM195.345 251.54C195.805 251.54 196.198 251.64 196.525 251.84C196.858 252.04 197.111 252.323 197.285 252.69C197.465 253.05 197.555 253.473 197.555 253.96V254.49H193.885C193.898 255.097 194.051 255.56 194.345 255.88C194.645 256.193 195.061 256.35 195.595 256.35C195.935 256.35 196.235 256.32 196.495 256.26C196.761 256.193 197.035 256.1 197.315 255.98V256.75C197.041 256.87 196.771 256.957 196.505 257.01C196.238 257.07 195.921 257.1 195.555 257.1C195.048 257.1 194.598 256.997 194.205 256.79C193.818 256.583 193.515 256.277 193.295 255.87C193.081 255.457 192.975 254.953 192.975 254.36C192.975 253.773 193.071 253.27 193.265 252.85C193.465 252.43 193.741 252.107 194.095 251.88C194.455 251.653 194.871 251.54 195.345 251.54ZM195.335 252.26C194.915 252.26 194.581 252.397 194.335 252.67C194.095 252.937 193.951 253.31 193.905 253.79H196.635C196.628 253.337 196.521 252.97 196.315 252.69C196.108 252.403 195.781 252.26 195.335 252.26ZM200.519 257.1C199.852 257.1 199.319 256.87 198.919 256.41C198.519 255.943 198.319 255.25 198.319 254.33C198.319 253.41 198.519 252.717 198.919 252.25C199.326 251.777 199.862 251.54 200.529 251.54C200.942 251.54 201.279 251.617 201.539 251.77C201.806 251.923 202.022 252.11 202.189 252.33H202.249C202.242 252.243 202.229 252.117 202.209 251.95C202.196 251.777 202.189 251.64 202.189 251.54V249.4H203.069V257H202.359L202.229 256.28H202.189C202.029 256.507 201.816 256.7 201.549 256.86C201.282 257.02 200.939 257.1 200.519 257.1ZM200.659 256.37C201.226 256.37 201.622 256.217 201.849 255.91C202.082 255.597 202.199 255.127 202.199 254.5V254.34C202.199 253.673 202.089 253.163 201.869 252.81C201.649 252.45 201.242 252.27 200.649 252.27C200.176 252.27 199.819 252.46 199.579 252.84C199.346 253.213 199.229 253.717 199.229 254.35C199.229 254.99 199.346 255.487 199.579 255.84C199.819 256.193 200.179 256.37 200.659 256.37ZM159.989 268.09C159.989 268.723 159.759 269.217 159.299 269.57C158.839 269.923 158.219 270.1 157.439 270.1C157.039 270.1 156.669 270.07 156.329 270.01C155.989 269.95 155.706 269.867 155.479 269.76V268.9C155.719 269.007 156.016 269.103 156.369 269.19C156.729 269.277 157.099 269.32 157.479 269.32C158.012 269.32 158.412 269.217 158.679 269.01C158.952 268.803 159.089 268.523 159.089 268.17C159.089 267.937 159.039 267.74 158.939 267.58C158.839 267.42 158.666 267.273 158.419 267.14C158.179 267 157.842 266.853 157.409 266.7C156.802 266.48 156.342 266.21 156.029 265.89C155.722 265.57 155.569 265.133 155.569 264.58C155.569 264.2 155.666 263.877 155.859 263.61C156.052 263.337 156.319 263.127 156.659 262.98C157.006 262.833 157.402 262.76 157.849 262.76C158.242 262.76 158.602 262.797 158.929 262.87C159.256 262.943 159.552 263.04 159.819 263.16L159.539 263.93C159.292 263.823 159.022 263.733 158.729 263.66C158.442 263.587 158.142 263.55 157.829 263.55C157.382 263.55 157.046 263.647 156.819 263.84C156.592 264.027 156.479 264.277 156.479 264.59C156.479 264.83 156.529 265.03 156.629 265.19C156.729 265.35 156.892 265.493 157.119 265.62C157.346 265.747 157.652 265.883 158.039 266.03C158.459 266.183 158.812 266.35 159.099 266.53C159.392 266.703 159.612 266.913 159.759 267.16C159.912 267.407 159.989 267.717 159.989 268.09ZM165.487 264.64V270H164.767L164.637 269.29H164.597C164.424 269.57 164.184 269.777 163.877 269.91C163.57 270.037 163.244 270.1 162.897 270.1C162.25 270.1 161.764 269.947 161.437 269.64C161.11 269.327 160.947 268.83 160.947 268.15V264.64H161.837V268.09C161.837 268.943 162.234 269.37 163.027 269.37C163.62 269.37 164.03 269.203 164.257 268.87C164.49 268.537 164.607 268.057 164.607 267.43V264.64H165.487ZM172.769 264.54C173.375 264.54 173.829 264.697 174.129 265.01C174.429 265.317 174.579 265.817 174.579 266.51V270H173.709V266.55C173.709 265.703 173.345 265.28 172.619 265.28C172.099 265.28 171.725 265.43 171.499 265.73C171.279 266.03 171.169 266.467 171.169 267.04V270H170.299V266.55C170.299 265.703 169.932 265.28 169.199 265.28C168.659 265.28 168.285 265.447 168.079 265.78C167.872 266.113 167.769 266.593 167.769 267.22V270H166.889V264.64H167.599L167.729 265.37H167.779C167.945 265.09 168.169 264.883 168.449 264.75C168.735 264.61 169.039 264.54 169.359 264.54C170.199 264.54 170.745 264.84 170.999 265.44H171.049C171.229 265.133 171.472 264.907 171.779 264.76C172.092 264.613 172.422 264.54 172.769 264.54ZM181.814 264.54C182.421 264.54 182.874 264.697 183.174 265.01C183.474 265.317 183.624 265.817 183.624 266.51V270H182.754V266.55C182.754 265.703 182.391 265.28 181.664 265.28C181.144 265.28 180.771 265.43 180.544 265.73C180.324 266.03 180.214 266.467 180.214 267.04V270H179.344V266.55C179.344 265.703 178.978 265.28 178.244 265.28C177.704 265.28 177.331 265.447 177.124 265.78C176.918 266.113 176.814 266.593 176.814 267.22V270H175.934V264.64H176.644L176.774 265.37H176.824C176.991 265.09 177.214 264.883 177.494 264.75C177.781 264.61 178.084 264.54 178.404 264.54C179.244 264.54 179.791 264.84 180.044 265.44H180.094C180.274 265.133 180.518 264.907 180.824 264.76C181.138 264.613 181.468 264.54 181.814 264.54ZM187.01 264.55C187.664 264.55 188.147 264.693 188.46 264.98C188.774 265.267 188.93 265.723 188.93 266.35V270H188.29L188.12 269.24H188.08C187.847 269.533 187.6 269.75 187.34 269.89C187.087 270.03 186.734 270.1 186.28 270.1C185.794 270.1 185.39 269.973 185.07 269.72C184.75 269.46 184.59 269.057 184.59 268.51C184.59 267.977 184.8 267.567 185.22 267.28C185.64 266.987 186.287 266.827 187.16 266.8L188.07 266.77V266.45C188.07 266.003 187.974 265.693 187.78 265.52C187.587 265.347 187.314 265.26 186.96 265.26C186.68 265.26 186.414 265.303 186.16 265.39C185.907 265.47 185.67 265.563 185.45 265.67L185.18 265.01C185.414 264.883 185.69 264.777 186.01 264.69C186.33 264.597 186.664 264.55 187.01 264.55ZM187.27 267.41C186.604 267.437 186.14 267.543 185.88 267.73C185.627 267.917 185.5 268.18 185.5 268.52C185.5 268.82 185.59 269.04 185.77 269.18C185.957 269.32 186.194 269.39 186.48 269.39C186.934 269.39 187.31 269.267 187.61 269.02C187.91 268.767 188.06 268.38 188.06 267.86V267.38L187.27 267.41ZM192.786 264.54C192.886 264.54 192.992 264.547 193.106 264.56C193.226 264.567 193.329 264.58 193.416 264.6L193.306 265.41C193.219 265.39 193.122 265.373 193.016 265.36C192.916 265.347 192.819 265.34 192.726 265.34C192.452 265.34 192.196 265.417 191.956 265.57C191.716 265.717 191.522 265.927 191.376 266.2C191.236 266.467 191.166 266.78 191.166 267.14V270H190.286V264.64H191.006L191.106 265.62H191.146C191.319 265.327 191.542 265.073 191.816 264.86C192.089 264.647 192.412 264.54 192.786 264.54ZM193.277 264.64H194.217L195.377 267.69C195.477 267.957 195.567 268.213 195.647 268.46C195.727 268.7 195.787 268.93 195.827 269.15H195.867C195.907 268.983 195.97 268.767 196.057 268.5C196.143 268.227 196.233 267.953 196.327 267.68L197.417 264.64H198.367L196.057 270.74C195.87 271.247 195.627 271.65 195.327 271.95C195.033 272.25 194.627 272.4 194.107 272.4C193.947 272.4 193.807 272.39 193.687 272.37C193.567 272.357 193.463 272.34 193.377 272.32V271.62C193.45 271.633 193.537 271.647 193.637 271.66C193.743 271.673 193.853 271.68 193.967 271.68C194.273 271.68 194.52 271.593 194.707 271.42C194.9 271.247 195.05 271.017 195.157 270.73L195.437 270.02L193.277 264.64Z" fill="#61696B"/>
<g filter="url(#filter4_dd)">
<path fill-rule="evenodd" clip-rule="evenodd" d="M186.667 56.6641C184.826 56.6641 183.333 58.1565 183.333 59.9974V126.664C183.333 128.505 184.826 129.997 186.667 129.997H210V140.112C210 141.3 211.436 141.895 212.276 141.055L223.333 129.997H246.667C248.508 129.997 250 128.505 250 126.664V59.9974C250 58.1564 248.508 56.6641 246.667 56.6641H186.667Z" fill="white"/>
</g>
<path d="M190.296 96.528C191.183 96.528 191.836 96.698 192.256 97.038C192.683 97.3713 192.896 97.878 192.896 98.558C192.896 98.938 192.826 99.2546 192.686 99.508C192.546 99.7613 192.366 99.9646 192.146 100.118C191.933 100.265 191.706 100.381 191.466 100.468L193.426 103.668H192.376L190.646 100.718H189.226V103.668H188.326V96.528H190.296ZM190.246 97.308H189.226V99.958H190.296C190.876 99.958 191.299 99.8446 191.566 99.618C191.833 99.3846 191.966 99.0446 191.966 98.598C191.966 98.1313 191.826 97.8013 191.546 97.608C191.266 97.408 190.833 97.308 190.246 97.308ZM194.577 96.298C194.71 96.298 194.827 96.3446 194.927 96.438C195.033 96.5246 195.087 96.6646 195.087 96.858C195.087 97.0446 195.033 97.1846 194.927 97.278C194.827 97.3713 194.71 97.418 194.577 97.418C194.43 97.418 194.307 97.3713 194.207 97.278C194.107 97.1846 194.057 97.0446 194.057 96.858C194.057 96.6646 194.107 96.5246 194.207 96.438C194.307 96.3446 194.43 96.298 194.577 96.298ZM195.007 98.308V103.668H194.127V98.308H195.007ZM198.305 98.208C198.658 98.208 198.975 98.2746 199.255 98.408C199.542 98.5413 199.785 98.7446 199.985 99.018H200.035L200.155 98.308H200.855V103.758C200.855 104.525 200.658 105.101 200.265 105.488C199.878 105.875 199.275 106.068 198.455 106.068C197.668 106.068 197.025 105.955 196.525 105.728V104.918C197.052 105.198 197.712 105.338 198.505 105.338C198.965 105.338 199.325 105.201 199.585 104.928C199.852 104.661 199.985 104.295 199.985 103.828V103.618C199.985 103.538 199.988 103.425 199.995 103.278C200.002 103.125 200.008 103.018 200.015 102.958H199.975C199.615 103.498 199.062 103.768 198.315 103.768C197.622 103.768 197.078 103.525 196.685 103.038C196.298 102.551 196.105 101.871 196.105 100.998C196.105 100.145 196.298 99.468 196.685 98.968C197.078 98.4613 197.618 98.208 198.305 98.208ZM198.425 98.948C197.978 98.948 197.632 99.128 197.385 99.488C197.138 99.8413 197.015 100.348 197.015 101.008C197.015 101.668 197.135 102.175 197.375 102.528C197.622 102.875 197.978 103.048 198.445 103.048C198.985 103.048 199.378 102.905 199.625 102.618C199.872 102.325 199.995 101.855 199.995 101.208V100.998C199.995 100.265 199.868 99.7413 199.615 99.428C199.362 99.108 198.965 98.948 198.425 98.948ZM203.137 98.298C203.137 98.5646 203.121 98.8146 203.087 99.048H203.147C203.321 98.7746 203.554 98.568 203.847 98.428C204.147 98.288 204.471 98.218 204.817 98.218C205.471 98.218 205.961 98.3746 206.287 98.688C206.614 98.9946 206.777 99.4913 206.777 100.178V103.668H205.907V100.238C205.907 99.378 205.507 98.948 204.707 98.948C204.107 98.948 203.694 99.118 203.467 99.458C203.247 99.7913 203.137 100.271 203.137 100.898V103.668H202.257V96.068H203.137V98.298ZM209.929 103.048C210.062 103.048 210.199 103.038 210.339 103.018C210.479 102.991 210.592 102.965 210.679 102.938V103.608C210.586 103.655 210.452 103.691 210.279 103.718C210.106 103.751 209.939 103.768 209.779 103.768C209.499 103.768 209.239 103.721 208.999 103.628C208.766 103.528 208.576 103.358 208.429 103.118C208.282 102.878 208.209 102.541 208.209 102.108V98.988H207.449V98.568L208.219 98.218L208.569 97.078H209.089V98.308H210.639V98.988H209.089V102.088C209.089 102.415 209.166 102.658 209.319 102.818C209.479 102.971 209.682 103.048 209.929 103.048ZM214.222 96.528L211.562 103.668H210.702L213.362 96.528H214.222ZM223.193 96.528L221.293 103.668H220.383L218.993 98.988C218.94 98.7946 218.886 98.6013 218.833 98.408C218.78 98.2146 218.736 98.0446 218.703 97.898C218.67 97.7446 218.646 97.638 218.633 97.578C218.626 97.6646 218.59 97.8513 218.523 98.138C218.463 98.418 218.386 98.7113 218.293 99.018L216.943 103.668H216.033L214.143 96.528H215.083L216.193 100.888C216.273 101.195 216.34 101.491 216.393 101.778C216.453 102.065 216.5 102.335 216.533 102.588C216.566 102.328 216.616 102.045 216.683 101.738C216.75 101.431 216.826 101.131 216.913 100.838L218.173 96.528H219.103L220.413 100.868C220.506 101.175 220.586 101.481 220.653 101.788C220.72 102.088 220.77 102.355 220.803 102.588C220.836 102.341 220.883 102.075 220.943 101.788C221.003 101.495 221.073 101.191 221.153 100.878L222.253 96.528H223.193ZM226.272 98.208C226.372 98.208 226.479 98.2146 226.592 98.228C226.712 98.2346 226.815 98.248 226.902 98.268L226.792 99.078C226.705 99.058 226.609 99.0413 226.502 99.028C226.402 99.0146 226.305 99.008 226.212 99.008C225.939 99.008 225.682 99.0846 225.442 99.238C225.202 99.3846 225.009 99.5946 224.862 99.868C224.722 100.135 224.652 100.448 224.652 100.808V103.668H223.772V98.308H224.492L224.592 99.288H224.632C224.805 98.9946 225.029 98.7413 225.302 98.528C225.575 98.3146 225.899 98.208 226.272 98.208ZM232.068 100.978C232.068 101.865 231.841 102.551 231.388 103.038C230.941 103.525 230.334 103.768 229.568 103.768C229.094 103.768 228.671 103.661 228.298 103.448C227.931 103.228 227.641 102.911 227.428 102.498C227.214 102.078 227.108 101.571 227.108 100.978C227.108 100.091 227.331 99.408 227.778 98.928C228.224 98.448 228.831 98.208 229.598 98.208C230.084 98.208 230.511 98.318 230.878 98.538C231.251 98.7513 231.541 99.0646 231.748 99.478C231.961 99.8846 232.068 100.385 232.068 100.978ZM228.018 100.978C228.018 101.611 228.141 102.115 228.388 102.488C228.641 102.855 229.041 103.038 229.588 103.038C230.128 103.038 230.524 102.855 230.778 102.488C231.031 102.115 231.158 101.611 231.158 100.978C231.158 100.345 231.031 99.848 230.778 99.488C230.524 99.128 230.124 98.948 229.578 98.948C229.031 98.948 228.634 99.128 228.388 99.488C228.141 99.848 228.018 100.345 228.018 100.978ZM235.742 98.208C236.382 98.208 236.866 98.3646 237.192 98.678C237.519 98.9846 237.682 99.4846 237.682 100.178V103.668H236.812V100.238C236.812 99.378 236.412 98.948 235.612 98.948C235.019 98.948 234.609 99.1146 234.382 99.448C234.156 99.7813 234.042 100.261 234.042 100.888V103.668H233.162V98.308H233.872L234.002 99.038H234.052C234.226 98.758 234.466 98.5513 234.772 98.418C235.079 98.278 235.402 98.208 235.742 98.208ZM240.944 98.208C241.297 98.208 241.614 98.2746 241.894 98.408C242.181 98.5413 242.424 98.7446 242.624 99.018H242.674L242.794 98.308H243.494V103.758C243.494 104.525 243.297 105.101 242.904 105.488C242.517 105.875 241.914 106.068 241.094 106.068C240.307 106.068 239.664 105.955 239.164 105.728V104.918C239.691 105.198 240.351 105.338 241.144 105.338C241.604 105.338 241.964 105.201 242.224 104.928C242.491 104.661 242.624 104.295 242.624 103.828V103.618C242.624 103.538 242.627 103.425 242.634 103.278C242.641 103.125 242.647 103.018 242.654 102.958H242.614C242.254 103.498 241.701 103.768 240.954 103.768C240.261 103.768 239.717 103.525 239.324 103.038C238.937 102.551 238.744 101.871 238.744 100.998C238.744 100.145 238.937 99.468 239.324 98.968C239.717 98.4613 240.257 98.208 240.944 98.208ZM241.064 98.948C240.617 98.948 240.271 99.128 240.024 99.488C239.777 99.8413 239.654 100.348 239.654 101.008C239.654 101.668 239.774 102.175 240.014 102.528C240.261 102.875 240.617 103.048 241.084 103.048C241.624 103.048 242.017 102.905 242.264 102.618C242.511 102.325 242.634 101.855 242.634 101.208V100.998C242.634 100.265 242.507 99.7413 242.254 99.428C242.001 99.108 241.604 98.948 241.064 98.948ZM203.462 116.668L202.602 114.458H199.772L198.922 116.668H198.012L200.802 109.498H201.612L204.392 116.668H203.462ZM201.532 111.498C201.512 111.445 201.479 111.348 201.432 111.208C201.386 111.068 201.339 110.925 201.292 110.778C201.252 110.625 201.219 110.508 201.192 110.428C201.146 110.635 201.092 110.838 201.032 111.038C200.972 111.231 200.922 111.385 200.882 111.498L200.072 113.658H202.332L201.532 111.498ZM207.529 111.208C208.169 111.208 208.652 111.365 208.979 111.678C209.306 111.985 209.469 112.485 209.469 113.178V116.668H208.599V113.238C208.599 112.378 208.199 111.948 207.399 111.948C206.806 111.948 206.396 112.115 206.169 112.448C205.942 112.781 205.829 113.261 205.829 113.888V116.668H204.949V111.308H205.659L205.789 112.038H205.839C206.012 111.758 206.252 111.551 206.559 111.418C206.866 111.278 207.189 111.208 207.529 111.208ZM214.321 115.188C214.321 115.708 214.127 116.101 213.741 116.368C213.354 116.635 212.834 116.768 212.181 116.768C211.807 116.768 211.484 116.738 211.211 116.678C210.944 116.618 210.707 116.535 210.501 116.428V115.628C210.714 115.735 210.971 115.835 211.271 115.928C211.577 116.015 211.887 116.058 212.201 116.058C212.647 116.058 212.971 115.988 213.171 115.848C213.371 115.701 213.471 115.508 213.471 115.268C213.471 115.135 213.434 115.015 213.361 114.908C213.287 114.801 213.154 114.695 212.961 114.588C212.774 114.481 212.504 114.361 212.151 114.228C211.804 114.095 211.507 113.961 211.261 113.828C211.014 113.695 210.824 113.535 210.691 113.348C210.557 113.161 210.491 112.921 210.491 112.628C210.491 112.175 210.674 111.825 211.041 111.578C211.414 111.331 211.901 111.208 212.501 111.208C212.827 111.208 213.131 111.241 213.411 111.308C213.697 111.368 213.964 111.455 214.211 111.568L213.911 112.268C213.684 112.175 213.447 112.095 213.201 112.028C212.954 111.961 212.701 111.928 212.441 111.928C212.081 111.928 211.804 111.988 211.611 112.108C211.424 112.221 211.331 112.378 211.331 112.578C211.331 112.725 211.374 112.851 211.461 112.958C211.547 113.058 211.691 113.158 211.891 113.258C212.097 113.351 212.371 113.465 212.711 113.598C213.051 113.725 213.341 113.855 213.581 113.988C213.821 114.121 214.004 114.285 214.131 114.478C214.257 114.665 214.321 114.901 214.321 115.188ZM218.776 113.638C218.689 113.365 218.612 113.098 218.546 112.838C218.486 112.571 218.439 112.365 218.406 112.218H218.366C218.339 112.365 218.296 112.571 218.236 112.838C218.176 113.098 218.099 113.368 218.006 113.648L217.046 116.658H216.046L214.576 111.298H215.486L216.226 114.158C216.299 114.445 216.369 114.735 216.436 115.028C216.502 115.321 216.549 115.565 216.576 115.758H216.616C216.642 115.645 216.672 115.505 216.706 115.338C216.746 115.171 216.789 114.998 216.836 114.818C216.882 114.631 216.929 114.465 216.976 114.318L217.926 111.298H218.886L219.806 114.318C219.879 114.545 219.949 114.791 220.016 115.058C220.089 115.325 220.139 115.555 220.166 115.748H220.206C220.226 115.581 220.269 115.351 220.336 115.058C220.409 114.765 220.486 114.465 220.566 114.158L221.316 111.298H222.216L220.726 116.658H219.696L218.776 113.638ZM224.947 111.208C225.407 111.208 225.8 111.308 226.127 111.508C226.46 111.708 226.714 111.991 226.887 112.358C227.067 112.718 227.157 113.141 227.157 113.628V114.158H223.487C223.5 114.765 223.654 115.228 223.947 115.548C224.247 115.861 224.664 116.018 225.197 116.018C225.537 116.018 225.837 115.988 226.097 115.928C226.364 115.861 226.637 115.768 226.917 115.648V116.418C226.644 116.538 226.374 116.625 226.107 116.678C225.84 116.738 225.524 116.768 225.157 116.768C224.65 116.768 224.2 116.665 223.807 116.458C223.42 116.251 223.117 115.945 222.897 115.538C222.684 115.125 222.577 114.621 222.577 114.028C222.577 113.441 222.674 112.938 222.867 112.518C223.067 112.098 223.344 111.775 223.697 111.548C224.057 111.321 224.474 111.208 224.947 111.208ZM224.937 111.928C224.517 111.928 224.184 112.065 223.937 112.338C223.697 112.605 223.554 112.978 223.507 113.458H226.237C226.23 113.005 226.124 112.638 225.917 112.358C225.71 112.071 225.384 111.928 224.937 111.928ZM230.722 111.208C230.822 111.208 230.928 111.215 231.042 111.228C231.162 111.235 231.265 111.248 231.352 111.268L231.242 112.078C231.155 112.058 231.058 112.041 230.952 112.028C230.852 112.015 230.755 112.008 230.662 112.008C230.388 112.008 230.132 112.085 229.892 112.238C229.652 112.385 229.458 112.595 229.312 112.868C229.172 113.135 229.102 113.448 229.102 113.808V116.668H228.222V111.308H228.942L229.042 112.288H229.082C229.255 111.995 229.478 111.741 229.752 111.528C230.025 111.315 230.348 111.208 230.722 111.208ZM235.543 115.188C235.543 115.708 235.349 116.101 234.963 116.368C234.576 116.635 234.056 116.768 233.403 116.768C233.029 116.768 232.706 116.738 232.433 116.678C232.166 116.618 231.929 116.535 231.723 116.428V115.628C231.936 115.735 232.193 115.835 232.493 115.928C232.799 116.015 233.109 116.058 233.423 116.058C233.869 116.058 234.193 115.988 234.393 115.848C234.593 115.701 234.693 115.508 234.693 115.268C234.693 115.135 234.656 115.015 234.583 114.908C234.509 114.801 234.376 114.695 234.183 114.588C233.996 114.481 233.726 114.361 233.373 114.228C233.026 114.095 232.729 113.961 232.483 113.828C232.236 113.695 232.046 113.535 231.913 113.348C231.779 113.161 231.713 112.921 231.713 112.628C231.713 112.175 231.896 111.825 232.263 111.578C232.636 111.331 233.123 111.208 233.723 111.208C234.049 111.208 234.353 111.241 234.633 111.308C234.919 111.368 235.186 111.455 235.433 111.568L235.133 112.268C234.906 112.175 234.669 112.095 234.423 112.028C234.176 111.961 233.923 111.928 233.663 111.928C233.303 111.928 233.026 111.988 232.833 112.108C232.646 112.221 232.553 112.378 232.553 112.578C232.553 112.725 232.596 112.851 232.683 112.958C232.769 113.058 232.913 113.158 233.113 113.258C233.319 113.351 233.593 113.465 233.933 113.598C234.273 113.725 234.563 113.855 234.803 113.988C235.043 114.121 235.226 114.285 235.353 114.478C235.479 114.665 235.543 114.901 235.543 115.188Z" fill="#61696B"/>
<path d="M119.78 148.184C119.78 148.704 119.587 149.097 119.2 149.364C118.814 149.631 118.294 149.764 117.64 149.764C117.267 149.764 116.944 149.734 116.67 149.674C116.404 149.614 116.167 149.531 115.96 149.424V148.624C116.174 148.731 116.43 148.831 116.73 148.924C117.037 149.011 117.347 149.054 117.66 149.054C118.107 149.054 118.43 148.984 118.63 148.844C118.83 148.697 118.93 148.504 118.93 148.264C118.93 148.131 118.894 148.011 118.82 147.904C118.747 147.797 118.614 147.691 118.42 147.584C118.234 147.477 117.964 147.357 117.61 147.224C117.264 147.091 116.967 146.957 116.72 146.824C116.474 146.691 116.284 146.531 116.15 146.344C116.017 146.157 115.95 145.917 115.95 145.624C115.95 145.171 116.134 144.821 116.5 144.574C116.874 144.327 117.36 144.204 117.96 144.204C118.287 144.204 118.59 144.237 118.87 144.304C119.157 144.364 119.424 144.451 119.67 144.564L119.37 145.264C119.144 145.171 118.907 145.091 118.66 145.024C118.414 144.957 118.16 144.924 117.9 144.924C117.54 144.924 117.264 144.984 117.07 145.104C116.884 145.217 116.79 145.374 116.79 145.574C116.79 145.721 116.834 145.847 116.92 145.954C117.007 146.054 117.15 146.154 117.35 146.254C117.557 146.347 117.83 146.461 118.17 146.594C118.51 146.721 118.8 146.851 119.04 146.984C119.28 147.117 119.464 147.281 119.59 147.474C119.717 147.661 119.78 147.897 119.78 148.184ZM122.566 149.044C122.699 149.044 122.836 149.034 122.976 149.014C123.116 148.987 123.229 148.961 123.316 148.934V149.604C123.222 149.651 123.089 149.687 122.916 149.714C122.742 149.747 122.576 149.764 122.416 149.764C122.136 149.764 121.876 149.717 121.636 149.624C121.402 149.524 121.212 149.354 121.066 149.114C120.919 148.874 120.846 148.537 120.846 148.104V144.984H120.086V144.564L120.856 144.214L121.206 143.074H121.726V144.304H123.276V144.984H121.726V148.084C121.726 148.411 121.802 148.654 121.956 148.814C122.116 148.967 122.319 149.044 122.566 149.044ZM126.119 144.214C126.772 144.214 127.256 144.357 127.569 144.644C127.882 144.931 128.039 145.387 128.039 146.014V149.664H127.399L127.229 148.904H127.189C126.956 149.197 126.709 149.414 126.449 149.554C126.196 149.694 125.842 149.764 125.389 149.764C124.902 149.764 124.499 149.637 124.179 149.384C123.859 149.124 123.699 148.721 123.699 148.174C123.699 147.641 123.909 147.231 124.329 146.944C124.749 146.651 125.396 146.491 126.269 146.464L127.179 146.434V146.114C127.179 145.667 127.082 145.357 126.889 145.184C126.696 145.011 126.422 144.924 126.069 144.924C125.789 144.924 125.522 144.967 125.269 145.054C125.016 145.134 124.779 145.227 124.559 145.334L124.289 144.674C124.522 144.547 124.799 144.441 125.119 144.354C125.439 144.261 125.772 144.214 126.119 144.214ZM126.379 147.074C125.712 147.101 125.249 147.207 124.989 147.394C124.736 147.581 124.609 147.844 124.609 148.184C124.609 148.484 124.699 148.704 124.879 148.844C125.066 148.984 125.302 149.054 125.589 149.054C126.042 149.054 126.419 148.931 126.719 148.684C127.019 148.431 127.169 148.044 127.169 147.524V147.044L126.379 147.074ZM131.184 149.044C131.318 149.044 131.454 149.034 131.594 149.014C131.734 148.987 131.848 148.961 131.934 148.934V149.604C131.841 149.651 131.708 149.687 131.534 149.714C131.361 149.747 131.194 149.764 131.034 149.764C130.754 149.764 130.494 149.717 130.254 149.624C130.021 149.524 129.831 149.354 129.684 149.114C129.538 148.874 129.464 148.537 129.464 148.104V144.984H128.704V144.564L129.474 144.214L129.824 143.074H130.344V144.304H131.894V144.984H130.344V148.084C130.344 148.411 130.421 148.654 130.574 148.814C130.734 148.967 130.938 149.044 131.184 149.044ZM134.778 144.204C135.238 144.204 135.631 144.304 135.958 144.504C136.291 144.704 136.544 144.987 136.718 145.354C136.898 145.714 136.988 146.137 136.988 146.624V147.154H133.318C133.331 147.761 133.484 148.224 133.778 148.544C134.078 148.857 134.494 149.014 135.028 149.014C135.368 149.014 135.668 148.984 135.928 148.924C136.194 148.857 136.468 148.764 136.748 148.644V149.414C136.474 149.534 136.204 149.621 135.938 149.674C135.671 149.734 135.354 149.764 134.988 149.764C134.481 149.764 134.031 149.661 133.638 149.454C133.251 149.247 132.948 148.941 132.728 148.534C132.514 148.121 132.408 147.617 132.408 147.024C132.408 146.437 132.504 145.934 132.698 145.514C132.898 145.094 133.174 144.771 133.528 144.544C133.888 144.317 134.304 144.204 134.778 144.204ZM134.768 144.924C134.348 144.924 134.014 145.061 133.768 145.334C133.528 145.601 133.384 145.974 133.338 146.454H136.068C136.061 146.001 135.954 145.634 135.748 145.354C135.541 145.067 135.214 144.924 134.768 144.924ZM150.443 149.044C150.577 149.044 150.713 149.034 150.853 149.014C150.993 148.987 151.107 148.961 151.193 148.934V149.604C151.1 149.651 150.967 149.687 150.793 149.714C150.62 149.747 150.453 149.764 150.293 149.764C150.013 149.764 149.753 149.717 149.513 149.624C149.28 149.524 149.09 149.354 148.943 149.114C148.797 148.874 148.723 148.537 148.723 148.104V144.984H147.963V144.564L148.733 144.214L149.083 143.074H149.603V144.304H151.153V144.984H149.603V148.084C149.603 148.411 149.68 148.654 149.833 148.814C149.993 148.967 150.197 149.044 150.443 149.044ZM154.037 144.204C154.497 144.204 154.89 144.304 155.217 144.504C155.55 144.704 155.803 144.987 155.977 145.354C156.157 145.714 156.247 146.137 156.247 146.624V147.154H152.577C152.59 147.761 152.743 148.224 153.037 148.544C153.337 148.857 153.753 149.014 154.287 149.014C154.627 149.014 154.927 148.984 155.187 148.924C155.453 148.857 155.727 148.764 156.007 148.644V149.414C155.733 149.534 155.463 149.621 155.197 149.674C154.93 149.734 154.613 149.764 154.247 149.764C153.74 149.764 153.29 149.661 152.897 149.454C152.51 149.247 152.207 148.941 151.987 148.534C151.773 148.121 151.667 147.617 151.667 147.024C151.667 146.437 151.763 145.934 151.957 145.514C152.157 145.094 152.433 144.771 152.787 144.544C153.147 144.317 153.563 144.204 154.037 144.204ZM154.027 144.924C153.607 144.924 153.273 145.061 153.027 145.334C152.787 145.601 152.643 145.974 152.597 146.454H155.327C155.32 146.001 155.213 145.634 155.007 145.354C154.8 145.067 154.473 144.924 154.027 144.924ZM160.801 148.184C160.801 148.704 160.608 149.097 160.221 149.364C159.834 149.631 159.314 149.764 158.661 149.764C158.288 149.764 157.964 149.734 157.691 149.674C157.424 149.614 157.188 149.531 156.981 149.424V148.624C157.194 148.731 157.451 148.831 157.751 148.924C158.058 149.011 158.368 149.054 158.681 149.054C159.128 149.054 159.451 148.984 159.651 148.844C159.851 148.697 159.951 148.504 159.951 148.264C159.951 148.131 159.914 148.011 159.841 147.904C159.768 147.797 159.634 147.691 159.441 147.584C159.254 147.477 158.984 147.357 158.631 147.224C158.284 147.091 157.988 146.957 157.741 146.824C157.494 146.691 157.304 146.531 157.171 146.344C157.038 146.157 156.971 145.917 156.971 145.624C156.971 145.171 157.154 144.821 157.521 144.574C157.894 144.327 158.381 144.204 158.981 144.204C159.308 144.204 159.611 144.237 159.891 144.304C160.178 144.364 160.444 144.451 160.691 144.564L160.391 145.264C160.164 145.171 159.928 145.091 159.681 145.024C159.434 144.957 159.181 144.924 158.921 144.924C158.561 144.924 158.284 144.984 158.091 145.104C157.904 145.217 157.811 145.374 157.811 145.574C157.811 145.721 157.854 145.847 157.941 145.954C158.028 146.054 158.171 146.154 158.371 146.254C158.578 146.347 158.851 146.461 159.191 146.594C159.531 146.721 159.821 146.851 160.061 146.984C160.301 147.117 160.484 147.281 160.611 147.474C160.738 147.661 160.801 147.897 160.801 148.184ZM163.586 149.044C163.72 149.044 163.856 149.034 163.996 149.014C164.136 148.987 164.25 148.961 164.336 148.934V149.604C164.243 149.651 164.11 149.687 163.936 149.714C163.763 149.747 163.596 149.764 163.436 149.764C163.156 149.764 162.896 149.717 162.656 149.624C162.423 149.524 162.233 149.354 162.086 149.114C161.94 148.874 161.866 148.537 161.866 148.104V144.984H161.106V144.564L161.876 144.214L162.226 143.074H162.746V144.304H164.296V144.984H162.746V148.084C162.746 148.411 162.823 148.654 162.976 148.814C163.136 148.967 163.34 149.044 163.586 149.044Z" fill="white"/>
<path d="M140.182 149.664H137.602V149.144L138.442 148.954V143.244L137.602 143.044V142.524H140.182V143.044L139.342 143.244V148.954L140.182 149.144V149.664ZM147.491 146.084C147.491 146.957 147.314 147.701 146.961 148.314C146.614 148.927 146.097 149.351 145.411 149.584L147.121 151.364H145.831L144.451 149.754C144.411 149.754 144.367 149.754 144.321 149.754C144.281 149.761 144.241 149.764 144.201 149.764C143.461 149.764 142.844 149.611 142.351 149.304C141.864 148.997 141.501 148.567 141.261 148.014C141.021 147.461 140.901 146.814 140.901 146.074C140.901 145.341 141.021 144.701 141.261 144.154C141.501 143.607 141.864 143.181 142.351 142.874C142.844 142.567 143.464 142.414 144.211 142.414C144.924 142.414 145.524 142.567 146.011 142.874C146.497 143.174 146.864 143.601 147.111 144.154C147.364 144.701 147.491 145.344 147.491 146.084ZM141.851 146.084C141.851 146.984 142.041 147.694 142.421 148.214C142.801 148.727 143.394 148.984 144.201 148.984C145.014 148.984 145.607 148.727 145.981 148.214C146.354 147.694 146.541 146.984 146.541 146.084C146.541 145.184 146.354 144.481 145.981 143.974C145.607 143.461 145.017 143.204 144.211 143.204C143.404 143.204 142.807 143.461 142.421 143.974C142.041 144.481 141.851 145.184 141.851 146.084Z" fill="#EC4899"/>
<path d="M114.208 164.422C114.208 165.055 113.978 165.549 113.518 165.902C113.058 166.255 112.438 166.432 111.658 166.432C111.258 166.432 110.888 166.402 110.548 166.342C110.208 166.282 109.925 166.199 109.698 166.092V165.232C109.938 165.339 110.235 165.435 110.588 165.522C110.948 165.609 111.318 165.652 111.698 165.652C112.232 165.652 112.632 165.549 112.898 165.342C113.172 165.135 113.308 164.855 113.308 164.502C113.308 164.269 113.258 164.072 113.158 163.912C113.058 163.752 112.885 163.605 112.638 163.472C112.398 163.332 112.062 163.185 111.628 163.032C111.022 162.812 110.562 162.542 110.248 162.222C109.942 161.902 109.788 161.465 109.788 160.912C109.788 160.532 109.885 160.209 110.078 159.942C110.272 159.669 110.538 159.459 110.878 159.312C111.225 159.165 111.622 159.092 112.068 159.092C112.462 159.092 112.822 159.129 113.148 159.202C113.475 159.275 113.772 159.372 114.038 159.492L113.758 160.262C113.512 160.155 113.242 160.065 112.948 159.992C112.662 159.919 112.362 159.882 112.048 159.882C111.602 159.882 111.265 159.979 111.038 160.172C110.812 160.359 110.698 160.609 110.698 160.922C110.698 161.162 110.748 161.362 110.848 161.522C110.948 161.682 111.112 161.825 111.338 161.952C111.565 162.079 111.872 162.215 112.258 162.362C112.678 162.515 113.032 162.682 113.318 162.862C113.612 163.035 113.832 163.245 113.978 163.492C114.132 163.739 114.208 164.049 114.208 164.422ZM117.377 166.432C116.903 166.432 116.48 166.335 116.107 166.142C115.74 165.949 115.45 165.649 115.237 165.242C115.03 164.835 114.927 164.315 114.927 163.682C114.927 163.022 115.037 162.485 115.257 162.072C115.477 161.659 115.773 161.355 116.147 161.162C116.527 160.969 116.957 160.872 117.437 160.872C117.71 160.872 117.973 160.902 118.227 160.962C118.48 161.015 118.687 161.082 118.847 161.162L118.577 161.892C118.417 161.832 118.23 161.775 118.017 161.722C117.803 161.669 117.603 161.642 117.417 161.642C116.363 161.642 115.837 162.319 115.837 163.672C115.837 164.319 115.963 164.815 116.217 165.162C116.477 165.502 116.86 165.672 117.367 165.672C117.66 165.672 117.917 165.642 118.137 165.582C118.363 165.522 118.57 165.449 118.757 165.362V166.142C118.577 166.235 118.377 166.305 118.157 166.352C117.943 166.405 117.683 166.432 117.377 166.432ZM124.391 163.642C124.391 164.529 124.165 165.215 123.711 165.702C123.265 166.189 122.658 166.432 121.891 166.432C121.418 166.432 120.995 166.325 120.621 166.112C120.255 165.892 119.965 165.575 119.751 165.162C119.538 164.742 119.431 164.235 119.431 163.642C119.431 162.755 119.655 162.072 120.101 161.592C120.548 161.112 121.155 160.872 121.921 160.872C122.408 160.872 122.835 160.982 123.201 161.202C123.575 161.415 123.865 161.729 124.071 162.142C124.285 162.549 124.391 163.049 124.391 163.642ZM120.341 163.642C120.341 164.275 120.465 164.779 120.711 165.152C120.965 165.519 121.365 165.702 121.911 165.702C122.451 165.702 122.848 165.519 123.101 165.152C123.355 164.779 123.481 164.275 123.481 163.642C123.481 163.009 123.355 162.512 123.101 162.152C122.848 161.792 122.448 161.612 121.901 161.612C121.355 161.612 120.958 161.792 120.711 162.152C120.465 162.512 120.341 163.009 120.341 163.642ZM127.986 160.872C128.086 160.872 128.193 160.879 128.306 160.892C128.426 160.899 128.529 160.912 128.616 160.932L128.506 161.742C128.419 161.722 128.323 161.705 128.216 161.692C128.116 161.679 128.019 161.672 127.926 161.672C127.653 161.672 127.396 161.749 127.156 161.902C126.916 162.049 126.723 162.259 126.576 162.532C126.436 162.799 126.366 163.112 126.366 163.472V166.332H125.486V160.972H126.206L126.306 161.952H126.346C126.519 161.659 126.743 161.405 127.016 161.192C127.289 160.979 127.613 160.872 127.986 160.872ZM131.191 160.872C131.651 160.872 132.045 160.972 132.371 161.172C132.705 161.372 132.958 161.655 133.131 162.022C133.311 162.382 133.401 162.805 133.401 163.292V163.822H129.731C129.745 164.429 129.898 164.892 130.191 165.212C130.491 165.525 130.908 165.682 131.441 165.682C131.781 165.682 132.081 165.652 132.341 165.592C132.608 165.525 132.881 165.432 133.161 165.312V166.082C132.888 166.202 132.618 166.289 132.351 166.342C132.085 166.402 131.768 166.432 131.401 166.432C130.895 166.432 130.445 166.329 130.051 166.122C129.665 165.915 129.361 165.609 129.141 165.202C128.928 164.789 128.821 164.285 128.821 163.692C128.821 163.105 128.918 162.602 129.111 162.182C129.311 161.762 129.588 161.439 129.941 161.212C130.301 160.985 130.718 160.872 131.191 160.872ZM131.181 161.592C130.761 161.592 130.428 161.729 130.181 162.002C129.941 162.269 129.798 162.642 129.751 163.122H132.481C132.475 162.669 132.368 162.302 132.161 162.022C131.955 161.735 131.628 161.592 131.181 161.592ZM141.364 166.332L140.504 164.122H137.674L136.824 166.332H135.914L138.704 159.162H139.514L142.294 166.332H141.364ZM139.434 161.162C139.414 161.109 139.38 161.012 139.334 160.872C139.287 160.732 139.24 160.589 139.194 160.442C139.154 160.289 139.12 160.172 139.094 160.092C139.047 160.299 138.994 160.502 138.934 160.702C138.874 160.895 138.824 161.049 138.784 161.162L137.974 163.322H140.234L139.434 161.162ZM145.43 160.872C146.07 160.872 146.554 161.029 146.88 161.342C147.207 161.649 147.37 162.149 147.37 162.842V166.332H146.5V162.902C146.5 162.042 146.1 161.612 145.3 161.612C144.707 161.612 144.297 161.779 144.07 162.112C143.844 162.445 143.73 162.925 143.73 163.552V166.332H142.85V160.972H143.56L143.69 161.702H143.74C143.914 161.422 144.154 161.215 144.46 161.082C144.767 160.942 145.09 160.872 145.43 160.872ZM150.762 160.882C151.415 160.882 151.899 161.025 152.212 161.312C152.525 161.599 152.682 162.055 152.682 162.682V166.332H152.042L151.872 165.572H151.832C151.599 165.865 151.352 166.082 151.092 166.222C150.839 166.362 150.485 166.432 150.032 166.432C149.545 166.432 149.142 166.305 148.822 166.052C148.502 165.792 148.342 165.389 148.342 164.842C148.342 164.309 148.552 163.899 148.972 163.612C149.392 163.319 150.039 163.159 150.912 163.132L151.822 163.102V162.782C151.822 162.335 151.725 162.025 151.532 161.852C151.339 161.679 151.065 161.592 150.712 161.592C150.432 161.592 150.165 161.635 149.912 161.722C149.659 161.802 149.422 161.895 149.202 162.002L148.932 161.342C149.165 161.215 149.442 161.109 149.762 161.022C150.082 160.929 150.415 160.882 150.762 160.882ZM151.022 163.742C150.355 163.769 149.892 163.875 149.632 164.062C149.379 164.249 149.252 164.512 149.252 164.852C149.252 165.152 149.342 165.372 149.522 165.512C149.709 165.652 149.945 165.722 150.232 165.722C150.685 165.722 151.062 165.599 151.362 165.352C151.662 165.099 151.812 164.712 151.812 164.192V163.712L151.022 163.742ZM154.918 166.332H154.038V158.732H154.918V166.332ZM155.476 160.972H156.416L157.576 164.022C157.676 164.289 157.766 164.545 157.846 164.792C157.926 165.032 157.986 165.262 158.026 165.482H158.066C158.106 165.315 158.169 165.099 158.256 164.832C158.342 164.559 158.432 164.285 158.526 164.012L159.616 160.972H160.566L158.256 167.072C158.069 167.579 157.826 167.982 157.526 168.282C157.232 168.582 156.826 168.732 156.306 168.732C156.146 168.732 156.006 168.722 155.886 168.702C155.766 168.689 155.662 168.672 155.576 168.652V167.952C155.649 167.965 155.736 167.979 155.836 167.992C155.942 168.005 156.052 168.012 156.166 168.012C156.472 168.012 156.719 167.925 156.906 167.752C157.099 167.579 157.249 167.349 157.356 167.062L157.636 166.352L155.476 160.972ZM164.603 164.852C164.603 165.372 164.41 165.765 164.023 166.032C163.637 166.299 163.117 166.432 162.463 166.432C162.09 166.432 161.767 166.402 161.493 166.342C161.227 166.282 160.99 166.199 160.783 166.092V165.292C160.997 165.399 161.253 165.499 161.553 165.592C161.86 165.679 162.17 165.722 162.483 165.722C162.93 165.722 163.253 165.652 163.453 165.512C163.653 165.365 163.753 165.172 163.753 164.932C163.753 164.799 163.717 164.679 163.643 164.572C163.57 164.465 163.437 164.359 163.243 164.252C163.057 164.145 162.787 164.025 162.433 163.892C162.087 163.759 161.79 163.625 161.543 163.492C161.297 163.359 161.107 163.199 160.973 163.012C160.84 162.825 160.773 162.585 160.773 162.292C160.773 161.839 160.957 161.489 161.323 161.242C161.697 160.995 162.183 160.872 162.783 160.872C163.11 160.872 163.413 160.905 163.693 160.972C163.98 161.032 164.247 161.119 164.493 161.232L164.193 161.932C163.967 161.839 163.73 161.759 163.483 161.692C163.237 161.625 162.983 161.592 162.723 161.592C162.363 161.592 162.087 161.652 161.893 161.772C161.707 161.885 161.613 162.042 161.613 162.242C161.613 162.389 161.657 162.515 161.743 162.622C161.83 162.722 161.973 162.822 162.173 162.922C162.38 163.015 162.653 163.129 162.993 163.262C163.333 163.389 163.623 163.519 163.863 163.652C164.103 163.785 164.287 163.949 164.413 164.142C164.54 164.329 164.603 164.565 164.603 164.852ZM166.048 158.962C166.182 158.962 166.298 159.009 166.398 159.102C166.505 159.189 166.558 159.329 166.558 159.522C166.558 159.709 166.505 159.849 166.398 159.942C166.298 160.035 166.182 160.082 166.048 160.082C165.902 160.082 165.778 160.035 165.678 159.942C165.578 159.849 165.528 159.709 165.528 159.522C165.528 159.329 165.578 159.189 165.678 159.102C165.778 159.009 165.902 158.962 166.048 158.962ZM166.478 160.972V166.332H165.598V160.972H166.478ZM171.367 164.852C171.367 165.372 171.173 165.765 170.787 166.032C170.4 166.299 169.88 166.432 169.227 166.432C168.853 166.432 168.53 166.402 168.257 166.342C167.99 166.282 167.753 166.199 167.547 166.092V165.292C167.76 165.399 168.017 165.499 168.317 165.592C168.623 165.679 168.933 165.722 169.247 165.722C169.693 165.722 170.017 165.652 170.217 165.512C170.417 165.365 170.517 165.172 170.517 164.932C170.517 164.799 170.48 164.679 170.407 164.572C170.333 164.465 170.2 164.359 170.007 164.252C169.82 164.145 169.55 164.025 169.197 163.892C168.85 163.759 168.553 163.625 168.307 163.492C168.06 163.359 167.87 163.199 167.737 163.012C167.603 162.825 167.537 162.585 167.537 162.292C167.537 161.839 167.72 161.489 168.087 161.242C168.46 160.995 168.947 160.872 169.547 160.872C169.873 160.872 170.177 160.905 170.457 160.972C170.743 161.032 171.01 161.119 171.257 161.232L170.957 161.932C170.73 161.839 170.493 161.759 170.247 161.692C170 161.625 169.747 161.592 169.487 161.592C169.127 161.592 168.85 161.652 168.657 161.772C168.47 161.885 168.377 162.042 168.377 162.242C168.377 162.389 168.42 162.515 168.507 162.622C168.593 162.722 168.737 162.822 168.937 162.922C169.143 163.015 169.417 163.129 169.757 163.262C170.097 163.389 170.387 163.519 170.627 163.652C170.867 163.785 171.05 163.949 171.177 164.142C171.303 164.329 171.367 164.565 171.367 164.852Z" fill="white"/>
<path d="M132.2 182.996H131.34V178.006C131.34 177.719 131.344 177.489 131.35 177.316C131.357 177.143 131.367 176.963 131.38 176.776C131.274 176.883 131.177 176.973 131.09 177.046C131.004 177.119 130.894 177.213 130.76 177.326L130 177.946L129.54 177.356L131.47 175.856H132.2V182.996ZM134.793 182.456C134.793 182.209 134.853 182.036 134.973 181.936C135.093 181.836 135.236 181.786 135.403 181.786C135.576 181.786 135.723 181.836 135.843 181.936C135.97 182.036 136.033 182.209 136.033 182.456C136.033 182.696 135.97 182.869 135.843 182.976C135.723 183.083 135.576 183.136 135.403 183.136C135.236 183.136 135.093 183.083 134.973 182.976C134.853 182.869 134.793 182.696 134.793 182.456ZM141.649 178.906C141.649 179.419 141.602 179.926 141.509 180.426C141.422 180.919 141.259 181.369 141.019 181.776C140.785 182.176 140.452 182.496 140.019 182.736C139.592 182.976 139.042 183.096 138.369 183.096C138.235 183.096 138.079 183.086 137.899 183.066C137.725 183.053 137.582 183.029 137.469 182.996V182.246C137.729 182.333 138.022 182.376 138.349 182.376C138.815 182.376 139.199 182.299 139.499 182.146C139.805 181.993 140.049 181.786 140.229 181.526C140.409 181.259 140.539 180.953 140.619 180.606C140.699 180.253 140.745 179.883 140.759 179.496H140.699C140.552 179.723 140.339 179.919 140.059 180.086C139.785 180.246 139.432 180.326 138.999 180.326C138.385 180.326 137.889 180.139 137.509 179.766C137.135 179.386 136.949 178.853 136.949 178.166C136.949 177.666 137.042 177.236 137.229 176.876C137.422 176.516 137.689 176.239 138.029 176.046C138.369 175.853 138.769 175.756 139.229 175.756C139.682 175.756 140.092 175.873 140.459 176.106C140.825 176.333 141.115 176.679 141.329 177.146C141.542 177.606 141.649 178.193 141.649 178.906ZM139.229 176.496C138.815 176.496 138.475 176.633 138.209 176.906C137.949 177.179 137.819 177.596 137.819 178.156C137.819 178.616 137.929 178.979 138.149 179.246C138.375 179.506 138.722 179.636 139.189 179.636C139.509 179.636 139.785 179.573 140.019 179.446C140.252 179.313 140.432 179.146 140.559 178.946C140.692 178.746 140.759 178.539 140.759 178.326C140.759 178.039 140.702 177.756 140.589 177.476C140.475 177.196 140.305 176.963 140.079 176.776C139.852 176.589 139.569 176.496 139.229 176.496ZM147.071 178.906C147.071 179.419 147.025 179.926 146.931 180.426C146.845 180.919 146.681 181.369 146.441 181.776C146.208 182.176 145.875 182.496 145.441 182.736C145.015 182.976 144.465 183.096 143.791 183.096C143.658 183.096 143.501 183.086 143.321 183.066C143.148 183.053 143.005 183.029 142.891 182.996V182.246C143.151 182.333 143.445 182.376 143.771 182.376C144.238 182.376 144.621 182.299 144.921 182.146C145.228 181.993 145.471 181.786 145.651 181.526C145.831 181.259 145.961 180.953 146.041 180.606C146.121 180.253 146.168 179.883 146.181 179.496H146.121C145.975 179.723 145.761 179.919 145.481 180.086C145.208 180.246 144.855 180.326 144.421 180.326C143.808 180.326 143.311 180.139 142.931 179.766C142.558 179.386 142.371 178.853 142.371 178.166C142.371 177.666 142.465 177.236 142.651 176.876C142.845 176.516 143.111 176.239 143.451 176.046C143.791 175.853 144.191 175.756 144.651 175.756C145.105 175.756 145.515 175.873 145.881 176.106C146.248 176.333 146.538 176.679 146.751 177.146C146.965 177.606 147.071 178.193 147.071 178.906ZM144.651 176.496C144.238 176.496 143.898 176.633 143.631 176.906C143.371 177.179 143.241 177.596 143.241 178.156C143.241 178.616 143.351 178.979 143.571 179.246C143.798 179.506 144.145 179.636 144.611 179.636C144.931 179.636 145.208 179.573 145.441 179.446C145.675 179.313 145.855 179.146 145.981 178.946C146.115 178.746 146.181 178.539 146.181 178.326C146.181 178.039 146.125 177.756 146.011 177.476C145.898 177.196 145.728 176.963 145.501 176.776C145.275 176.589 144.991 176.496 144.651 176.496ZM149.824 182.506C149.457 182.499 149.101 182.469 148.754 182.416C148.407 182.356 148.127 182.276 147.914 182.176V181.326C148.141 181.433 148.431 181.526 148.784 181.606C149.137 181.686 149.484 181.729 149.824 181.736V179.716C149.164 179.536 148.681 179.309 148.374 179.036C148.067 178.763 147.914 178.389 147.914 177.916C147.914 177.423 148.084 177.036 148.424 176.756C148.771 176.476 149.237 176.319 149.824 176.286V175.406H150.464V176.276C150.817 176.283 151.137 176.323 151.424 176.396C151.717 176.463 151.984 176.546 152.224 176.646L151.954 177.386C151.741 177.299 151.504 177.226 151.244 177.166C150.991 177.099 150.731 177.056 150.464 177.036V179.046C150.904 179.173 151.271 179.309 151.564 179.456C151.857 179.596 152.077 179.773 152.224 179.986C152.377 180.193 152.454 180.463 152.454 180.796C152.454 181.263 152.281 181.643 151.934 181.936C151.587 182.223 151.097 182.399 150.464 182.466V183.576H149.824V182.506ZM149.824 177.056C149.464 177.083 149.197 177.166 149.024 177.306C148.857 177.446 148.774 177.626 148.774 177.846C148.774 178.113 148.847 178.319 148.994 178.466C149.147 178.606 149.424 178.726 149.824 178.826V177.056ZM150.464 181.686C150.857 181.646 151.144 181.556 151.324 181.416C151.504 181.269 151.594 181.083 151.594 180.856C151.594 180.603 151.514 180.413 151.354 180.286C151.194 180.153 150.897 180.033 150.464 179.926V181.686Z" fill="white"/>
<path d="M140 43.332C134.476 43.332 130 47.8078 130 53.332C130 58.8562 134.476 63.332 140 63.332C145.524 63.332 150 58.8562 150 53.332C150 47.8078 145.524 43.332 140 43.332ZM143.226 50.1062C143.94 50.1062 144.516 50.6828 144.516 51.3965C144.516 52.1103 143.94 52.6869 143.226 52.6869C142.512 52.6869 141.935 52.1103 141.935 51.3965C141.935 50.6828 142.512 50.1062 143.226 50.1062ZM136.774 50.1062C137.488 50.1062 138.065 50.6828 138.065 51.3965C138.065 52.1103 137.488 52.6869 136.774 52.6869C136.06 52.6869 135.484 52.1103 135.484 51.3965C135.484 50.6828 136.06 50.1062 136.774 50.1062ZM144.629 56.9691C143.48 58.3482 141.794 59.1385 140 59.1385C138.206 59.1385 136.52 58.3482 135.371 56.9691C134.823 56.3119 135.815 55.4893 136.363 56.1425C137.266 57.2272 138.589 57.8441 140 57.8441C141.411 57.8441 142.734 57.2232 143.637 56.1425C144.177 55.4893 145.173 56.3119 144.629 56.9691Z" fill="#EC4899"/>
<g clip-path="url(#clip2)">
<path d="M211.023 72C210.8 72 210.592 72.1114 210.469 72.2969L209.531 73.7031C209.407 73.8886 209.199 74 208.976 74H207.333C206.965 74 206.667 74.2985 206.667 74.6667V82.6667L208.524 76.4751C208.609 76.1931 208.868 76 209.163 76H222C222.368 76 222.667 75.7015 222.667 75.3333V74.6667C222.667 74.2985 222.368 74 222 74H217.023C216.8 74 216.592 73.8886 216.469 73.7031L215.531 72.2969C215.407 72.1114 215.199 72 214.976 72H211.023ZM206.667 87.3333V87.3716C206.667 87.7398 206.965 88.0383 207.333 88.0383H222.743C223.033 88.0383 223.289 87.8512 223.378 87.5754L226.387 78.2038C226.525 77.7735 226.204 77.3333 225.752 77.3333H209.845C209.543 77.3333 209.279 77.5364 209.201 77.8282L206.667 87.3333Z" fill="#2563EB" fill-opacity="0.8"/>
</g>
<g clip-path="url(#clip3)">
<rect width="20" height="20" transform="translate(93.3335 223.332)" fill="white"/>
<path fill-rule="evenodd" clip-rule="evenodd" d="M103.333 226C97.8106 226 93.3335 230.477 93.3335 236H113.333C113.333 230.477 108.856 226 103.333 226ZM99.6668 234C100.587 234 101.333 233.254 101.333 232.333C101.333 231.413 100.587 230.667 99.6668 230.667C98.7464 230.667 98.0002 231.413 98.0002 232.333C98.0002 233.254 98.7464 234 99.6668 234ZM108.667 232.333C108.667 233.254 107.921 234 107 234C106.08 234 105.333 233.254 105.333 232.333C105.333 231.413 106.08 230.667 107 230.667C107.921 230.667 108.667 231.413 108.667 232.333ZM113.333 239.333V236H93.3335V239.333C93.3335 240.07 93.9305 240.667 94.6668 240.667H112C112.737 240.667 113.333 240.07 113.333 239.333Z" fill="#EC4899"/>
<path d="M101.333 236C101.333 236 102 236.667 103.333 236.667C104.667 236.667 105.333 236 105.333 236" stroke="white" stroke-linecap="round"/>
</g>
<defs>
<filter id="filter0_dd" x="0" y="26.6641" width="126.667" height="144.784" filterUnits="userSpaceOnUse" color-interpolation-filters="sRGB">
<feFlood flood-opacity="0" result="BackgroundImageFix"/>
<feColorMatrix in="SourceAlpha" type="matrix" values="0 0 0 0 0 0 0 0 0 0 0 0 0 0 0 0 0 0 127 0" result="hardAlpha"/>
<feOffset/>
<feGaussianBlur stdDeviation="15"/>
<feColorMatrix type="matrix" values="0 0 0 0 0 0 0 0 0 0 0 0 0 0 0 0 0 0 0.1 0"/>
<feBlend mode="normal" in2="BackgroundImageFix" result="effect1_dropShadow"/>
<feColorMatrix in="SourceAlpha" type="matrix" values="0 0 0 0 0 0 0 0 0 0 0 0 0 0 0 0 0 0 127 0" result="hardAlpha"/>
<feOffset dy="5"/>
<feGaussianBlur stdDeviation="2.5"/>
<feColorMatrix type="matrix" values="0 0 0 0 0 0 0 0 0 0 0 0 0 0 0 0 0 0 0.05 0"/>
<feBlend mode="normal" in2="effect1_dropShadow" result="effect2_dropShadow"/>
<feBlend mode="normal" in="SourceGraphic" in2="effect2_dropShadow" result="shape"/>
</filter>
<filter id="filter1_dd" x="76.6665" y="0" width="126.667" height="145.019" filterUnits="userSpaceOnUse" color-interpolation-filters="sRGB">
<feFlood flood-opacity="0" result="BackgroundImageFix"/>
<feColorMatrix in="SourceAlpha" type="matrix" values="0 0 0 0 0 0 0 0 0 0 0 0 0 0 0 0 0 0 127 0" result="hardAlpha"/>
<feOffset/>
<feGaussianBlur stdDeviation="15"/>
<feColorMatrix type="matrix" values="0 0 0 0 0 0 0 0 0 0 0 0 0 0 0 0 0 0 0.1 0"/>
<feBlend mode="normal" in2="BackgroundImageFix" result="effect1_dropShadow"/>
<feColorMatrix in="SourceAlpha" type="matrix" values="0 0 0 0 0 0 0 0 0 0 0 0 0 0 0 0 0 0 127 0" result="hardAlpha"/>
<feOffset dy="5"/>
<feGaussianBlur stdDeviation="2.5"/>
<feColorMatrix type="matrix" values="0 0 0 0 0 0 0 0 0 0 0 0 0 0 0 0 0 0 0.05 0"/>
<feBlend mode="normal" in2="effect1_dropShadow" result="effect2_dropShadow"/>
<feBlend mode="normal" in="SourceGraphic" in2="effect2_dropShadow" result="shape"/>
</filter>
<filter id="filter2_dd" x="40" y="168.668" width="126.667" height="144.667" filterUnits="userSpaceOnUse" color-interpolation-filters="sRGB">
<feFlood flood-opacity="0" result="BackgroundImageFix"/>
<feColorMatrix in="SourceAlpha" type="matrix" values="0 0 0 0 0 0 0 0 0 0 0 0 0 0 0 0 0 0 127 0" result="hardAlpha"/>
<feOffset/>
<feGaussianBlur stdDeviation="15"/>
<feColorMatrix type="matrix" values="0 0 0 0 0 0 0 0 0 0 0 0 0 0 0 0 0 0 0.1 0"/>
<feBlend mode="normal" in2="BackgroundImageFix" result="effect1_dropShadow"/>
<feColorMatrix in="SourceAlpha" type="matrix" values="0 0 0 0 0 0 0 0 0 0 0 0 0 0 0 0 0 0 127 0" result="hardAlpha"/>
<feOffset dy="5"/>
<feGaussianBlur stdDeviation="2.5"/>
<feColorMatrix type="matrix" values="0 0 0 0 0 0 0 0 0 0 0 0 0 0 0 0 0 0 0.05 0"/>
<feBlend mode="normal" in2="effect1_dropShadow" result="effect2_dropShadow"/>
<feBlend mode="normal" in="SourceGraphic" in2="effect2_dropShadow" result="shape"/>
</filter>
<filter id="filter3_dd" x="113.333" y="168.668" width="126.667" height="144.667" filterUnits="userSpaceOnUse" color-interpolation-filters="sRGB">
<feFlood flood-opacity="0" result="BackgroundImageFix"/>
<feColorMatrix in="SourceAlpha" type="matrix" values="0 0 0 0 0 0 0 0 0 0 0 0 0 0 0 0 0 0 127 0" result="hardAlpha"/>
<feOffset/>
<feGaussianBlur stdDeviation="15"/>
<feColorMatrix type="matrix" values="0 0 0 0 0 0 0 0 0 0 0 0 0 0 0 0 0 0 0.1 0"/>
<feBlend mode="normal" in2="BackgroundImageFix" result="effect1_dropShadow"/>
<feColorMatrix in="SourceAlpha" type="matrix" values="0 0 0 0 0 0 0 0 0 0 0 0 0 0 0 0 0 0 127 0" result="hardAlpha"/>
<feOffset dy="5"/>
<feGaussianBlur stdDeviation="2.5"/>
<feColorMatrix type="matrix" values="0 0 0 0 0 0 0 0 0 0 0 0 0 0 0 0 0 0 0.05 0"/>
<feBlend mode="normal" in2="effect1_dropShadow" result="effect2_dropShadow"/>
<feBlend mode="normal" in="SourceGraphic" in2="effect2_dropShadow" result="shape"/>
</filter>
<filter id="filter4_dd" x="153.333" y="26.6641" width="126.667" height="144.784" filterUnits="userSpaceOnUse" color-interpolation-filters="sRGB">
<feFlood flood-opacity="0" result="BackgroundImageFix"/>
<feColorMatrix in="SourceAlpha" type="matrix" values="0 0 0 0 0 0 0 0 0 0 0 0 0 0 0 0 0 0 127 0" result="hardAlpha"/>
<feOffset/>
<feGaussianBlur stdDeviation="15"/>
<feColorMatrix type="matrix" values="0 0 0 0 0 0 0 0 0 0 0 0 0 0 0 0 0 0 0.1 0"/>
<feBlend mode="normal" in2="BackgroundImageFix" result="effect1_dropShadow"/>
<feColorMatrix in="SourceAlpha" type="matrix" values="0 0 0 0 0 0 0 0 0 0 0 0 0 0 0 0 0 0 127 0" result="hardAlpha"/>
<feOffset dy="5"/>
<feGaussianBlur stdDeviation="2.5"/>
<feColorMatrix type="matrix" values="0 0 0 0 0 0 0 0 0 0 0 0 0 0 0 0 0 0 0.05 0"/>
<feBlend mode="normal" in2="effect1_dropShadow" result="effect2_dropShadow"/>
<feBlend mode="normal" in="SourceGraphic" in2="effect2_dropShadow" result="shape"/>
</filter>
<clipPath id="clip0">
<rect width="20" height="20" fill="white" transform="translate(53.3335 70)"/>
</clipPath>
<clipPath id="clip1">
<rect width="20" height="20" fill="white" transform="translate(166.667 223.332)"/>
</clipPath>
<clipPath id="clip2">
<rect width="20" height="20" fill="white" transform="translate(206.667 70)"/>
</clipPath>
<clipPath id="clip3">
<rect width="20" height="20" fill="white" transform="translate(93.3335 223.332)"/>
</clipPath>
</defs>
</svg>
