<svg width="260" height="320" viewBox="0 0 260 320" fill="none" xmlns="http://www.w3.org/2000/svg">
<circle cx="130" cy="150.665" r="83.3333" fill="#D0F4FB"/>
<circle cx="130" cy="150.667" r="66.6667" fill="#2563EB" fill-opacity="0.6"/>
<circle cx="130" cy="150.667" r="50.6667" fill="black"/>
<g filter="url(#filter0_dd)">
<path fill-rule="evenodd" clip-rule="evenodd" d="M23.3333 46.6641C21.4924 46.6641 20 48.1565 20 49.9974V116.664C20 118.505 21.4924 119.997 23.3333 119.997H60L71.0572 131.055C71.8971 131.895 73.3333 131.3 73.3333 130.112V119.997H83.3333C85.1743 119.997 86.6667 118.505 86.6667 116.664V49.9974C86.6667 48.1564 85.1743 46.6641 83.3333 46.6641H23.3333Z" fill="white"/>
</g>
<g clip-path="url(#clip0)">
<path fill-rule="evenodd" clip-rule="evenodd" d="M61.3333 68.6667C61.3333 70.7495 60.5986 72.6607 59.3742 74.1553L63.3472 78.1283L61.4616 80.0139L57.3852 75.9375C56.0274 76.8204 54.4069 77.3333 52.6667 77.3333C47.8802 77.3333 44 73.4531 44 68.6667C44 63.8802 47.8802 60 52.6667 60C57.4531 60 61.3333 63.8802 61.3333 68.6667ZM51.3333 68C51.3333 67.6318 51.6318 67.3333 52 67.3333H53.3333C53.7015 67.3333 54 67.6318 54 68V72C54 72.3682 53.7015 72.6667 53.3333 72.6667H52C51.6318 72.6667 51.3333 72.3682 51.3333 72V68ZM52 64C51.6318 64 51.3333 64.2985 51.3333 64.6667V65.3333C51.3333 65.7015 51.6318 66 52 66H53.3333C53.7015 66 54 65.7015 54 65.3333V64.6667C54 64.2985 53.7015 64 53.3333 64H52Z" fill="#2563EB" fill-opacity="0.8"/>
</g>
<path d="M37.9379 87.218C37.1712 87.218 36.5679 87.4746 36.1279 87.988C35.6879 88.5013 35.4679 89.2046 35.4679 90.098C35.4679 90.9846 35.6712 91.688 36.0779 92.208C36.4912 92.7213 37.1079 92.978 37.9279 92.978C38.2412 92.978 38.5379 92.9513 38.8179 92.898C39.0979 92.8446 39.3712 92.778 39.6379 92.698V93.478C39.3712 93.578 39.0946 93.6513 38.8079 93.698C38.5279 93.7446 38.1912 93.768 37.7979 93.768C37.0712 93.768 36.4646 93.618 35.9779 93.318C35.4912 93.018 35.1246 92.5913 34.8779 92.038C34.6379 91.4846 34.5179 90.8346 34.5179 90.088C34.5179 89.368 34.6479 88.7346 34.9079 88.188C35.1746 87.6346 35.5646 87.2046 36.0779 86.898C36.5912 86.5846 37.2146 86.428 37.9479 86.428C38.7012 86.428 39.3579 86.568 39.9179 86.848L39.5579 87.608C39.3379 87.508 39.0912 87.418 38.8179 87.338C38.5512 87.258 38.2579 87.218 37.9379 87.218ZM42.8063 88.218C43.4596 88.218 43.9429 88.3613 44.2563 88.648C44.5696 88.9346 44.7263 89.3913 44.7263 90.018V93.668H44.0863L43.9163 92.908H43.8763C43.6429 93.2013 43.3963 93.418 43.1363 93.558C42.8829 93.698 42.5296 93.768 42.0763 93.768C41.5896 93.768 41.1863 93.6413 40.8663 93.388C40.5463 93.128 40.3863 92.7246 40.3863 92.178C40.3863 91.6446 40.5963 91.2346 41.0163 90.948C41.4363 90.6546 42.0829 90.4946 42.9563 90.468L43.8663 90.438V90.118C43.8663 89.6713 43.7696 89.3613 43.5763 89.188C43.3829 89.0146 43.1096 88.928 42.7563 88.928C42.4763 88.928 42.2096 88.9713 41.9563 89.058C41.7029 89.138 41.4663 89.2313 41.2463 89.338L40.9763 88.678C41.2096 88.5513 41.4863 88.4446 41.8063 88.358C42.1263 88.2646 42.4596 88.218 42.8063 88.218ZM43.0663 91.078C42.3996 91.1046 41.9363 91.2113 41.6763 91.398C41.4229 91.5846 41.2963 91.848 41.2963 92.188C41.2963 92.488 41.3863 92.708 41.5663 92.848C41.7529 92.988 41.9896 93.058 42.2763 93.058C42.7296 93.058 43.1063 92.9346 43.4063 92.688C43.7063 92.4346 43.8563 92.048 43.8563 91.528V91.048L43.0663 91.078ZM47.8717 93.048C48.0051 93.048 48.1417 93.038 48.2817 93.018C48.4217 92.9913 48.5351 92.9646 48.6217 92.938V93.608C48.5284 93.6546 48.3951 93.6913 48.2217 93.718C48.0484 93.7513 47.8817 93.768 47.7217 93.768C47.4417 93.768 47.1817 93.7213 46.9417 93.628C46.7084 93.528 46.5184 93.358 46.3717 93.118C46.2251 92.878 46.1517 92.5413 46.1517 92.108V88.988H45.3917V88.568L46.1617 88.218L46.5117 87.078H47.0317V88.308H48.5817V88.988H47.0317V92.088C47.0317 92.4146 47.1084 92.658 47.2617 92.818C47.4217 92.9713 47.6251 93.048 47.8717 93.048ZM51.465 88.208C51.925 88.208 52.3184 88.308 52.645 88.508C52.9784 88.708 53.2317 88.9913 53.405 89.358C53.585 89.718 53.675 90.1413 53.675 90.628V91.158H50.005C50.0184 91.7646 50.1717 92.228 50.465 92.548C50.765 92.8613 51.1817 93.018 51.715 93.018C52.055 93.018 52.355 92.988 52.615 92.928C52.8817 92.8613 53.155 92.768 53.435 92.648V93.418C53.1617 93.538 52.8917 93.6246 52.625 93.678C52.3584 93.738 52.0417 93.768 51.675 93.768C51.1684 93.768 50.7184 93.6646 50.325 93.458C49.9384 93.2513 49.635 92.9446 49.415 92.538C49.2017 92.1246 49.095 91.6213 49.095 91.028C49.095 90.4413 49.1917 89.938 49.385 89.518C49.585 89.098 49.8617 88.7746 50.215 88.548C50.575 88.3213 50.9917 88.208 51.465 88.208ZM51.455 88.928C51.035 88.928 50.7017 89.0646 50.455 89.338C50.215 89.6046 50.0717 89.978 50.025 90.458H52.755C52.7484 90.0046 52.6417 89.638 52.435 89.358C52.2284 89.0713 51.9017 88.928 51.455 88.928ZM56.6395 88.208C56.9929 88.208 57.3095 88.2746 57.5895 88.408C57.8762 88.5413 58.1195 88.7446 58.3195 89.018H58.3695L58.4895 88.308H59.1895V93.758C59.1895 94.5246 58.9929 95.1013 58.5995 95.488C58.2129 95.8746 57.6095 96.068 56.7895 96.068C56.0029 96.068 55.3595 95.9546 54.8595 95.728V94.918C55.3862 95.198 56.0462 95.338 56.8395 95.338C57.2995 95.338 57.6595 95.2013 57.9195 94.928C58.1862 94.6613 58.3195 94.2946 58.3195 93.828V93.618C58.3195 93.538 58.3229 93.4246 58.3295 93.278C58.3362 93.1246 58.3429 93.018 58.3495 92.958H58.3095C57.9495 93.498 57.3962 93.768 56.6495 93.768C55.9562 93.768 55.4129 93.5246 55.0195 93.038C54.6329 92.5513 54.4395 91.8713 54.4395 90.998C54.4395 90.1446 54.6329 89.468 55.0195 88.968C55.4129 88.4613 55.9529 88.208 56.6395 88.208ZM56.7595 88.948C56.3129 88.948 55.9662 89.128 55.7195 89.488C55.4729 89.8413 55.3495 90.348 55.3495 91.008C55.3495 91.668 55.4695 92.1746 55.7095 92.528C55.9562 92.8746 56.3129 93.048 56.7795 93.048C57.3195 93.048 57.7129 92.9046 57.9595 92.618C58.2062 92.3246 58.3295 91.8546 58.3295 91.208V90.998C58.3295 90.2646 58.2029 89.7413 57.9495 89.428C57.6962 89.108 57.2995 88.948 56.7595 88.948ZM65.2519 90.978C65.2519 91.8646 65.0252 92.5513 64.5719 93.038C64.1252 93.5246 63.5186 93.768 62.7519 93.768C62.2786 93.768 61.8552 93.6613 61.4819 93.448C61.1152 93.228 60.8252 92.9113 60.6119 92.498C60.3986 92.078 60.2919 91.5713 60.2919 90.978C60.2919 90.0913 60.5152 89.408 60.9619 88.928C61.4086 88.448 62.0152 88.208 62.7819 88.208C63.2686 88.208 63.6952 88.318 64.0619 88.538C64.4352 88.7513 64.7252 89.0646 64.9319 89.478C65.1452 89.8846 65.2519 90.3846 65.2519 90.978ZM61.2019 90.978C61.2019 91.6113 61.3252 92.1146 61.5719 92.488C61.8252 92.8546 62.2252 93.038 62.7719 93.038C63.3119 93.038 63.7086 92.8546 63.9619 92.488C64.2152 92.1146 64.3419 91.6113 64.3419 90.978C64.3419 90.3446 64.2152 89.848 63.9619 89.488C63.7086 89.128 63.3086 88.948 62.7619 88.948C62.2152 88.948 61.8186 89.128 61.5719 89.488C61.3252 89.848 61.2019 90.3446 61.2019 90.978ZM68.8466 88.208C68.9466 88.208 69.0532 88.2146 69.1666 88.228C69.2866 88.2346 69.3899 88.248 69.4766 88.268L69.3666 89.078C69.2799 89.058 69.1832 89.0413 69.0766 89.028C68.9766 89.0146 68.8799 89.008 68.7866 89.008C68.5132 89.008 68.2566 89.0846 68.0166 89.238C67.7766 89.3846 67.5832 89.5946 67.4366 89.868C67.2966 90.1346 67.2266 90.448 67.2266 90.808V93.668H66.3466V88.308H67.0666L67.1666 89.288H67.2066C67.3799 88.9946 67.6032 88.7413 67.8766 88.528C68.1499 88.3146 68.4732 88.208 68.8466 88.208ZM69.3374 88.308H70.2774L71.4374 91.358C71.5374 91.6246 71.6274 91.8813 71.7074 92.128C71.7874 92.368 71.8474 92.598 71.8874 92.818H71.9274C71.9674 92.6513 72.0308 92.4346 72.1174 92.168C72.2041 91.8946 72.2941 91.6213 72.3874 91.348L73.4774 88.308H74.4274L72.1174 94.408C71.9308 94.9146 71.6874 95.318 71.3874 95.618C71.0941 95.918 70.6874 96.068 70.1674 96.068C70.0074 96.068 69.8674 96.058 69.7474 96.038C69.6274 96.0246 69.5241 96.008 69.4374 95.988V95.288C69.5108 95.3013 69.5974 95.3146 69.6974 95.328C69.8041 95.3413 69.9141 95.348 70.0274 95.348C70.3341 95.348 70.5808 95.2613 70.7674 95.088C70.9608 94.9146 71.1108 94.6846 71.2174 94.398L71.4974 93.688L69.3374 88.308ZM31.8335 99.528C32.7269 99.528 33.4002 99.6613 33.8535 99.928C34.3135 100.188 34.5435 100.645 34.5435 101.298C34.5435 101.718 34.4269 102.068 34.1935 102.348C33.9602 102.621 33.6235 102.798 33.1835 102.878V102.928C33.4835 102.975 33.7535 103.061 33.9935 103.188C34.2402 103.315 34.4335 103.495 34.5735 103.728C34.7135 103.961 34.7835 104.265 34.7835 104.638C34.7835 105.285 34.5602 105.785 34.1135 106.138C33.6735 106.491 33.0702 106.668 32.3035 106.668H29.7935V99.528H31.8335ZM32.0135 102.568C32.6269 102.568 33.0469 102.471 33.2735 102.278C33.5002 102.078 33.6135 101.785 33.6135 101.398C33.6135 101.005 33.4735 100.725 33.1935 100.558C32.9202 100.385 32.4802 100.298 31.8735 100.298H30.6935V102.568H32.0135ZM30.6935 103.318V105.908H32.1335C32.7669 105.908 33.2069 105.785 33.4535 105.538C33.7002 105.291 33.8235 104.968 33.8235 104.568C33.8235 104.195 33.6935 103.895 33.4335 103.668C33.1802 103.435 32.7235 103.318 32.0635 103.318H30.6935ZM38.3774 101.208C38.4774 101.208 38.5841 101.215 38.6974 101.228C38.8174 101.235 38.9208 101.248 39.0074 101.268L38.8974 102.078C38.8108 102.058 38.7141 102.041 38.6074 102.028C38.5074 102.015 38.4108 102.008 38.3174 102.008C38.0441 102.008 37.7874 102.085 37.5474 102.238C37.3074 102.385 37.1141 102.595 36.9674 102.868C36.8274 103.135 36.7574 103.448 36.7574 103.808V106.668H35.8774V101.308H36.5974L36.6974 102.288H36.7374C36.9108 101.995 37.1341 101.741 37.4074 101.528C37.6808 101.315 38.0041 101.208 38.3774 101.208ZM41.583 101.208C42.043 101.208 42.4363 101.308 42.763 101.508C43.0963 101.708 43.3497 101.991 43.523 102.358C43.703 102.718 43.793 103.141 43.793 103.628V104.158H40.123C40.1363 104.765 40.2897 105.228 40.583 105.548C40.883 105.861 41.2997 106.018 41.833 106.018C42.173 106.018 42.473 105.988 42.733 105.928C42.9997 105.861 43.273 105.768 43.553 105.648V106.418C43.2797 106.538 43.0097 106.625 42.743 106.678C42.4763 106.738 42.1597 106.768 41.793 106.768C41.2863 106.768 40.8363 106.665 40.443 106.458C40.0563 106.251 39.753 105.945 39.533 105.538C39.3197 105.125 39.213 104.621 39.213 104.028C39.213 103.441 39.3097 102.938 39.503 102.518C39.703 102.098 39.9797 101.775 40.333 101.548C40.693 101.321 41.1097 101.208 41.583 101.208ZM41.573 101.928C41.153 101.928 40.8197 102.065 40.573 102.338C40.333 102.605 40.1897 102.978 40.143 103.458H42.873C42.8663 103.005 42.7597 102.638 42.553 102.358C42.3463 102.071 42.0197 101.928 41.573 101.928ZM46.8875 101.218C47.5409 101.218 48.0242 101.361 48.3375 101.648C48.6509 101.935 48.8075 102.391 48.8075 103.018V106.668H48.1675L47.9975 105.908H47.9575C47.7242 106.201 47.4775 106.418 47.2175 106.558C46.9642 106.698 46.6109 106.768 46.1575 106.768C45.6709 106.768 45.2675 106.641 44.9475 106.388C44.6275 106.128 44.4675 105.725 44.4675 105.178C44.4675 104.645 44.6775 104.235 45.0975 103.948C45.5175 103.655 46.1642 103.495 47.0375 103.468L47.9475 103.438V103.118C47.9475 102.671 47.8509 102.361 47.6575 102.188C47.4642 102.015 47.1909 101.928 46.8375 101.928C46.5575 101.928 46.2909 101.971 46.0375 102.058C45.7842 102.138 45.5475 102.231 45.3275 102.338L45.0575 101.678C45.2909 101.551 45.5675 101.445 45.8875 101.358C46.2075 101.265 46.5409 101.218 46.8875 101.218ZM47.1475 104.078C46.4809 104.105 46.0175 104.211 45.7575 104.398C45.5042 104.585 45.3775 104.848 45.3775 105.188C45.3775 105.488 45.4675 105.708 45.6475 105.848C45.8342 105.988 46.0709 106.058 46.3575 106.058C46.8109 106.058 47.1875 105.935 47.4875 105.688C47.7875 105.435 47.9375 105.048 47.9375 104.528V104.048L47.1475 104.078ZM51.033 103.038C51.033 103.145 51.0263 103.285 51.013 103.458C51.0063 103.631 50.9997 103.781 50.993 103.908H51.033C51.073 103.855 51.133 103.778 51.213 103.678C51.293 103.578 51.373 103.478 51.453 103.378C51.5397 103.271 51.613 103.185 51.673 103.118L53.383 101.308H54.413L52.243 103.598L54.563 106.668H53.503L51.643 104.168L51.033 104.698V106.668H50.163V99.068H51.033V103.038ZM57.1048 106.768C56.4381 106.768 55.9048 106.538 55.5048 106.078C55.1048 105.611 54.9048 104.918 54.9048 103.998C54.9048 103.078 55.1048 102.385 55.5048 101.918C55.9115 101.445 56.4481 101.208 57.1148 101.208C57.5281 101.208 57.8648 101.285 58.1248 101.438C58.3915 101.591 58.6081 101.778 58.7748 101.998H58.8348C58.8281 101.911 58.8148 101.785 58.7948 101.618C58.7815 101.445 58.7748 101.308 58.7748 101.208V99.068H59.6548V106.668H58.9448L58.8148 105.948H58.7748C58.6148 106.175 58.4015 106.368 58.1348 106.528C57.8681 106.688 57.5248 106.768 57.1048 106.768ZM57.2448 106.038C57.8115 106.038 58.2081 105.885 58.4348 105.578C58.6681 105.265 58.7848 104.795 58.7848 104.168V104.008C58.7848 103.341 58.6748 102.831 58.4548 102.478C58.2348 102.118 57.8281 101.938 57.2348 101.938C56.7615 101.938 56.4048 102.128 56.1648 102.508C55.9315 102.881 55.8148 103.385 55.8148 104.018C55.8148 104.658 55.9315 105.155 56.1648 105.508C56.4048 105.861 56.7648 106.038 57.2448 106.038ZM65.7171 103.978C65.7171 104.865 65.4905 105.551 65.0371 106.038C64.5905 106.525 63.9838 106.768 63.2171 106.768C62.7438 106.768 62.3205 106.661 61.9471 106.448C61.5805 106.228 61.2905 105.911 61.0771 105.498C60.8638 105.078 60.7571 104.571 60.7571 103.978C60.7571 103.091 60.9805 102.408 61.4271 101.928C61.8738 101.448 62.4805 101.208 63.2471 101.208C63.7338 101.208 64.1605 101.318 64.5271 101.538C64.9005 101.751 65.1905 102.065 65.3971 102.478C65.6105 102.885 65.7171 103.385 65.7171 103.978ZM61.6671 103.978C61.6671 104.611 61.7905 105.115 62.0371 105.488C62.2905 105.855 62.6905 106.038 63.2371 106.038C63.7771 106.038 64.1738 105.855 64.4271 105.488C64.6805 105.115 64.8071 104.611 64.8071 103.978C64.8071 103.345 64.6805 102.848 64.4271 102.488C64.1738 102.128 63.7738 101.948 63.2271 101.948C62.6805 101.948 62.2838 102.128 62.0371 102.488C61.7905 102.848 61.6671 103.345 61.6671 103.978ZM70.0765 103.638C69.9898 103.365 69.9132 103.098 69.8465 102.838C69.7865 102.571 69.7398 102.365 69.7065 102.218H69.6665C69.6398 102.365 69.5965 102.571 69.5365 102.838C69.4765 103.098 69.3998 103.368 69.3065 103.648L68.3465 106.658H67.3465L65.8765 101.298H66.7865L67.5265 104.158C67.5998 104.445 67.6698 104.735 67.7365 105.028C67.8032 105.321 67.8498 105.565 67.8765 105.758H67.9165C67.9432 105.645 67.9732 105.505 68.0065 105.338C68.0465 105.171 68.0898 104.998 68.1365 104.818C68.1832 104.631 68.2298 104.465 68.2765 104.318L69.2265 101.298H70.1865L71.1065 104.318C71.1798 104.545 71.2498 104.791 71.3165 105.058C71.3898 105.325 71.4398 105.555 71.4665 105.748H71.5065C71.5265 105.581 71.5698 105.351 71.6365 105.058C71.7098 104.765 71.7865 104.465 71.8665 104.158L72.6165 101.298H73.5165L72.0265 106.658H70.9965L70.0765 103.638ZM76.7578 101.208C77.3978 101.208 77.8812 101.365 78.2078 101.678C78.5345 101.985 78.6978 102.485 78.6978 103.178V106.668H77.8278V103.238C77.8278 102.378 77.4278 101.948 76.6278 101.948C76.0345 101.948 75.6245 102.115 75.3978 102.448C75.1712 102.781 75.0578 103.261 75.0578 103.888V106.668H74.1778V101.308H74.8878L75.0178 102.038H75.0678C75.2412 101.758 75.4812 101.551 75.7878 101.418C76.0945 101.278 76.4178 101.208 76.7578 101.208Z" fill="#61696B"/>
<g filter="url(#filter1_dd)">
<path fill-rule="evenodd" clip-rule="evenodd" d="M99.9998 20C98.1589 20 96.6665 21.4924 96.6665 23.3333V90C96.6665 91.841 98.1589 93.3333 99.9998 93.3333H123.333L128.807 104.282C129.299 105.264 130.701 105.264 131.193 104.282L136.667 93.3333H160C161.841 93.3333 163.333 91.8409 163.333 90V23.3333C163.333 21.4924 161.841 20 160 20H99.9998Z" fill="white"/>
</g>
<path d="M120.531 63.23H123.001V66.73C122.615 66.8567 122.225 66.95 121.831 67.01C121.438 67.07 120.991 67.1 120.491 67.1C119.751 67.1 119.128 66.9533 118.621 66.66C118.115 66.36 117.728 65.9367 117.461 65.39C117.201 64.8367 117.071 64.1833 117.071 63.43C117.071 62.6833 117.218 62.0367 117.511 61.49C117.805 60.9433 118.225 60.52 118.771 60.22C119.325 59.9133 119.991 59.76 120.771 59.76C121.171 59.76 121.548 59.7967 121.901 59.87C122.261 59.9433 122.595 60.0467 122.901 60.18L122.561 60.96C122.308 60.8467 122.021 60.75 121.701 60.67C121.388 60.59 121.061 60.55 120.721 60.55C119.868 60.55 119.201 60.8067 118.721 61.32C118.248 61.8333 118.011 62.5367 118.011 63.43C118.011 63.9967 118.101 64.5 118.281 64.94C118.468 65.3733 118.758 65.7133 119.151 65.96C119.545 66.2 120.061 66.32 120.701 66.32C121.015 66.32 121.281 66.3033 121.501 66.27C121.721 66.2367 121.921 66.1967 122.101 66.15V64.03H120.531V63.23ZM125.167 67H124.287V59.4H125.167V67ZM131.225 64.31C131.225 65.1967 130.998 65.8833 130.545 66.37C130.098 66.8567 129.492 67.1 128.725 67.1C128.252 67.1 127.828 66.9933 127.455 66.78C127.088 66.56 126.798 66.2433 126.585 65.83C126.372 65.41 126.265 64.9033 126.265 64.31C126.265 63.4233 126.488 62.74 126.935 62.26C127.382 61.78 127.988 61.54 128.755 61.54C129.242 61.54 129.668 61.65 130.035 61.87C130.408 62.0833 130.698 62.3967 130.905 62.81C131.118 63.2167 131.225 63.7167 131.225 64.31ZM127.175 64.31C127.175 64.9433 127.298 65.4467 127.545 65.82C127.798 66.1867 128.198 66.37 128.745 66.37C129.285 66.37 129.682 66.1867 129.935 65.82C130.188 65.4467 130.315 64.9433 130.315 64.31C130.315 63.6767 130.188 63.18 129.935 62.82C129.682 62.46 129.282 62.28 128.735 62.28C128.188 62.28 127.792 62.46 127.545 62.82C127.298 63.18 127.175 63.6767 127.175 64.31ZM133.2 61.25C133.2 61.4767 133.193 61.69 133.18 61.89C133.173 62.0833 133.163 62.2367 133.15 62.35H133.2C133.353 62.1233 133.563 61.9333 133.83 61.78C134.096 61.6267 134.44 61.55 134.86 61.55C135.526 61.55 136.06 61.7833 136.46 62.25C136.866 62.71 137.07 63.4 137.07 64.32C137.07 65.24 136.866 65.9333 136.46 66.4C136.053 66.8667 135.52 67.1 134.86 67.1C134.44 67.1 134.096 67.0233 133.83 66.87C133.563 66.7167 133.353 66.5333 133.2 66.32H133.13L132.95 67H132.32V59.4H133.2V61.25ZM134.71 62.28C134.143 62.28 133.75 62.4433 133.53 62.77C133.31 63.0967 133.2 63.6033 133.2 64.29V64.33C133.2 64.99 133.306 65.4967 133.52 65.85C133.74 66.1967 134.143 66.37 134.73 66.37C135.21 66.37 135.566 66.1933 135.8 65.84C136.04 65.4867 136.16 64.9767 136.16 64.31C136.16 62.9567 135.676 62.28 134.71 62.28ZM140.202 61.55C140.855 61.55 141.339 61.6933 141.652 61.98C141.965 62.2667 142.122 62.7233 142.122 63.35V67H141.482L141.312 66.24H141.272C141.039 66.5333 140.792 66.75 140.532 66.89C140.279 67.03 139.925 67.1 139.472 67.1C138.985 67.1 138.582 66.9733 138.262 66.72C137.942 66.46 137.782 66.0567 137.782 65.51C137.782 64.9767 137.992 64.5667 138.412 64.28C138.832 63.9867 139.479 63.8267 140.352 63.8L141.262 63.77V63.45C141.262 63.0033 141.165 62.6933 140.972 62.52C140.779 62.3467 140.505 62.26 140.152 62.26C139.872 62.26 139.605 62.3033 139.352 62.39C139.099 62.47 138.862 62.5633 138.642 62.67L138.372 62.01C138.605 61.8833 138.882 61.7767 139.202 61.69C139.522 61.5967 139.855 61.55 140.202 61.55ZM140.462 64.41C139.795 64.4367 139.332 64.5433 139.072 64.73C138.819 64.9167 138.692 65.18 138.692 65.52C138.692 65.82 138.782 66.04 138.962 66.18C139.149 66.32 139.385 66.39 139.672 66.39C140.125 66.39 140.502 66.2667 140.802 66.02C141.102 65.7667 141.252 65.38 141.252 64.86V64.38L140.462 64.41ZM144.357 67H143.477V59.4H144.357V67ZM115.543 72.86C116.429 72.86 117.083 73.03 117.503 73.37C117.929 73.7033 118.143 74.21 118.143 74.89C118.143 75.27 118.073 75.5867 117.933 75.84C117.793 76.0933 117.613 76.2967 117.393 76.45C117.179 76.5967 116.953 76.7133 116.713 76.8L118.673 80H117.623L115.893 77.05H114.473V80H113.573V72.86H115.543ZM115.493 73.64H114.473V76.29H115.543C116.123 76.29 116.546 76.1767 116.813 75.95C117.079 75.7167 117.213 75.3767 117.213 74.93C117.213 74.4633 117.073 74.1333 116.793 73.94C116.513 73.74 116.079 73.64 115.493 73.64ZM121.403 74.55C122.057 74.55 122.54 74.6933 122.853 74.98C123.167 75.2667 123.323 75.7233 123.323 76.35V80H122.683L122.513 79.24H122.473C122.24 79.5333 121.993 79.75 121.733 79.89C121.48 80.03 121.127 80.1 120.673 80.1C120.187 80.1 119.783 79.9733 119.463 79.72C119.143 79.46 118.983 79.0567 118.983 78.51C118.983 77.9767 119.193 77.5667 119.613 77.28C120.033 76.9867 120.68 76.8267 121.553 76.8L122.463 76.77V76.45C122.463 76.0033 122.367 75.6933 122.173 75.52C121.98 75.3467 121.707 75.26 121.353 75.26C121.073 75.26 120.807 75.3033 120.553 75.39C120.3 75.47 120.063 75.5633 119.843 75.67L119.573 75.01C119.807 74.8833 120.083 74.7767 120.403 74.69C120.723 74.5967 121.057 74.55 121.403 74.55ZM121.663 77.41C120.997 77.4367 120.533 77.5433 120.273 77.73C120.02 77.9167 119.893 78.18 119.893 78.52C119.893 78.82 119.983 79.04 120.163 79.18C120.35 79.32 120.587 79.39 120.873 79.39C121.327 79.39 121.703 79.2667 122.003 79.02C122.303 78.7667 122.453 78.38 122.453 77.86V77.38L121.663 77.41ZM127.259 74.54C127.899 74.54 128.382 74.6967 128.709 75.01C129.035 75.3167 129.199 75.8167 129.199 76.51V80H128.329V76.57C128.329 75.71 127.929 75.28 127.129 75.28C126.535 75.28 126.125 75.4467 125.899 75.78C125.672 76.1133 125.559 76.5933 125.559 77.22V80H124.679V74.64H125.389L125.519 75.37H125.569C125.742 75.09 125.982 74.8833 126.289 74.75C126.595 74.61 126.919 74.54 127.259 74.54ZM131.43 76.37C131.43 76.4767 131.424 76.6167 131.41 76.79C131.404 76.9633 131.397 77.1133 131.39 77.24H131.43C131.47 77.1867 131.53 77.11 131.61 77.01C131.69 76.91 131.77 76.81 131.85 76.71C131.937 76.6033 132.01 76.5167 132.07 76.45L133.78 74.64H134.81L132.64 76.93L134.96 80H133.9L132.04 77.5L131.43 78.03V80H130.56V72.4H131.43V76.37ZM136.052 72.63C136.186 72.63 136.302 72.6767 136.402 72.77C136.509 72.8567 136.562 72.9967 136.562 73.19C136.562 73.3767 136.509 73.5167 136.402 73.61C136.302 73.7033 136.186 73.75 136.052 73.75C135.906 73.75 135.782 73.7033 135.682 73.61C135.582 73.5167 135.532 73.3767 135.532 73.19C135.532 72.9967 135.582 72.8567 135.682 72.77C135.782 72.6767 135.906 72.63 136.052 72.63ZM136.482 74.64V80H135.602V74.64H136.482ZM140.46 74.54C141.1 74.54 141.584 74.6967 141.91 75.01C142.237 75.3167 142.4 75.8167 142.4 76.51V80H141.53V76.57C141.53 75.71 141.13 75.28 140.33 75.28C139.737 75.28 139.327 75.4467 139.1 75.78C138.874 76.1133 138.76 76.5933 138.76 77.22V80H137.88V74.64H138.59L138.72 75.37H138.77C138.944 75.09 139.184 74.8833 139.49 74.75C139.797 74.61 140.12 74.54 140.46 74.54ZM145.662 74.54C146.015 74.54 146.332 74.6067 146.612 74.74C146.899 74.8733 147.142 75.0767 147.342 75.35H147.392L147.512 74.64H148.212V80.09C148.212 80.8567 148.015 81.4333 147.622 81.82C147.235 82.2067 146.632 82.4 145.812 82.4C145.025 82.4 144.382 82.2867 143.882 82.06V81.25C144.409 81.53 145.069 81.67 145.862 81.67C146.322 81.67 146.682 81.5333 146.942 81.26C147.209 80.9933 147.342 80.6267 147.342 80.16V79.95C147.342 79.87 147.345 79.7567 147.352 79.61C147.359 79.4567 147.365 79.35 147.372 79.29H147.332C146.972 79.83 146.419 80.1 145.672 80.1C144.979 80.1 144.435 79.8567 144.042 79.37C143.655 78.8833 143.462 78.2033 143.462 77.33C143.462 76.4767 143.655 75.8 144.042 75.3C144.435 74.7933 144.975 74.54 145.662 74.54ZM145.782 75.28C145.335 75.28 144.989 75.46 144.742 75.82C144.495 76.1733 144.372 76.68 144.372 77.34C144.372 78 144.492 78.5067 144.732 78.86C144.979 79.2067 145.335 79.38 145.802 79.38C146.342 79.38 146.735 79.2367 146.982 78.95C147.229 78.6567 147.352 78.1867 147.352 77.54V77.33C147.352 76.5967 147.225 76.0733 146.972 75.76C146.719 75.44 146.322 75.28 145.782 75.28Z" fill="#61696B"/>
<g filter="url(#filter2_dd)">
<path fill-rule="evenodd" clip-rule="evenodd" d="M123.334 273.336C125.175 273.336 126.667 271.844 126.667 270.003L126.667 203.336C126.667 201.495 125.175 200.003 123.334 200.003L106.667 200.003L106.667 190.005C106.667 188.818 105.231 188.223 104.391 189.063L93.4508 200.003L63.3336 200.003C61.4927 200.003 60.0003 201.495 60.0003 203.336L60.0003 270.003C60.0003 271.844 61.4927 273.336 63.3336 273.336L123.334 273.336Z" fill="white"/>
</g>
<path d="M69.5062 239.86L66.9562 247H66.0562L63.5062 239.86H64.4462L66.0562 244.44C66.1628 244.733 66.2528 245.01 66.3262 245.27C66.3995 245.523 66.4595 245.767 66.5062 246C66.5528 245.767 66.6128 245.52 66.6862 245.26C66.7595 245 66.8495 244.72 66.9562 244.42L68.5562 239.86H69.5062ZM70.5022 239.63C70.6356 239.63 70.7522 239.677 70.8522 239.77C70.9589 239.857 71.0122 239.997 71.0122 240.19C71.0122 240.377 70.9589 240.517 70.8522 240.61C70.7522 240.703 70.6356 240.75 70.5022 240.75C70.3556 240.75 70.2322 240.703 70.1322 240.61C70.0322 240.517 69.9822 240.377 69.9822 240.19C69.9822 239.997 70.0322 239.857 70.1322 239.77C70.2322 239.677 70.3556 239.63 70.5022 239.63ZM70.9322 241.64V247H70.0522V241.64H70.9322ZM75.8204 245.52C75.8204 246.04 75.627 246.433 75.2404 246.7C74.8537 246.967 74.3337 247.1 73.6804 247.1C73.307 247.1 72.9837 247.07 72.7104 247.01C72.4437 246.95 72.207 246.867 72.0004 246.76V245.96C72.2137 246.067 72.4704 246.167 72.7704 246.26C73.077 246.347 73.387 246.39 73.7004 246.39C74.147 246.39 74.4704 246.32 74.6704 246.18C74.8704 246.033 74.9704 245.84 74.9704 245.6C74.9704 245.467 74.9337 245.347 74.8604 245.24C74.787 245.133 74.6537 245.027 74.4604 244.92C74.2737 244.813 74.0037 244.693 73.6504 244.56C73.3037 244.427 73.007 244.293 72.7604 244.16C72.5137 244.027 72.3237 243.867 72.1904 243.68C72.057 243.493 71.9904 243.253 71.9904 242.96C71.9904 242.507 72.1737 242.157 72.5404 241.91C72.9137 241.663 73.4004 241.54 74.0004 241.54C74.327 241.54 74.6304 241.573 74.9104 241.64C75.197 241.7 75.4637 241.787 75.7104 241.9L75.4104 242.6C75.1837 242.507 74.947 242.427 74.7004 242.36C74.4537 242.293 74.2004 242.26 73.9404 242.26C73.5804 242.26 73.3037 242.32 73.1104 242.44C72.9237 242.553 72.8304 242.71 72.8304 242.91C72.8304 243.057 72.8737 243.183 72.9604 243.29C73.047 243.39 73.1904 243.49 73.3904 243.59C73.597 243.683 73.8704 243.797 74.2104 243.93C74.5504 244.057 74.8404 244.187 75.0804 244.32C75.3204 244.453 75.5037 244.617 75.6304 244.81C75.757 244.997 75.8204 245.233 75.8204 245.52ZM81.2955 241.64V247H80.5755L80.4455 246.29H80.4055C80.2322 246.57 79.9922 246.777 79.6855 246.91C79.3789 247.037 79.0522 247.1 78.7055 247.1C78.0589 247.1 77.5722 246.947 77.2455 246.64C76.9189 246.327 76.7555 245.83 76.7555 245.15V241.64H77.6455V245.09C77.6455 245.943 78.0422 246.37 78.8355 246.37C79.4289 246.37 79.8389 246.203 80.0655 245.87C80.2989 245.537 80.4155 245.057 80.4155 244.43V241.64H81.2955ZM84.7272 241.55C85.3805 241.55 85.8638 241.693 86.1772 241.98C86.4905 242.267 86.6472 242.723 86.6472 243.35V247H86.0072L85.8372 246.24H85.7972C85.5638 246.533 85.3172 246.75 85.0572 246.89C84.8038 247.03 84.4505 247.1 83.9972 247.1C83.5105 247.1 83.1072 246.973 82.7872 246.72C82.4672 246.46 82.3072 246.057 82.3072 245.51C82.3072 244.977 82.5172 244.567 82.9372 244.28C83.3572 243.987 84.0038 243.827 84.8772 243.8L85.7872 243.77V243.45C85.7872 243.003 85.6905 242.693 85.4972 242.52C85.3038 242.347 85.0305 242.26 84.6772 242.26C84.3972 242.26 84.1305 242.303 83.8772 242.39C83.6238 242.47 83.3872 242.563 83.1672 242.67L82.8972 242.01C83.1305 241.883 83.4072 241.777 83.7272 241.69C84.0472 241.597 84.3805 241.55 84.7272 241.55ZM84.9872 244.41C84.3205 244.437 83.8572 244.543 83.5972 244.73C83.3438 244.917 83.2172 245.18 83.2172 245.52C83.2172 245.82 83.3072 246.04 83.4872 246.18C83.6738 246.32 83.9105 246.39 84.1972 246.39C84.6505 246.39 85.0272 246.267 85.3272 246.02C85.6272 245.767 85.7772 245.38 85.7772 244.86V244.38L84.9872 244.41ZM88.8826 247H88.0026V239.4H88.8826V247ZM95.7584 240.55C94.9918 240.55 94.3884 240.807 93.9484 241.32C93.5084 241.833 93.2884 242.537 93.2884 243.43C93.2884 244.317 93.4918 245.02 93.8984 245.54C94.3118 246.053 94.9284 246.31 95.7484 246.31C96.0618 246.31 96.3584 246.283 96.6384 246.23C96.9184 246.177 97.1918 246.11 97.4584 246.03V246.81C97.1918 246.91 96.9151 246.983 96.6284 247.03C96.3484 247.077 96.0118 247.1 95.6184 247.1C94.8918 247.1 94.2851 246.95 93.7984 246.65C93.3118 246.35 92.9451 245.923 92.6984 245.37C92.4584 244.817 92.3384 244.167 92.3384 243.42C92.3384 242.7 92.4684 242.067 92.7284 241.52C92.9951 240.967 93.3851 240.537 93.8984 240.23C94.4118 239.917 95.0351 239.76 95.7684 239.76C96.5218 239.76 97.1784 239.9 97.7384 240.18L97.3784 240.94C97.1584 240.84 96.9118 240.75 96.6384 240.67C96.3718 240.59 96.0784 240.55 95.7584 240.55ZM99.4768 241.63C99.4768 241.897 99.4601 242.147 99.4268 242.38H99.4868C99.6601 242.107 99.8934 241.9 100.187 241.76C100.487 241.62 100.81 241.55 101.157 241.55C101.81 241.55 102.3 241.707 102.627 242.02C102.953 242.327 103.117 242.823 103.117 243.51V247H102.247V243.57C102.247 242.71 101.847 242.28 101.047 242.28C100.447 242.28 100.033 242.45 99.8068 242.79C99.5868 243.123 99.4768 243.603 99.4768 244.23V247H98.5968V239.4H99.4768V241.63ZM106.508 241.55C107.162 241.55 107.645 241.693 107.958 241.98C108.272 242.267 108.428 242.723 108.428 243.35V247H107.788L107.618 246.24H107.578C107.345 246.533 107.098 246.75 106.838 246.89C106.585 247.03 106.232 247.1 105.778 247.1C105.292 247.1 104.888 246.973 104.568 246.72C104.248 246.46 104.088 246.057 104.088 245.51C104.088 244.977 104.298 244.567 104.718 244.28C105.138 243.987 105.785 243.827 106.658 243.8L107.568 243.77V243.45C107.568 243.003 107.472 242.693 107.278 242.52C107.085 242.347 106.812 242.26 106.458 242.26C106.178 242.26 105.912 242.303 105.658 242.39C105.405 242.47 105.168 242.563 104.948 242.67L104.678 242.01C104.912 241.883 105.188 241.777 105.508 241.69C105.828 241.597 106.162 241.55 106.508 241.55ZM106.768 244.41C106.102 244.437 105.638 244.543 105.378 244.73C105.125 244.917 104.998 245.18 104.998 245.52C104.998 245.82 105.088 246.04 105.268 246.18C105.455 246.32 105.692 246.39 105.978 246.39C106.432 246.39 106.808 246.267 107.108 246.02C107.408 245.767 107.558 245.38 107.558 244.86V244.38L106.768 244.41ZM112.284 241.54C112.384 241.54 112.491 241.547 112.604 241.56C112.724 241.567 112.827 241.58 112.914 241.6L112.804 242.41C112.717 242.39 112.621 242.373 112.514 242.36C112.414 242.347 112.317 242.34 112.224 242.34C111.951 242.34 111.694 242.417 111.454 242.57C111.214 242.717 111.021 242.927 110.874 243.2C110.734 243.467 110.664 243.78 110.664 244.14V247H109.784V241.64H110.504L110.604 242.62H110.644C110.817 242.327 111.041 242.073 111.314 241.86C111.587 241.647 111.911 241.54 112.284 241.54ZM115.405 246.38C115.538 246.38 115.675 246.37 115.815 246.35C115.955 246.323 116.068 246.297 116.155 246.27V246.94C116.061 246.987 115.928 247.023 115.755 247.05C115.581 247.083 115.415 247.1 115.255 247.1C114.975 247.1 114.715 247.053 114.475 246.96C114.241 246.86 114.051 246.69 113.905 246.45C113.758 246.21 113.685 245.873 113.685 245.44V242.32H112.925V241.9L113.695 241.55L114.045 240.41H114.565V241.64H116.115V242.32H114.565V245.42C114.565 245.747 114.641 245.99 114.795 246.15C114.955 246.303 115.158 246.38 115.405 246.38ZM120.418 245.52C120.418 246.04 120.225 246.433 119.838 246.7C119.451 246.967 118.931 247.1 118.278 247.1C117.905 247.1 117.581 247.07 117.308 247.01C117.041 246.95 116.805 246.867 116.598 246.76V245.96C116.811 246.067 117.068 246.167 117.368 246.26C117.675 246.347 117.985 246.39 118.298 246.39C118.745 246.39 119.068 246.32 119.268 246.18C119.468 246.033 119.568 245.84 119.568 245.6C119.568 245.467 119.531 245.347 119.458 245.24C119.385 245.133 119.251 245.027 119.058 244.92C118.871 244.813 118.601 244.693 118.248 244.56C117.901 244.427 117.605 244.293 117.358 244.16C117.111 244.027 116.921 243.867 116.788 243.68C116.655 243.493 116.588 243.253 116.588 242.96C116.588 242.507 116.771 242.157 117.138 241.91C117.511 241.663 117.998 241.54 118.598 241.54C118.925 241.54 119.228 241.573 119.508 241.64C119.795 241.7 120.061 241.787 120.308 241.9L120.008 242.6C119.781 242.507 119.545 242.427 119.298 242.36C119.051 242.293 118.798 242.26 118.538 242.26C118.178 242.26 117.901 242.32 117.708 242.44C117.521 242.553 117.428 242.71 117.428 242.91C117.428 243.057 117.471 243.183 117.558 243.29C117.645 243.39 117.788 243.49 117.988 243.59C118.195 243.683 118.468 243.797 118.808 243.93C119.148 244.057 119.438 244.187 119.678 244.32C119.918 244.453 120.101 244.617 120.228 244.81C120.355 244.997 120.418 245.233 120.418 245.52ZM75.4948 252.75C76.0281 252.75 76.4481 252.887 76.7548 253.16C77.0681 253.427 77.2248 253.803 77.2248 254.29C77.2248 254.71 77.0881 255.067 76.8148 255.36C76.5481 255.653 76.2081 255.92 75.7948 256.16L77.7248 258.02C77.8981 257.813 78.0381 257.577 78.1448 257.31C78.2581 257.037 78.3515 256.743 78.4248 256.43H79.3148C79.2081 256.857 79.0748 257.253 78.9148 257.62C78.7548 257.987 78.5481 258.307 78.2948 258.58L79.7548 260H78.5648L77.6948 259.16C77.3815 259.44 77.0315 259.667 76.6448 259.84C76.2581 260.013 75.7881 260.1 75.2348 260.1C74.5481 260.1 74.0015 259.93 73.5948 259.59C73.1881 259.25 72.9848 258.767 72.9848 258.14C72.9848 257.627 73.1215 257.217 73.3948 256.91C73.6748 256.597 74.0515 256.307 74.5248 256.04C74.3115 255.8 74.1115 255.543 73.9248 255.27C73.7448 254.997 73.6548 254.677 73.6548 254.31C73.6548 253.817 73.8181 253.433 74.1448 253.16C74.4781 252.887 74.9281 252.75 75.4948 252.75ZM75.4648 253.47C75.1848 253.47 74.9548 253.543 74.7748 253.69C74.6015 253.837 74.5148 254.04 74.5148 254.3C74.5148 254.54 74.5781 254.763 74.7048 254.97C74.8315 255.17 75.0148 255.393 75.2548 255.64C75.6481 255.413 75.9281 255.2 76.0948 255C76.2681 254.793 76.3548 254.557 76.3548 254.29C76.3548 254.05 76.2748 253.853 76.1148 253.7C75.9548 253.547 75.7381 253.47 75.4648 253.47ZM75.0548 256.59C74.6948 256.803 74.4115 257.02 74.2048 257.24C74.0048 257.46 73.9048 257.75 73.9048 258.11C73.9048 258.477 74.0281 258.77 74.2748 258.99C74.5215 259.21 74.8515 259.32 75.2648 259.32C75.6915 259.32 76.0581 259.25 76.3648 259.11C76.6715 258.97 76.9281 258.803 77.1348 258.61L75.0548 256.59ZM85.8467 256.23H88.3167V259.73C87.93 259.857 87.54 259.95 87.1467 260.01C86.7533 260.07 86.3067 260.1 85.8067 260.1C85.0667 260.1 84.4433 259.953 83.9367 259.66C83.43 259.36 83.0433 258.937 82.7767 258.39C82.5167 257.837 82.3867 257.183 82.3867 256.43C82.3867 255.683 82.5333 255.037 82.8267 254.49C83.12 253.943 83.54 253.52 84.0867 253.22C84.64 252.913 85.3067 252.76 86.0867 252.76C86.4867 252.76 86.8633 252.797 87.2167 252.87C87.5767 252.943 87.91 253.047 88.2167 253.18L87.8767 253.96C87.6233 253.847 87.3367 253.75 87.0167 253.67C86.7033 253.59 86.3767 253.55 86.0367 253.55C85.1833 253.55 84.5167 253.807 84.0367 254.32C83.5633 254.833 83.3267 255.537 83.3267 256.43C83.3267 256.997 83.4167 257.5 83.5967 257.94C83.7833 258.373 84.0733 258.713 84.4667 258.96C84.86 259.2 85.3767 259.32 86.0167 259.32C86.33 259.32 86.5967 259.303 86.8167 259.27C87.0367 259.237 87.2367 259.197 87.4167 259.15V257.03H85.8467V256.23ZM92.1021 254.54C92.2021 254.54 92.3087 254.547 92.4221 254.56C92.5421 254.567 92.6454 254.58 92.7321 254.6L92.6221 255.41C92.5354 255.39 92.4387 255.373 92.3321 255.36C92.2321 255.347 92.1354 255.34 92.0421 255.34C91.7687 255.34 91.5121 255.417 91.2721 255.57C91.0321 255.717 90.8387 255.927 90.6921 256.2C90.5521 256.467 90.4821 256.78 90.4821 257.14V260H89.6021V254.64H90.3221L90.4221 255.62H90.4621C90.6354 255.327 90.8587 255.073 91.1321 254.86C91.4054 254.647 91.7287 254.54 92.1021 254.54ZM95.2676 254.55C95.9209 254.55 96.4043 254.693 96.7176 254.98C97.0309 255.267 97.1876 255.723 97.1876 256.35V260H96.5476L96.3776 259.24H96.3376C96.1043 259.533 95.8576 259.75 95.5976 259.89C95.3443 260.03 94.9909 260.1 94.5376 260.1C94.0509 260.1 93.6476 259.973 93.3276 259.72C93.0076 259.46 92.8476 259.057 92.8476 258.51C92.8476 257.977 93.0576 257.567 93.4776 257.28C93.8976 256.987 94.5443 256.827 95.4176 256.8L96.3276 256.77V256.45C96.3276 256.003 96.2309 255.693 96.0376 255.52C95.8443 255.347 95.5709 255.26 95.2176 255.26C94.9376 255.26 94.6709 255.303 94.4176 255.39C94.1643 255.47 93.9276 255.563 93.7076 255.67L93.4376 255.01C93.6709 254.883 93.9476 254.777 94.2676 254.69C94.5876 254.597 94.9209 254.55 95.2676 254.55ZM95.5276 257.41C94.8609 257.437 94.3976 257.543 94.1376 257.73C93.8843 257.917 93.7576 258.18 93.7576 258.52C93.7576 258.82 93.8476 259.04 94.0276 259.18C94.2143 259.32 94.4509 259.39 94.7376 259.39C95.1909 259.39 95.5676 259.267 95.8676 259.02C96.1676 258.767 96.3176 258.38 96.3176 257.86V257.38L95.5276 257.41ZM101.093 254.54C101.753 254.54 102.283 254.77 102.683 255.23C103.09 255.69 103.293 256.383 103.293 257.31C103.293 258.223 103.09 258.917 102.683 259.39C102.283 259.863 101.75 260.1 101.083 260.1C100.67 260.1 100.326 260.023 100.053 259.87C99.7864 259.71 99.5764 259.527 99.4231 259.32H99.3631C99.3764 259.433 99.3897 259.577 99.4031 259.75C99.4164 259.923 99.4231 260.073 99.4231 260.2V262.4H98.5431V254.64H99.2631L99.3831 255.37H99.4231C99.5831 255.137 99.7931 254.94 100.053 254.78C100.313 254.62 100.66 254.54 101.093 254.54ZM100.933 255.28C100.386 255.28 99.9997 255.433 99.7731 255.74C99.5531 256.047 99.4364 256.513 99.4231 257.14V257.31C99.4231 257.97 99.5297 258.48 99.7431 258.84C99.9631 259.193 100.366 259.37 100.953 259.37C101.28 259.37 101.546 259.28 101.753 259.1C101.966 258.92 102.123 258.677 102.223 258.37C102.33 258.057 102.383 257.7 102.383 257.3C102.383 256.687 102.263 256.197 102.023 255.83C101.79 255.463 101.426 255.28 100.933 255.28ZM105.275 254.63C105.275 254.897 105.259 255.147 105.225 255.38H105.285C105.459 255.107 105.692 254.9 105.985 254.76C106.285 254.62 106.609 254.55 106.955 254.55C107.609 254.55 108.099 254.707 108.425 255.02C108.752 255.327 108.915 255.823 108.915 256.51V260H108.045V256.57C108.045 255.71 107.645 255.28 106.845 255.28C106.245 255.28 105.832 255.45 105.605 255.79C105.385 256.123 105.275 256.603 105.275 257.23V260H104.395V252.4H105.275V254.63ZM113.767 258.52C113.767 259.04 113.574 259.433 113.187 259.7C112.8 259.967 112.28 260.1 111.627 260.1C111.254 260.1 110.93 260.07 110.657 260.01C110.39 259.95 110.154 259.867 109.947 259.76V258.96C110.16 259.067 110.417 259.167 110.717 259.26C111.024 259.347 111.334 259.39 111.647 259.39C112.094 259.39 112.417 259.32 112.617 259.18C112.817 259.033 112.917 258.84 112.917 258.6C112.917 258.467 112.88 258.347 112.807 258.24C112.734 258.133 112.6 258.027 112.407 257.92C112.22 257.813 111.95 257.693 111.597 257.56C111.25 257.427 110.954 257.293 110.707 257.16C110.46 257.027 110.27 256.867 110.137 256.68C110.004 256.493 109.937 256.253 109.937 255.96C109.937 255.507 110.12 255.157 110.487 254.91C110.86 254.663 111.347 254.54 111.947 254.54C112.274 254.54 112.577 254.573 112.857 254.64C113.144 254.7 113.41 254.787 113.657 254.9L113.357 255.6C113.13 255.507 112.894 255.427 112.647 255.36C112.4 255.293 112.147 255.26 111.887 255.26C111.527 255.26 111.25 255.32 111.057 255.44C110.87 255.553 110.777 255.71 110.777 255.91C110.777 256.057 110.82 256.183 110.907 256.29C110.994 256.39 111.137 256.49 111.337 256.59C111.544 256.683 111.817 256.797 112.157 256.93C112.497 257.057 112.787 257.187 113.027 257.32C113.267 257.453 113.45 257.617 113.577 257.81C113.704 257.997 113.767 258.233 113.767 258.52Z" fill="#61696B"/>
<g filter="url(#filter3_dd)">
<path fill-rule="evenodd" clip-rule="evenodd" d="M196.667 273.336C198.508 273.336 200 271.844 200 270.003L200 203.336C200 201.495 198.508 200.003 196.667 200.003L166.549 200.003L155.609 189.063C154.77 188.223 153.333 188.818 153.333 190.005L153.333 200.003L136.667 200.003C134.826 200.003 133.333 201.495 133.333 203.336L133.333 270.003C133.333 271.844 134.826 273.336 136.667 273.336L196.667 273.336Z" fill="white"/>
</g>
<g clip-path="url(#clip1)">
<path fill-rule="evenodd" clip-rule="evenodd" d="M176.667 223.331C176.667 228.117 172.19 231.997 166.667 231.997C164.832 231.997 163.112 231.569 161.634 230.821L158.569 232.135C158.062 232.352 157.526 231.895 157.66 231.36L158.436 228.254C157.32 226.856 156.667 225.159 156.667 223.331C156.667 218.544 161.144 214.664 166.667 214.664C172.19 214.664 176.667 218.544 176.667 223.331ZM162.333 224.665C163.254 224.665 164 223.919 164 222.999C164 222.078 163.254 221.332 162.333 221.332C161.413 221.332 160.667 222.078 160.667 222.999C160.667 223.919 161.413 224.665 162.333 224.665ZM168.667 222.999C168.667 223.919 167.921 224.665 167 224.665C166.08 224.665 165.333 223.919 165.333 222.999C165.333 222.078 166.08 221.332 167 221.332C167.921 221.332 168.667 222.078 168.667 222.999ZM171.667 224.665C172.587 224.665 173.333 223.919 173.333 222.999C173.333 222.078 172.587 221.332 171.667 221.332C170.746 221.332 170 222.078 170 222.999C170 223.919 170.746 224.665 171.667 224.665Z" fill="#EC4899"/>
</g>
<path d="M139.974 239.86C140.907 239.86 141.587 240.043 142.014 240.41C142.441 240.777 142.654 241.293 142.654 241.96C142.654 242.353 142.564 242.723 142.384 243.07C142.211 243.41 141.914 243.687 141.494 243.9C141.081 244.113 140.517 244.22 139.804 244.22H138.984V247H138.084V239.86H139.974ZM139.894 240.63H138.984V243.45H139.704C140.384 243.45 140.891 243.34 141.224 243.12C141.557 242.9 141.724 242.527 141.724 242C141.724 241.54 141.577 241.197 141.284 240.97C140.991 240.743 140.527 240.63 139.894 240.63ZM145.789 241.54C146.249 241.54 146.642 241.64 146.969 241.84C147.302 242.04 147.555 242.323 147.729 242.69C147.909 243.05 147.999 243.473 147.999 243.96V244.49H144.329C144.342 245.097 144.495 245.56 144.789 245.88C145.089 246.193 145.505 246.35 146.039 246.35C146.379 246.35 146.679 246.32 146.939 246.26C147.205 246.193 147.479 246.1 147.759 245.98V246.75C147.485 246.87 147.215 246.957 146.949 247.01C146.682 247.07 146.365 247.1 145.999 247.1C145.492 247.1 145.042 246.997 144.649 246.79C144.262 246.583 143.959 246.277 143.739 245.87C143.525 245.457 143.419 244.953 143.419 244.36C143.419 243.773 143.515 243.27 143.709 242.85C143.909 242.43 144.185 242.107 144.539 241.88C144.899 241.653 145.315 241.54 145.789 241.54ZM145.779 242.26C145.359 242.26 145.025 242.397 144.779 242.67C144.539 242.937 144.395 243.31 144.349 243.79H147.079C147.072 243.337 146.965 242.97 146.759 242.69C146.552 242.403 146.225 242.26 145.779 242.26ZM151.563 241.54C151.663 241.54 151.77 241.547 151.883 241.56C152.003 241.567 152.107 241.58 152.193 241.6L152.083 242.41C151.997 242.39 151.9 242.373 151.793 242.36C151.693 242.347 151.597 242.34 151.503 242.34C151.23 242.34 150.973 242.417 150.733 242.57C150.493 242.717 150.3 242.927 150.153 243.2C150.013 243.467 149.943 243.78 149.943 244.14V247H149.063V241.64H149.783L149.883 242.62H149.923C150.097 242.327 150.32 242.073 150.593 241.86C150.867 241.647 151.19 241.54 151.563 241.54ZM156.384 245.52C156.384 246.04 156.191 246.433 155.804 246.7C155.417 246.967 154.897 247.1 154.244 247.1C153.871 247.1 153.547 247.07 153.274 247.01C153.007 246.95 152.771 246.867 152.564 246.76V245.96C152.777 246.067 153.034 246.167 153.334 246.26C153.641 246.347 153.951 246.39 154.264 246.39C154.711 246.39 155.034 246.32 155.234 246.18C155.434 246.033 155.534 245.84 155.534 245.6C155.534 245.467 155.497 245.347 155.424 245.24C155.351 245.133 155.217 245.027 155.024 244.92C154.837 244.813 154.567 244.693 154.214 244.56C153.867 244.427 153.571 244.293 153.324 244.16C153.077 244.027 152.887 243.867 152.754 243.68C152.621 243.493 152.554 243.253 152.554 242.96C152.554 242.507 152.737 242.157 153.104 241.91C153.477 241.663 153.964 241.54 154.564 241.54C154.891 241.54 155.194 241.573 155.474 241.64C155.761 241.7 156.027 241.787 156.274 241.9L155.974 242.6C155.747 242.507 155.511 242.427 155.264 242.36C155.017 242.293 154.764 242.26 154.504 242.26C154.144 242.26 153.867 242.32 153.674 242.44C153.487 242.553 153.394 242.71 153.394 242.91C153.394 243.057 153.437 243.183 153.524 243.29C153.611 243.39 153.754 243.49 153.954 243.59C154.161 243.683 154.434 243.797 154.774 243.93C155.114 244.057 155.404 244.187 155.644 244.32C155.884 244.453 156.067 244.617 156.194 244.81C156.321 244.997 156.384 245.233 156.384 245.52ZM162.039 244.31C162.039 245.197 161.813 245.883 161.359 246.37C160.913 246.857 160.306 247.1 159.539 247.1C159.066 247.1 158.643 246.993 158.269 246.78C157.903 246.56 157.613 246.243 157.399 245.83C157.186 245.41 157.079 244.903 157.079 244.31C157.079 243.423 157.303 242.74 157.749 242.26C158.196 241.78 158.803 241.54 159.569 241.54C160.056 241.54 160.483 241.65 160.849 241.87C161.223 242.083 161.513 242.397 161.719 242.81C161.933 243.217 162.039 243.717 162.039 244.31ZM157.989 244.31C157.989 244.943 158.113 245.447 158.359 245.82C158.613 246.187 159.013 246.37 159.559 246.37C160.099 246.37 160.496 246.187 160.749 245.82C161.003 245.447 161.129 244.943 161.129 244.31C161.129 243.677 161.003 243.18 160.749 242.82C160.496 242.46 160.096 242.28 159.549 242.28C159.003 242.28 158.606 242.46 158.359 242.82C158.113 243.18 157.989 243.677 157.989 244.31ZM165.714 241.54C166.354 241.54 166.837 241.697 167.164 242.01C167.491 242.317 167.654 242.817 167.654 243.51V247H166.784V243.57C166.784 242.71 166.384 242.28 165.584 242.28C164.991 242.28 164.581 242.447 164.354 242.78C164.127 243.113 164.014 243.593 164.014 244.22V247H163.134V241.64H163.844L163.974 242.37H164.024C164.197 242.09 164.437 241.883 164.744 241.75C165.051 241.61 165.374 241.54 165.714 241.54ZM171.046 241.55C171.699 241.55 172.182 241.693 172.496 241.98C172.809 242.267 172.966 242.723 172.966 243.35V247H172.326L172.156 246.24H172.116C171.882 246.533 171.636 246.75 171.376 246.89C171.122 247.03 170.769 247.1 170.316 247.1C169.829 247.1 169.426 246.973 169.106 246.72C168.786 246.46 168.626 246.057 168.626 245.51C168.626 244.977 168.836 244.567 169.256 244.28C169.676 243.987 170.322 243.827 171.196 243.8L172.106 243.77V243.45C172.106 243.003 172.009 242.693 171.816 242.52C171.622 242.347 171.349 242.26 170.996 242.26C170.716 242.26 170.449 242.303 170.196 242.39C169.942 242.47 169.706 242.563 169.486 242.67L169.216 242.01C169.449 241.883 169.726 241.777 170.046 241.69C170.366 241.597 170.699 241.55 171.046 241.55ZM171.306 244.41C170.639 244.437 170.176 244.543 169.916 244.73C169.662 244.917 169.536 245.18 169.536 245.52C169.536 245.82 169.626 246.04 169.806 246.18C169.992 246.32 170.229 246.39 170.516 246.39C170.969 246.39 171.346 246.267 171.646 246.02C171.946 245.767 172.096 245.38 172.096 244.86V244.38L171.306 244.41ZM175.201 247H174.321V239.4H175.201V247ZM177.049 239.63C177.182 239.63 177.299 239.677 177.399 239.77C177.506 239.857 177.559 239.997 177.559 240.19C177.559 240.377 177.506 240.517 177.399 240.61C177.299 240.703 177.182 240.75 177.049 240.75C176.902 240.75 176.779 240.703 176.679 240.61C176.579 240.517 176.529 240.377 176.529 240.19C176.529 239.997 176.579 239.857 176.679 239.77C176.779 239.677 176.902 239.63 177.049 239.63ZM177.479 241.64V247H176.599V241.64H177.479ZM182.337 247H178.417V246.42L181.297 242.32H178.587V241.64H182.267V242.3L179.427 246.32H182.337V247ZM185.345 241.54C185.805 241.54 186.198 241.64 186.525 241.84C186.858 242.04 187.111 242.323 187.285 242.69C187.465 243.05 187.555 243.473 187.555 243.96V244.49H183.885C183.898 245.097 184.051 245.56 184.345 245.88C184.645 246.193 185.061 246.35 185.595 246.35C185.935 246.35 186.235 246.32 186.495 246.26C186.761 246.193 187.035 246.1 187.315 245.98V246.75C187.041 246.87 186.771 246.957 186.505 247.01C186.238 247.07 185.921 247.1 185.555 247.1C185.048 247.1 184.598 246.997 184.205 246.79C183.818 246.583 183.515 246.277 183.295 245.87C183.081 245.457 182.975 244.953 182.975 244.36C182.975 243.773 183.071 243.27 183.265 242.85C183.465 242.43 183.741 242.107 184.095 241.88C184.455 241.653 184.871 241.54 185.345 241.54ZM185.335 242.26C184.915 242.26 184.581 242.397 184.335 242.67C184.095 242.937 183.951 243.31 183.905 243.79H186.635C186.628 243.337 186.521 242.97 186.315 242.69C186.108 242.403 185.781 242.26 185.335 242.26ZM190.519 247.1C189.852 247.1 189.319 246.87 188.919 246.41C188.519 245.943 188.319 245.25 188.319 244.33C188.319 243.41 188.519 242.717 188.919 242.25C189.326 241.777 189.862 241.54 190.529 241.54C190.942 241.54 191.279 241.617 191.539 241.77C191.806 241.923 192.022 242.11 192.189 242.33H192.249C192.242 242.243 192.229 242.117 192.209 241.95C192.196 241.777 192.189 241.64 192.189 241.54V239.4H193.069V247H192.359L192.229 246.28H192.189C192.029 246.507 191.816 246.7 191.549 246.86C191.282 247.02 190.939 247.1 190.519 247.1ZM190.659 246.37C191.226 246.37 191.622 246.217 191.849 245.91C192.082 245.597 192.199 245.127 192.199 244.5V244.34C192.199 243.673 192.089 243.163 191.869 242.81C191.649 242.45 191.242 242.27 190.649 242.27C190.176 242.27 189.819 242.46 189.579 242.84C189.346 243.213 189.229 243.717 189.229 244.35C189.229 244.99 189.346 245.487 189.579 245.84C189.819 246.193 190.179 246.37 190.659 246.37ZM149.989 258.09C149.989 258.723 149.759 259.217 149.299 259.57C148.839 259.923 148.219 260.1 147.439 260.1C147.039 260.1 146.669 260.07 146.329 260.01C145.989 259.95 145.706 259.867 145.479 259.76V258.9C145.719 259.007 146.016 259.103 146.369 259.19C146.729 259.277 147.099 259.32 147.479 259.32C148.012 259.32 148.412 259.217 148.679 259.01C148.952 258.803 149.089 258.523 149.089 258.17C149.089 257.937 149.039 257.74 148.939 257.58C148.839 257.42 148.666 257.273 148.419 257.14C148.179 257 147.842 256.853 147.409 256.7C146.802 256.48 146.342 256.21 146.029 255.89C145.722 255.57 145.569 255.133 145.569 254.58C145.569 254.2 145.666 253.877 145.859 253.61C146.052 253.337 146.319 253.127 146.659 252.98C147.006 252.833 147.402 252.76 147.849 252.76C148.242 252.76 148.602 252.797 148.929 252.87C149.256 252.943 149.552 253.04 149.819 253.16L149.539 253.93C149.292 253.823 149.022 253.733 148.729 253.66C148.442 253.587 148.142 253.55 147.829 253.55C147.382 253.55 147.046 253.647 146.819 253.84C146.592 254.027 146.479 254.277 146.479 254.59C146.479 254.83 146.529 255.03 146.629 255.19C146.729 255.35 146.892 255.493 147.119 255.62C147.346 255.747 147.652 255.883 148.039 256.03C148.459 256.183 148.812 256.35 149.099 256.53C149.392 256.703 149.612 256.913 149.759 257.16C149.912 257.407 149.989 257.717 149.989 258.09ZM155.487 254.64V260H154.767L154.637 259.29H154.597C154.424 259.57 154.184 259.777 153.877 259.91C153.57 260.037 153.244 260.1 152.897 260.1C152.25 260.1 151.764 259.947 151.437 259.64C151.11 259.327 150.947 258.83 150.947 258.15V254.64H151.837V258.09C151.837 258.943 152.234 259.37 153.027 259.37C153.62 259.37 154.03 259.203 154.257 258.87C154.49 258.537 154.607 258.057 154.607 257.43V254.64H155.487ZM162.769 254.54C163.375 254.54 163.829 254.697 164.129 255.01C164.429 255.317 164.579 255.817 164.579 256.51V260H163.709V256.55C163.709 255.703 163.345 255.28 162.619 255.28C162.099 255.28 161.725 255.43 161.499 255.73C161.279 256.03 161.169 256.467 161.169 257.04V260H160.299V256.55C160.299 255.703 159.932 255.28 159.199 255.28C158.659 255.28 158.285 255.447 158.079 255.78C157.872 256.113 157.769 256.593 157.769 257.22V260H156.889V254.64H157.599L157.729 255.37H157.779C157.945 255.09 158.169 254.883 158.449 254.75C158.735 254.61 159.039 254.54 159.359 254.54C160.199 254.54 160.745 254.84 160.999 255.44H161.049C161.229 255.133 161.472 254.907 161.779 254.76C162.092 254.613 162.422 254.54 162.769 254.54ZM171.814 254.54C172.421 254.54 172.874 254.697 173.174 255.01C173.474 255.317 173.624 255.817 173.624 256.51V260H172.754V256.55C172.754 255.703 172.391 255.28 171.664 255.28C171.144 255.28 170.771 255.43 170.544 255.73C170.324 256.03 170.214 256.467 170.214 257.04V260H169.344V256.55C169.344 255.703 168.978 255.28 168.244 255.28C167.704 255.28 167.331 255.447 167.124 255.78C166.918 256.113 166.814 256.593 166.814 257.22V260H165.934V254.64H166.644L166.774 255.37H166.824C166.991 255.09 167.214 254.883 167.494 254.75C167.781 254.61 168.084 254.54 168.404 254.54C169.244 254.54 169.791 254.84 170.044 255.44H170.094C170.274 255.133 170.518 254.907 170.824 254.76C171.138 254.613 171.468 254.54 171.814 254.54ZM177.01 254.55C177.664 254.55 178.147 254.693 178.46 254.98C178.774 255.267 178.93 255.723 178.93 256.35V260H178.29L178.12 259.24H178.08C177.847 259.533 177.6 259.75 177.34 259.89C177.087 260.03 176.734 260.1 176.28 260.1C175.794 260.1 175.39 259.973 175.07 259.72C174.75 259.46 174.59 259.057 174.59 258.51C174.59 257.977 174.8 257.567 175.22 257.28C175.64 256.987 176.287 256.827 177.16 256.8L178.07 256.77V256.45C178.07 256.003 177.974 255.693 177.78 255.52C177.587 255.347 177.314 255.26 176.96 255.26C176.68 255.26 176.414 255.303 176.16 255.39C175.907 255.47 175.67 255.563 175.45 255.67L175.18 255.01C175.414 254.883 175.69 254.777 176.01 254.69C176.33 254.597 176.664 254.55 177.01 254.55ZM177.27 257.41C176.604 257.437 176.14 257.543 175.88 257.73C175.627 257.917 175.5 258.18 175.5 258.52C175.5 258.82 175.59 259.04 175.77 259.18C175.957 259.32 176.194 259.39 176.48 259.39C176.934 259.39 177.31 259.267 177.61 259.02C177.91 258.767 178.06 258.38 178.06 257.86V257.38L177.27 257.41ZM182.786 254.54C182.886 254.54 182.992 254.547 183.106 254.56C183.226 254.567 183.329 254.58 183.416 254.6L183.306 255.41C183.219 255.39 183.122 255.373 183.016 255.36C182.916 255.347 182.819 255.34 182.726 255.34C182.452 255.34 182.196 255.417 181.956 255.57C181.716 255.717 181.522 255.927 181.376 256.2C181.236 256.467 181.166 256.78 181.166 257.14V260H180.286V254.64H181.006L181.106 255.62H181.146C181.319 255.327 181.542 255.073 181.816 254.86C182.089 254.647 182.412 254.54 182.786 254.54ZM183.277 254.64H184.217L185.377 257.69C185.477 257.957 185.567 258.213 185.647 258.46C185.727 258.7 185.787 258.93 185.827 259.15H185.867C185.907 258.983 185.97 258.767 186.057 258.5C186.143 258.227 186.233 257.953 186.327 257.68L187.417 254.64H188.367L186.057 260.74C185.87 261.247 185.627 261.65 185.327 261.95C185.033 262.25 184.627 262.4 184.107 262.4C183.947 262.4 183.807 262.39 183.687 262.37C183.567 262.357 183.463 262.34 183.377 262.32V261.62C183.45 261.633 183.537 261.647 183.637 261.66C183.743 261.673 183.853 261.68 183.967 261.68C184.273 261.68 184.52 261.593 184.707 261.42C184.9 261.247 185.05 261.017 185.157 260.73L185.437 260.02L183.277 254.64Z" fill="#61696B"/>
<g filter="url(#filter4_dd)">
<path fill-rule="evenodd" clip-rule="evenodd" d="M176.666 46.6641C174.825 46.6641 173.333 48.1565 173.333 49.9974V116.664C173.333 118.505 174.825 119.997 176.666 119.997H200V130.112C200 131.3 201.436 131.895 202.276 131.055L213.333 119.997H236.666C238.507 119.997 240 118.505 240 116.664V49.9974C240 48.1564 238.507 46.6641 236.666 46.6641H176.666Z" fill="white"/>
</g>
<path d="M180.296 86.528C181.183 86.528 181.836 86.698 182.256 87.038C182.683 87.3713 182.896 87.878 182.896 88.558C182.896 88.938 182.826 89.2546 182.686 89.508C182.546 89.7613 182.366 89.9646 182.146 90.118C181.933 90.2646 181.706 90.3813 181.466 90.468L183.426 93.668H182.376L180.646 90.718H179.226V93.668H178.326V86.528H180.296ZM180.246 87.308H179.226V89.958H180.296C180.876 89.958 181.299 89.8446 181.566 89.618C181.833 89.3846 181.966 89.0446 181.966 88.598C181.966 88.1313 181.826 87.8013 181.546 87.608C181.266 87.408 180.833 87.308 180.246 87.308ZM184.577 86.298C184.71 86.298 184.827 86.3446 184.927 86.438C185.033 86.5246 185.087 86.6646 185.087 86.858C185.087 87.0446 185.033 87.1846 184.927 87.278C184.827 87.3713 184.71 87.418 184.577 87.418C184.43 87.418 184.307 87.3713 184.207 87.278C184.107 87.1846 184.057 87.0446 184.057 86.858C184.057 86.6646 184.107 86.5246 184.207 86.438C184.307 86.3446 184.43 86.298 184.577 86.298ZM185.007 88.308V93.668H184.127V88.308H185.007ZM188.305 88.208C188.658 88.208 188.975 88.2746 189.255 88.408C189.542 88.5413 189.785 88.7446 189.985 89.018H190.035L190.155 88.308H190.855V93.758C190.855 94.5246 190.658 95.1013 190.265 95.488C189.878 95.8746 189.275 96.068 188.455 96.068C187.668 96.068 187.025 95.9546 186.525 95.728V94.918C187.052 95.198 187.712 95.338 188.505 95.338C188.965 95.338 189.325 95.2013 189.585 94.928C189.852 94.6613 189.985 94.2946 189.985 93.828V93.618C189.985 93.538 189.988 93.4246 189.995 93.278C190.002 93.1246 190.008 93.018 190.015 92.958H189.975C189.615 93.498 189.062 93.768 188.315 93.768C187.622 93.768 187.078 93.5246 186.685 93.038C186.298 92.5513 186.105 91.8713 186.105 90.998C186.105 90.1446 186.298 89.468 186.685 88.968C187.078 88.4613 187.618 88.208 188.305 88.208ZM188.425 88.948C187.978 88.948 187.632 89.128 187.385 89.488C187.138 89.8413 187.015 90.348 187.015 91.008C187.015 91.668 187.135 92.1746 187.375 92.528C187.622 92.8746 187.978 93.048 188.445 93.048C188.985 93.048 189.378 92.9046 189.625 92.618C189.872 92.3246 189.995 91.8546 189.995 91.208V90.998C189.995 90.2646 189.868 89.7413 189.615 89.428C189.362 89.108 188.965 88.948 188.425 88.948ZM193.137 88.298C193.137 88.5646 193.121 88.8146 193.087 89.048H193.147C193.321 88.7746 193.554 88.568 193.847 88.428C194.147 88.288 194.471 88.218 194.817 88.218C195.471 88.218 195.961 88.3746 196.287 88.688C196.614 88.9946 196.777 89.4913 196.777 90.178V93.668H195.907V90.238C195.907 89.378 195.507 88.948 194.707 88.948C194.107 88.948 193.694 89.118 193.467 89.458C193.247 89.7913 193.137 90.2713 193.137 90.898V93.668H192.257V86.068H193.137V88.298ZM199.929 93.048C200.062 93.048 200.199 93.038 200.339 93.018C200.479 92.9913 200.592 92.9646 200.679 92.938V93.608C200.586 93.6546 200.452 93.6913 200.279 93.718C200.106 93.7513 199.939 93.768 199.779 93.768C199.499 93.768 199.239 93.7213 198.999 93.628C198.766 93.528 198.576 93.358 198.429 93.118C198.282 92.878 198.209 92.5413 198.209 92.108V88.988H197.449V88.568L198.219 88.218L198.569 87.078H199.089V88.308H200.639V88.988H199.089V92.088C199.089 92.4146 199.166 92.658 199.319 92.818C199.479 92.9713 199.682 93.048 199.929 93.048ZM204.222 86.528L201.562 93.668H200.702L203.362 86.528H204.222ZM213.193 86.528L211.293 93.668H210.383L208.993 88.988C208.94 88.7946 208.886 88.6013 208.833 88.408C208.78 88.2146 208.736 88.0446 208.703 87.898C208.67 87.7446 208.646 87.638 208.633 87.578C208.626 87.6646 208.59 87.8513 208.523 88.138C208.463 88.418 208.386 88.7113 208.293 89.018L206.943 93.668H206.033L204.143 86.528H205.083L206.193 90.888C206.273 91.1946 206.34 91.4913 206.393 91.778C206.453 92.0646 206.5 92.3346 206.533 92.588C206.566 92.328 206.616 92.0446 206.683 91.738C206.75 91.4313 206.826 91.1313 206.913 90.838L208.173 86.528H209.103L210.413 90.868C210.506 91.1746 210.586 91.4813 210.653 91.788C210.72 92.088 210.77 92.3546 210.803 92.588C210.836 92.3413 210.883 92.0746 210.943 91.788C211.003 91.4946 211.073 91.1913 211.153 90.878L212.253 86.528H213.193ZM216.272 88.208C216.372 88.208 216.479 88.2146 216.592 88.228C216.712 88.2346 216.815 88.248 216.902 88.268L216.792 89.078C216.705 89.058 216.609 89.0413 216.502 89.028C216.402 89.0146 216.305 89.008 216.212 89.008C215.939 89.008 215.682 89.0846 215.442 89.238C215.202 89.3846 215.009 89.5946 214.862 89.868C214.722 90.1346 214.652 90.448 214.652 90.808V93.668H213.772V88.308H214.492L214.592 89.288H214.632C214.805 88.9946 215.029 88.7413 215.302 88.528C215.575 88.3146 215.899 88.208 216.272 88.208ZM222.068 90.978C222.068 91.8646 221.841 92.5513 221.388 93.038C220.941 93.5246 220.334 93.768 219.568 93.768C219.094 93.768 218.671 93.6613 218.298 93.448C217.931 93.228 217.641 92.9113 217.428 92.498C217.214 92.078 217.108 91.5713 217.108 90.978C217.108 90.0913 217.331 89.408 217.778 88.928C218.224 88.448 218.831 88.208 219.598 88.208C220.084 88.208 220.511 88.318 220.878 88.538C221.251 88.7513 221.541 89.0646 221.748 89.478C221.961 89.8846 222.068 90.3846 222.068 90.978ZM218.018 90.978C218.018 91.6113 218.141 92.1146 218.388 92.488C218.641 92.8546 219.041 93.038 219.588 93.038C220.128 93.038 220.524 92.8546 220.778 92.488C221.031 92.1146 221.158 91.6113 221.158 90.978C221.158 90.3446 221.031 89.848 220.778 89.488C220.524 89.128 220.124 88.948 219.578 88.948C219.031 88.948 218.634 89.128 218.388 89.488C218.141 89.848 218.018 90.3446 218.018 90.978ZM225.742 88.208C226.382 88.208 226.866 88.3646 227.192 88.678C227.519 88.9846 227.682 89.4846 227.682 90.178V93.668H226.812V90.238C226.812 89.378 226.412 88.948 225.612 88.948C225.019 88.948 224.609 89.1146 224.382 89.448C224.156 89.7813 224.042 90.2613 224.042 90.888V93.668H223.162V88.308H223.872L224.002 89.038H224.052C224.226 88.758 224.466 88.5513 224.772 88.418C225.079 88.278 225.402 88.208 225.742 88.208ZM230.944 88.208C231.297 88.208 231.614 88.2746 231.894 88.408C232.181 88.5413 232.424 88.7446 232.624 89.018H232.674L232.794 88.308H233.494V93.758C233.494 94.5246 233.297 95.1013 232.904 95.488C232.517 95.8746 231.914 96.068 231.094 96.068C230.307 96.068 229.664 95.9546 229.164 95.728V94.918C229.691 95.198 230.351 95.338 231.144 95.338C231.604 95.338 231.964 95.2013 232.224 94.928C232.491 94.6613 232.624 94.2946 232.624 93.828V93.618C232.624 93.538 232.627 93.4246 232.634 93.278C232.641 93.1246 232.647 93.018 232.654 92.958H232.614C232.254 93.498 231.701 93.768 230.954 93.768C230.261 93.768 229.717 93.5246 229.324 93.038C228.937 92.5513 228.744 91.8713 228.744 90.998C228.744 90.1446 228.937 89.468 229.324 88.968C229.717 88.4613 230.257 88.208 230.944 88.208ZM231.064 88.948C230.617 88.948 230.271 89.128 230.024 89.488C229.777 89.8413 229.654 90.348 229.654 91.008C229.654 91.668 229.774 92.1746 230.014 92.528C230.261 92.8746 230.617 93.048 231.084 93.048C231.624 93.048 232.017 92.9046 232.264 92.618C232.511 92.3246 232.634 91.8546 232.634 91.208V90.998C232.634 90.2646 232.507 89.7413 232.254 89.428C232.001 89.108 231.604 88.948 231.064 88.948ZM193.462 106.668L192.602 104.458H189.772L188.922 106.668H188.012L190.802 99.498H191.612L194.392 106.668H193.462ZM191.532 101.498C191.512 101.445 191.479 101.348 191.432 101.208C191.386 101.068 191.339 100.925 191.292 100.778C191.252 100.625 191.219 100.508 191.192 100.428C191.146 100.635 191.092 100.838 191.032 101.038C190.972 101.231 190.922 101.385 190.882 101.498L190.072 103.658H192.332L191.532 101.498ZM197.529 101.208C198.169 101.208 198.652 101.365 198.979 101.678C199.306 101.985 199.469 102.485 199.469 103.178V106.668H198.599V103.238C198.599 102.378 198.199 101.948 197.399 101.948C196.806 101.948 196.396 102.115 196.169 102.448C195.942 102.781 195.829 103.261 195.829 103.888V106.668H194.949V101.308H195.659L195.789 102.038H195.839C196.012 101.758 196.252 101.551 196.559 101.418C196.866 101.278 197.189 101.208 197.529 101.208ZM204.321 105.188C204.321 105.708 204.127 106.101 203.741 106.368C203.354 106.635 202.834 106.768 202.181 106.768C201.807 106.768 201.484 106.738 201.211 106.678C200.944 106.618 200.707 106.535 200.501 106.428V105.628C200.714 105.735 200.971 105.835 201.271 105.928C201.577 106.015 201.887 106.058 202.201 106.058C202.647 106.058 202.971 105.988 203.171 105.848C203.371 105.701 203.471 105.508 203.471 105.268C203.471 105.135 203.434 105.015 203.361 104.908C203.287 104.801 203.154 104.695 202.961 104.588C202.774 104.481 202.504 104.361 202.151 104.228C201.804 104.095 201.507 103.961 201.261 103.828C201.014 103.695 200.824 103.535 200.691 103.348C200.557 103.161 200.491 102.921 200.491 102.628C200.491 102.175 200.674 101.825 201.041 101.578C201.414 101.331 201.901 101.208 202.501 101.208C202.827 101.208 203.131 101.241 203.411 101.308C203.697 101.368 203.964 101.455 204.211 101.568L203.911 102.268C203.684 102.175 203.447 102.095 203.201 102.028C202.954 101.961 202.701 101.928 202.441 101.928C202.081 101.928 201.804 101.988 201.611 102.108C201.424 102.221 201.331 102.378 201.331 102.578C201.331 102.725 201.374 102.851 201.461 102.958C201.547 103.058 201.691 103.158 201.891 103.258C202.097 103.351 202.371 103.465 202.711 103.598C203.051 103.725 203.341 103.855 203.581 103.988C203.821 104.121 204.004 104.285 204.131 104.478C204.257 104.665 204.321 104.901 204.321 105.188ZM208.776 103.638C208.689 103.365 208.612 103.098 208.546 102.838C208.486 102.571 208.439 102.365 208.406 102.218H208.366C208.339 102.365 208.296 102.571 208.236 102.838C208.176 103.098 208.099 103.368 208.006 103.648L207.046 106.658H206.046L204.576 101.298H205.486L206.226 104.158C206.299 104.445 206.369 104.735 206.436 105.028C206.502 105.321 206.549 105.565 206.576 105.758H206.616C206.642 105.645 206.672 105.505 206.706 105.338C206.746 105.171 206.789 104.998 206.836 104.818C206.882 104.631 206.929 104.465 206.976 104.318L207.926 101.298H208.886L209.806 104.318C209.879 104.545 209.949 104.791 210.016 105.058C210.089 105.325 210.139 105.555 210.166 105.748H210.206C210.226 105.581 210.269 105.351 210.336 105.058C210.409 104.765 210.486 104.465 210.566 104.158L211.316 101.298H212.216L210.726 106.658H209.696L208.776 103.638ZM214.947 101.208C215.407 101.208 215.8 101.308 216.127 101.508C216.46 101.708 216.714 101.991 216.887 102.358C217.067 102.718 217.157 103.141 217.157 103.628V104.158H213.487C213.5 104.765 213.654 105.228 213.947 105.548C214.247 105.861 214.664 106.018 215.197 106.018C215.537 106.018 215.837 105.988 216.097 105.928C216.364 105.861 216.637 105.768 216.917 105.648V106.418C216.644 106.538 216.374 106.625 216.107 106.678C215.84 106.738 215.524 106.768 215.157 106.768C214.65 106.768 214.2 106.665 213.807 106.458C213.42 106.251 213.117 105.945 212.897 105.538C212.684 105.125 212.577 104.621 212.577 104.028C212.577 103.441 212.674 102.938 212.867 102.518C213.067 102.098 213.344 101.775 213.697 101.548C214.057 101.321 214.474 101.208 214.947 101.208ZM214.937 101.928C214.517 101.928 214.184 102.065 213.937 102.338C213.697 102.605 213.554 102.978 213.507 103.458H216.237C216.23 103.005 216.124 102.638 215.917 102.358C215.71 102.071 215.384 101.928 214.937 101.928ZM220.722 101.208C220.822 101.208 220.928 101.215 221.042 101.228C221.162 101.235 221.265 101.248 221.352 101.268L221.242 102.078C221.155 102.058 221.058 102.041 220.952 102.028C220.852 102.015 220.755 102.008 220.662 102.008C220.388 102.008 220.132 102.085 219.892 102.238C219.652 102.385 219.458 102.595 219.312 102.868C219.172 103.135 219.102 103.448 219.102 103.808V106.668H218.222V101.308H218.942L219.042 102.288H219.082C219.255 101.995 219.478 101.741 219.752 101.528C220.025 101.315 220.348 101.208 220.722 101.208ZM225.543 105.188C225.543 105.708 225.349 106.101 224.963 106.368C224.576 106.635 224.056 106.768 223.403 106.768C223.029 106.768 222.706 106.738 222.433 106.678C222.166 106.618 221.929 106.535 221.723 106.428V105.628C221.936 105.735 222.193 105.835 222.493 105.928C222.799 106.015 223.109 106.058 223.423 106.058C223.869 106.058 224.193 105.988 224.393 105.848C224.593 105.701 224.693 105.508 224.693 105.268C224.693 105.135 224.656 105.015 224.583 104.908C224.509 104.801 224.376 104.695 224.183 104.588C223.996 104.481 223.726 104.361 223.373 104.228C223.026 104.095 222.729 103.961 222.483 103.828C222.236 103.695 222.046 103.535 221.913 103.348C221.779 103.161 221.713 102.921 221.713 102.628C221.713 102.175 221.896 101.825 222.263 101.578C222.636 101.331 223.123 101.208 223.723 101.208C224.049 101.208 224.353 101.241 224.633 101.308C224.919 101.368 225.186 101.455 225.433 101.568L225.133 102.268C224.906 102.175 224.669 102.095 224.423 102.028C224.176 101.961 223.923 101.928 223.663 101.928C223.303 101.928 223.026 101.988 222.833 102.108C222.646 102.221 222.553 102.378 222.553 102.578C222.553 102.725 222.596 102.851 222.683 102.958C222.769 103.058 222.913 103.158 223.113 103.258C223.319 103.351 223.593 103.465 223.933 103.598C224.273 103.725 224.563 103.855 224.803 103.988C225.043 104.121 225.226 104.285 225.353 104.478C225.479 104.665 225.543 104.901 225.543 105.188Z" fill="#61696B"/>
<path d="M109.78 138.184C109.78 138.704 109.587 139.097 109.2 139.364C108.814 139.631 108.294 139.764 107.64 139.764C107.267 139.764 106.944 139.734 106.67 139.674C106.404 139.614 106.167 139.531 105.96 139.424V138.624C106.174 138.731 106.43 138.831 106.73 138.924C107.037 139.011 107.347 139.054 107.66 139.054C108.107 139.054 108.43 138.984 108.63 138.844C108.83 138.697 108.93 138.504 108.93 138.264C108.93 138.131 108.894 138.011 108.82 137.904C108.747 137.797 108.614 137.691 108.42 137.584C108.234 137.477 107.964 137.357 107.61 137.224C107.264 137.091 106.967 136.957 106.72 136.824C106.474 136.691 106.284 136.531 106.15 136.344C106.017 136.157 105.95 135.917 105.95 135.624C105.95 135.171 106.134 134.821 106.5 134.574C106.874 134.327 107.36 134.204 107.96 134.204C108.287 134.204 108.59 134.237 108.87 134.304C109.157 134.364 109.424 134.451 109.67 134.564L109.37 135.264C109.144 135.171 108.907 135.091 108.66 135.024C108.414 134.957 108.16 134.924 107.9 134.924C107.54 134.924 107.264 134.984 107.07 135.104C106.884 135.217 106.79 135.374 106.79 135.574C106.79 135.721 106.834 135.847 106.92 135.954C107.007 136.054 107.15 136.154 107.35 136.254C107.557 136.347 107.83 136.461 108.17 136.594C108.51 136.721 108.8 136.851 109.04 136.984C109.28 137.117 109.464 137.281 109.59 137.474C109.717 137.661 109.78 137.897 109.78 138.184ZM112.566 139.044C112.699 139.044 112.836 139.034 112.976 139.014C113.116 138.987 113.229 138.961 113.316 138.934V139.604C113.222 139.651 113.089 139.687 112.916 139.714C112.742 139.747 112.576 139.764 112.416 139.764C112.136 139.764 111.876 139.717 111.636 139.624C111.402 139.524 111.212 139.354 111.066 139.114C110.919 138.874 110.846 138.537 110.846 138.104V134.984H110.086V134.564L110.856 134.214L111.206 133.074H111.726V134.304H113.276V134.984H111.726V138.084C111.726 138.411 111.802 138.654 111.956 138.814C112.116 138.967 112.319 139.044 112.566 139.044ZM116.119 134.214C116.772 134.214 117.256 134.357 117.569 134.644C117.882 134.931 118.039 135.387 118.039 136.014V139.664H117.399L117.229 138.904H117.189C116.956 139.197 116.709 139.414 116.449 139.554C116.196 139.694 115.842 139.764 115.389 139.764C114.902 139.764 114.499 139.637 114.179 139.384C113.859 139.124 113.699 138.721 113.699 138.174C113.699 137.641 113.909 137.231 114.329 136.944C114.749 136.651 115.396 136.491 116.269 136.464L117.179 136.434V136.114C117.179 135.667 117.082 135.357 116.889 135.184C116.696 135.011 116.422 134.924 116.069 134.924C115.789 134.924 115.522 134.967 115.269 135.054C115.016 135.134 114.779 135.227 114.559 135.334L114.289 134.674C114.522 134.547 114.799 134.441 115.119 134.354C115.439 134.261 115.772 134.214 116.119 134.214ZM116.379 137.074C115.712 137.101 115.249 137.207 114.989 137.394C114.736 137.581 114.609 137.844 114.609 138.184C114.609 138.484 114.699 138.704 114.879 138.844C115.066 138.984 115.302 139.054 115.589 139.054C116.042 139.054 116.419 138.931 116.719 138.684C117.019 138.431 117.169 138.044 117.169 137.524V137.044L116.379 137.074ZM121.184 139.044C121.318 139.044 121.454 139.034 121.594 139.014C121.734 138.987 121.848 138.961 121.934 138.934V139.604C121.841 139.651 121.708 139.687 121.534 139.714C121.361 139.747 121.194 139.764 121.034 139.764C120.754 139.764 120.494 139.717 120.254 139.624C120.021 139.524 119.831 139.354 119.684 139.114C119.538 138.874 119.464 138.537 119.464 138.104V134.984H118.704V134.564L119.474 134.214L119.824 133.074H120.344V134.304H121.894V134.984H120.344V138.084C120.344 138.411 120.421 138.654 120.574 138.814C120.734 138.967 120.938 139.044 121.184 139.044ZM124.778 134.204C125.238 134.204 125.631 134.304 125.958 134.504C126.291 134.704 126.544 134.987 126.718 135.354C126.898 135.714 126.988 136.137 126.988 136.624V137.154H123.318C123.331 137.761 123.484 138.224 123.778 138.544C124.078 138.857 124.494 139.014 125.028 139.014C125.368 139.014 125.668 138.984 125.928 138.924C126.194 138.857 126.468 138.764 126.748 138.644V139.414C126.474 139.534 126.204 139.621 125.938 139.674C125.671 139.734 125.354 139.764 124.988 139.764C124.481 139.764 124.031 139.661 123.638 139.454C123.251 139.247 122.948 138.941 122.728 138.534C122.514 138.121 122.408 137.617 122.408 137.024C122.408 136.437 122.504 135.934 122.698 135.514C122.898 135.094 123.174 134.771 123.528 134.544C123.888 134.317 124.304 134.204 124.778 134.204ZM124.768 134.924C124.348 134.924 124.014 135.061 123.768 135.334C123.528 135.601 123.384 135.974 123.338 136.454H126.068C126.061 136.001 125.954 135.634 125.748 135.354C125.541 135.067 125.214 134.924 124.768 134.924ZM140.443 139.044C140.577 139.044 140.713 139.034 140.853 139.014C140.993 138.987 141.107 138.961 141.193 138.934V139.604C141.1 139.651 140.967 139.687 140.793 139.714C140.62 139.747 140.453 139.764 140.293 139.764C140.013 139.764 139.753 139.717 139.513 139.624C139.28 139.524 139.09 139.354 138.943 139.114C138.797 138.874 138.723 138.537 138.723 138.104V134.984H137.963V134.564L138.733 134.214L139.083 133.074H139.603V134.304H141.153V134.984H139.603V138.084C139.603 138.411 139.68 138.654 139.833 138.814C139.993 138.967 140.197 139.044 140.443 139.044ZM144.037 134.204C144.497 134.204 144.89 134.304 145.217 134.504C145.55 134.704 145.803 134.987 145.977 135.354C146.157 135.714 146.247 136.137 146.247 136.624V137.154H142.577C142.59 137.761 142.743 138.224 143.037 138.544C143.337 138.857 143.753 139.014 144.287 139.014C144.627 139.014 144.927 138.984 145.187 138.924C145.453 138.857 145.727 138.764 146.007 138.644V139.414C145.733 139.534 145.463 139.621 145.197 139.674C144.93 139.734 144.613 139.764 144.247 139.764C143.74 139.764 143.29 139.661 142.897 139.454C142.51 139.247 142.207 138.941 141.987 138.534C141.773 138.121 141.667 137.617 141.667 137.024C141.667 136.437 141.763 135.934 141.957 135.514C142.157 135.094 142.433 134.771 142.787 134.544C143.147 134.317 143.563 134.204 144.037 134.204ZM144.027 134.924C143.607 134.924 143.273 135.061 143.027 135.334C142.787 135.601 142.643 135.974 142.597 136.454H145.327C145.32 136.001 145.213 135.634 145.007 135.354C144.8 135.067 144.473 134.924 144.027 134.924ZM150.801 138.184C150.801 138.704 150.608 139.097 150.221 139.364C149.834 139.631 149.314 139.764 148.661 139.764C148.288 139.764 147.964 139.734 147.691 139.674C147.424 139.614 147.188 139.531 146.981 139.424V138.624C147.194 138.731 147.451 138.831 147.751 138.924C148.058 139.011 148.368 139.054 148.681 139.054C149.128 139.054 149.451 138.984 149.651 138.844C149.851 138.697 149.951 138.504 149.951 138.264C149.951 138.131 149.914 138.011 149.841 137.904C149.768 137.797 149.634 137.691 149.441 137.584C149.254 137.477 148.984 137.357 148.631 137.224C148.284 137.091 147.988 136.957 147.741 136.824C147.494 136.691 147.304 136.531 147.171 136.344C147.038 136.157 146.971 135.917 146.971 135.624C146.971 135.171 147.154 134.821 147.521 134.574C147.894 134.327 148.381 134.204 148.981 134.204C149.308 134.204 149.611 134.237 149.891 134.304C150.178 134.364 150.444 134.451 150.691 134.564L150.391 135.264C150.164 135.171 149.928 135.091 149.681 135.024C149.434 134.957 149.181 134.924 148.921 134.924C148.561 134.924 148.284 134.984 148.091 135.104C147.904 135.217 147.811 135.374 147.811 135.574C147.811 135.721 147.854 135.847 147.941 135.954C148.028 136.054 148.171 136.154 148.371 136.254C148.578 136.347 148.851 136.461 149.191 136.594C149.531 136.721 149.821 136.851 150.061 136.984C150.301 137.117 150.484 137.281 150.611 137.474C150.738 137.661 150.801 137.897 150.801 138.184ZM153.586 139.044C153.72 139.044 153.856 139.034 153.996 139.014C154.136 138.987 154.25 138.961 154.336 138.934V139.604C154.243 139.651 154.11 139.687 153.936 139.714C153.763 139.747 153.596 139.764 153.436 139.764C153.156 139.764 152.896 139.717 152.656 139.624C152.423 139.524 152.233 139.354 152.086 139.114C151.94 138.874 151.866 138.537 151.866 138.104V134.984H151.106V134.564L151.876 134.214L152.226 133.074H152.746V134.304H154.296V134.984H152.746V138.084C152.746 138.411 152.823 138.654 152.976 138.814C153.136 138.967 153.34 139.044 153.586 139.044Z" fill="white"/>
<path d="M130.182 139.664H127.602V139.144L128.442 138.954V133.244L127.602 133.044V132.524H130.182V133.044L129.342 133.244V138.954L130.182 139.144V139.664ZM137.491 136.084C137.491 136.957 137.314 137.701 136.961 138.314C136.614 138.927 136.097 139.351 135.411 139.584L137.121 141.364H135.831L134.451 139.754C134.411 139.754 134.367 139.754 134.321 139.754C134.281 139.761 134.241 139.764 134.201 139.764C133.461 139.764 132.844 139.611 132.351 139.304C131.864 138.997 131.501 138.567 131.261 138.014C131.021 137.461 130.901 136.814 130.901 136.074C130.901 135.341 131.021 134.701 131.261 134.154C131.501 133.607 131.864 133.181 132.351 132.874C132.844 132.567 133.464 132.414 134.211 132.414C134.924 132.414 135.524 132.567 136.011 132.874C136.497 133.174 136.864 133.601 137.111 134.154C137.364 134.701 137.491 135.344 137.491 136.084ZM131.851 136.084C131.851 136.984 132.041 137.694 132.421 138.214C132.801 138.727 133.394 138.984 134.201 138.984C135.014 138.984 135.607 138.727 135.981 138.214C136.354 137.694 136.541 136.984 136.541 136.084C136.541 135.184 136.354 134.481 135.981 133.974C135.607 133.461 135.017 133.204 134.211 133.204C133.404 133.204 132.807 133.461 132.421 133.974C132.041 134.481 131.851 135.184 131.851 136.084Z" fill="#EC4899"/>
<path d="M104.208 154.422C104.208 155.055 103.978 155.549 103.518 155.902C103.058 156.255 102.438 156.432 101.658 156.432C101.258 156.432 100.888 156.402 100.548 156.342C100.208 156.282 99.9249 156.199 99.6983 156.092V155.232C99.9383 155.339 100.235 155.435 100.588 155.522C100.948 155.609 101.318 155.652 101.698 155.652C102.232 155.652 102.632 155.549 102.898 155.342C103.172 155.135 103.308 154.855 103.308 154.502C103.308 154.269 103.258 154.072 103.158 153.912C103.058 153.752 102.885 153.605 102.638 153.472C102.398 153.332 102.062 153.185 101.628 153.032C101.022 152.812 100.562 152.542 100.248 152.222C99.9416 151.902 99.7883 151.465 99.7883 150.912C99.7883 150.532 99.8849 150.209 100.078 149.942C100.272 149.669 100.538 149.459 100.878 149.312C101.225 149.165 101.622 149.092 102.068 149.092C102.462 149.092 102.822 149.129 103.148 149.202C103.475 149.275 103.772 149.372 104.038 149.492L103.758 150.262C103.512 150.155 103.242 150.065 102.948 149.992C102.662 149.919 102.362 149.882 102.048 149.882C101.602 149.882 101.265 149.979 101.038 150.172C100.812 150.359 100.698 150.609 100.698 150.922C100.698 151.162 100.748 151.362 100.848 151.522C100.948 151.682 101.112 151.825 101.338 151.952C101.565 152.079 101.872 152.215 102.258 152.362C102.678 152.515 103.032 152.682 103.318 152.862C103.612 153.035 103.832 153.245 103.978 153.492C104.132 153.739 104.208 154.049 104.208 154.422ZM107.377 156.432C106.903 156.432 106.48 156.335 106.107 156.142C105.74 155.949 105.45 155.649 105.237 155.242C105.03 154.835 104.927 154.315 104.927 153.682C104.927 153.022 105.037 152.485 105.257 152.072C105.477 151.659 105.773 151.355 106.147 151.162C106.527 150.969 106.957 150.872 107.437 150.872C107.71 150.872 107.973 150.902 108.227 150.962C108.48 151.015 108.687 151.082 108.847 151.162L108.577 151.892C108.417 151.832 108.23 151.775 108.017 151.722C107.803 151.669 107.603 151.642 107.417 151.642C106.363 151.642 105.837 152.319 105.837 153.672C105.837 154.319 105.963 154.815 106.217 155.162C106.477 155.502 106.86 155.672 107.367 155.672C107.66 155.672 107.917 155.642 108.137 155.582C108.363 155.522 108.57 155.449 108.757 155.362V156.142C108.577 156.235 108.377 156.305 108.157 156.352C107.943 156.405 107.683 156.432 107.377 156.432ZM114.391 153.642C114.391 154.529 114.165 155.215 113.711 155.702C113.265 156.189 112.658 156.432 111.891 156.432C111.418 156.432 110.995 156.325 110.621 156.112C110.255 155.892 109.965 155.575 109.751 155.162C109.538 154.742 109.431 154.235 109.431 153.642C109.431 152.755 109.655 152.072 110.101 151.592C110.548 151.112 111.155 150.872 111.921 150.872C112.408 150.872 112.835 150.982 113.201 151.202C113.575 151.415 113.865 151.729 114.071 152.142C114.285 152.549 114.391 153.049 114.391 153.642ZM110.341 153.642C110.341 154.275 110.465 154.779 110.711 155.152C110.965 155.519 111.365 155.702 111.911 155.702C112.451 155.702 112.848 155.519 113.101 155.152C113.355 154.779 113.481 154.275 113.481 153.642C113.481 153.009 113.355 152.512 113.101 152.152C112.848 151.792 112.448 151.612 111.901 151.612C111.355 151.612 110.958 151.792 110.711 152.152C110.465 152.512 110.341 153.009 110.341 153.642ZM117.986 150.872C118.086 150.872 118.193 150.879 118.306 150.892C118.426 150.899 118.529 150.912 118.616 150.932L118.506 151.742C118.419 151.722 118.323 151.705 118.216 151.692C118.116 151.679 118.019 151.672 117.926 151.672C117.653 151.672 117.396 151.749 117.156 151.902C116.916 152.049 116.723 152.259 116.576 152.532C116.436 152.799 116.366 153.112 116.366 153.472V156.332H115.486V150.972H116.206L116.306 151.952H116.346C116.519 151.659 116.743 151.405 117.016 151.192C117.289 150.979 117.613 150.872 117.986 150.872ZM121.191 150.872C121.651 150.872 122.045 150.972 122.371 151.172C122.705 151.372 122.958 151.655 123.131 152.022C123.311 152.382 123.401 152.805 123.401 153.292V153.822H119.731C119.745 154.429 119.898 154.892 120.191 155.212C120.491 155.525 120.908 155.682 121.441 155.682C121.781 155.682 122.081 155.652 122.341 155.592C122.608 155.525 122.881 155.432 123.161 155.312V156.082C122.888 156.202 122.618 156.289 122.351 156.342C122.085 156.402 121.768 156.432 121.401 156.432C120.895 156.432 120.445 156.329 120.051 156.122C119.665 155.915 119.361 155.609 119.141 155.202C118.928 154.789 118.821 154.285 118.821 153.692C118.821 153.105 118.918 152.602 119.111 152.182C119.311 151.762 119.588 151.439 119.941 151.212C120.301 150.985 120.718 150.872 121.191 150.872ZM121.181 151.592C120.761 151.592 120.428 151.729 120.181 152.002C119.941 152.269 119.798 152.642 119.751 153.122H122.481C122.475 152.669 122.368 152.302 122.161 152.022C121.955 151.735 121.628 151.592 121.181 151.592ZM131.364 156.332L130.504 154.122H127.674L126.824 156.332H125.914L128.704 149.162H129.514L132.294 156.332H131.364ZM129.434 151.162C129.414 151.109 129.38 151.012 129.334 150.872C129.287 150.732 129.24 150.589 129.194 150.442C129.154 150.289 129.12 150.172 129.094 150.092C129.047 150.299 128.994 150.502 128.934 150.702C128.874 150.895 128.824 151.049 128.784 151.162L127.974 153.322H130.234L129.434 151.162ZM135.43 150.872C136.07 150.872 136.554 151.029 136.88 151.342C137.207 151.649 137.37 152.149 137.37 152.842V156.332H136.5V152.902C136.5 152.042 136.1 151.612 135.3 151.612C134.707 151.612 134.297 151.779 134.07 152.112C133.844 152.445 133.73 152.925 133.73 153.552V156.332H132.85V150.972H133.56L133.69 151.702H133.74C133.914 151.422 134.154 151.215 134.46 151.082C134.767 150.942 135.09 150.872 135.43 150.872ZM140.762 150.882C141.415 150.882 141.899 151.025 142.212 151.312C142.525 151.599 142.682 152.055 142.682 152.682V156.332H142.042L141.872 155.572H141.832C141.599 155.865 141.352 156.082 141.092 156.222C140.839 156.362 140.485 156.432 140.032 156.432C139.545 156.432 139.142 156.305 138.822 156.052C138.502 155.792 138.342 155.389 138.342 154.842C138.342 154.309 138.552 153.899 138.972 153.612C139.392 153.319 140.039 153.159 140.912 153.132L141.822 153.102V152.782C141.822 152.335 141.725 152.025 141.532 151.852C141.339 151.679 141.065 151.592 140.712 151.592C140.432 151.592 140.165 151.635 139.912 151.722C139.659 151.802 139.422 151.895 139.202 152.002L138.932 151.342C139.165 151.215 139.442 151.109 139.762 151.022C140.082 150.929 140.415 150.882 140.762 150.882ZM141.022 153.742C140.355 153.769 139.892 153.875 139.632 154.062C139.379 154.249 139.252 154.512 139.252 154.852C139.252 155.152 139.342 155.372 139.522 155.512C139.709 155.652 139.945 155.722 140.232 155.722C140.685 155.722 141.062 155.599 141.362 155.352C141.662 155.099 141.812 154.712 141.812 154.192V153.712L141.022 153.742ZM144.918 156.332H144.038V148.732H144.918V156.332ZM145.476 150.972H146.416L147.576 154.022C147.676 154.289 147.766 154.545 147.846 154.792C147.926 155.032 147.986 155.262 148.026 155.482H148.066C148.106 155.315 148.169 155.099 148.256 154.832C148.342 154.559 148.432 154.285 148.526 154.012L149.616 150.972H150.566L148.256 157.072C148.069 157.579 147.826 157.982 147.526 158.282C147.232 158.582 146.826 158.732 146.306 158.732C146.146 158.732 146.006 158.722 145.886 158.702C145.766 158.689 145.662 158.672 145.576 158.652V157.952C145.649 157.965 145.736 157.979 145.836 157.992C145.942 158.005 146.052 158.012 146.166 158.012C146.472 158.012 146.719 157.925 146.906 157.752C147.099 157.579 147.249 157.349 147.356 157.062L147.636 156.352L145.476 150.972ZM154.603 154.852C154.603 155.372 154.41 155.765 154.023 156.032C153.637 156.299 153.117 156.432 152.463 156.432C152.09 156.432 151.767 156.402 151.493 156.342C151.227 156.282 150.99 156.199 150.783 156.092V155.292C150.997 155.399 151.253 155.499 151.553 155.592C151.86 155.679 152.17 155.722 152.483 155.722C152.93 155.722 153.253 155.652 153.453 155.512C153.653 155.365 153.753 155.172 153.753 154.932C153.753 154.799 153.717 154.679 153.643 154.572C153.57 154.465 153.437 154.359 153.243 154.252C153.057 154.145 152.787 154.025 152.433 153.892C152.087 153.759 151.79 153.625 151.543 153.492C151.297 153.359 151.107 153.199 150.973 153.012C150.84 152.825 150.773 152.585 150.773 152.292C150.773 151.839 150.957 151.489 151.323 151.242C151.697 150.995 152.183 150.872 152.783 150.872C153.11 150.872 153.413 150.905 153.693 150.972C153.98 151.032 154.247 151.119 154.493 151.232L154.193 151.932C153.967 151.839 153.73 151.759 153.483 151.692C153.237 151.625 152.983 151.592 152.723 151.592C152.363 151.592 152.087 151.652 151.893 151.772C151.707 151.885 151.613 152.042 151.613 152.242C151.613 152.389 151.657 152.515 151.743 152.622C151.83 152.722 151.973 152.822 152.173 152.922C152.38 153.015 152.653 153.129 152.993 153.262C153.333 153.389 153.623 153.519 153.863 153.652C154.103 153.785 154.287 153.949 154.413 154.142C154.54 154.329 154.603 154.565 154.603 154.852ZM156.048 148.962C156.182 148.962 156.298 149.009 156.398 149.102C156.505 149.189 156.558 149.329 156.558 149.522C156.558 149.709 156.505 149.849 156.398 149.942C156.298 150.035 156.182 150.082 156.048 150.082C155.902 150.082 155.778 150.035 155.678 149.942C155.578 149.849 155.528 149.709 155.528 149.522C155.528 149.329 155.578 149.189 155.678 149.102C155.778 149.009 155.902 148.962 156.048 148.962ZM156.478 150.972V156.332H155.598V150.972H156.478ZM161.367 154.852C161.367 155.372 161.173 155.765 160.787 156.032C160.4 156.299 159.88 156.432 159.227 156.432C158.853 156.432 158.53 156.402 158.257 156.342C157.99 156.282 157.753 156.199 157.547 156.092V155.292C157.76 155.399 158.017 155.499 158.317 155.592C158.623 155.679 158.933 155.722 159.247 155.722C159.693 155.722 160.017 155.652 160.217 155.512C160.417 155.365 160.517 155.172 160.517 154.932C160.517 154.799 160.48 154.679 160.407 154.572C160.333 154.465 160.2 154.359 160.007 154.252C159.82 154.145 159.55 154.025 159.197 153.892C158.85 153.759 158.553 153.625 158.307 153.492C158.06 153.359 157.87 153.199 157.737 153.012C157.603 152.825 157.537 152.585 157.537 152.292C157.537 151.839 157.72 151.489 158.087 151.242C158.46 150.995 158.947 150.872 159.547 150.872C159.873 150.872 160.177 150.905 160.457 150.972C160.743 151.032 161.01 151.119 161.257 151.232L160.957 151.932C160.73 151.839 160.493 151.759 160.247 151.692C160 151.625 159.747 151.592 159.487 151.592C159.127 151.592 158.85 151.652 158.657 151.772C158.47 151.885 158.377 152.042 158.377 152.242C158.377 152.389 158.42 152.515 158.507 152.622C158.593 152.722 158.737 152.822 158.937 152.922C159.143 153.015 159.417 153.129 159.757 153.262C160.097 153.389 160.387 153.519 160.627 153.652C160.867 153.785 161.05 153.949 161.177 154.142C161.303 154.329 161.367 154.565 161.367 154.852Z" fill="white"/>
<path d="M122.2 172.996H121.34V168.006C121.34 167.719 121.344 167.489 121.35 167.316C121.357 167.143 121.367 166.963 121.38 166.776C121.274 166.883 121.177 166.973 121.09 167.046C121.004 167.119 120.894 167.213 120.76 167.326L120 167.946L119.54 167.356L121.47 165.856H122.2V172.996ZM124.793 172.456C124.793 172.209 124.853 172.036 124.973 171.936C125.093 171.836 125.236 171.786 125.403 171.786C125.576 171.786 125.723 171.836 125.843 171.936C125.97 172.036 126.033 172.209 126.033 172.456C126.033 172.696 125.97 172.869 125.843 172.976C125.723 173.083 125.576 173.136 125.403 173.136C125.236 173.136 125.093 173.083 124.973 172.976C124.853 172.869 124.793 172.696 124.793 172.456ZM131.649 168.906C131.649 169.419 131.602 169.926 131.509 170.426C131.422 170.919 131.259 171.369 131.019 171.776C130.785 172.176 130.452 172.496 130.019 172.736C129.592 172.976 129.042 173.096 128.369 173.096C128.235 173.096 128.079 173.086 127.899 173.066C127.725 173.053 127.582 173.029 127.469 172.996V172.246C127.729 172.333 128.022 172.376 128.349 172.376C128.815 172.376 129.199 172.299 129.499 172.146C129.805 171.993 130.049 171.786 130.229 171.526C130.409 171.259 130.539 170.953 130.619 170.606C130.699 170.253 130.745 169.883 130.759 169.496H130.699C130.552 169.723 130.339 169.919 130.059 170.086C129.785 170.246 129.432 170.326 128.999 170.326C128.385 170.326 127.889 170.139 127.509 169.766C127.135 169.386 126.949 168.853 126.949 168.166C126.949 167.666 127.042 167.236 127.229 166.876C127.422 166.516 127.689 166.239 128.029 166.046C128.369 165.853 128.769 165.756 129.229 165.756C129.682 165.756 130.092 165.873 130.459 166.106C130.825 166.333 131.115 166.679 131.329 167.146C131.542 167.606 131.649 168.193 131.649 168.906ZM129.229 166.496C128.815 166.496 128.475 166.633 128.209 166.906C127.949 167.179 127.819 167.596 127.819 168.156C127.819 168.616 127.929 168.979 128.149 169.246C128.375 169.506 128.722 169.636 129.189 169.636C129.509 169.636 129.785 169.573 130.019 169.446C130.252 169.313 130.432 169.146 130.559 168.946C130.692 168.746 130.759 168.539 130.759 168.326C130.759 168.039 130.702 167.756 130.589 167.476C130.475 167.196 130.305 166.963 130.079 166.776C129.852 166.589 129.569 166.496 129.229 166.496ZM137.071 168.906C137.071 169.419 137.025 169.926 136.931 170.426C136.845 170.919 136.681 171.369 136.441 171.776C136.208 172.176 135.875 172.496 135.441 172.736C135.015 172.976 134.465 173.096 133.791 173.096C133.658 173.096 133.501 173.086 133.321 173.066C133.148 173.053 133.005 173.029 132.891 172.996V172.246C133.151 172.333 133.445 172.376 133.771 172.376C134.238 172.376 134.621 172.299 134.921 172.146C135.228 171.993 135.471 171.786 135.651 171.526C135.831 171.259 135.961 170.953 136.041 170.606C136.121 170.253 136.168 169.883 136.181 169.496H136.121C135.975 169.723 135.761 169.919 135.481 170.086C135.208 170.246 134.855 170.326 134.421 170.326C133.808 170.326 133.311 170.139 132.931 169.766C132.558 169.386 132.371 168.853 132.371 168.166C132.371 167.666 132.465 167.236 132.651 166.876C132.845 166.516 133.111 166.239 133.451 166.046C133.791 165.853 134.191 165.756 134.651 165.756C135.105 165.756 135.515 165.873 135.881 166.106C136.248 166.333 136.538 166.679 136.751 167.146C136.965 167.606 137.071 168.193 137.071 168.906ZM134.651 166.496C134.238 166.496 133.898 166.633 133.631 166.906C133.371 167.179 133.241 167.596 133.241 168.156C133.241 168.616 133.351 168.979 133.571 169.246C133.798 169.506 134.145 169.636 134.611 169.636C134.931 169.636 135.208 169.573 135.441 169.446C135.675 169.313 135.855 169.146 135.981 168.946C136.115 168.746 136.181 168.539 136.181 168.326C136.181 168.039 136.125 167.756 136.011 167.476C135.898 167.196 135.728 166.963 135.501 166.776C135.275 166.589 134.991 166.496 134.651 166.496ZM139.824 172.506C139.457 172.499 139.101 172.469 138.754 172.416C138.407 172.356 138.127 172.276 137.914 172.176V171.326C138.141 171.433 138.431 171.526 138.784 171.606C139.137 171.686 139.484 171.729 139.824 171.736V169.716C139.164 169.536 138.681 169.309 138.374 169.036C138.067 168.763 137.914 168.389 137.914 167.916C137.914 167.423 138.084 167.036 138.424 166.756C138.771 166.476 139.237 166.319 139.824 166.286V165.406H140.464V166.276C140.817 166.283 141.137 166.323 141.424 166.396C141.717 166.463 141.984 166.546 142.224 166.646L141.954 167.386C141.741 167.299 141.504 167.226 141.244 167.166C140.991 167.099 140.731 167.056 140.464 167.036V169.046C140.904 169.173 141.271 169.309 141.564 169.456C141.857 169.596 142.077 169.773 142.224 169.986C142.377 170.193 142.454 170.463 142.454 170.796C142.454 171.263 142.281 171.643 141.934 171.936C141.587 172.223 141.097 172.399 140.464 172.466V173.576H139.824V172.506ZM139.824 167.056C139.464 167.083 139.197 167.166 139.024 167.306C138.857 167.446 138.774 167.626 138.774 167.846C138.774 168.113 138.847 168.319 138.994 168.466C139.147 168.606 139.424 168.726 139.824 168.826V167.056ZM140.464 171.686C140.857 171.646 141.144 171.556 141.324 171.416C141.504 171.269 141.594 171.083 141.594 170.856C141.594 170.603 141.514 170.413 141.354 170.286C141.194 170.153 140.897 170.033 140.464 169.926V171.686Z" fill="white"/>
<path d="M130 35.7891C124.476 35.7891 120 41.0894 120 47.6312C120 54.173 124.476 59.4733 130 59.4733C135.524 59.4733 140 54.173 140 47.6312C140 41.0894 135.524 35.7891 130 35.7891ZM133.226 43.8111C133.94 43.8111 134.516 44.494 134.516 45.3391C134.516 46.1843 133.94 46.8672 133.226 46.8672C132.512 46.8672 131.935 46.1843 131.935 45.3391C131.935 44.494 132.512 43.8111 133.226 43.8111ZM126.774 43.8111C127.488 43.8111 128.065 44.494 128.065 45.3391C128.065 46.1843 127.488 46.8672 126.774 46.8672C126.06 46.8672 125.484 46.1843 125.484 45.3391C125.484 44.494 126.06 43.8111 126.774 43.8111ZM134.629 51.9383C133.48 53.5713 131.794 54.5072 130 54.5072C128.206 54.5072 126.52 53.5713 125.371 51.9383C124.823 51.1599 125.815 50.1858 126.363 50.9594C127.266 52.2439 128.589 52.9744 130 52.9744C131.411 52.9744 132.734 52.2391 133.637 50.9594C134.177 50.1858 135.173 51.1599 134.629 51.9383Z" fill="#EC4899"/>
<g clip-path="url(#clip2)">
<path d="M201.023 62C200.8 62 200.592 62.1114 200.469 62.2969L199.531 63.7031C199.407 63.8886 199.199 64 198.976 64H197.333C196.965 64 196.667 64.2985 196.667 64.6667V72.6667L198.524 66.4751C198.609 66.1931 198.868 66 199.163 66H212C212.368 66 212.667 65.7015 212.667 65.3333V64.6667C212.667 64.2985 212.368 64 212 64H207.023C206.8 64 206.592 63.8886 206.469 63.7031L205.531 62.2969C205.407 62.1114 205.199 62 204.976 62H201.023ZM196.667 77.3333V77.3716C196.667 77.7398 196.965 78.0383 197.333 78.0383H212.743C213.033 78.0383 213.289 77.8512 213.378 77.5754L216.387 68.2038C216.525 67.7735 216.204 67.3333 215.752 67.3333H199.845C199.543 67.3333 199.279 67.5364 199.201 67.8282L196.667 77.3333Z" fill="#2563EB" fill-opacity="0.8"/>
</g>
<g clip-path="url(#clip3)">
<rect width="20" height="20" transform="translate(83.3335 213.332)" fill="white"/>
<path fill-rule="evenodd" clip-rule="evenodd" d="M93.333 216C87.8102 216 83.333 220.477 83.333 226L83.3332 226V229.333C83.3332 230.07 83.9301 230.667 84.6665 230.667H102C102.736 230.667 103.333 230.07 103.333 229.333V226L103.333 226C103.333 220.477 98.8559 216 93.333 216ZM89.6665 224C90.587 224 91.3332 223.254 91.3332 222.333C91.3332 221.413 90.587 220.667 89.6665 220.667C88.746 220.667 87.9998 221.413 87.9998 222.333C87.9998 223.254 88.746 224 89.6665 224ZM98.6665 222.333C98.6665 223.254 97.9203 224 96.9998 224C96.0794 224 95.3332 223.254 95.3332 222.333C95.3332 221.413 96.0794 220.667 96.9998 220.667C97.9203 220.667 98.6665 221.413 98.6665 222.333Z" fill="#EC4899"/>
<path d="M91.3335 226C91.3335 226 92.0002 226.667 93.3335 226.667C94.6668 226.667 95.3335 226 95.3335 226" stroke="white" stroke-linecap="round"/>
</g>
<defs>
<filter id="filter0_dd" x="0" y="26.6641" width="106.667" height="124.784" filterUnits="userSpaceOnUse" color-interpolation-filters="sRGB">
<feFlood flood-opacity="0" result="BackgroundImageFix"/>
<feColorMatrix in="SourceAlpha" type="matrix" values="0 0 0 0 0 0 0 0 0 0 0 0 0 0 0 0 0 0 127 0" result="hardAlpha"/>
<feOffset/>
<feGaussianBlur stdDeviation="10"/>
<feColorMatrix type="matrix" values="0 0 0 0 0 0 0 0 0 0 0 0 0 0 0 0 0 0 0.1 0"/>
<feBlend mode="normal" in2="BackgroundImageFix" result="effect1_dropShadow"/>
<feColorMatrix in="SourceAlpha" type="matrix" values="0 0 0 0 0 0 0 0 0 0 0 0 0 0 0 0 0 0 127 0" result="hardAlpha"/>
<feOffset dy="3.33333"/>
<feGaussianBlur stdDeviation="1.66667"/>
<feColorMatrix type="matrix" values="0 0 0 0 0 0 0 0 0 0 0 0 0 0 0 0 0 0 0.05 0"/>
<feBlend mode="normal" in2="effect1_dropShadow" result="effect2_dropShadow"/>
<feBlend mode="normal" in="SourceGraphic" in2="effect2_dropShadow" result="shape"/>
</filter>
<filter id="filter1_dd" x="76.6665" y="0" width="106.667" height="125.019" filterUnits="userSpaceOnUse" color-interpolation-filters="sRGB">
<feFlood flood-opacity="0" result="BackgroundImageFix"/>
<feColorMatrix in="SourceAlpha" type="matrix" values="0 0 0 0 0 0 0 0 0 0 0 0 0 0 0 0 0 0 127 0" result="hardAlpha"/>
<feOffset/>
<feGaussianBlur stdDeviation="10"/>
<feColorMatrix type="matrix" values="0 0 0 0 0 0 0 0 0 0 0 0 0 0 0 0 0 0 0.1 0"/>
<feBlend mode="normal" in2="BackgroundImageFix" result="effect1_dropShadow"/>
<feColorMatrix in="SourceAlpha" type="matrix" values="0 0 0 0 0 0 0 0 0 0 0 0 0 0 0 0 0 0 127 0" result="hardAlpha"/>
<feOffset dy="3.33333"/>
<feGaussianBlur stdDeviation="1.66667"/>
<feColorMatrix type="matrix" values="0 0 0 0 0 0 0 0 0 0 0 0 0 0 0 0 0 0 0.05 0"/>
<feBlend mode="normal" in2="effect1_dropShadow" result="effect2_dropShadow"/>
<feBlend mode="normal" in="SourceGraphic" in2="effect2_dropShadow" result="shape"/>
</filter>
<filter id="filter2_dd" x="40.0005" y="168.668" width="106.667" height="124.667" filterUnits="userSpaceOnUse" color-interpolation-filters="sRGB">
<feFlood flood-opacity="0" result="BackgroundImageFix"/>
<feColorMatrix in="SourceAlpha" type="matrix" values="0 0 0 0 0 0 0 0 0 0 0 0 0 0 0 0 0 0 127 0" result="hardAlpha"/>
<feOffset/>
<feGaussianBlur stdDeviation="10"/>
<feColorMatrix type="matrix" values="0 0 0 0 0 0 0 0 0 0 0 0 0 0 0 0 0 0 0.1 0"/>
<feBlend mode="normal" in2="BackgroundImageFix" result="effect1_dropShadow"/>
<feColorMatrix in="SourceAlpha" type="matrix" values="0 0 0 0 0 0 0 0 0 0 0 0 0 0 0 0 0 0 127 0" result="hardAlpha"/>
<feOffset dy="3.33333"/>
<feGaussianBlur stdDeviation="1.66667"/>
<feColorMatrix type="matrix" values="0 0 0 0 0 0 0 0 0 0 0 0 0 0 0 0 0 0 0.05 0"/>
<feBlend mode="normal" in2="effect1_dropShadow" result="effect2_dropShadow"/>
<feBlend mode="normal" in="SourceGraphic" in2="effect2_dropShadow" result="shape"/>
</filter>
<filter id="filter3_dd" x="113.333" y="168.668" width="106.667" height="124.667" filterUnits="userSpaceOnUse" color-interpolation-filters="sRGB">
<feFlood flood-opacity="0" result="BackgroundImageFix"/>
<feColorMatrix in="SourceAlpha" type="matrix" values="0 0 0 0 0 0 0 0 0 0 0 0 0 0 0 0 0 0 127 0" result="hardAlpha"/>
<feOffset/>
<feGaussianBlur stdDeviation="10"/>
<feColorMatrix type="matrix" values="0 0 0 0 0 0 0 0 0 0 0 0 0 0 0 0 0 0 0.1 0"/>
<feBlend mode="normal" in2="BackgroundImageFix" result="effect1_dropShadow"/>
<feColorMatrix in="SourceAlpha" type="matrix" values="0 0 0 0 0 0 0 0 0 0 0 0 0 0 0 0 0 0 127 0" result="hardAlpha"/>
<feOffset dy="3.33333"/>
<feGaussianBlur stdDeviation="1.66667"/>
<feColorMatrix type="matrix" values="0 0 0 0 0 0 0 0 0 0 0 0 0 0 0 0 0 0 0.05 0"/>
<feBlend mode="normal" in2="effect1_dropShadow" result="effect2_dropShadow"/>
<feBlend mode="normal" in="SourceGraphic" in2="effect2_dropShadow" result="shape"/>
</filter>
<filter id="filter4_dd" x="153.333" y="26.6641" width="106.667" height="124.784" filterUnits="userSpaceOnUse" color-interpolation-filters="sRGB">
<feFlood flood-opacity="0" result="BackgroundImageFix"/>
<feColorMatrix in="SourceAlpha" type="matrix" values="0 0 0 0 0 0 0 0 0 0 0 0 0 0 0 0 0 0 127 0" result="hardAlpha"/>
<feOffset/>
<feGaussianBlur stdDeviation="10"/>
<feColorMatrix type="matrix" values="0 0 0 0 0 0 0 0 0 0 0 0 0 0 0 0 0 0 0.1 0"/>
<feBlend mode="normal" in2="BackgroundImageFix" result="effect1_dropShadow"/>
<feColorMatrix in="SourceAlpha" type="matrix" values="0 0 0 0 0 0 0 0 0 0 0 0 0 0 0 0 0 0 127 0" result="hardAlpha"/>
<feOffset dy="3.33333"/>
<feGaussianBlur stdDeviation="1.66667"/>
<feColorMatrix type="matrix" values="0 0 0 0 0 0 0 0 0 0 0 0 0 0 0 0 0 0 0.05 0"/>
<feBlend mode="normal" in2="effect1_dropShadow" result="effect2_dropShadow"/>
<feBlend mode="normal" in="SourceGraphic" in2="effect2_dropShadow" result="shape"/>
</filter>
<clipPath id="clip0">
<rect width="20" height="20" fill="white" transform="translate(43.3335 60)"/>
</clipPath>
<clipPath id="clip1">
<rect width="20" height="20" fill="white" transform="translate(156.667 213.332)"/>
</clipPath>
<clipPath id="clip2">
<rect width="20" height="20" fill="white" transform="translate(196.667 60)"/>
</clipPath>
<clipPath id="clip3">
<rect width="20" height="20" fill="white" transform="translate(83.3335 213.332)"/>
</clipPath>
</defs>
</svg>
