<svg viewBox="0 0 305 381" fill="none" xmlns="http://www.w3.org/2000/svg">
<g filter="url(#filter0_d)">
<path d="M99.7961 287.282H20.4496C18.5443 287.282 16.9998 288.836 16.9998 290.754V370.595C16.9998 372.512 18.5443 374.066 20.4496 374.066H99.7961C101.701 374.066 103.246 372.512 103.246 370.595V290.754C103.246 288.836 101.701 287.282 99.7961 287.282Z" fill="white"/>
<path d="M16.9998 337.617H103.246V370.595C103.246 372.512 101.701 374.066 99.7961 374.066H20.4496C18.5443 374.066 16.9998 372.512 16.9998 370.595V337.617Z" fill="#DB2777"/>
<path fill-rule="evenodd" clip-rule="evenodd" d="M265.844 23.5972C265.65 23.4962 265.424 23.6433 265.263 23.8442C264.094 25.1162 263.994 27.7087 264.672 29.3133C264.493 30.0267 264.422 30.9058 264.361 31.6703C264.283 32.6458 264.22 33.4347 263.966 33.4511C263.963 33.4511 263.962 33.452 263.96 33.452C263.962 33.452 263.964 33.452 263.966 33.4511C264.871 33.4138 265.729 33.5032 266.593 33.6516C266.583 32.4748 266.578 31.3536 266.682 30.2219C267.851 29.3758 268.716 26.7506 267.951 25.9861C267.788 25.8118 267.581 25.5278 267.35 25.2144C266.866 24.5534 266.286 23.7621 265.844 23.5972Z" fill="#A8C4D6"/>
<path d="M260.694 74.4916C203.941 132.236 116.658 194.762 4.87481 191.548C3.87883 191.519 3.78037 190.104 4.74741 189.861C146.433 154.308 198.432 97.7491 238.11 51.5136L223.988 45.6859C223.247 45.3805 223.284 44.3136 224.044 44.0595L283.872 24.0434C284.496 23.8344 285.113 24.3774 284.991 25.0279L272.285 92.3259C272.134 93.1235 271.075 93.296 270.683 92.5866L260.694 74.4916Z" fill="#D0F4FB"/>
<path d="M198.979 226.533H119.633C117.728 226.533 116.183 228.087 116.183 230.005V370.595C116.183 372.512 117.728 374.066 119.633 374.066H198.979C200.885 374.066 202.429 372.512 202.429 370.595V230.005C202.429 228.087 200.885 226.533 198.979 226.533Z" fill="white"/>
<path d="M116.183 302.036H202.429V370.595C202.429 372.512 200.885 374.066 198.979 374.066H119.633C117.728 374.066 116.183 372.512 116.183 370.595V302.036Z" fill="#DB2777"/>
<path d="M298.163 165.785H218.816C216.911 165.785 215.367 167.339 215.367 169.256V370.595C215.367 372.512 216.911 374.066 218.816 374.066H298.163C300.068 374.066 301.613 372.512 301.613 370.595V169.256C301.613 167.339 300.068 165.785 298.163 165.785Z" fill="white"/>
<path d="M215.367 264.718H301.613V370.595C301.613 372.512 300.068 374.066 298.163 374.066H218.816C216.911 374.066 215.367 372.512 215.367 370.595V264.718Z" fill="#DB2777"/>
</g>
<defs>
<filter id="filter0_d" x="0.805344" y="0" width="304.002" height="380.456" filterUnits="userSpaceOnUse" color-interpolation-filters="sRGB">
<feFlood flood-opacity="0" result="BackgroundImageFix"/>
<feColorMatrix in="SourceAlpha" type="matrix" values="0 0 0 0 0 0 0 0 0 0 0 0 0 0 0 0 0 0 127 0" result="hardAlpha"/>
<feOffset dy="3.19466"/>
<feGaussianBlur stdDeviation="1.59733"/>
<feColorMatrix type="matrix" values="0 0 0 0 0 0 0 0 0 0 0 0 0 0 0 0 0 0 0.25 0"/>
<feBlend mode="normal" in2="BackgroundImageFix" result="effect1_dropShadow"/>
<feBlend mode="normal" in="SourceGraphic" in2="effect1_dropShadow" result="shape"/>
</filter>
</defs>
</svg>
