<svg width="33" height="36" viewBox="0 0 33 36" fill="none" xmlns="http://www.w3.org/2000/svg">
<path d="M12.636 15.1154C12.5266 15.2373 12.485 15.3314 12.485 15.4809C12.485 15.6305 12.5266 15.7246 12.636 15.8465C12.8287 16.0514 13.0474 16.0569 13.261 15.8631C13.3964 15.7468 13.4224 15.6803 13.4224 15.492C13.4172 15.2428 13.3547 15.1209 13.1776 15.0213C12.9849 14.9105 12.7975 14.9437 12.636 15.1154ZM13.1516 15.2096C13.3287 15.3369 13.2974 15.6748 13.0995 15.7745C12.7662 15.9406 12.485 15.5086 12.7454 15.2317C12.8704 15.0988 12.9954 15.0933 13.1516 15.2096Z" fill="#DB2777"/>
<path d="M14.7765 0.0113429C14.7609 0.0279582 14.4901 0.0556528 14.1724 0.0722681C12.3809 0.177499 10.3134 0.709194 8.54794 1.52335C6.68875 2.37627 5.00663 3.58919 3.50678 5.1455C2.43397 6.26427 1.69446 7.23903 0.934116 8.5295C0.606024 9.09442 -0.0397398 10.3572 0.00192271 10.3572C0.0175461 10.3572 0.178988 10.1135 0.36647 9.81442C2.55896 6.28088 5.9232 3.79965 9.83427 2.83042C10.98 2.54796 11.6987 2.47042 13.2662 2.47042C14.9015 2.46488 15.542 2.54242 16.8492 2.88027C20.4634 3.81627 23.5412 6.01503 25.7441 9.22734C29.5042 14.7104 29.65 22.2261 26.1035 27.8864C23.8225 31.5307 20.302 34.0563 16.3232 34.9147C15.1462 35.1695 14.3078 35.2415 12.9277 35.2083C11.407 35.175 10.5373 35.0421 9.07393 34.6378C8.79791 34.5603 9.17808 34.7375 9.75094 34.948C11.5528 35.607 13.3808 35.9338 15.2973 35.9338C16.3649 35.9338 16.9846 35.884 17.9532 35.7178C20.7707 35.247 23.5412 33.951 25.765 32.0624C29.4677 28.9221 31.7123 24.4581 32.1237 19.4126C32.1966 18.4821 32.155 16.5935 32.0404 15.7018C31.6029 12.3289 30.4051 9.33811 28.4262 6.7018C27.8898 5.98734 26.5409 4.55842 25.8431 3.9658C23.3277 1.83903 20.3853 0.531958 17.2242 0.144268C16.5419 0.0611907 14.8234 -0.0329647 14.7765 0.0113429Z" fill="black"/>
<path d="M12.3444 8.69942C11.5737 8.7548 10.8133 8.91542 10.1051 9.16465C7.65219 10.0342 5.9909 12.1776 5.40242 15.2293C5.23577 16.0822 5.27222 16.8853 5.51178 17.6385C5.8555 18.7351 5.69406 19.5991 4.88164 20.9616C4.59521 21.4434 4.51709 21.6705 4.51709 22.0305C4.51709 22.324 4.67853 22.5179 4.96496 22.5677C5.07953 22.5843 5.22535 22.6287 5.29826 22.6674C5.42325 22.7394 5.42846 22.756 5.42846 23.3154C5.43366 24.1019 5.47012 24.268 5.69405 24.473C5.793 24.5671 5.90757 24.6447 5.95444 24.6447C6.01694 24.6447 6.01173 24.689 5.91799 24.8717C5.77738 25.1653 5.81905 25.3259 6.06902 25.4976C6.38149 25.7025 6.40752 25.769 6.37107 26.129C6.28254 26.9542 6.27733 27.0816 6.33982 27.2699C6.56897 28.012 7.46471 28.2945 8.78749 28.0397C9.0583 27.9843 9.40202 27.9456 9.54263 27.9456C10.3186 27.94 11.2404 28.8982 11.8913 30.3825C12.1778 31.025 12.4694 31.8502 12.6413 32.4927C12.7819 33.0243 12.7819 33.0243 13.1464 32.4317C14.2974 30.5708 14.4848 28.7653 13.6985 27.0373C13.4381 26.4723 13.1673 26.0847 12.4798 25.2705C10.7196 23.1991 9.43326 21.3548 8.81353 20.0145C8.324 18.9622 7.95946 17.201 7.91779 15.6945C7.88655 14.681 7.93341 14.116 8.11569 13.4016C8.68855 11.1419 10.5217 9.60773 13.2141 9.1425C14.1411 8.98188 14.3911 8.95973 15.2973 8.95419L16.1045 8.94865L15.7139 8.88219C14.6671 8.69942 13.3027 8.62742 12.3444 8.69942Z" fill="#3DB4E8"/>
<path d="M13.5995 10.3956C13.5735 10.523 13.5214 10.5673 13.3027 10.6449C13.0579 10.7279 13.0215 10.7279 12.9069 10.6504C12.7923 10.5729 12.7767 10.5784 12.6257 10.7335C12.4747 10.8941 12.4695 10.9107 12.5528 11.0381C12.6309 11.1655 12.6257 11.1876 12.5267 11.4036C12.459 11.5476 12.3757 11.6418 12.2976 11.6639C12.1882 11.6916 12.1726 11.7304 12.1726 11.9353C12.1726 12.1402 12.1882 12.179 12.3028 12.2067C12.3757 12.2289 12.433 12.2787 12.433 12.323C12.433 12.3673 12.4747 12.4892 12.5215 12.5999C12.5944 12.7661 12.5996 12.8104 12.5372 12.9322C12.4695 13.0652 12.4747 13.0873 12.6257 13.2479C12.7767 13.4086 12.7923 13.4141 12.9017 13.331C13.0006 13.259 13.0371 13.259 13.2662 13.3642C13.4641 13.4529 13.5214 13.5082 13.5475 13.6356C13.5735 13.7796 13.5943 13.7907 13.8131 13.7907C14.0266 13.7907 14.0474 13.7796 14.0474 13.6578C14.0474 13.5027 14.1099 13.4418 14.3703 13.3421C14.5422 13.2812 14.5734 13.2812 14.6724 13.3753C14.7765 13.4806 14.7817 13.475 14.9432 13.3089C15.0994 13.1427 15.1046 13.1261 15.0213 12.9987C14.9432 12.8713 14.9432 12.8436 15.0473 12.5778C15.1359 12.3618 15.1931 12.2898 15.3077 12.2676C15.4431 12.2344 15.4535 12.2122 15.4535 11.9852C15.4535 11.7526 15.4431 11.7359 15.2973 11.7027C15.1775 11.6806 15.115 11.6196 15.0577 11.4701C14.9848 11.2873 14.9848 11.2541 15.0629 11.1101C15.1463 10.9495 15.1411 10.9439 14.99 10.7833C14.8442 10.6227 14.8286 10.6227 14.7088 10.7058C14.5942 10.7833 14.5682 10.7833 14.3443 10.6726C14.1412 10.5729 14.0995 10.523 14.0995 10.3956C14.0995 10.2572 14.0839 10.2461 13.8651 10.2461C13.6464 10.2461 13.6256 10.2572 13.5995 10.3956ZM14.3182 11.1267C14.839 11.4812 14.9328 12.2842 14.5057 12.7218C14.1724 13.0652 13.7766 13.1538 13.3964 12.9655C12.8392 12.6886 12.6309 12.0295 12.9277 11.4867C13.2142 10.9661 13.8391 10.8055 14.3182 11.1267Z" fill="#DB2777"/>
<path d="M13.3808 11.2995C12.86 11.6373 12.886 12.4681 13.4224 12.7506C13.938 13.0275 14.5057 12.6896 14.5525 12.0804C14.6098 11.4102 13.9224 10.9506 13.3808 11.2995ZM14.0526 11.5598C14.4848 11.8312 14.2869 12.5456 13.7766 12.5456C13.6047 12.5456 13.5422 12.5124 13.4172 12.3629C13.0162 11.8866 13.537 11.233 14.0526 11.5598Z" fill="#DB2777"/>
<path d="M16.7034 10.9932C16.7034 11.0985 16.4639 11.2037 16.3285 11.1538C16.1774 11.104 16.0785 11.2258 16.1149 11.4086C16.1358 11.5249 16.1149 11.5914 16.0316 11.6634C15.9275 11.7631 15.8754 12.0178 15.9639 12.0178C16.042 12.0178 16.1306 12.2948 16.0993 12.4277C16.0681 12.5662 16.1931 12.7157 16.2868 12.6548C16.3857 12.5883 16.6409 12.6825 16.667 12.7988C16.7034 12.9372 16.9117 12.9428 16.9482 12.7988C16.9742 12.6825 17.1461 12.616 17.3075 12.6603C17.4377 12.6991 17.5835 12.544 17.5002 12.4554C17.4221 12.3723 17.5315 12.0843 17.6512 12.04C17.7814 11.9957 17.7762 11.7409 17.646 11.7409C17.5367 11.7409 17.469 11.5582 17.5158 11.3754C17.5523 11.2314 17.4065 11.0818 17.3179 11.176C17.245 11.2535 16.9638 11.1095 16.9638 10.9932C16.9638 10.9434 16.9117 10.9102 16.8336 10.9102C16.7503 10.9102 16.7034 10.9434 16.7034 10.9932ZM17.0419 11.3865C17.2554 11.4917 17.3961 11.7797 17.3492 12.0012C17.3023 12.2062 17.0888 12.4498 16.9117 12.4886C16.5993 12.5606 16.2347 12.2449 16.2347 11.9071C16.2347 11.6246 16.5159 11.3034 16.7711 11.2978C16.8284 11.2978 16.9482 11.3366 17.0419 11.3865Z" fill="#DB2777"/>
<path d="M16.5576 11.5022C16.5211 11.5188 16.4586 11.6019 16.4118 11.696C16.3493 11.829 16.344 11.8954 16.3909 12.0505C16.4586 12.272 16.5732 12.3496 16.8284 12.3496C16.9586 12.3496 17.0367 12.3108 17.1148 12.2056C17.3439 11.8954 17.1669 11.4579 16.818 11.469C16.7138 11.469 16.594 11.4856 16.5576 11.5022ZM16.9534 11.6628C17.1148 11.7846 17.1096 12.045 16.9325 12.1613C16.8075 12.2499 16.7919 12.2499 16.6617 12.1446C16.469 11.9951 16.4586 11.8345 16.6305 11.6905C16.7971 11.552 16.8023 11.552 16.9534 11.6628Z" fill="#DB2777"/>
<path d="M10.756 11.0888C10.7404 11.1275 10.6519 11.1608 10.5529 11.1663C10.3967 11.1718 10.3759 11.1885 10.3602 11.3325C10.3498 11.4211 10.3029 11.5263 10.2561 11.5651C10.178 11.626 10.178 11.6481 10.2665 11.8032C10.3186 11.8918 10.3446 12.0026 10.329 12.0469C10.3029 12.1245 10.4175 12.2629 10.4696 12.2075C10.5217 12.1521 10.7144 12.2463 10.7144 12.3294C10.7144 12.3737 10.7612 12.4069 10.8185 12.4069C10.8758 12.4069 10.9227 12.3681 10.9227 12.3238C10.9227 12.2408 10.9487 12.2297 11.157 12.2186C11.2247 12.2131 11.2664 12.1577 11.2924 12.0192C11.3133 11.914 11.3549 11.8198 11.3862 11.8088C11.4747 11.7755 11.4539 11.5928 11.3653 11.554C11.3133 11.5318 11.2872 11.4654 11.2976 11.3712C11.3133 11.2328 11.2924 11.2161 11.1414 11.1995C11.0477 11.1885 10.9539 11.1441 10.9383 11.0998C10.9071 11.0057 10.7821 10.9946 10.756 11.0888ZM11.0685 11.3878C11.2091 11.4875 11.2299 11.8531 11.0997 11.986C10.8289 12.274 10.3394 11.9915 10.4331 11.6038C10.4956 11.3269 10.8341 11.2106 11.0685 11.3878Z" fill="#DB2777"/>
<path d="M10.6363 11.4918C10.4853 11.6469 10.4748 11.7244 10.5894 11.8961C10.6988 12.0678 10.9488 12.0622 11.0529 11.885C11.1623 11.7078 11.105 11.4696 10.9384 11.4032C10.7717 11.3367 10.7821 11.3312 10.6363 11.4918ZM10.9436 11.5361C11.0529 11.6247 11.0373 11.7853 10.9123 11.8739C10.7144 12.0013 10.5061 11.6801 10.6936 11.5361C10.7457 11.4973 10.8029 11.4641 10.8186 11.4641C10.8342 11.4641 10.8915 11.4973 10.9436 11.5361Z" fill="#DB2777"/>
<path d="M19.125 12.4912C19.0937 12.541 19.0052 12.5853 18.9166 12.5909C18.8229 12.6019 18.7552 12.6352 18.7552 12.685C18.75 12.7293 18.7448 12.8124 18.7396 12.8622C18.7396 12.9176 18.6979 12.9619 18.6563 12.9619C18.5521 12.9619 18.5573 13.1281 18.6563 13.2056C18.7031 13.2389 18.7448 13.3441 18.75 13.4327C18.7604 13.5712 18.7864 13.5989 18.9166 13.6099C19 13.6155 19.0989 13.6598 19.1302 13.7096C19.2031 13.8149 19.2552 13.8149 19.3333 13.7041C19.3645 13.6487 19.4635 13.6099 19.5468 13.6044C19.677 13.5989 19.6978 13.5767 19.6978 13.4382C19.703 13.3552 19.7447 13.2499 19.7916 13.2112C19.9009 13.1281 19.9061 13.0395 19.7968 12.973C19.7447 12.9453 19.7082 12.8512 19.703 12.7626C19.6978 12.6407 19.6718 12.6019 19.5937 12.5964C19.3853 12.5853 19.3593 12.5742 19.3593 12.4912C19.3593 12.3804 19.1927 12.3859 19.125 12.4912ZM19.4895 12.8235C19.5624 12.8955 19.6197 13.0229 19.6197 13.1004C19.6197 13.2832 19.4062 13.5158 19.2395 13.5158C19.0312 13.5158 18.8385 13.3164 18.8385 13.1004C18.8385 12.9675 18.875 12.8844 18.9739 12.8013C19.1562 12.6462 19.3333 12.6573 19.4895 12.8235Z" fill="#DB2777"/>
<path d="M19.0052 12.8587C18.9688 12.8974 18.9427 13.0027 18.9427 13.0968C18.9427 13.3073 19.0261 13.4014 19.2083 13.4014C19.4635 13.4014 19.5885 13.1522 19.4635 12.8974C19.401 12.7756 19.1094 12.7479 19.0052 12.8587ZM19.401 13.1134C19.3906 13.2297 19.3542 13.2685 19.2448 13.2796C19.0417 13.3073 18.9532 13.1134 19.099 12.9584C19.2448 12.8033 19.4271 12.8974 19.401 13.1134Z" fill="#DB2777"/>
<path d="M10.3186 13.0939C10.2821 13.2656 9.87593 13.404 9.74573 13.2932C9.67803 13.2323 9.64678 13.2434 9.53742 13.3597C9.42285 13.4816 9.41243 13.5148 9.46971 13.6145C9.55825 13.764 9.40722 14.124 9.25619 14.124C9.16766 14.124 9.15204 14.1628 9.15204 14.3456C9.15204 14.5172 9.17287 14.5671 9.24578 14.5671C9.38118 14.5671 9.54262 15.0212 9.46451 15.1763C9.41243 15.276 9.42284 15.3203 9.52179 15.4311C9.61553 15.5363 9.65199 15.5474 9.74052 15.4976C9.89676 15.4089 10.2405 15.5474 10.2769 15.7136C10.303 15.8132 10.3446 15.8409 10.4852 15.8409C10.6258 15.8409 10.6675 15.8132 10.6883 15.7136C10.73 15.5419 11.0268 15.42 11.1883 15.5086C11.2768 15.564 11.3185 15.5529 11.4174 15.4532C11.5164 15.3536 11.5268 15.3092 11.4851 15.1874C11.407 14.9659 11.558 14.6225 11.7299 14.6225C11.8445 14.6225 11.8601 14.6003 11.8601 14.4065C11.8601 14.2182 11.8445 14.1905 11.7143 14.1628C11.5216 14.124 11.4122 13.836 11.5216 13.6588C11.5945 13.5425 11.5893 13.5259 11.4747 13.4096C11.3706 13.3043 11.3289 13.2932 11.2404 13.3431C11.0893 13.4317 10.7456 13.26 10.7248 13.0828C10.7092 12.9831 10.6727 12.9609 10.5269 12.9609C10.3863 12.9609 10.3446 12.9886 10.3186 13.0939ZM10.8914 13.6699C11.157 13.836 11.2612 14.0409 11.2612 14.4009C11.2612 14.7499 11.1779 14.9271 10.9071 15.1431C10.7092 15.2982 10.2561 15.2982 10.053 15.1431C9.81343 14.9548 9.67282 14.6889 9.67282 14.4176C9.67282 13.7308 10.329 13.332 10.8914 13.6699Z" fill="#DB2777"/>
<path d="M10.0947 13.8784C9.91761 14.039 9.79784 14.3713 9.84991 14.5818C9.86554 14.6593 9.95407 14.7978 10.0426 14.8919C10.178 15.0415 10.2405 15.0636 10.4801 15.0636C10.7196 15.0636 10.7821 15.0415 10.9123 14.8975C11.3185 14.4655 11.0477 13.7344 10.4749 13.7344C10.3134 13.7344 10.2093 13.7731 10.0947 13.8784ZM10.7352 14.0778C10.8498 14.1885 10.8967 14.3381 10.8759 14.5485C10.8654 14.6815 10.6415 14.8421 10.4749 14.8421C10.3499 14.8421 10.2717 14.7978 10.1728 14.6704C9.99573 14.4488 10.0009 14.3159 10.1884 14.1165C10.3707 13.9227 10.5582 13.9116 10.7352 14.0778Z" fill="#DB2777"/>
<path d="M16.5315 13.3317C16.521 13.3594 16.495 13.4702 16.4742 13.581C16.4429 13.7471 16.4117 13.797 16.2971 13.8247C16.219 13.8468 16.0575 13.9077 15.9326 13.9687L15.7086 14.0684L15.5264 13.9244L15.3493 13.7748L15.0681 14.0573L14.7921 14.3342L14.9222 14.5114L15.0524 14.6831L14.8858 15.021C14.7973 15.2093 14.7244 15.392 14.7244 15.4308C14.7244 15.525 14.6358 15.5804 14.4119 15.6191L14.2296 15.6468L14.214 16.0456L14.1984 16.4444L14.4379 16.4776C14.5681 16.4997 14.6723 16.544 14.6723 16.5828C14.6723 16.616 14.7296 16.7933 14.8025 16.9705L14.9275 17.2973L14.8025 17.4745L14.6723 17.6462L14.9327 17.9176L15.1931 18.189L15.3545 18.0893C15.5107 17.9896 15.5159 17.9896 15.8388 18.1613C16.0211 18.2554 16.2086 18.333 16.2554 18.333C16.3492 18.333 16.3648 18.3717 16.4169 18.6764L16.4481 18.8868H16.8075H17.1616L17.1981 18.704C17.2606 18.3828 17.2814 18.333 17.3647 18.333C17.4064 18.333 17.5834 18.2665 17.7501 18.189L18.0573 18.0394L18.2604 18.1834L18.4583 18.3219L18.7031 18.0616C18.8333 17.9176 18.9427 17.7847 18.9427 17.757C18.9427 17.7348 18.8854 17.6351 18.8125 17.5354L18.6823 17.3527L18.8125 17.0536C18.8854 16.8874 18.9427 16.7268 18.9427 16.688C18.9427 16.6493 19.0312 16.605 19.1406 16.5884C19.4687 16.5274 19.4635 16.5385 19.4635 16.1231V15.741L19.2187 15.6967C19.0312 15.6579 18.9635 15.6191 18.9531 15.536C18.9427 15.4751 18.875 15.2813 18.8021 15.1096L18.6667 14.7884L18.8125 14.5613L18.9531 14.3287L18.6927 14.0573L18.4375 13.7804L18.224 13.9299L18.0105 14.0794L17.672 13.952L17.3335 13.8247L17.3022 13.5588L17.2658 13.293H16.9116C16.7137 13.293 16.5419 13.3096 16.5315 13.3317ZM17.3855 14.5447C17.724 14.661 18.0209 14.9545 18.2084 15.3533C18.3438 15.6357 18.3698 15.7576 18.3698 16.0954C18.3698 16.4388 18.3438 16.544 18.198 16.8431C17.448 18.3828 15.2764 17.8234 15.2764 16.0899C15.2712 15.464 15.542 14.9656 16.0575 14.6444C16.4533 14.3951 16.8752 14.3619 17.3855 14.5447Z" fill="#DB2777"/>
<path d="M16.5992 14.7888C16.1148 14.8885 15.7347 15.2762 15.5993 15.8024C15.4638 16.3396 15.7815 17.0375 16.2659 17.2812C16.7606 17.5248 17.3803 17.4141 17.7345 17.0153C18.1719 16.5168 18.1667 15.6307 17.7136 15.1544C17.422 14.8498 16.9845 14.7058 16.5992 14.7888ZM17.2658 15.3815C17.5209 15.5864 17.6095 15.7692 17.6095 16.0904C17.6095 16.4172 17.5209 16.5944 17.2553 16.8048C17.0574 16.9655 16.6096 16.9655 16.4065 16.8048C16.1252 16.5833 16.0159 16.3452 16.0367 16.0184C16.0627 15.6972 16.2294 15.4535 16.521 15.3095C16.7241 15.2098 17.0939 15.243 17.2658 15.3815Z" fill="#DB2777"/>
<path d="M12.8496 14.476C12.8496 14.5867 12.5007 14.7031 12.4121 14.6255C12.308 14.5314 12.157 14.7363 12.1986 14.9135C12.2247 15.0243 12.2038 15.0907 12.0997 15.2015C11.9538 15.3566 11.9226 15.5283 12.032 15.6003C12.1465 15.6778 12.2455 15.9935 12.1778 16.0766C12.0997 16.1818 12.2663 16.3424 12.4121 16.3037C12.5528 16.2649 12.7975 16.3701 12.7975 16.4754C12.7975 16.5307 12.8496 16.5584 12.9538 16.5584C13.0579 16.5584 13.11 16.5307 13.11 16.4754C13.11 16.3701 13.3495 16.2649 13.485 16.3147C13.6308 16.3646 13.7974 16.1874 13.7245 16.0655C13.6568 15.9492 13.8026 15.6169 13.9172 15.6169C13.9693 15.6169 13.9953 15.5615 13.9953 15.4507C13.9953 15.3234 13.9693 15.2846 13.8964 15.2846C13.7714 15.2846 13.662 14.9966 13.7506 14.9024C13.8339 14.8138 13.6412 14.6089 13.5318 14.6698C13.4329 14.7363 13.1621 14.5978 13.1621 14.4815C13.1621 14.4261 13.11 14.3984 13.0058 14.3984C12.9069 14.3984 12.8496 14.4261 12.8496 14.476ZM13.3183 14.9467C13.511 15.0963 13.5839 15.2791 13.5631 15.5504C13.5006 16.1984 12.6882 16.3591 12.4017 15.7775C12.1049 15.1627 12.7975 14.5369 13.3183 14.9467Z" fill="#DB2777"/>
<path d="M16.0784 19.2416C16.0784 19.3302 15.7451 19.4687 15.6618 19.4133C15.5785 19.3579 15.4483 19.4964 15.4795 19.6071C15.516 19.7345 15.4066 19.9948 15.3129 19.9948C15.2764 19.9948 15.2452 20.0558 15.2452 20.1333C15.2452 20.2108 15.2764 20.2718 15.3129 20.2718C15.4066 20.2718 15.5108 20.5985 15.4535 20.7148C15.391 20.8367 15.5472 21.0084 15.6566 20.9419C15.7503 20.8754 16.0263 20.9807 16.0263 21.0804C16.0263 21.1302 16.0836 21.1579 16.1826 21.1579C16.2763 21.1579 16.3388 21.1302 16.3388 21.0859C16.3388 20.9807 16.5627 20.881 16.6617 20.9419C16.7659 21.0028 16.9273 20.8311 16.8596 20.7148C16.8023 20.6151 16.9377 20.3271 17.0419 20.3271C17.0939 20.3271 17.12 20.2718 17.12 20.161C17.12 20.0336 17.0939 19.9948 17.021 19.9948C16.9065 19.9948 16.8284 19.7456 16.9117 19.6404C16.9846 19.5407 16.7815 19.3358 16.693 19.4299C16.62 19.5074 16.3388 19.3634 16.3388 19.2471C16.3388 19.1973 16.2867 19.1641 16.2086 19.1641C16.1305 19.1641 16.0784 19.1973 16.0784 19.2416ZM16.5523 19.7511C16.9325 20.1333 16.6877 20.7702 16.167 20.7702C15.8857 20.7702 15.6097 20.4822 15.6097 20.1887C15.6097 19.9284 15.6826 19.7954 15.8857 19.657C16.0993 19.513 16.3544 19.5518 16.5523 19.7511Z" fill="#DB2777"/>
</svg>
