<?xml version="1.0" encoding="UTF-8"?>
<svg width="24px" height="24px" viewBox="0 0 24 24" version="1.1" xmlns="http://www.w3.org/2000/svg" xmlns:xlink="http://www.w3.org/1999/xlink">
    <title>C0D5D383-1D21-41AE-8417-34B5E4AA71ED</title>
    <g id="ðŸžï¸-UI-(Web)" stroke="none" stroke-width="1" fill="none" fill-rule="evenodd">
        <g id="Homepage" transform="translate(-549.000000, -5501.000000)">
            <rect fill="#F8F8F8" x="0" y="0" width="1920" height="5697"></rect>
            <g id="Footer" transform="translate(0.000000, 5389.000000)">
                <rect id="Background" fill="black" x="0" y="0" width="1920" height="308"></rect>
                <g id="Social" transform="translate(333.000000, 112.000000)" fill="#FFFFFF">
                    <g id="instagram" transform="translate(216.000000, 0.000000)">
                        <path d="M17.9555556,0 C21.2888889,0 24,2.71111111 24,6.04444444 L24,17.9555556 C24,21.2888889 21.2888889,24 17.9555556,24 L6.04444444,24 C2.71111111,24 0,21.2888889 0,17.9555556 L0,6.04444444 C0,2.71111111 2.71111111,0 6.04444444,0 L17.9555556,0 Z M17.9555556,2.62222222 L6.04444444,2.62222222 C4.13333333,2.62222222 2.62222222,4.17777778 2.62222222,6.04444444 L2.62222222,17.9555556 C2.62222222,19.8666667 4.17777778,21.3777778 6.04444444,21.3777778 L17.9555556,21.3777778 C19.8666667,21.3777778 21.3777778,19.8222222 21.3777778,17.9555556 L21.3777778,6.04444444 C21.3777778,4.17777778 19.8222222,2.62222222 17.9555556,2.62222222 Z M12,5.82222222 C15.4222222,5.82222222 18.1777778,8.57777778 18.1777778,12 C18.1777778,15.4222222 15.3777778,18.1777778 12,18.1777778 C8.57777778,18.1777778 5.82222222,15.4222222 5.82222222,12 C5.82222222,8.57777778 8.57777778,5.82222222 12,5.82222222 Z M12,8.44444444 C10.0444444,8.44444444 8.44444444,10.0444444 8.44444444,12 C8.44444444,13.9555556 10.0444444,15.5555556 12,15.5555556 C13.9555556,15.5555556 15.5555556,13.9555556 15.5555556,12 C15.5555556,10.0444444 13.9555556,8.44444444 12,8.44444444 Z M18.3555556,4.17777778 C19.1555556,4.17777778 19.8222222,4.84444444 19.8222222,5.64444444 C19.8222222,6.44444444 19.1555556,7.11111111 18.3555556,7.11111111 C17.5555556,7.11111111 16.8888889,6.44444444 16.8888889,5.64444444 C16.8888889,4.84444444 17.5555556,4.17777778 18.3555556,4.17777778 Z" id="intsagram"></path>
                    </g>
                </g>
            </g>
        </g>
    </g>
</svg>