<svg width="1421" height="221" viewBox="0 0 1421 221" fill="none" xmlns="http://www.w3.org/2000/svg">
<path d="M822.5 2.10005C813.4 3.40005 800.4 7.70005 791 12.6001C765.1 26.0001 746.5 49.0001 738.4 77.6001C735.2 88.7001 734 110.7 736 122.7C740.5 151.1 757.4 177.7 781.3 193.9C788.5 198.8 801.4 204.6 811 207.2C818.5 209.2 821.7 209.5 838.5 209.5C859.5 209.5 863 208.8 879.4 202.3C884.3 200.4 888.5 199.2 888.9 199.7C889.2 200.2 893.1 205.2 897.4 210.8L905.3 221H927.1C939.2 221 949 220.8 949 220.6C949 220.4 941.4 210.4 932.1 198.4L915.2 176.6L920.5 169.6C934.9 150.3 941 131.2 941 105.8C941 84.2 935.7 65.5 924.8 48.9C901.9 13.7 863.6 -3.79995 822.5 2.10005ZM858 40.8C877.3 47.1 893.5 63.2 900.4 83C904.2 94 905.1 109.8 902.6 121.3C900.7 129.8 893.7 145 891.8 144.9C891.1 144.9 886.7 140 882.1 133.9L873.8 123H851.9C839.8 123 830 123.2 830 123.5C830 123.8 837.7 133.9 847 145.9C856.4 158 864 168.1 864 168.4C864 169.8 849.5 173.3 841.5 173.7C825.6 174.6 810.9 169.9 797.2 159.5C786.1 151.1 779.4 141.3 774.8 127C772.8 120.5 772.5 117.6 772.6 105.5C772.7 93.2 773 90.6 775.3 83.5C778.7 73.2 782.6 66.7 789.6 59C798.7 49.2 808.2 43.5 821.2 40C830.9 37.3 848.4 37.8 858 40.8Z" fill="#DB2777"/>
<path d="M138.7 3.70001C138.3 4.00001 138 16.4 138 31.2V58H128.5H118.9L119.2 73.7L119.5 89.5L128.7 89.8L138 90.1L138.2 147.8L138.5 205.5L157.3 205.8L176 206V148V90H187H198V74V58H187H176V30.5V3H157.7C147.6 3 139 3.30001 138.7 3.70001Z" fill="white"/>
<path d="M405.7 3.70001C405.3 4.00001 405 16.4 405 31.2V58H395.5H385.9L386.2 73.7L386.5 89.5L395.7 89.8L405 90.1L405.2 147.8L405.5 205.5L424.3 205.8L443 206V148V90H454H465V74V58H454H443V30.5V3H424.7C414.6 3 406 3.30001 405.7 3.70001Z" fill="white"/>
<path d="M978 30.5V58H968.5H959V74V90H968.5H978V148V206H996.5H1015V148V90H1026H1037V74V58.1L1026.3 57.8L1015.5 57.5L1015.2 30.2L1015 3H996.5H978V30.5Z" fill="white"/>
<path d="M1361.8 30.2L1361.5 57.5L1352.3 57.8L1343 58.1V74V90H1352.5H1362V148V206H1380.5H1399V148V90H1410H1421V74V58H1410H1399V30.5V3H1380.5H1362L1361.8 30.2Z" fill="white"/>
<path d="M664 105.5V205H682.5H701V105.5V6H682.5H664V105.5Z" fill="#DB2777"/>
<path d="M39.1 55.6001C30.7 57.8001 22.4 62.8001 16.6 69.0001C-2.2 89.4001 3 117.4 28.8 134.3C32.5 136.8 41.1 141.6 47.9 145C61 151.7 68.3 157.5 69.6 162.4C71.5 170.1 62.8 176.7 51.9 175.7C44.7 175.1 35.2 170.5 28 164.2L22.7 159.6L11.4 171.5C5.2 178.1 0.1 183.8 0 184.2C0 185.8 11.1 196.1 16.9 199.8C40 214.8 74.5 212.3 92.4 194.4C107.4 179.4 109.2 154.1 96.5 136.7C91.3 129.8 81.7 123.2 62.6 113.4C53.2 108.6 44.6 103.7 43.3 102.4C40.1 99.2001 40.2 94.1001 43.5 91.0001C45.4 89.2001 47.5 88.5001 51.8 88.2001C59 87.7001 66 90.4001 73.9 96.8001L79.2 101.2L90.6 89.9001C96.9 83.6001 102 78.3001 102 78.0001C102 77.6001 99.2 74.6001 95.8 71.2001C88.4 63.8001 77 57.5001 67.2 55.5001C58.7 53.7001 46.1 53.7001 39.1 55.6001Z" fill="white"/>
<path d="M263.2 55.9999C251.4 59.0999 242.6 64.3999 233.5 73.4999C217.4 89.6999 211 106.4 211 132.2C211 157.2 218.2 174.5 235.4 190.7C248.9 203.5 262.9 209.3 280.5 209.3C295.6 209.4 307 205.5 319.2 196.2L325.9 191.1L326.2 198.3L326.5 205.5H345H363.5L363.8 131.7L364 57.9999H345H326V65.4999V72.9999L320.5 68.4999C314.4 63.4999 307.5 59.7999 299 56.7999C290.6 53.7999 272.7 53.3999 263.2 55.9999ZM302.5 91.0999C317.4 96.7999 326.5 109.9 327.7 127.4C329.1 147.6 320.9 163.5 305.1 171.3C299 174.3 297.9 174.5 288 174.5C278.7 174.5 276.8 174.2 271.8 171.8C256.7 164.8 248 150 248 131.5C248 110 259.7 93.8999 278.5 89.4999C285 87.8999 296.1 88.6999 302.5 91.0999Z" fill="white"/>
<path d="M536.9 55.4001C517 59.6001 498.6 72.9001 488.1 90.8001C474.6 113.7 473.9 147.8 486.6 170.6C500.6 195.9 524.7 209.3 556 209.3C576.2 209.2 591.2 205 604.4 195.6C610.9 191 622 179.6 622 177.5C622 176.9 615.1 173.2 606.8 169.4L591.6 162.3L586.5 166.1C570 178.6 546.9 180.2 531 170C522.5 164.6 515.8 155 514.4 146.3L513.8 142.5H572.6H631.5L632.1 138.7C632.9 133.7 631.5 117.4 629.5 109.7C623.2 84.5001 603.3 64.3001 577.8 56.9001C568.3 54.2001 546.6 53.4001 536.9 55.4001ZM566.9 87.0001C577.6 89.6001 587.6 97.4001 592.4 106.9C593.8 109.7 595 112.2 595 112.5C595 112.8 577 113 554.9 113H514.8L517.5 108.2C521.9 100.7 524.9 97.1001 529.8 93.5001C539.5 86.4001 553.8 83.9001 566.9 87.0001Z" fill="white"/>
<path d="M1109.9 55.4999C1080.2 61.3999 1057.3 85.0999 1051.4 115.7C1048.5 131 1050.2 150.1 1055.6 163.4C1061.2 177.1 1074.4 192.2 1087.1 199.3C1101.7 207.5 1120 210.9 1138.6 209C1159.4 206.9 1171.9 201.1 1185.8 187.4C1190.8 182.4 1195 177.9 1195 177.4C1194.9 176.9 1187.9 173.2 1179.3 169.2L1163.8 162L1160.4 164.9C1146.8 176.9 1124.9 180 1108.2 172.5C1097.9 167.8 1087.9 155.3 1086.8 145.7L1086.5 143L1145.5 142.7L1204.5 142.5L1204.3 130C1204.2 119.7 1203.7 115.9 1201.5 108.5C1197.3 94.1999 1192.9 86.7999 1182 75.8999C1174.2 68.0999 1171 65.6999 1163.8 62.0999C1148.7 54.6999 1127.2 52.0999 1109.9 55.4999ZM1139.9 86.9999C1146.1 88.4999 1151.5 91.4999 1156.7 96.2999C1161.1 100.3 1167 109.2 1167 111.7C1167 112.7 1158.4 113 1127.5 113C1105.8 113 1088 112.7 1088 112.4C1088 110.3 1094.8 100.6 1099 96.5999C1109.3 86.9999 1124.6 83.3999 1139.9 86.9999Z" fill="white"/>
<path d="M1264.1 55.1C1251.8 57.5 1239 67 1232.9 78.3C1229.6 84.3 1229.5 84.8 1229.5 96C1229.5 106.5 1229.7 108 1232.2 113C1238.1 124.9 1247.8 133.1 1269.2 144.1C1289.8 154.7 1295.4 160.8 1291.6 168.7C1289.3 173.6 1282.6 176.4 1274.9 175.7C1268 175.1 1257.7 170 1250.5 163.7L1245.7 159.4L1234.3 171.7L1222.8 184L1226 188C1230.8 194 1241.6 201.7 1250.1 205C1267.1 211.5 1288.4 210.9 1303.4 203.3C1310.4 199.8 1320.1 190.1 1323.3 183.6C1330.7 168.6 1329.1 149.2 1319.5 136.7C1314.2 129.8 1304.1 122.8 1286 113.6C1267.9 104.3 1264 101.5 1264 97.5C1264 90.9 1269.3 87.5001 1278.5 88.2001C1285.6 88.8001 1288.9 90.3 1296.6 96.6L1302.3 101.2L1313.9 89.6L1325.5 77.9L1318 70.7001C1309.7 62.8001 1301.1 57.9 1290.7 55.5C1284 53.9 1271.1 53.7 1264.1 55.1Z" fill="white"/>
</svg>
