<svg width="1997" height="650" viewBox="0 0 1997 650" fill="none" xmlns="http://www.w3.org/2000/svg">
<path d="M1663 1.20001C1662.7 1.50001 1657.5 2.00005 1651.4 2.30005C1617 4.20005 1577.3 13.8001 1543.4 28.5001C1507.7 43.9001 1475.4 65.8 1446.6 93.9C1426 114.1 1411.8 131.7 1397.2 155C1390.9 165.2 1378.5 188 1379.3 188C1379.6 188 1382.7 183.6 1386.3 178.2C1428.4 114.4 1493 69.6 1568.1 52.1C1590.1 47 1603.9 45.6 1634 45.6C1665.4 45.5 1677.7 46.9001 1702.8 53.0001C1772.2 69.9001 1831.3 109.6 1873.6 167.6C1945.8 266.6 1948.6 402.3 1880.5 504.5C1836.7 570.3 1769.1 615.9 1692.7 631.4C1670.1 636 1654 637.3 1627.5 636.7C1598.3 636.1 1581.6 633.7 1553.5 626.4C1548.2 625 1555.5 628.2 1566.5 632C1601.1 643.9 1636.2 649.8 1673 649.8C1693.5 649.8 1705.4 648.9 1724 645.9C1778.1 637.4 1831.3 614 1874 579.9C1945.1 523.2 1988.2 442.6 1996.1 351.5C1997.5 334.7 1996.7 300.6 1994.5 284.5C1986.1 223.6 1963.1 169.6 1925.1 122C1914.8 109.1 1888.9 83.3 1875.5 72.6C1827.2 34.2 1770.7 10.6 1710 3.60004C1696.9 2.10004 1663.9 0.400012 1663 1.20001Z" fill="black"/>
<path d="M1616.3 158.1C1601.5 159.1 1586.9 162 1573.3 166.5C1526.2 182.2 1494.3 220.9 1483 276C1479.8 291.4 1480.5 305.9 1485.1 319.5C1491.7 339.3 1488.6 354.9 1473 379.5C1467.5 388.2 1466 392.3 1466 398.8C1466 404.1 1469.1 407.6 1474.6 408.5C1476.8 408.8 1479.6 409.6 1481 410.3C1483.4 411.6 1483.5 411.9 1483.5 422C1483.6 436.2 1484.3 439.2 1488.6 442.9C1490.5 444.6 1492.7 446 1493.6 446C1494.8 446 1494.7 446.8 1492.9 450.1C1490.2 455.4 1491 458.3 1495.8 461.4C1501.8 465.1 1502.3 466.3 1501.6 472.8C1499.9 487.7 1499.8 490 1501 493.4C1505.4 506.8 1522.6 511.9 1548 507.3C1553.2 506.3 1559.8 505.6 1562.5 505.6C1577.4 505.5 1595.1 522.8 1607.6 549.6C1613.1 561.2 1618.7 576.1 1622 587.7C1624.7 597.3 1624.7 597.3 1631.7 586.6C1653.8 553 1657.4 520.4 1642.3 489.2C1637.3 479 1632.1 472 1618.9 457.3C1585.1 419.9 1560.4 386.6 1548.5 362.4C1539.1 343.4 1532.1 311.6 1531.3 284.4C1530.7 266.1 1531.6 255.9 1535.1 243C1546.1 202.2 1581.3 174.5 1633 166.1C1650.8 163.2 1655.6 162.8 1673 162.7L1688.5 162.6L1681 161.4C1660.9 158.1 1634.7 156.8 1616.3 158.1Z" fill="#3DB4E8"/>
<path d="M1640.4 188.7C1639.9 191 1638.9 191.8 1634.7 193.2C1630 194.7 1629.3 194.7 1627.1 193.3C1624.9 191.9 1624.6 192 1621.7 194.8C1618.8 197.7 1618.7 198 1620.3 200.3C1621.8 202.6 1621.7 203 1619.8 206.9C1618.5 209.5 1616.9 211.2 1615.4 211.6C1613.3 212.1 1613 212.8 1613 216.5C1613 220.2 1613.3 220.9 1615.5 221.4C1616.9 221.8 1618 222.7 1618 223.5C1618 224.3 1618.8 226.5 1619.7 228.5C1621.1 231.5 1621.2 232.3 1620 234.5C1618.7 236.9 1618.8 237.3 1621.7 240.2C1624.6 243.1 1624.9 243.2 1627 241.7C1628.9 240.4 1629.6 240.4 1634 242.3C1637.8 243.9 1638.9 244.9 1639.4 247.2C1639.9 249.8 1640.3 250 1644.5 250C1648.6 250 1649 249.8 1649 247.6C1649 244.8 1650.2 243.7 1655.2 241.9C1658.5 240.8 1659.1 240.8 1661 242.5C1663 244.4 1663.1 244.3 1666.2 241.3C1669.2 238.3 1669.3 238 1667.7 235.7C1666.2 233.4 1666.2 232.9 1668.2 228.1C1669.9 224.2 1671 222.9 1673.2 222.5C1675.8 221.9 1676 221.5 1676 217.4C1676 213.2 1675.8 212.9 1673 212.3C1670.7 211.9 1669.5 210.8 1668.4 208.1C1667 204.8 1667 204.2 1668.5 201.6C1670.1 198.7 1670 198.6 1667.1 195.7C1664.3 192.8 1664 192.8 1661.7 194.3C1659.5 195.7 1659 195.7 1654.7 193.7C1650.8 191.9 1650 191 1650 188.7C1650 186.2 1649.7 186 1645.5 186C1641.3 186 1640.9 186.2 1640.4 188.7ZM1654.2 201.9C1664.2 208.3 1666 222.8 1657.8 230.7C1651.4 236.9 1643.8 238.5 1636.5 235.1C1625.8 230.1 1621.8 218.2 1627.5 208.4C1633 199 1645 196.1 1654.2 201.9Z" fill="#DB2777"/>
<path d="M1636.2 205C1626.2 211.1 1626.7 226.1 1637 231.2C1646.9 236.2 1657.8 230.1 1658.7 219.1C1659.8 207 1646.6 198.7 1636.2 205ZM1649.1 209.7C1657.4 214.6 1653.6 227.5 1643.8 227.5C1640.5 227.5 1639.3 226.9 1636.9 224.2C1629.2 215.6 1639.2 203.8 1649.1 209.7Z" fill="#DB2777"/>
<path d="M1700 199.5C1700 201.4 1695.4 203.3 1692.8 202.4C1689.9 201.5 1688 203.7 1688.7 207C1689.1 209.1 1688.7 210.3 1687.1 211.6C1685.1 213.4 1684.1 218 1685.8 218C1687.3 218 1689 223 1688.4 225.4C1687.8 227.9 1690.2 230.6 1692 229.5C1693.9 228.3 1698.8 230 1699.3 232.1C1700 234.6 1704 234.7 1704.7 232.1C1705.2 230 1708.5 228.8 1711.6 229.6C1714.1 230.3 1716.9 227.5 1715.3 225.9C1713.8 224.4 1715.9 219.2 1718.2 218.4C1720.7 217.6 1720.6 213 1718.1 213C1716 213 1714.7 209.7 1715.6 206.4C1716.3 203.8 1713.5 201.1 1711.8 202.8C1710.4 204.2 1705 201.6 1705 199.5C1705 198.6 1704 198 1702.5 198C1700.9 198 1700 198.6 1700 199.5ZM1706.5 206.6C1710.6 208.5 1713.3 213.7 1712.4 217.7C1711.5 221.4 1707.4 225.8 1704 226.5C1698 227.8 1691 222.1 1691 216C1691 210.9 1696.4 205.1 1701.3 205C1702.4 205 1704.7 205.7 1706.5 206.6Z" fill="#DB2777"/>
<path d="M1697.2 208.7C1696.5 209 1695.3 210.5 1694.4 212.2C1693.2 214.6 1693.1 215.8 1694 218.6C1695.3 222.6 1697.5 224 1702.4 224C1704.9 224 1706.4 223.3 1707.9 221.4C1712.3 215.8 1708.9 207.9 1702.2 208.1C1700.2 208.1 1697.9 208.4 1697.2 208.7ZM1704.8 211.6C1707.9 213.8 1707.8 218.5 1704.4 220.6C1702 222.2 1701.7 222.2 1699.2 220.3C1695.5 217.6 1695.3 214.7 1698.6 212.1C1701.8 209.6 1701.9 209.6 1704.8 211.6Z" fill="#DB2777"/>
<path d="M1585.8 201.2C1585.5 201.9 1583.8 202.5 1581.9 202.6C1578.9 202.7 1578.5 203 1578.2 205.6C1578 207.2 1577.1 209.1 1576.2 209.8C1574.7 210.9 1574.7 211.3 1576.4 214.1C1577.4 215.7 1577.9 217.7 1577.6 218.5C1577.1 219.9 1579.3 222.4 1580.3 221.4C1581.3 220.4 1585 222.1 1585 223.6C1585 224.4 1585.9 225 1587 225C1588.1 225 1589 224.3 1589 223.5C1589 222 1589.5 221.8 1593.5 221.6C1594.8 221.5 1595.6 220.5 1596.1 218C1596.5 216.1 1597.3 214.4 1597.9 214.2C1599.6 213.6 1599.2 210.3 1597.5 209.6C1596.5 209.2 1596 208 1596.2 206.3C1596.5 203.8 1596.1 203.5 1593.2 203.2C1591.4 203 1589.6 202.2 1589.3 201.4C1588.7 199.7 1586.3 199.5 1585.8 201.2ZM1591.8 206.6C1594.5 208.4 1594.9 215 1592.4 217.4C1587.2 222.6 1577.8 217.5 1579.6 210.5C1580.8 205.5 1587.3 203.4 1591.8 206.6Z" fill="#DB2777"/>
<path d="M1583.5 208.5C1580.6 211.3 1580.4 212.7 1582.6 215.8C1584.7 218.9 1589.5 218.8 1591.5 215.6C1593.6 212.4 1592.5 208.1 1589.3 206.9C1586.1 205.7 1586.3 205.6 1583.5 208.5ZM1589.4 209.3C1591.5 210.9 1591.2 213.8 1588.8 215.4C1585 217.7 1581 211.9 1584.6 209.3C1585.6 208.6 1586.7 208 1587 208C1587.3 208 1588.4 208.6 1589.4 209.3Z" fill="#DB2777"/>
<path d="M1746.5 226.5C1745.9 227.4 1744.2 228.2 1742.5 228.3C1740.7 228.5 1739.4 229.1 1739.4 230C1739.3 230.8 1739.2 232.3 1739.1 233.2C1739.1 234.2 1738.3 235 1737.5 235C1735.5 235 1735.6 238 1737.5 239.4C1738.4 240 1739.2 241.9 1739.3 243.5C1739.5 246 1740 246.5 1742.5 246.7C1744.1 246.8 1746 247.6 1746.6 248.5C1748 250.4 1749 250.4 1750.5 248.4C1751.1 247.4 1753 246.7 1754.6 246.6C1757.1 246.5 1757.5 246.1 1757.5 243.6C1757.6 242.1 1758.4 240.2 1759.3 239.5C1761.4 238 1761.5 236.4 1759.4 235.2C1758.4 234.7 1757.7 233 1757.6 231.4C1757.5 229.2 1757 228.5 1755.5 228.4C1751.5 228.2 1751 228 1751 226.5C1751 224.5 1747.8 224.6 1746.5 226.5ZM1753.5 232.5C1754.9 233.8 1756 236.1 1756 237.5C1756 240.8 1751.9 245 1748.7 245C1744.7 245 1741 241.4 1741 237.5C1741 235.1 1741.7 233.6 1743.6 232.1C1747.1 229.3 1750.5 229.5 1753.5 232.5Z" fill="#DB2777"/>
<path d="M1744.2 233.2C1743.5 233.9 1743 235.8 1743 237.5C1743 241.3 1744.6 243 1748.1 243C1753 243 1755.4 238.5 1753 233.9C1751.8 231.7 1746.2 231.2 1744.2 233.2ZM1751.8 237.8C1751.6 239.9 1750.9 240.6 1748.8 240.8C1744.9 241.3 1743.2 237.8 1746 235C1748.8 232.2 1752.3 233.9 1751.8 237.8Z" fill="#DB2777"/>
<path d="M1577.4 237.4C1576.7 240.5 1568.9 243 1566.4 241C1565.1 239.9 1564.5 240.1 1562.4 242.2C1560.2 244.4 1560 245 1561.1 246.8C1562.8 249.5 1559.9 256 1557 256C1555.3 256 1555 256.7 1555 260C1555 263.1 1555.4 264 1556.8 264C1559.4 264 1562.5 272.2 1561 275C1560 276.8 1560.2 277.6 1562.1 279.6C1563.9 281.5 1564.6 281.7 1566.3 280.8C1569.3 279.2 1575.9 281.7 1576.6 284.7C1577.1 286.5 1577.9 287 1580.6 287C1583.3 287 1584.1 286.5 1584.5 284.7C1585.3 281.6 1591 279.4 1594.1 281C1595.8 282 1596.6 281.8 1598.5 280C1600.4 278.2 1600.6 277.4 1599.8 275.2C1598.3 271.2 1601.2 265 1604.5 265C1606.7 265 1607 264.6 1607 261.1C1607 257.7 1606.7 257.2 1604.2 256.7C1600.5 256 1598.4 250.8 1600.5 247.6C1601.9 245.5 1601.8 245.2 1599.6 243.1C1597.6 241.2 1596.8 241 1595.1 241.9C1592.2 243.5 1585.6 240.4 1585.2 237.2C1584.9 235.4 1584.2 235 1581.4 235C1578.7 235 1577.9 235.5 1577.4 237.4ZM1588.4 247.8C1593.5 250.8 1595.5 254.5 1595.5 261C1595.5 267.3 1593.9 270.5 1588.7 274.4C1584.9 277.2 1576.2 277.2 1572.3 274.4C1567.7 271 1565 266.2 1565 261.3C1565 248.9 1577.6 241.7 1588.4 247.8Z" fill="#DB2777"/>
<path d="M1573.1 251.6C1569.7 254.5 1567.4 260.5 1568.4 264.3C1568.7 265.7 1570.4 268.2 1572.1 269.9C1574.7 272.6 1575.9 273 1580.5 273C1585.1 273 1586.3 272.6 1588.8 270C1596.6 262.2 1591.4 249 1580.4 249C1577.3 249 1575.3 249.7 1573.1 251.6ZM1585.4 255.2C1587.6 257.2 1588.5 259.9 1588.1 263.7C1587.9 266.1 1583.6 269 1580.4 269C1578 269 1576.5 268.2 1574.6 265.9C1571.2 261.9 1571.3 259.5 1574.9 255.9C1578.4 252.4 1582 252.2 1585.4 255.2Z" fill="#DB2777"/>
<path d="M1696.7 241.7C1696.5 242.2 1696 244.2 1695.6 246.2C1695 249.2 1694.4 250.1 1692.2 250.6C1690.7 251 1687.6 252.1 1685.2 253.2L1680.9 255L1677.4 252.4L1674 249.7L1668.6 254.8L1663.3 259.8L1665.8 263L1668.3 266.1L1665.1 272.2C1663.4 275.6 1662 278.9 1662 279.6C1662 281.3 1660.3 282.3 1656 283L1652.5 283.5L1652.2 290.7L1651.9 297.9L1656.5 298.5C1659 298.9 1661 299.7 1661 300.4C1661 301 1662.1 304.2 1663.5 307.4L1665.9 313.3L1663.5 316.5L1661 319.6L1666 324.5L1671 329.4L1674.1 327.6C1677.1 325.8 1677.2 325.8 1683.4 328.9C1686.9 330.6 1690.5 332 1691.4 332C1693.2 332 1693.5 332.7 1694.5 338.2L1695.1 342H1702H1708.8L1709.5 338.7C1710.7 332.9 1711.1 332 1712.7 332C1713.5 332 1716.9 330.8 1720.1 329.4L1726 326.7L1729.9 329.3L1733.7 331.8L1738.4 327.1C1740.9 324.5 1743 322.1 1743 321.6C1743 321.2 1741.9 319.4 1740.5 317.6L1738 314.3L1740.5 308.9C1741.9 305.9 1743 303 1743 302.3C1743 301.6 1744.7 300.8 1746.8 300.5C1753.1 299.4 1753 299.6 1753 292.1V285.2L1748.3 284.4C1744.7 283.7 1743.4 283 1743.2 281.5C1743 280.4 1741.7 276.9 1740.3 273.8L1737.7 268L1740.5 263.9L1743.2 259.7L1738.2 254.8L1733.3 249.8L1729.2 252.5L1725.1 255.2L1718.6 252.9L1712.1 250.6L1711.5 245.8L1710.8 241H1704C1700.2 241 1696.9 241.3 1696.7 241.7ZM1713.1 263.6C1719.6 265.7 1725.3 271 1728.9 278.2C1731.5 283.3 1732 285.5 1732 291.6C1732 297.8 1731.5 299.7 1728.7 305.1C1714.3 332.9 1672.6 322.8 1672.6 291.5C1672.5 280.2 1677.7 271.2 1687.6 265.4C1695.2 260.9 1703.3 260.3 1713.1 263.6Z" fill="#DB2777"/>
<path d="M1698 268C1688.7 269.8 1681.4 276.8 1678.8 286.3C1676.2 296 1682.3 308.6 1691.6 313C1701.1 317.4 1713 315.4 1719.8 308.2C1728.2 299.2 1728.1 283.2 1719.4 274.6C1713.8 269.1 1705.4 266.5 1698 268ZM1710.8 278.7C1715.7 282.4 1717.4 285.7 1717.4 291.5C1717.4 297.4 1715.7 300.6 1710.6 304.4C1706.8 307.3 1698.2 307.3 1694.3 304.4C1688.9 300.4 1686.8 296.1 1687.2 290.2C1687.7 284.4 1690.9 280 1696.5 277.4C1700.4 275.6 1707.5 276.2 1710.8 278.7Z" fill="#DB2777"/>
<path d="M1626 262.4C1626 264.4 1619.3 266.5 1617.6 265.1C1615.6 263.4 1612.7 267.1 1613.5 270.3C1614 272.3 1613.6 273.5 1611.6 275.5C1608.8 278.3 1608.2 281.4 1610.3 282.7C1612.5 284.1 1614.4 289.8 1613.1 291.3C1611.6 293.2 1614.8 296.1 1617.6 295.4C1620.3 294.7 1625 296.6 1625 298.5C1625 299.5 1626 300 1628 300C1630 300 1631 299.5 1631 298.5C1631 296.6 1635.6 294.7 1638.2 295.6C1641 296.5 1644.2 293.3 1642.8 291.1C1641.5 289 1644.3 283 1646.5 283C1647.5 283 1648 282 1648 280C1648 277.7 1647.5 277 1646.1 277C1643.7 277 1641.6 271.8 1643.3 270.1C1644.9 268.5 1641.2 264.8 1639.1 265.9C1637.2 267.1 1632 264.6 1632 262.5C1632 261.5 1631 261 1629 261C1627.1 261 1626 261.5 1626 262.4ZM1635 270.9C1638.7 273.6 1640.1 276.9 1639.7 281.8C1638.5 293.5 1622.9 296.4 1617.4 285.9C1611.7 274.8 1625 263.5 1635 270.9Z" fill="#DB2777"/>
<path d="M1621.9 273.9C1619.8 276.1 1619 277.8 1619 280.5C1619 283.2 1619.8 284.9 1621.9 287.1C1625.6 290.8 1629.8 290.9 1633.9 287.4C1636.5 285.3 1637 284.1 1637 280.7C1636.9 276.2 1635.7 274 1632.3 272.2C1628.6 270.2 1625 270.8 1621.9 273.9ZM1631.8 275.6C1635.2 277.9 1634.6 284 1630.8 285.8C1624.4 288.8 1619 281 1624 276C1626.4 273.6 1628.8 273.5 1631.8 275.6Z" fill="#DB2777"/>
<path d="M1688 348.4C1688 350 1681.6 352.5 1680 351.5C1678.4 350.5 1675.9 353 1676.5 355C1677.2 357.3 1675.1 362 1673.3 362C1672.6 362 1672 363.1 1672 364.5C1672 365.9 1672.6 367 1673.3 367C1675.1 367 1677.1 372.9 1676 375C1674.8 377.2 1677.8 380.3 1679.9 379.1C1681.7 377.9 1687 379.8 1687 381.6C1687 382.5 1688.1 383 1690 383C1691.8 383 1693 382.5 1693 381.7C1693 379.8 1697.3 378 1699.2 379.1C1701.2 380.2 1704.3 377.1 1703 375C1701.9 373.2 1704.5 368 1706.5 368C1707.5 368 1708 367 1708 365C1708 362.7 1707.5 362 1706.1 362C1703.9 362 1702.4 357.5 1704 355.6C1705.4 353.8 1701.5 350.1 1699.8 351.8C1698.4 353.2 1693 350.6 1693 348.5C1693 347.6 1692 347 1690.5 347C1689 347 1688 347.6 1688 348.4ZM1697.1 357.6C1704.4 364.5 1699.7 376 1689.7 376C1684.3 376 1679 370.8 1679 365.5C1679 360.8 1680.4 358.4 1684.3 355.9C1688.4 353.3 1693.3 354 1697.1 357.6Z" fill="#DB2777"/>
<path d="M1685.2 357.7C1683.5 358.3 1681 363.4 1681 366C1681 367.2 1682.4 369.5 1684 371.2C1686.7 373.8 1687.6 374.2 1690.8 373.7C1697.6 372.6 1700.3 365.2 1695.9 359.6C1694.3 357.6 1693 357 1690.2 357.1C1688.2 357.1 1685.9 357.4 1685.2 357.7ZM1693.8 361.3C1696.7 363.6 1693.9 371 1690.1 371C1687.3 371 1684 368 1684 365.5C1684 360.8 1689.8 358.3 1693.8 361.3Z" fill="#DB2777"/>
<path d="M822.5 384.1C813.4 385.4 800.4 389.7 791 394.6C765.1 408 746.5 431 738.4 459.6C735.2 470.7 734 492.7 736 504.7C740.5 533.1 757.4 559.7 781.3 575.9C788.5 580.8 801.4 586.6 811 589.2C818.5 591.2 821.7 591.5 838.5 591.5C859.5 591.5 863 590.8 879.4 584.3C884.3 582.4 888.5 581.2 888.9 581.7C889.2 582.2 893.1 587.2 897.4 592.8L905.3 603H927.1C939.2 603 949 602.8 949 602.6C949 602.4 941.4 592.4 932.1 580.4L915.2 558.6L920.5 551.6C934.9 532.3 941 513.2 941 487.8C941 466.2 935.7 447.5 924.8 430.9C901.9 395.7 863.6 378.2 822.5 384.1ZM858 422.8C877.3 429.1 893.5 445.2 900.4 465C904.2 476 905.1 491.8 902.6 503.3C900.7 511.8 893.7 527 891.8 526.9C891.1 526.9 886.7 522 882.1 515.9L873.8 505H851.9C839.8 505 830 505.2 830 505.5C830 505.8 837.7 515.9 847 527.9C856.4 540 864 550.1 864 550.4C864 551.8 849.5 555.3 841.5 555.7C825.6 556.6 810.9 551.9 797.2 541.5C786.1 533.1 779.4 523.3 774.8 509C772.8 502.5 772.5 499.6 772.6 487.5C772.7 475.2 773 472.6 775.3 465.5C778.7 455.2 782.6 448.7 789.6 441C798.7 431.2 808.2 425.5 821.2 422C830.9 419.3 848.4 419.8 858 422.8Z" fill="#DB2777"/>
<path d="M138.7 385.7C138.3 386 138 398.4 138 413.2V440H128.5H118.9L119.2 455.7L119.5 471.5L128.7 471.8L138 472.1L138.2 529.8L138.5 587.5L157.3 587.8L176 588V530V472H187H198V456V440H187H176V412.5V385H157.7C147.6 385 139 385.3 138.7 385.7Z" fill="black"/>
<path d="M405.7 385.7C405.3 386 405 398.4 405 413.2V440H395.5H385.9L386.2 455.7L386.5 471.5L395.7 471.8L405 472.1L405.2 529.8L405.5 587.5L424.3 587.8L443 588V530V472H454H465V456V440H454H443V412.5V385H424.7C414.6 385 406 385.3 405.7 385.7Z" fill="black"/>
<path d="M978 412.5V440H968.5H959V456V472H968.5H978V530V588H996.5H1015V530V472H1026H1037V456V440.1L1026.3 439.8L1015.5 439.5L1015.2 412.2L1015 385H996.5H978V412.5Z" fill="black"/>
<path d="M1361.8 412.2L1361.5 439.5L1352.3 439.8L1343 440.1V456V472H1352.5H1362V530V588H1380.5H1399V530V472H1410H1421V456V440H1410H1399V412.5V385H1380.5H1362L1361.8 412.2Z" fill="black"/>
<path d="M664 487.5V587H682.5H701V487.5V388H682.5H664V487.5Z" fill="#DB2777"/>
<path d="M39.1 437.6C30.7 439.8 22.4 444.8 16.6 451C-2.2 471.4 3 499.4 28.8 516.3C32.5 518.8 41.1 523.6 47.9 527C61 533.7 68.3 539.5 69.6 544.4C71.5 552.1 62.8 558.7 51.9 557.7C44.7 557.1 35.2 552.5 28 546.2L22.7 541.6L11.4 553.5C5.2 560.1 0.1 565.8 0 566.2C0 567.8 11.1 578.1 16.9 581.8C40 596.8 74.5 594.3 92.4 576.4C107.4 561.4 109.2 536.1 96.5 518.7C91.3 511.8 81.7 505.2 62.6 495.4C53.2 490.6 44.6 485.7 43.3 484.4C40.1 481.2 40.2 476.1 43.5 473C45.4 471.2 47.5 470.5 51.8 470.2C59 469.7 66 472.4 73.9 478.8L79.2 483.2L90.6 471.9C96.9 465.6 102 460.3 102 460C102 459.6 99.2 456.6 95.8 453.2C88.4 445.8 77 439.5 67.2 437.5C58.7 435.7 46.1 435.7 39.1 437.6Z" fill="black"/>
<path d="M263.2 438C251.4 441.1 242.6 446.4 233.5 455.5C217.4 471.7 211 488.4 211 514.2C211 539.2 218.2 556.5 235.4 572.7C248.9 585.5 262.9 591.3 280.5 591.3C295.6 591.4 307 587.5 319.2 578.2L325.9 573.1L326.2 580.3L326.5 587.5H345H363.5L363.8 513.7L364 440H345H326V447.5V455L320.5 450.5C314.4 445.5 307.5 441.8 299 438.8C290.6 435.8 272.7 435.4 263.2 438ZM302.5 473.1C317.4 478.8 326.5 491.9 327.7 509.4C329.1 529.6 320.9 545.5 305.1 553.3C299 556.3 297.9 556.5 288 556.5C278.7 556.5 276.8 556.2 271.8 553.8C256.7 546.8 248 532 248 513.5C248 492 259.7 475.9 278.5 471.5C285 469.9 296.1 470.7 302.5 473.1Z" fill="black"/>
<path d="M536.9 437.4C517 441.6 498.6 454.9 488.1 472.8C474.6 495.7 473.9 529.8 486.6 552.6C500.6 577.9 524.7 591.3 556 591.3C576.2 591.2 591.2 587 604.4 577.6C610.9 573 622 561.6 622 559.5C622 558.9 615.1 555.2 606.8 551.4L591.6 544.3L586.5 548.1C570 560.6 546.9 562.2 531 552C522.5 546.6 515.8 537 514.4 528.3L513.8 524.5H572.6H631.5L632.1 520.7C632.9 515.7 631.5 499.4 629.5 491.7C623.2 466.5 603.3 446.3 577.8 438.9C568.3 436.2 546.6 435.4 536.9 437.4ZM566.9 469C577.6 471.6 587.6 479.4 592.4 488.9C593.8 491.7 595 494.2 595 494.5C595 494.8 577 495 554.9 495H514.8L517.5 490.2C521.9 482.7 524.9 479.1 529.8 475.5C539.5 468.4 553.8 465.9 566.9 469Z" fill="black"/>
<path d="M1109.9 437.5C1080.2 443.4 1057.3 467.1 1051.4 497.7C1048.5 513 1050.2 532.1 1055.6 545.4C1061.2 559.1 1074.4 574.2 1087.1 581.3C1101.7 589.5 1120 592.9 1138.6 591C1159.4 588.9 1171.9 583.1 1185.8 569.4C1190.8 564.4 1195 559.9 1195 559.4C1194.9 558.9 1187.9 555.2 1179.3 551.2L1163.8 544L1160.4 546.9C1146.8 558.9 1124.9 562 1108.2 554.5C1097.9 549.8 1087.9 537.3 1086.8 527.7L1086.5 525L1145.5 524.7L1204.5 524.5L1204.3 512C1204.2 501.7 1203.7 497.9 1201.5 490.5C1197.3 476.2 1192.9 468.8 1182 457.9C1174.2 450.1 1171 447.7 1163.8 444.1C1148.7 436.7 1127.2 434.1 1109.9 437.5ZM1139.9 469C1146.1 470.5 1151.5 473.5 1156.7 478.3C1161.1 482.3 1167 491.2 1167 493.7C1167 494.7 1158.4 495 1127.5 495C1105.8 495 1088 494.7 1088 494.4C1088 492.3 1094.8 482.6 1099 478.6C1109.3 469 1124.6 465.4 1139.9 469Z" fill="black"/>
<path d="M1264.1 437.1C1251.8 439.5 1239 449 1232.9 460.3C1229.6 466.3 1229.5 466.8 1229.5 478C1229.5 488.5 1229.7 490 1232.2 495C1238.1 506.9 1247.8 515.1 1269.2 526.1C1289.8 536.7 1295.4 542.8 1291.6 550.7C1289.3 555.6 1282.6 558.4 1274.9 557.7C1268 557.1 1257.7 552 1250.5 545.7L1245.7 541.4L1234.3 553.7L1222.8 566L1226 570C1230.8 576 1241.6 583.7 1250.1 587C1267.1 593.5 1288.4 592.9 1303.4 585.3C1310.4 581.8 1320.1 572.1 1323.3 565.6C1330.7 550.6 1329.1 531.2 1319.5 518.7C1314.2 511.8 1304.1 504.8 1286 495.6C1267.9 486.3 1264 483.5 1264 479.5C1264 472.9 1269.3 469.5 1278.5 470.2C1285.6 470.8 1288.9 472.3 1296.6 478.6L1302.3 483.2L1313.9 471.6L1325.5 459.9L1318 452.7C1309.7 444.8 1301.1 439.9 1290.7 437.5C1284 435.9 1271.1 435.7 1264.1 437.1Z" fill="black"/>
</svg>
