<svg viewBox="0 0 390 441" fill="none" xmlns="http://www.w3.org/2000/svg">
<g filter="url(#filter0_dd)">
<rect x="30" y="31" width="330" height="350" rx="10" fill="black"/>
</g>
<path opacity="0.2" d="M30 41C30 35.4772 34.4772 31 40 31H350C355.523 31 360 35.4772 360 41V61H30V41Z" fill="url(#paint0_linear)"/>
<path d="M55 46C55 48.7614 52.7614 51 50 51C47.2386 51 45 48.7614 45 46C45 43.2386 47.2386 41 50 41C52.7614 41 55 43.2386 55 46Z" fill="white"/>
<path d="M70 46C70 48.7614 67.7614 51 65 51C62.2386 51 60 48.7614 60 46C60 43.2386 62.2386 41 65 41C67.7614 41 70 43.2386 70 46Z" fill="white"/>
<path d="M85 46C85 48.7614 82.7614 51 80 51C77.2386 51 75 48.7614 75 46C75 43.2386 77.2386 41 80 41C82.7614 41 85 43.2386 85 46Z" fill="white"/>
<path d="M195 353L190 361H200L195 353Z" fill="#F1FCFE"/>
<rect x="30" y="61" width="330" height="30" fill="#EC4899"/>
<rect x="50" y="227" width="48" height="33" fill="#E7FAFD"/>
<rect x="50" y="277" width="290" height="80" fill="white"/>
<rect x="101" y="227" width="48" height="33" fill="#E7FAFD"/>
<rect x="152" y="227" width="48" height="33" fill="#E7FAFD"/>
<rect x="50" y="103" width="150" height="120" fill="black"/>
<rect opacity="0.3" x="231" y="73" width="37" height="6" rx="3" fill="white"/>
<rect opacity="0.3" x="273" y="73" width="37" height="6" rx="3" fill="white"/>
<path opacity="1.3" d="M52.868 81H51.08V72.432H55.988V73.92H52.868V76.128H55.772V77.616H52.868V81ZM63.2939 74.448V81H61.9259L61.6859 80.16H61.5899C61.3819 80.496 61.0939 80.74 60.7259 80.892C60.3659 81.044 59.9819 81.12 59.5739 81.12C58.8699 81.12 58.3059 80.932 57.8819 80.556C57.4579 80.172 57.2459 79.56 57.2459 78.72V74.448H59.0339V78.276C59.0339 78.74 59.1179 79.092 59.2859 79.332C59.4539 79.572 59.7219 79.692 60.0899 79.692C60.6339 79.692 61.0059 79.508 61.2059 79.14C61.4059 78.764 61.5059 78.228 61.5059 77.532V74.448H63.2939ZM66.7167 81H64.9287V71.88H66.7167V81ZM70.1329 81H68.3449V71.88H70.1329V81ZM79.8343 78.624C79.8343 79.384 79.5583 79.992 79.0063 80.448C78.4623 80.896 77.6863 81.12 76.6783 81.12C75.7743 81.12 74.9663 80.948 74.2543 80.604V78.912C74.6623 79.088 75.0823 79.252 75.5143 79.404C75.9543 79.548 76.3903 79.62 76.8223 79.62C77.2703 79.62 77.5863 79.536 77.7703 79.368C77.9623 79.192 78.0583 78.972 78.0583 78.708C78.0583 78.492 77.9823 78.308 77.8303 78.156C77.6863 78.004 77.4903 77.864 77.2423 77.736C76.9943 77.6 76.7103 77.456 76.3903 77.304C76.1903 77.208 75.9743 77.096 75.7423 76.968C75.5103 76.832 75.2863 76.668 75.0703 76.476C74.8623 76.276 74.6903 76.036 74.5543 75.756C74.4183 75.476 74.3503 75.14 74.3503 74.748C74.3503 73.98 74.6103 73.384 75.1303 72.96C75.6503 72.528 76.3583 72.312 77.2543 72.312C77.7023 72.312 78.1263 72.364 78.5263 72.468C78.9343 72.572 79.3583 72.72 79.7983 72.912L79.2103 74.328C78.8183 74.168 78.4663 74.044 78.1543 73.956C77.8423 73.868 77.5223 73.824 77.1943 73.824C76.8503 73.824 76.5863 73.904 76.4023 74.064C76.2183 74.224 76.1263 74.432 76.1263 74.688C76.1263 74.992 76.2623 75.232 76.5343 75.408C76.8063 75.584 77.2103 75.8 77.7463 76.056C78.1863 76.264 78.5583 76.48 78.8623 76.704C79.1743 76.928 79.4143 77.192 79.5823 77.496C79.7503 77.8 79.8343 78.176 79.8343 78.624ZM83.6717 81.12C82.6957 81.12 81.9397 80.852 81.4037 80.316C80.8757 79.772 80.6117 78.92 80.6117 77.76C80.6117 76.96 80.7477 76.308 81.0197 75.804C81.2917 75.3 81.6677 74.928 82.1477 74.688C82.6357 74.448 83.1957 74.328 83.8277 74.328C84.2757 74.328 84.6637 74.372 84.9917 74.46C85.3277 74.548 85.6197 74.652 85.8677 74.772L85.3397 76.152C85.0597 76.04 84.7957 75.948 84.5477 75.876C84.3077 75.804 84.0677 75.768 83.8277 75.768C82.8997 75.768 82.4357 76.428 82.4357 77.748C82.4357 78.404 82.5557 78.888 82.7957 79.2C83.0437 79.512 83.3877 79.668 83.8277 79.668C84.2037 79.668 84.5357 79.62 84.8237 79.524C85.1117 79.42 85.3917 79.28 85.6637 79.104V80.628C85.3917 80.804 85.1037 80.928 84.7997 81C84.5037 81.08 84.1277 81.12 83.6717 81.12ZM92.8838 77.712C92.8838 78.8 92.5958 79.64 92.0198 80.232C91.4518 80.824 90.6758 81.12 89.6918 81.12C89.0838 81.12 88.5398 80.988 88.0598 80.724C87.5878 80.46 87.2158 80.076 86.9438 79.572C86.6718 79.06 86.5358 78.44 86.5358 77.712C86.5358 76.624 86.8198 75.788 87.3878 75.204C87.9558 74.62 88.7358 74.328 89.7278 74.328C90.3438 74.328 90.8878 74.46 91.3598 74.724C91.8318 74.988 92.2038 75.372 92.4758 75.876C92.7478 76.372 92.8838 76.984 92.8838 77.712ZM88.3598 77.712C88.3598 78.36 88.4638 78.852 88.6718 79.188C88.8878 79.516 89.2358 79.68 89.7158 79.68C90.1878 79.68 90.5278 79.516 90.7358 79.188C90.9518 78.852 91.0598 78.36 91.0598 77.712C91.0598 77.064 90.9518 76.58 90.7358 76.26C90.5278 75.932 90.1838 75.768 89.7038 75.768C89.2318 75.768 88.8878 75.932 88.6718 76.26C88.4638 76.58 88.3598 77.064 88.3598 77.712ZM97.7815 74.328C97.8695 74.328 97.9735 74.332 98.0935 74.34C98.2135 74.348 98.3095 74.36 98.3815 74.376L98.2495 76.056C98.1935 76.04 98.1095 76.028 97.9975 76.02C97.8935 76.004 97.8015 75.996 97.7215 75.996C97.4175 75.996 97.1255 76.052 96.8455 76.164C96.5655 76.268 96.3375 76.44 96.1615 76.68C95.9935 76.92 95.9095 77.248 95.9095 77.664V81H94.1215V74.448H95.4775L95.7415 75.552H95.8255C96.0175 75.216 96.2815 74.928 96.6175 74.688C96.9535 74.448 97.3415 74.328 97.7815 74.328ZM101.796 74.328C102.7 74.328 103.416 74.588 103.944 75.108C104.472 75.62 104.736 76.352 104.736 77.304V78.168H100.512C100.528 78.672 100.676 79.068 100.956 79.356C101.244 79.644 101.64 79.788 102.144 79.788C102.568 79.788 102.952 79.748 103.296 79.668C103.64 79.58 103.996 79.448 104.364 79.272V80.652C104.044 80.812 103.704 80.928 103.344 81C102.992 81.08 102.564 81.12 102.06 81.12C101.404 81.12 100.824 81 100.32 80.76C99.8163 80.512 99.4203 80.14 99.1323 79.644C98.8443 79.148 98.7003 78.524 98.7003 77.772C98.7003 77.004 98.8283 76.368 99.0843 75.864C99.3483 75.352 99.7123 74.968 100.176 74.712C100.64 74.456 101.18 74.328 101.796 74.328ZM101.808 75.6C101.464 75.6 101.176 75.712 100.944 75.936C100.72 76.16 100.588 76.508 100.548 76.98H103.056C103.048 76.58 102.944 76.252 102.744 75.996C102.544 75.732 102.232 75.6 101.808 75.6ZM114.211 81L113.587 78.96H110.467L109.843 81H107.887L110.911 72.396H113.131L116.167 81H114.211ZM112.531 75.444C112.491 75.308 112.439 75.136 112.375 74.928C112.311 74.72 112.247 74.508 112.183 74.292C112.119 74.076 112.067 73.888 112.027 73.728C111.987 73.888 111.931 74.088 111.859 74.328C111.795 74.56 111.731 74.784 111.667 75C111.611 75.208 111.567 75.356 111.535 75.444L110.923 77.436H113.155L112.531 75.444ZM121.441 79.056C121.441 79.72 121.205 80.232 120.733 80.592C120.269 80.944 119.573 81.12 118.645 81.12C118.189 81.12 117.797 81.088 117.469 81.024C117.141 80.968 116.813 80.872 116.485 80.736V79.26C116.837 79.42 117.217 79.552 117.625 79.656C118.033 79.76 118.393 79.812 118.705 79.812C119.057 79.812 119.305 79.76 119.449 79.656C119.601 79.552 119.677 79.416 119.677 79.248C119.677 79.136 119.645 79.036 119.581 78.948C119.525 78.86 119.397 78.76 119.197 78.648C118.997 78.536 118.685 78.392 118.261 78.216C117.853 78.04 117.517 77.868 117.253 77.7C116.989 77.524 116.793 77.316 116.665 77.076C116.537 76.828 116.473 76.52 116.473 76.152C116.473 75.544 116.709 75.088 117.181 74.784C117.653 74.48 118.281 74.328 119.065 74.328C119.473 74.328 119.861 74.368 120.229 74.448C120.597 74.528 120.977 74.66 121.369 74.844L120.829 76.128C120.509 75.992 120.205 75.88 119.917 75.792C119.629 75.696 119.337 75.648 119.041 75.648C118.513 75.648 118.249 75.792 118.249 76.08C118.249 76.184 118.281 76.28 118.345 76.368C118.417 76.448 118.549 76.536 118.741 76.632C118.941 76.728 119.233 76.856 119.617 77.016C119.993 77.168 120.317 77.328 120.589 77.496C120.861 77.656 121.069 77.86 121.213 78.108C121.365 78.348 121.441 78.664 121.441 79.056ZM127.165 79.056C127.165 79.72 126.929 80.232 126.457 80.592C125.993 80.944 125.297 81.12 124.369 81.12C123.913 81.12 123.521 81.088 123.193 81.024C122.865 80.968 122.537 80.872 122.209 80.736V79.26C122.561 79.42 122.941 79.552 123.349 79.656C123.757 79.76 124.117 79.812 124.429 79.812C124.781 79.812 125.029 79.76 125.173 79.656C125.325 79.552 125.401 79.416 125.401 79.248C125.401 79.136 125.369 79.036 125.305 78.948C125.249 78.86 125.121 78.76 124.921 78.648C124.721 78.536 124.409 78.392 123.985 78.216C123.577 78.04 123.241 77.868 122.977 77.7C122.713 77.524 122.517 77.316 122.389 77.076C122.261 76.828 122.197 76.52 122.197 76.152C122.197 75.544 122.433 75.088 122.905 74.784C123.377 74.48 124.005 74.328 124.789 74.328C125.197 74.328 125.585 74.368 125.953 74.448C126.321 74.528 126.701 74.66 127.093 74.844L126.553 76.128C126.233 75.992 125.929 75.88 125.641 75.792C125.353 75.696 125.061 75.648 124.765 75.648C124.237 75.648 123.973 75.792 123.973 76.08C123.973 76.184 124.005 76.28 124.069 76.368C124.141 76.448 124.273 76.536 124.465 76.632C124.665 76.728 124.957 76.856 125.341 77.016C125.717 77.168 126.041 77.328 126.313 77.496C126.585 77.656 126.793 77.86 126.937 78.108C127.089 78.348 127.165 78.664 127.165 79.056ZM131.018 74.328C131.922 74.328 132.638 74.588 133.166 75.108C133.694 75.62 133.958 76.352 133.958 77.304V78.168H129.734C129.75 78.672 129.898 79.068 130.178 79.356C130.466 79.644 130.862 79.788 131.366 79.788C131.79 79.788 132.174 79.748 132.518 79.668C132.862 79.58 133.218 79.448 133.586 79.272V80.652C133.266 80.812 132.926 80.928 132.566 81C132.214 81.08 131.786 81.12 131.282 81.12C130.626 81.12 130.046 81 129.542 80.76C129.038 80.512 128.642 80.14 128.354 79.644C128.066 79.148 127.922 78.524 127.922 77.772C127.922 77.004 128.05 76.368 128.306 75.864C128.57 75.352 128.934 74.968 129.398 74.712C129.862 74.456 130.402 74.328 131.018 74.328ZM131.03 75.6C130.686 75.6 130.398 75.712 130.166 75.936C129.942 76.16 129.81 76.508 129.77 76.98H132.278C132.27 76.58 132.166 76.252 131.966 75.996C131.766 75.732 131.454 75.6 131.03 75.6ZM139.74 79.056C139.74 79.72 139.504 80.232 139.032 80.592C138.568 80.944 137.872 81.12 136.944 81.12C136.488 81.12 136.096 81.088 135.768 81.024C135.44 80.968 135.112 80.872 134.784 80.736V79.26C135.136 79.42 135.516 79.552 135.924 79.656C136.332 79.76 136.692 79.812 137.004 79.812C137.356 79.812 137.604 79.76 137.748 79.656C137.9 79.552 137.976 79.416 137.976 79.248C137.976 79.136 137.944 79.036 137.88 78.948C137.824 78.86 137.696 78.76 137.496 78.648C137.296 78.536 136.984 78.392 136.56 78.216C136.152 78.04 135.816 77.868 135.552 77.7C135.288 77.524 135.092 77.316 134.964 77.076C134.836 76.828 134.772 76.52 134.772 76.152C134.772 75.544 135.008 75.088 135.48 74.784C135.952 74.48 136.58 74.328 137.364 74.328C137.772 74.328 138.16 74.368 138.528 74.448C138.896 74.528 139.276 74.66 139.668 74.844L139.128 76.128C138.808 75.992 138.504 75.88 138.216 75.792C137.928 75.696 137.636 75.648 137.34 75.648C136.812 75.648 136.548 75.792 136.548 76.08C136.548 76.184 136.58 76.28 136.644 76.368C136.716 76.448 136.848 76.536 137.04 76.632C137.24 76.728 137.532 76.856 137.916 77.016C138.292 77.168 138.616 77.328 138.888 77.496C139.16 77.656 139.368 77.86 139.512 78.108C139.664 78.348 139.74 78.664 139.74 79.056ZM145.465 79.056C145.465 79.72 145.229 80.232 144.757 80.592C144.293 80.944 143.597 81.12 142.669 81.12C142.213 81.12 141.821 81.088 141.493 81.024C141.165 80.968 140.837 80.872 140.509 80.736V79.26C140.861 79.42 141.241 79.552 141.649 79.656C142.057 79.76 142.417 79.812 142.729 79.812C143.081 79.812 143.329 79.76 143.473 79.656C143.625 79.552 143.701 79.416 143.701 79.248C143.701 79.136 143.669 79.036 143.605 78.948C143.549 78.86 143.421 78.76 143.221 78.648C143.021 78.536 142.709 78.392 142.285 78.216C141.877 78.04 141.541 77.868 141.277 77.7C141.013 77.524 140.817 77.316 140.689 77.076C140.561 76.828 140.497 76.52 140.497 76.152C140.497 75.544 140.733 75.088 141.205 74.784C141.677 74.48 142.305 74.328 143.089 74.328C143.497 74.328 143.885 74.368 144.253 74.448C144.621 74.528 145.001 74.66 145.393 74.844L144.853 76.128C144.533 75.992 144.229 75.88 143.941 75.792C143.653 75.696 143.361 75.648 143.065 75.648C142.537 75.648 142.273 75.792 142.273 76.08C142.273 76.184 142.305 76.28 142.369 76.368C142.441 76.448 142.573 76.536 142.765 76.632C142.965 76.728 143.257 76.856 143.641 77.016C144.017 77.168 144.341 77.328 144.613 77.496C144.885 77.656 145.093 77.86 145.237 78.108C145.389 78.348 145.465 78.664 145.465 79.056ZM154.31 74.328C155.054 74.328 155.614 74.52 155.99 74.904C156.374 75.28 156.566 75.888 156.566 76.728V81H154.778V77.172C154.778 76.228 154.45 75.756 153.794 75.756C153.322 75.756 152.986 75.924 152.786 76.26C152.586 76.596 152.486 77.08 152.486 77.712V81H150.698V77.172C150.698 76.228 150.37 75.756 149.714 75.756C149.218 75.756 148.874 75.944 148.682 76.32C148.498 76.688 148.406 77.22 148.406 77.916V81H146.618V74.448H147.986L148.226 75.288H148.322C148.522 74.952 148.794 74.708 149.138 74.556C149.49 74.404 149.854 74.328 150.23 74.328C150.71 74.328 151.118 74.408 151.454 74.568C151.79 74.72 152.046 74.96 152.222 75.288H152.378C152.578 74.952 152.854 74.708 153.206 74.556C153.566 74.404 153.934 74.328 154.31 74.328ZM160.867 74.328C161.771 74.328 162.487 74.588 163.015 75.108C163.543 75.62 163.807 76.352 163.807 77.304V78.168H159.583C159.599 78.672 159.747 79.068 160.027 79.356C160.315 79.644 160.711 79.788 161.215 79.788C161.639 79.788 162.023 79.748 162.367 79.668C162.711 79.58 163.067 79.448 163.435 79.272V80.652C163.115 80.812 162.775 80.928 162.415 81C162.063 81.08 161.635 81.12 161.131 81.12C160.475 81.12 159.895 81 159.391 80.76C158.887 80.512 158.491 80.14 158.203 79.644C157.915 79.148 157.771 78.524 157.771 77.772C157.771 77.004 157.899 76.368 158.155 75.864C158.419 75.352 158.783 74.968 159.247 74.712C159.711 74.456 160.251 74.328 160.867 74.328ZM160.879 75.6C160.535 75.6 160.247 75.712 160.015 75.936C159.791 76.16 159.659 76.508 159.619 76.98H162.127C162.119 76.58 162.015 76.252 161.815 75.996C161.615 75.732 161.303 75.6 160.879 75.6ZM168.737 74.328C169.441 74.328 170.005 74.52 170.429 74.904C170.853 75.28 171.065 75.888 171.065 76.728V81H169.277V77.172C169.277 76.7 169.193 76.348 169.025 76.116C168.857 75.876 168.589 75.756 168.221 75.756C167.677 75.756 167.305 75.944 167.105 76.32C166.905 76.688 166.805 77.22 166.805 77.916V81H165.017V74.448H166.385L166.625 75.288H166.721C166.929 74.952 167.213 74.708 167.573 74.556C167.941 74.404 168.329 74.328 168.737 74.328ZM175.423 79.692C175.623 79.692 175.815 79.672 175.999 79.632C176.183 79.592 176.367 79.544 176.551 79.488V80.82C176.359 80.9 176.119 80.968 175.831 81.024C175.551 81.088 175.243 81.12 174.907 81.12C174.515 81.12 174.163 81.056 173.851 80.928C173.547 80.8 173.303 80.58 173.119 80.268C172.943 79.948 172.855 79.508 172.855 78.948V75.792H172.003V75.036L172.987 74.436L173.503 73.056H174.643V74.448H176.479V75.792H174.643V78.948C174.643 79.196 174.715 79.384 174.859 79.512C175.003 79.632 175.191 79.692 175.423 79.692ZM179.126 78.156H177.698L177.398 72.432H179.426L179.126 78.156ZM177.374 80.16C177.374 79.792 177.474 79.536 177.674 79.392C177.874 79.24 178.118 79.164 178.406 79.164C178.686 79.164 178.926 79.24 179.126 79.392C179.326 79.536 179.426 79.792 179.426 80.16C179.426 80.512 179.326 80.768 179.126 80.928C178.926 81.08 178.686 81.156 178.406 81.156C178.118 81.156 177.874 81.08 177.674 80.928C177.474 80.768 177.374 80.512 177.374 80.16Z" fill="white"/>
<circle cx="330" cy="76" r="10" fill="white"/>
<g filter="url(#filter1_d)">
<rect x="208" y="194" width="132" height="40" rx="20" fill="#DB2777"/>
</g>
<rect x="215" y="130" width="89" height="7" rx="3.5" fill="#F2F3F3"/>
<rect x="215" y="141" width="111" height="7" rx="3.5" fill="#F2F3F3"/>
<rect x="215" y="152" width="68" height="7" rx="3.5" fill="#F2F3F3"/>
<path d="M108.972 206C108.972 206 99.5278 206 99.5278 196.556V130.444C99.5278 130.444 99.5278 121 108.972 121H142.028C142.028 121 151.472 121 151.472 130.444V196.556C151.472 196.556 151.472 206 142.028 206H108.972Z" fill="#798486"/>
<path d="M102 131C102 129.895 102.895 129 104 129H147C148.105 129 149 129.895 149 131V197C149 198.105 148.105 199 147 199H104C102.895 199 102 198.105 102 197V131Z" fill="#D0F4FB"/>
<path d="M257.44 221H255.34V211.52C255.34 211.027 255.347 210.573 255.36 210.16C255.373 209.747 255.393 209.347 255.42 208.96C255.247 209.133 255.067 209.307 254.88 209.48C254.693 209.64 254.48 209.82 254.24 210.02L252.68 211.28L251.6 209.92L255.68 206.72H257.44V221ZM262.205 219.82C262.205 219.3 262.332 218.933 262.585 218.72C262.852 218.507 263.179 218.4 263.565 218.4C263.939 218.4 264.259 218.507 264.525 218.72C264.805 218.933 264.945 219.3 264.945 219.82C264.945 220.34 264.805 220.713 264.525 220.94C264.259 221.167 263.939 221.28 263.565 221.28C263.179 221.28 262.852 221.167 262.585 220.94C262.332 220.713 262.205 220.34 262.205 219.82ZM276.214 212.82C276.214 213.633 276.154 214.447 276.034 215.26C275.927 216.06 275.727 216.82 275.434 217.54C275.154 218.247 274.761 218.88 274.254 219.44C273.747 219.987 273.101 220.42 272.314 220.74C271.527 221.047 270.581 221.2 269.474 221.2C269.194 221.2 268.874 221.187 268.514 221.16C268.154 221.133 267.861 221.087 267.634 221.02V219.24C268.167 219.4 268.754 219.48 269.394 219.48C270.301 219.48 271.054 219.347 271.654 219.08C272.267 218.8 272.747 218.413 273.094 217.92C273.441 217.427 273.694 216.853 273.854 216.2C274.014 215.547 274.107 214.853 274.134 214.12H274.014C273.721 214.573 273.314 214.967 272.794 215.3C272.274 215.62 271.574 215.78 270.694 215.78C269.454 215.78 268.461 215.4 267.714 214.64C266.981 213.867 266.614 212.787 266.614 211.4C266.614 209.893 267.034 208.707 267.874 207.84C268.714 206.973 269.841 206.54 271.254 206.54C272.187 206.54 273.027 206.767 273.774 207.22C274.521 207.673 275.114 208.367 275.554 209.3C275.994 210.22 276.214 211.393 276.214 212.82ZM271.274 208.28C270.514 208.28 269.894 208.533 269.414 209.04C268.934 209.547 268.694 210.32 268.694 211.36C268.694 212.213 268.901 212.887 269.314 213.38C269.727 213.873 270.354 214.12 271.194 214.12C271.781 214.12 272.287 214 272.714 213.76C273.141 213.52 273.474 213.213 273.714 212.84C273.954 212.467 274.074 212.08 274.074 211.68C274.074 211.147 273.967 210.62 273.754 210.1C273.554 209.58 273.241 209.147 272.814 208.8C272.401 208.453 271.887 208.28 271.274 208.28ZM287.059 212.82C287.059 213.633 286.999 214.447 286.879 215.26C286.773 216.06 286.573 216.82 286.279 217.54C285.999 218.247 285.606 218.88 285.099 219.44C284.593 219.987 283.946 220.42 283.159 220.74C282.373 221.047 281.426 221.2 280.319 221.2C280.039 221.2 279.719 221.187 279.359 221.16C278.999 221.133 278.706 221.087 278.479 221.02V219.24C279.013 219.4 279.599 219.48 280.239 219.48C281.146 219.48 281.899 219.347 282.499 219.08C283.113 218.8 283.593 218.413 283.939 217.92C284.286 217.427 284.539 216.853 284.699 216.2C284.859 215.547 284.953 214.853 284.979 214.12H284.859C284.566 214.573 284.159 214.967 283.639 215.3C283.119 215.62 282.419 215.78 281.539 215.78C280.299 215.78 279.306 215.4 278.559 214.64C277.826 213.867 277.459 212.787 277.459 211.4C277.459 209.893 277.879 208.707 278.719 207.84C279.559 206.973 280.686 206.54 282.099 206.54C283.033 206.54 283.873 206.767 284.619 207.22C285.366 207.673 285.959 208.367 286.399 209.3C286.839 210.22 287.059 211.393 287.059 212.82ZM282.119 208.28C281.359 208.28 280.739 208.533 280.259 209.04C279.779 209.547 279.539 210.32 279.539 211.36C279.539 212.213 279.746 212.887 280.159 213.38C280.573 213.873 281.199 214.12 282.039 214.12C282.626 214.12 283.133 214 283.559 213.76C283.986 213.52 284.319 213.213 284.559 212.84C284.799 212.467 284.919 212.08 284.919 211.68C284.919 211.147 284.813 210.62 284.599 210.1C284.399 209.58 284.086 209.147 283.659 208.8C283.246 208.453 282.733 208.28 282.119 208.28ZM292.465 220.08C291.691 220.067 290.958 220 290.265 219.88C289.585 219.747 289.011 219.573 288.545 219.36V217.4C289.025 217.627 289.625 217.833 290.345 218.02C291.078 218.193 291.785 218.287 292.465 218.3V214.56C291.078 214.133 290.071 213.647 289.445 213.1C288.831 212.54 288.525 211.78 288.525 210.82C288.525 209.833 288.885 209.053 289.605 208.48C290.325 207.907 291.278 207.58 292.465 207.5V205.82H293.765V207.48C294.485 207.507 295.145 207.587 295.745 207.72C296.345 207.853 296.911 208.033 297.445 208.26L296.785 209.98C296.318 209.793 295.825 209.64 295.305 209.52C294.785 209.387 294.271 209.3 293.765 209.26V212.94C294.591 213.207 295.305 213.487 295.905 213.78C296.518 214.073 296.991 214.44 297.325 214.88C297.658 215.32 297.825 215.887 297.825 216.58C297.825 217.527 297.478 218.3 296.785 218.9C296.091 219.5 295.085 219.867 293.765 220V222.16H292.465V220.08ZM292.465 209.3C291.838 209.353 291.371 209.507 291.065 209.76C290.758 210 290.605 210.32 290.605 210.72C290.605 211.173 290.738 211.533 291.005 211.8C291.285 212.053 291.771 212.28 292.465 212.48V209.3ZM293.765 218.22C294.445 218.14 294.945 217.973 295.265 217.72C295.585 217.453 295.745 217.113 295.745 216.7C295.745 216.273 295.598 215.94 295.305 215.7C295.025 215.46 294.511 215.233 293.765 215.02V218.22Z" fill="white"/>
<path d="M221.06 118.684C221.06 119.444 220.784 120.04 220.232 120.472C219.68 120.904 218.924 121.12 217.964 121.12C217.5 121.12 217.06 121.08 216.644 121C216.236 120.928 215.888 120.82 215.6 120.676V119.452C215.92 119.596 216.296 119.728 216.728 119.848C217.16 119.96 217.6 120.016 218.048 120.016C218.624 120.016 219.056 119.904 219.344 119.68C219.632 119.456 219.776 119.156 219.776 118.78C219.776 118.516 219.708 118.296 219.572 118.12C219.444 117.936 219.24 117.768 218.96 117.616C218.68 117.464 218.312 117.296 217.856 117.112C217.432 116.952 217.056 116.764 216.728 116.548C216.408 116.332 216.156 116.064 215.972 115.744C215.788 115.424 215.696 115.032 215.696 114.568C215.696 113.864 215.952 113.312 216.464 112.912C216.976 112.512 217.648 112.312 218.48 112.312C218.944 112.312 219.372 112.36 219.764 112.456C220.164 112.544 220.544 112.668 220.904 112.828L220.496 113.896C220.168 113.76 219.832 113.648 219.488 113.56C219.152 113.472 218.804 113.428 218.444 113.428C217.972 113.428 217.612 113.532 217.364 113.74C217.116 113.948 216.992 114.22 216.992 114.556C216.992 114.82 217.052 115.044 217.172 115.228C217.292 115.404 217.484 115.564 217.748 115.708C218.012 115.852 218.36 116.012 218.792 116.188C219.272 116.38 219.68 116.584 220.016 116.8C220.36 117.008 220.62 117.264 220.796 117.568C220.972 117.864 221.06 118.236 221.06 118.684ZM224.838 121.12C223.942 121.12 223.222 120.856 222.678 120.328C222.134 119.792 221.862 118.952 221.862 117.808C221.862 117.008 221.994 116.36 222.258 115.864C222.522 115.368 222.886 115.004 223.35 114.772C223.814 114.532 224.342 114.412 224.934 114.412C225.294 114.412 225.63 114.452 225.942 114.532C226.262 114.604 226.526 114.688 226.734 114.784L226.35 115.816C226.126 115.728 225.886 115.652 225.63 115.588C225.382 115.524 225.146 115.492 224.922 115.492C223.754 115.492 223.17 116.26 223.17 117.796C223.17 118.532 223.314 119.092 223.602 119.476C223.89 119.86 224.314 120.052 224.874 120.052C225.234 120.052 225.55 120.012 225.822 119.932C226.102 119.852 226.358 119.748 226.59 119.62V120.724C226.358 120.86 226.106 120.96 225.834 121.024C225.562 121.088 225.23 121.12 224.838 121.12ZM233.456 117.76C233.456 118.832 233.18 119.66 232.628 120.244C232.076 120.828 231.332 121.12 230.396 121.12C229.812 121.12 229.292 120.988 228.836 120.724C228.388 120.46 228.032 120.08 227.768 119.584C227.512 119.08 227.384 118.472 227.384 117.76C227.384 116.688 227.656 115.864 228.2 115.288C228.744 114.704 229.488 114.412 230.432 114.412C231.024 114.412 231.544 114.544 231.992 114.808C232.448 115.064 232.804 115.44 233.06 115.936C233.324 116.432 233.456 117.04 233.456 117.76ZM228.692 117.76C228.692 118.488 228.828 119.056 229.1 119.464C229.38 119.872 229.82 120.076 230.42 120.076C231.02 120.076 231.456 119.872 231.728 119.464C232.008 119.056 232.148 118.488 232.148 117.76C232.148 117.024 232.008 116.46 231.728 116.068C231.448 115.668 231.008 115.468 230.408 115.468C229.808 115.468 229.372 115.668 229.1 116.068C228.828 116.46 228.692 117.024 228.692 117.76ZM237.901 114.412C238.013 114.412 238.133 114.42 238.261 114.436C238.397 114.444 238.513 114.456 238.609 114.472L238.477 115.66C238.269 115.604 238.053 115.576 237.829 115.576C237.509 115.576 237.205 115.656 236.917 115.816C236.637 115.976 236.409 116.208 236.233 116.512C236.065 116.808 235.981 117.168 235.981 117.592V121H234.709V114.532H235.717L235.885 115.684H235.933C236.141 115.34 236.409 115.044 236.737 114.796C237.065 114.54 237.453 114.412 237.901 114.412ZM241.756 114.412C242.604 114.412 243.272 114.676 243.76 115.204C244.248 115.724 244.492 116.436 244.492 117.34V118.036H240.148C240.164 118.7 240.336 119.208 240.664 119.56C241 119.912 241.468 120.088 242.068 120.088C242.484 120.088 242.852 120.052 243.172 119.98C243.5 119.9 243.836 119.784 244.18 119.632V120.688C243.852 120.832 243.524 120.94 243.196 121.012C242.868 121.084 242.476 121.12 242.02 121.12C241.388 121.12 240.832 120.996 240.352 120.748C239.88 120.5 239.508 120.132 239.236 119.644C238.972 119.148 238.84 118.54 238.84 117.82C238.84 117.092 238.96 116.476 239.2 115.972C239.448 115.468 239.788 115.084 240.22 114.82C240.66 114.548 241.172 114.412 241.756 114.412ZM241.756 115.396C241.3 115.396 240.932 115.544 240.652 115.84C240.38 116.136 240.22 116.556 240.172 117.1H243.22C243.212 116.596 243.088 116.188 242.848 115.876C242.616 115.556 242.252 115.396 241.756 115.396ZM251.129 112.432C252.217 112.432 253.041 112.592 253.601 112.912C254.169 113.232 254.453 113.784 254.453 114.568C254.453 115.072 254.317 115.492 254.045 115.828C253.781 116.156 253.401 116.364 252.905 116.452V116.512C253.241 116.568 253.545 116.672 253.817 116.824C254.097 116.976 254.317 117.192 254.477 117.472C254.637 117.744 254.717 118.104 254.717 118.552C254.717 119.328 254.445 119.932 253.901 120.364C253.357 120.788 252.621 121 251.693 121H248.621V112.432H251.129ZM251.345 116.008C252.017 116.008 252.477 115.9 252.725 115.684C252.981 115.468 253.109 115.148 253.109 114.724C253.109 114.3 252.957 113.996 252.653 113.812C252.349 113.62 251.865 113.524 251.201 113.524H249.917V116.008H251.345ZM249.917 117.064V119.92H251.489C252.177 119.92 252.657 119.784 252.929 119.512C253.209 119.24 253.349 118.88 253.349 118.432C253.349 118.024 253.205 117.696 252.917 117.448C252.637 117.192 252.133 117.064 251.405 117.064H249.917ZM259.184 114.412C259.296 114.412 259.416 114.42 259.544 114.436C259.68 114.444 259.796 114.456 259.892 114.472L259.76 115.66C259.552 115.604 259.336 115.576 259.112 115.576C258.792 115.576 258.488 115.656 258.2 115.816C257.92 115.976 257.692 116.208 257.516 116.512C257.348 116.808 257.264 117.168 257.264 117.592V121H255.992V114.532H257L257.168 115.684H257.216C257.424 115.34 257.692 115.044 258.02 114.796C258.348 114.54 258.736 114.412 259.184 114.412ZM263.039 114.412C263.887 114.412 264.555 114.676 265.043 115.204C265.531 115.724 265.775 116.436 265.775 117.34V118.036H261.431C261.447 118.7 261.619 119.208 261.947 119.56C262.283 119.912 262.751 120.088 263.351 120.088C263.767 120.088 264.135 120.052 264.455 119.98C264.783 119.9 265.119 119.784 265.463 119.632V120.688C265.135 120.832 264.807 120.94 264.479 121.012C264.151 121.084 263.759 121.12 263.303 121.12C262.671 121.12 262.115 120.996 261.635 120.748C261.163 120.5 260.791 120.132 260.519 119.644C260.255 119.148 260.123 118.54 260.123 117.82C260.123 117.092 260.243 116.476 260.483 115.972C260.731 115.468 261.071 115.084 261.503 114.82C261.943 114.548 262.455 114.412 263.039 114.412ZM263.039 115.396C262.583 115.396 262.215 115.544 261.935 115.84C261.663 116.136 261.503 116.556 261.455 117.1H264.503C264.495 116.596 264.371 116.188 264.131 115.876C263.899 115.556 263.535 115.396 263.039 115.396ZM269.51 114.412C270.318 114.412 270.922 114.592 271.322 114.952C271.73 115.304 271.934 115.86 271.934 116.62V121H271.034L270.782 120.1H270.734C270.454 120.452 270.158 120.712 269.846 120.88C269.542 121.04 269.118 121.12 268.574 121.12C267.99 121.12 267.506 120.964 267.122 120.652C266.738 120.332 266.546 119.836 266.546 119.164C266.546 118.508 266.794 118.008 267.29 117.664C267.786 117.32 268.55 117.132 269.582 117.1L270.686 117.064V116.704C270.686 116.232 270.578 115.9 270.362 115.708C270.146 115.508 269.842 115.408 269.45 115.408C269.122 115.408 268.806 115.456 268.502 115.552C268.198 115.648 267.906 115.764 267.626 115.9L267.218 114.976C267.522 114.816 267.87 114.684 268.262 114.58C268.662 114.468 269.078 114.412 269.51 114.412ZM269.81 117.916C269.074 117.948 268.562 118.072 268.274 118.288C267.994 118.496 267.854 118.792 267.854 119.176C267.854 119.512 267.954 119.756 268.154 119.908C268.354 120.06 268.614 120.136 268.934 120.136C269.43 120.136 269.842 119.996 270.17 119.716C270.506 119.436 270.674 119.016 270.674 118.456V117.892L269.81 117.916ZM274.793 116.44C274.793 116.6 274.785 116.792 274.769 117.016C274.753 117.24 274.741 117.44 274.733 117.616H274.769C274.857 117.496 274.977 117.34 275.129 117.148C275.289 116.948 275.429 116.784 275.549 116.656L277.529 114.532H279.005L276.401 117.304L279.173 121H277.673L275.537 118.108L274.793 118.732V121H273.533V111.88H274.793V116.44ZM282.096 121.12C281.32 121.12 280.692 120.84 280.212 120.28C279.74 119.72 279.504 118.888 279.504 117.784C279.504 116.672 279.744 115.832 280.224 115.264C280.704 114.696 281.336 114.412 282.12 114.412C282.608 114.412 283.008 114.504 283.32 114.688C283.632 114.872 283.884 115.096 284.076 115.36H284.148C284.132 115.256 284.112 115.096 284.088 114.88C284.064 114.664 284.052 114.472 284.052 114.304V111.88H285.324V121H284.328L284.112 120.136H284.052C283.868 120.416 283.62 120.652 283.308 120.844C282.996 121.028 282.592 121.12 282.096 121.12ZM282.396 120.076C283.02 120.076 283.46 119.904 283.716 119.56C283.972 119.208 284.1 118.684 284.1 117.988V117.796C284.1 117.044 283.976 116.468 283.728 116.068C283.488 115.66 283.04 115.456 282.384 115.456C281.864 115.456 281.472 115.668 281.208 116.092C280.944 116.508 280.812 117.08 280.812 117.808C280.812 118.536 280.944 119.096 281.208 119.488C281.472 119.88 281.868 120.076 282.396 120.076ZM292.657 117.76C292.657 118.832 292.381 119.66 291.829 120.244C291.277 120.828 290.533 121.12 289.597 121.12C289.013 121.12 288.493 120.988 288.037 120.724C287.589 120.46 287.233 120.08 286.969 119.584C286.713 119.08 286.585 118.472 286.585 117.76C286.585 116.688 286.857 115.864 287.401 115.288C287.945 114.704 288.689 114.412 289.633 114.412C290.225 114.412 290.745 114.544 291.193 114.808C291.649 115.064 292.005 115.44 292.261 115.936C292.525 116.432 292.657 117.04 292.657 117.76ZM287.893 117.76C287.893 118.488 288.029 119.056 288.301 119.464C288.581 119.872 289.021 120.076 289.621 120.076C290.221 120.076 290.657 119.872 290.929 119.464C291.209 119.056 291.349 118.488 291.349 117.76C291.349 117.024 291.209 116.46 290.929 116.068C290.649 115.668 290.209 115.468 289.609 115.468C289.009 115.468 288.573 115.668 288.301 116.068C288.029 116.46 287.893 117.024 287.893 117.76ZM298.043 117.76C297.979 117.552 297.911 117.312 297.839 117.04C297.775 116.768 297.715 116.512 297.659 116.272C297.603 116.024 297.559 115.836 297.527 115.708H297.479C297.455 115.836 297.415 116.024 297.359 116.272C297.303 116.52 297.239 116.78 297.167 117.052C297.103 117.324 297.039 117.564 296.975 117.772L296.015 120.988H294.599L292.811 114.52H294.107L294.947 117.796C295.035 118.132 295.115 118.492 295.187 118.876C295.267 119.252 295.323 119.556 295.355 119.788H295.403C295.427 119.652 295.459 119.472 295.499 119.248C295.547 119.024 295.595 118.8 295.643 118.576C295.699 118.344 295.751 118.156 295.799 118.012L296.831 114.52H298.223L299.231 118.012C299.279 118.172 299.331 118.364 299.387 118.588C299.443 118.804 299.491 119.02 299.531 119.236C299.579 119.444 299.611 119.624 299.627 119.776H299.675C299.691 119.648 299.719 119.472 299.759 119.248C299.799 119.024 299.847 118.784 299.903 118.528C299.967 118.272 300.027 118.028 300.083 117.796L300.947 114.52H302.231L300.419 120.988H298.967L298.043 117.76ZM306.271 114.412C307.023 114.412 307.599 114.6 307.999 114.976C308.399 115.352 308.599 115.956 308.599 116.788V121H307.339V116.968C307.339 115.96 306.895 115.456 306.007 115.456C305.343 115.456 304.887 115.652 304.639 116.044C304.391 116.436 304.267 117 304.267 117.736V121H302.995V114.532H304.003L304.183 115.396H304.255C304.463 115.06 304.747 114.812 305.107 114.652C305.475 114.492 305.863 114.412 306.271 114.412ZM310.014 115.252C310.014 114.932 310.09 114.708 310.242 114.58C310.402 114.444 310.598 114.376 310.83 114.376C311.054 114.376 311.246 114.444 311.406 114.58C311.574 114.708 311.658 114.932 311.658 115.252C311.658 115.556 311.574 115.776 311.406 115.912C311.246 116.048 311.054 116.116 310.83 116.116C310.598 116.116 310.402 116.048 310.242 115.912C310.09 115.776 310.014 115.556 310.014 115.252ZM310.014 120.292C310.014 119.98 310.09 119.76 310.242 119.632C310.402 119.504 310.598 119.44 310.83 119.44C311.054 119.44 311.246 119.504 311.406 119.632C311.574 119.76 311.658 119.98 311.658 120.292C311.658 120.604 311.574 120.828 311.406 120.964C311.246 121.1 311.054 121.168 310.83 121.168C310.598 121.168 310.402 121.1 310.242 120.964C310.09 120.828 310.014 120.604 310.014 120.292Z" fill="white"/>
<rect x="217" y="142" width="111" height="7" rx="3.5" fill="#F2F3F3"/>
<rect x="232" y="291" width="89" height="7" rx="3.5" fill="#F2F3F3"/>
<rect x="232" y="317" width="89" height="7" rx="3.5" fill="#F2F3F3"/>
<rect x="238" y="304" width="77" height="7" rx="3.5" fill="#B0C1C5"/>
<rect x="238" y="329" width="77" height="7" rx="3.5" fill="#B0C1C5"/>
<g filter="url(#filter2_dd)">
<rect x="55" y="282" width="157" height="70" rx="5" fill="white"/>
</g>
<path d="M74.0303 315.684V336.464C74.0303 337.646 74.9888 338.605 76.1712 338.605C77.3536 338.605 78.3121 337.646 78.3121 336.464V315.684C78.3121 314.501 77.3536 313.543 76.1712 313.543C74.9888 313.543 74.0303 314.501 74.0303 315.684Z" fill="#DB2777"/>
<path d="M82.1182 305.745V336.464C82.1182 337.646 83.0767 338.604 84.2591 338.604C85.4415 338.604 86.4 337.646 86.4 336.464V305.745C86.4 304.563 85.4415 303.604 84.2591 303.604C83.0767 303.604 82.1182 304.563 82.1182 305.745Z" fill="#DB2777"/>
<path d="M98.2939 297.536V336.464C98.2939 337.646 99.2525 338.605 100.435 338.605C101.617 338.605 102.576 337.646 102.576 336.464V297.536C102.576 296.354 101.617 295.395 100.435 295.395C99.2525 295.395 98.2939 296.354 98.2939 297.536Z" fill="#DB2777"/>
<path d="M90.2061 305.682V336.464C90.2061 337.646 91.1646 338.605 92.347 338.605C93.5294 338.605 94.4879 337.646 94.4879 336.464V305.682C94.4879 304.5 93.5294 303.541 92.347 303.541C91.1646 303.541 90.2061 304.5 90.2061 305.682Z" fill="#DB2777"/>
<path d="M74.0303 329.943V336.464C74.0303 337.646 74.9888 338.605 76.1712 338.605C77.3536 338.605 78.3121 337.646 78.3121 336.464V329.943C78.3121 328.761 77.3536 327.802 76.1712 327.802C74.9888 327.802 74.0303 328.761 74.0303 329.943Z" fill="#84D5F7"/>
<path d="M82.1182 320.005V336.464C82.1182 337.646 83.0767 338.605 84.2591 338.605C85.4415 338.605 86.4 337.646 86.4 336.464V320.005C86.4 318.822 85.4415 317.864 84.2591 317.864C83.0767 317.864 82.1182 318.822 82.1182 320.005Z" fill="#84D5F7"/>
<path d="M98.2939 315.683V336.463C98.2939 337.646 99.2525 338.604 100.435 338.604C101.617 338.604 102.576 337.646 102.576 336.463V315.683C102.576 314.501 101.617 313.542 100.435 313.542C99.2525 313.542 98.2939 314.501 98.2939 315.683Z" fill="#84D5F7"/>
<path d="M90.2061 320.005V336.464C90.2061 337.646 91.1646 338.605 92.347 338.605C93.5294 338.605 94.4879 337.646 94.4879 336.464V320.005C94.4879 318.822 93.5294 317.864 92.347 317.864C91.1646 317.864 90.2061 318.822 90.2061 320.005Z" fill="#84D5F7"/>
<path d="M164.424 322.598V336.464C164.424 337.647 165.383 338.605 166.565 338.605C167.748 338.605 168.706 337.647 168.706 336.464V322.598C168.706 321.416 167.748 320.457 166.565 320.457C165.383 320.457 164.424 321.416 164.424 322.598Z" fill="#D0F4FB"/>
<path d="M172.512 312.227V336.464C172.512 337.646 173.471 338.605 174.653 338.605C175.835 338.605 176.794 337.646 176.794 336.464V312.227C176.794 311.045 175.835 310.086 174.653 310.086C173.471 310.086 172.512 311.045 172.512 312.227Z" fill="#D0F4FB"/>
<path d="M188.688 297.536V336.464C188.688 337.646 189.646 338.605 190.829 338.605C192.011 338.605 192.97 337.646 192.97 336.464V297.536C192.97 296.354 192.011 295.395 190.829 295.395C189.646 295.395 188.688 296.354 188.688 297.536Z" fill="#D0F4FB"/>
<path d="M180.6 305.682V336.464C180.6 337.646 181.559 338.605 182.741 338.605C183.923 338.605 184.882 337.646 184.882 336.464V305.682C184.882 304.5 183.923 303.541 182.741 303.541C181.559 303.541 180.6 304.5 180.6 305.682Z" fill="#D0F4FB"/>
<path d="M164.424 334.264V336.464C164.424 337.646 165.383 338.605 166.565 338.605C167.748 338.605 168.706 337.646 168.706 336.464V334.264C168.706 333.082 167.748 332.124 166.565 332.124C165.383 332.124 164.424 333.082 164.424 334.264Z" fill="#DB2777"/>
<path d="M172.512 327.35V336.463C172.512 337.646 173.471 338.604 174.653 338.604C175.835 338.604 176.794 337.646 176.794 336.463V327.35C176.794 326.168 175.835 325.209 174.653 325.209C173.471 325.209 172.512 326.168 172.512 327.35Z" fill="#DB2777"/>
<path d="M188.688 315.683V336.463C188.688 337.646 189.646 338.604 190.829 338.604C192.011 338.604 192.97 337.646 192.97 336.463V315.683C192.97 314.501 192.011 313.542 190.829 313.542C189.646 313.542 188.688 314.501 188.688 315.683Z" fill="#DB2777"/>
<path d="M180.6 320.005V336.464C180.6 337.646 181.559 338.605 182.741 338.605C183.923 338.605 184.882 337.646 184.882 336.464V320.005C184.882 318.822 183.923 317.864 182.741 317.864C181.559 317.864 180.6 318.822 180.6 320.005Z" fill="#DB2777"/>
<path d="M133.738 298.853C137.4 298.853 140.993 299.756 144.134 301.466C147.275 303.176 149.846 305.629 151.572 308.563C153.298 311.496 154.114 314.801 153.933 318.123C153.752 321.445 152.582 324.66 150.546 327.425L141.302 321.81C142.218 320.566 142.744 319.119 142.826 317.624C142.907 316.129 142.54 314.643 141.763 313.322C140.987 312.002 139.83 310.899 138.416 310.129C137.003 309.359 135.386 308.953 133.738 308.953L133.738 298.853Z" fill="#DB2777"/>
<path d="M150.546 327.425C148.643 330.009 146.049 332.112 143.007 333.537C139.966 334.963 136.575 335.663 133.153 335.573C129.732 335.483 126.392 334.606 123.445 333.024C120.499 331.441 118.044 329.205 116.308 326.526L125.895 321.406C126.675 322.612 127.78 323.618 129.106 324.33C130.432 325.042 131.935 325.437 133.475 325.477C135.015 325.518 136.54 325.202 137.909 324.561C139.278 323.92 140.445 322.973 141.302 321.81L150.546 327.425Z" fill="#84D5F7"/>
<path d="M116.308 326.526C114.401 323.58 113.437 320.208 113.524 316.792C113.611 313.375 114.746 310.048 116.801 307.185L126.116 312.703C125.191 313.991 124.681 315.488 124.641 317.025C124.602 318.563 125.036 320.08 125.895 321.406L116.308 326.526Z" fill="#D0F4FB"/>
<path d="M116.801 307.185C119.363 303.618 123.21 300.97 127.683 299.695L131.013 309.332C129 309.906 127.269 311.097 126.116 312.703L116.801 307.185Z" fill="white"/>
<path d="M127.683 299.695C129.643 299.137 131.684 298.853 133.738 298.853L133.738 308.953C132.814 308.953 131.895 309.081 131.013 309.332L127.683 299.695Z" fill="white"/>
<path d="M124.776 142.011C124.761 142.028 124.49 142.056 124.172 142.072C122.381 142.177 120.313 142.709 118.548 143.523C116.689 144.376 115.007 145.589 113.507 147.145C112.434 148.264 111.694 149.239 110.934 150.529C110.606 151.094 109.96 152.357 110.002 152.357C110.018 152.357 110.179 152.113 110.366 151.814C112.559 148.281 115.923 145.8 119.834 144.83C120.98 144.548 121.699 144.47 123.266 144.47C124.901 144.465 125.542 144.542 126.849 144.88C130.463 145.816 133.541 148.015 135.744 151.227C139.504 156.71 139.65 164.226 136.103 169.886C133.822 173.531 130.302 176.056 126.323 176.915C125.146 177.169 124.308 177.241 122.928 177.208C121.407 177.175 120.537 177.042 119.074 176.638C118.798 176.56 119.178 176.737 119.751 176.948C121.553 177.607 123.381 177.934 125.297 177.934C126.365 177.934 126.985 177.884 127.953 177.718C130.771 177.247 133.541 175.951 135.765 174.062C139.468 170.922 141.712 166.458 142.124 161.413C142.197 160.482 142.155 158.593 142.04 157.702C141.603 154.329 140.405 151.338 138.426 148.702C137.89 147.987 136.541 146.558 135.843 145.966C133.328 143.839 130.385 142.532 127.224 142.144C126.542 142.061 124.823 141.967 124.776 142.011Z" fill="black"/>
<path d="M122.344 150.701C121.574 150.757 120.813 150.917 120.105 151.167C117.652 152.036 115.991 154.18 115.402 157.231C115.236 158.084 115.272 158.887 115.512 159.64C115.855 160.737 115.694 161.601 114.882 162.964C114.595 163.445 114.517 163.672 114.517 164.032C114.517 164.326 114.679 164.52 114.965 164.57C115.08 164.586 115.225 164.631 115.298 164.669C115.423 164.741 115.428 164.758 115.428 165.317C115.434 166.104 115.47 166.27 115.694 166.475C115.793 166.569 115.908 166.647 115.954 166.647C116.017 166.647 116.012 166.691 115.918 166.874C115.777 167.167 115.819 167.328 116.069 167.5C116.381 167.704 116.408 167.771 116.371 168.131C116.283 168.956 116.277 169.084 116.34 169.272C116.569 170.014 117.465 170.296 118.787 170.042C119.058 169.986 119.402 169.948 119.543 169.948C120.319 169.942 121.24 170.9 121.891 172.384C122.178 173.027 122.469 173.852 122.641 174.495C122.782 175.026 122.782 175.026 123.146 174.434C124.297 172.573 124.485 170.767 123.698 169.039C123.438 168.474 123.167 168.087 122.48 167.272C120.72 165.201 119.433 163.357 118.814 162.016C118.324 160.964 117.959 159.203 117.918 157.696C117.887 156.683 117.933 156.118 118.116 155.404C118.689 153.144 120.522 151.61 123.214 151.144C124.141 150.984 124.391 150.962 125.297 150.956L126.104 150.951L125.714 150.884C124.667 150.701 123.303 150.629 122.344 150.701Z" fill="#3DB4E8"/>
<path d="M123.6 152.396C123.573 152.523 123.521 152.567 123.303 152.645C123.058 152.728 123.021 152.728 122.907 152.65C122.792 152.573 122.777 152.578 122.626 152.733C122.475 152.894 122.469 152.911 122.553 153.038C122.631 153.165 122.626 153.188 122.527 153.404C122.459 153.548 122.376 153.642 122.298 153.664C122.188 153.692 122.173 153.73 122.173 153.935C122.173 154.14 122.188 154.179 122.303 154.207C122.376 154.229 122.433 154.279 122.433 154.323C122.433 154.367 122.475 154.489 122.521 154.6C122.594 154.766 122.6 154.81 122.537 154.932C122.469 155.065 122.475 155.087 122.626 155.248C122.777 155.409 122.792 155.414 122.902 155.331C123.001 155.259 123.037 155.259 123.266 155.364C123.464 155.453 123.521 155.508 123.547 155.636C123.573 155.78 123.594 155.791 123.813 155.791C124.027 155.791 124.047 155.78 124.047 155.658C124.047 155.503 124.11 155.442 124.37 155.342C124.542 155.281 124.573 155.281 124.672 155.375C124.776 155.481 124.782 155.475 124.943 155.309C125.099 155.143 125.105 155.126 125.021 154.999C124.943 154.871 124.943 154.844 125.047 154.578C125.136 154.362 125.193 154.29 125.308 154.268C125.443 154.234 125.453 154.212 125.453 153.985C125.453 153.753 125.443 153.736 125.297 153.703C125.177 153.681 125.115 153.62 125.058 153.47C124.985 153.287 124.985 153.254 125.063 153.11C125.146 152.949 125.141 152.944 124.99 152.783C124.844 152.623 124.829 152.623 124.709 152.706C124.594 152.783 124.568 152.783 124.344 152.673C124.141 152.573 124.099 152.523 124.099 152.396C124.099 152.257 124.084 152.246 123.865 152.246C123.646 152.246 123.626 152.257 123.6 152.396ZM124.318 153.127C124.839 153.481 124.933 154.284 124.506 154.722C124.172 155.065 123.777 155.154 123.396 154.965C122.839 154.689 122.631 154.029 122.928 153.487C123.214 152.966 123.839 152.805 124.318 153.127Z" fill="#DB2777"/>
<path d="M123.381 153.299C122.86 153.636 122.886 154.467 123.422 154.75C123.938 155.027 124.506 154.689 124.553 154.079C124.61 153.409 123.922 152.95 123.381 153.299ZM124.053 153.559C124.485 153.83 124.287 154.545 123.777 154.545C123.605 154.545 123.542 154.511 123.417 154.362C123.016 153.886 123.537 153.232 124.053 153.559Z" fill="#DB2777"/>
<path d="M126.703 152.994C126.703 153.099 126.464 153.205 126.328 153.155C126.177 153.105 126.078 153.227 126.115 153.41C126.136 153.526 126.115 153.592 126.032 153.664C125.927 153.764 125.875 154.019 125.964 154.019C126.042 154.019 126.131 154.296 126.099 154.429C126.068 154.567 126.193 154.717 126.287 154.656C126.386 154.589 126.641 154.683 126.667 154.8C126.703 154.938 126.912 154.944 126.948 154.8C126.974 154.683 127.146 154.617 127.307 154.661C127.438 154.7 127.584 154.545 127.5 154.456C127.422 154.373 127.531 154.085 127.651 154.041C127.781 153.997 127.776 153.742 127.646 153.742C127.537 153.742 127.469 153.559 127.516 153.376C127.552 153.232 127.406 153.083 127.318 153.177C127.245 153.255 126.964 153.111 126.964 152.994C126.964 152.944 126.912 152.911 126.834 152.911C126.75 152.911 126.703 152.944 126.703 152.994ZM127.042 153.387C127.255 153.493 127.396 153.781 127.349 154.002C127.302 154.207 127.089 154.451 126.912 154.49C126.599 154.562 126.235 154.246 126.235 153.908C126.235 153.626 126.516 153.304 126.771 153.299C126.828 153.299 126.948 153.338 127.042 153.387Z" fill="#DB2777"/>
<path d="M126.558 153.504C126.521 153.52 126.459 153.603 126.412 153.697C126.349 153.83 126.344 153.897 126.391 154.052C126.459 154.273 126.573 154.351 126.828 154.351C126.959 154.351 127.037 154.312 127.115 154.207C127.344 153.897 127.167 153.459 126.818 153.47C126.714 153.47 126.594 153.487 126.558 153.504ZM126.953 153.664C127.115 153.786 127.11 154.046 126.932 154.163C126.808 154.251 126.792 154.251 126.662 154.146C126.469 153.997 126.459 153.836 126.63 153.692C126.797 153.553 126.802 153.553 126.953 153.664Z" fill="#DB2777"/>
<path d="M120.756 153.088C120.74 153.127 120.652 153.16 120.553 153.166C120.397 153.171 120.376 153.188 120.36 153.332C120.35 153.421 120.303 153.526 120.256 153.565C120.178 153.626 120.178 153.648 120.266 153.803C120.319 153.891 120.345 154.002 120.329 154.046C120.303 154.124 120.418 154.262 120.47 154.207C120.522 154.152 120.714 154.246 120.714 154.329C120.714 154.373 120.761 154.406 120.819 154.406C120.876 154.406 120.923 154.368 120.923 154.323C120.923 154.24 120.949 154.229 121.157 154.218C121.225 154.213 121.266 154.157 121.292 154.019C121.313 153.914 121.355 153.819 121.386 153.808C121.475 153.775 121.454 153.592 121.365 153.554C121.313 153.531 121.287 153.465 121.298 153.371C121.313 153.232 121.292 153.216 121.141 153.199C121.048 153.188 120.954 153.144 120.938 153.099C120.907 153.005 120.782 152.994 120.756 153.088ZM121.068 153.387C121.209 153.487 121.23 153.853 121.1 153.986C120.829 154.274 120.339 153.991 120.433 153.603C120.496 153.326 120.834 153.21 121.068 153.387Z" fill="#DB2777"/>
<path d="M120.636 153.492C120.485 153.647 120.475 153.725 120.589 153.897C120.699 154.068 120.949 154.063 121.053 153.885C121.162 153.708 121.105 153.47 120.938 153.404C120.772 153.337 120.782 153.332 120.636 153.492ZM120.944 153.537C121.053 153.625 121.037 153.786 120.912 153.874C120.714 154.002 120.506 153.681 120.694 153.537C120.746 153.498 120.803 153.465 120.819 153.465C120.834 153.465 120.891 153.498 120.944 153.537Z" fill="#DB2777"/>
<path d="M129.125 154.49C129.094 154.54 129.005 154.584 128.917 154.589C128.823 154.6 128.755 154.634 128.755 154.684C128.75 154.728 128.745 154.811 128.74 154.861C128.74 154.916 128.698 154.96 128.656 154.96C128.552 154.96 128.557 155.127 128.656 155.204C128.703 155.237 128.745 155.343 128.75 155.431C128.76 155.57 128.786 155.597 128.917 155.608C129 155.614 129.099 155.658 129.13 155.708C129.203 155.813 129.255 155.813 129.333 155.703C129.365 155.647 129.463 155.608 129.547 155.603C129.677 155.597 129.698 155.575 129.698 155.437C129.703 155.354 129.745 155.248 129.792 155.21C129.901 155.127 129.906 155.038 129.797 154.972C129.745 154.944 129.708 154.85 129.703 154.761C129.698 154.639 129.672 154.6 129.594 154.595C129.385 154.584 129.359 154.573 129.359 154.49C129.359 154.379 129.193 154.384 129.125 154.49ZM129.49 154.822C129.562 154.894 129.62 155.021 129.62 155.099C129.62 155.282 129.406 155.514 129.24 155.514C129.031 155.514 128.839 155.315 128.839 155.099C128.839 154.966 128.875 154.883 128.974 154.8C129.156 154.645 129.333 154.656 129.49 154.822Z" fill="#DB2777"/>
<path d="M129.005 154.86C128.969 154.899 128.943 155.004 128.943 155.098C128.943 155.309 129.026 155.403 129.208 155.403C129.463 155.403 129.588 155.154 129.463 154.899C129.401 154.777 129.109 154.749 129.005 154.86ZM129.401 155.115C129.391 155.231 129.354 155.27 129.245 155.281C129.042 155.309 128.953 155.115 129.099 154.96C129.245 154.805 129.427 154.899 129.401 155.115Z" fill="#DB2777"/>
<path d="M120.319 155.093C120.282 155.265 119.876 155.404 119.746 155.293C119.678 155.232 119.647 155.243 119.537 155.359C119.423 155.481 119.412 155.514 119.47 155.614C119.558 155.764 119.407 156.124 119.256 156.124C119.168 156.124 119.152 156.162 119.152 156.345C119.152 156.517 119.173 156.567 119.246 156.567C119.381 156.567 119.543 157.021 119.465 157.176C119.412 157.276 119.423 157.32 119.522 157.431C119.616 157.536 119.652 157.547 119.741 157.497C119.897 157.408 120.24 157.547 120.277 157.713C120.303 157.813 120.345 157.84 120.485 157.84C120.626 157.84 120.668 157.813 120.688 157.713C120.73 157.541 121.027 157.42 121.188 157.508C121.277 157.564 121.318 157.552 121.417 157.453C121.516 157.353 121.527 157.309 121.485 157.187C121.407 156.965 121.558 156.622 121.73 156.622C121.844 156.622 121.86 156.6 121.86 156.406C121.86 156.218 121.844 156.19 121.714 156.162C121.522 156.124 121.412 155.836 121.522 155.658C121.595 155.542 121.589 155.525 121.475 155.409C121.371 155.304 121.329 155.293 121.24 155.343C121.089 155.431 120.746 155.26 120.725 155.082C120.709 154.983 120.673 154.96 120.527 154.96C120.386 154.96 120.345 154.988 120.319 155.093ZM120.891 155.669C121.157 155.836 121.261 156.04 121.261 156.4C121.261 156.749 121.178 156.927 120.907 157.143C120.709 157.298 120.256 157.298 120.053 157.143C119.813 156.954 119.673 156.688 119.673 156.417C119.673 155.73 120.329 155.332 120.891 155.669Z" fill="#DB2777"/>
<path d="M120.095 155.88C119.918 156.04 119.798 156.373 119.85 156.583C119.866 156.661 119.954 156.799 120.043 156.893C120.178 157.043 120.24 157.065 120.48 157.065C120.72 157.065 120.782 157.043 120.912 156.899C121.318 156.467 121.048 155.736 120.475 155.736C120.313 155.736 120.209 155.775 120.095 155.88ZM120.735 156.079C120.85 156.19 120.897 156.34 120.876 156.55C120.865 156.683 120.641 156.844 120.475 156.844C120.35 156.844 120.272 156.799 120.173 156.672C119.996 156.45 120.001 156.317 120.188 156.118C120.371 155.924 120.558 155.913 120.735 156.079Z" fill="#DB2777"/>
<path d="M126.531 155.331C126.521 155.359 126.495 155.47 126.474 155.58C126.443 155.747 126.412 155.796 126.297 155.824C126.219 155.846 126.058 155.907 125.933 155.968L125.709 156.068L125.526 155.924L125.349 155.774L125.068 156.057L124.792 156.334L124.922 156.511L125.052 156.683L124.886 157.02C124.797 157.209 124.724 157.392 124.724 157.43C124.724 157.524 124.636 157.58 124.412 157.619L124.23 157.646L124.214 158.045L124.198 158.444L124.438 158.477C124.568 158.499 124.672 158.544 124.672 158.582C124.672 158.616 124.73 158.793 124.802 158.97L124.927 159.297L124.802 159.474L124.672 159.646L124.933 159.917L125.193 160.188L125.355 160.089C125.511 159.989 125.516 159.989 125.839 160.161C126.021 160.255 126.209 160.332 126.255 160.332C126.349 160.332 126.365 160.371 126.417 160.676L126.448 160.886H126.808H127.162L127.198 160.704C127.261 160.382 127.281 160.332 127.365 160.332C127.406 160.332 127.583 160.266 127.75 160.188L128.057 160.039L128.26 160.183L128.458 160.321L128.703 160.061C128.833 159.917 128.943 159.784 128.943 159.756C128.943 159.734 128.885 159.635 128.813 159.535L128.682 159.352L128.813 159.053C128.885 158.887 128.943 158.726 128.943 158.688C128.943 158.649 129.031 158.604 129.141 158.588C129.469 158.527 129.463 158.538 129.463 158.123V157.74L129.219 157.696C129.031 157.657 128.964 157.619 128.953 157.536C128.943 157.475 128.875 157.281 128.802 157.109L128.667 156.788L128.813 156.561L128.953 156.328L128.693 156.057L128.438 155.78L128.224 155.929L128.011 156.079L127.672 155.952L127.333 155.824L127.302 155.558L127.266 155.292H126.912C126.714 155.292 126.542 155.309 126.531 155.331ZM127.386 156.544C127.724 156.66 128.021 156.954 128.208 157.353C128.344 157.635 128.37 157.757 128.37 158.095C128.37 158.438 128.344 158.544 128.198 158.843C127.448 160.382 125.276 159.823 125.276 158.089C125.271 157.464 125.542 156.965 126.058 156.644C126.453 156.395 126.875 156.361 127.386 156.544Z" fill="#DB2777"/>
<path d="M126.599 156.788C126.115 156.888 125.735 157.275 125.599 157.801C125.464 158.339 125.782 159.036 126.266 159.28C126.761 159.524 127.38 159.413 127.734 159.014C128.172 158.516 128.167 157.63 127.714 157.153C127.422 156.849 126.985 156.705 126.599 156.788ZM127.266 157.38C127.521 157.585 127.61 157.768 127.61 158.089C127.61 158.416 127.521 158.593 127.255 158.804C127.057 158.964 126.61 158.964 126.406 158.804C126.125 158.582 126.016 158.344 126.037 158.017C126.063 157.696 126.229 157.452 126.521 157.308C126.724 157.209 127.094 157.242 127.266 157.38Z" fill="#DB2777"/>
<path d="M122.85 156.478C122.85 156.589 122.501 156.705 122.412 156.627C122.308 156.533 122.157 156.738 122.199 156.915C122.225 157.026 122.204 157.093 122.1 157.203C121.954 157.359 121.923 157.53 122.032 157.602C122.147 157.68 122.245 157.995 122.178 158.079C122.1 158.184 122.266 158.344 122.412 158.306C122.553 158.267 122.798 158.372 122.798 158.477C122.798 158.533 122.85 158.56 122.954 158.56C123.058 158.56 123.11 158.533 123.11 158.477C123.11 158.372 123.35 158.267 123.485 158.317C123.631 158.367 123.797 158.189 123.725 158.067C123.657 157.951 123.803 157.619 123.917 157.619C123.969 157.619 123.995 157.563 123.995 157.453C123.995 157.325 123.969 157.287 123.896 157.287C123.771 157.287 123.662 156.999 123.751 156.904C123.834 156.816 123.641 156.611 123.532 156.672C123.433 156.738 123.162 156.6 123.162 156.483C123.162 156.428 123.11 156.4 123.006 156.4C122.907 156.4 122.85 156.428 122.85 156.478ZM123.318 156.949C123.511 157.098 123.584 157.281 123.563 157.552C123.501 158.2 122.688 158.361 122.402 157.779C122.105 157.165 122.798 156.539 123.318 156.949Z" fill="#DB2777"/>
<path d="M122.636 157.114C122.527 157.236 122.485 157.33 122.485 157.48C122.485 157.63 122.527 157.724 122.636 157.846C122.829 158.05 123.047 158.056 123.261 157.862C123.396 157.746 123.422 157.679 123.422 157.491C123.417 157.242 123.355 157.12 123.178 157.02C122.985 156.91 122.797 156.943 122.636 157.114ZM123.152 157.209C123.329 157.336 123.297 157.674 123.1 157.774C122.766 157.94 122.485 157.508 122.745 157.231C122.87 157.098 122.995 157.092 123.152 157.209Z" fill="#DB2777"/>
<path d="M126.078 161.241C126.078 161.329 125.745 161.468 125.662 161.412C125.578 161.357 125.448 161.495 125.48 161.606C125.516 161.734 125.407 161.994 125.313 161.994C125.276 161.994 125.245 162.055 125.245 162.132C125.245 162.21 125.276 162.271 125.313 162.271C125.407 162.271 125.511 162.598 125.453 162.714C125.391 162.836 125.547 163.007 125.657 162.941C125.75 162.874 126.026 162.98 126.026 163.079C126.026 163.129 126.084 163.157 126.183 163.157C126.276 163.157 126.339 163.129 126.339 163.085C126.339 162.98 126.563 162.88 126.662 162.941C126.766 163.002 126.927 162.83 126.86 162.714C126.802 162.614 126.938 162.326 127.042 162.326C127.094 162.326 127.12 162.271 127.12 162.16C127.12 162.033 127.094 161.994 127.021 161.994C126.906 161.994 126.828 161.745 126.912 161.639C126.985 161.54 126.781 161.335 126.693 161.429C126.62 161.506 126.339 161.362 126.339 161.246C126.339 161.196 126.287 161.163 126.209 161.163C126.131 161.163 126.078 161.196 126.078 161.241ZM126.552 161.75C126.933 162.132 126.688 162.769 126.167 162.769C125.886 162.769 125.61 162.481 125.61 162.188C125.61 161.927 125.683 161.794 125.886 161.656C126.099 161.512 126.354 161.551 126.552 161.75Z" fill="#DB2777"/>
<path d="M278.556 249.062C278.082 249.134 277.405 249.373 276.915 249.644C275.566 250.386 274.598 251.66 274.176 253.244C274.009 253.859 273.947 255.077 274.051 255.742C274.285 257.315 275.165 258.788 276.41 259.685C276.785 259.957 277.457 260.278 277.957 260.422C278.347 260.533 278.514 260.549 279.389 260.549C280.483 260.549 280.665 260.51 281.519 260.15C281.774 260.045 281.993 259.979 282.014 260.006C282.029 260.034 282.232 260.311 282.456 260.621L282.868 261.186H284.003C284.633 261.186 285.144 261.175 285.144 261.164C285.144 261.153 284.748 260.599 284.263 259.934L283.383 258.727L283.659 258.339C284.409 257.27 284.727 256.213 284.727 254.806C284.727 253.61 284.451 252.574 283.883 251.654C282.691 249.705 280.696 248.736 278.556 249.062ZM280.404 251.206C281.41 251.555 282.253 252.446 282.613 253.543C282.81 254.152 282.857 255.027 282.727 255.664C282.628 256.135 282.264 256.977 282.165 256.971C282.128 256.971 281.899 256.7 281.66 256.362L281.227 255.758H280.087C279.457 255.758 278.946 255.77 278.946 255.786C278.946 255.803 279.347 256.362 279.832 257.027C280.321 257.697 280.717 258.256 280.717 258.273C280.717 258.35 279.962 258.544 279.545 258.566C278.717 258.616 277.952 258.356 277.238 257.78C276.66 257.315 276.311 256.772 276.072 255.98C275.967 255.62 275.952 255.459 275.957 254.789C275.962 254.108 275.978 253.964 276.098 253.571C276.275 253 276.478 252.64 276.842 252.214C277.316 251.671 277.811 251.355 278.488 251.162C278.993 251.012 279.904 251.04 280.404 251.206Z" fill="#DB2777"/>
<path d="M243.223 249.151C243.202 249.167 243.187 249.854 243.187 250.674V252.158H242.692H242.192L242.208 253.028L242.223 253.903L242.702 253.919L243.187 253.936L243.197 257.132L243.213 260.327L244.192 260.344L245.166 260.355V257.143V253.93H245.739H246.311V253.044V252.158H245.739H245.166V250.635V249.112H244.213C243.687 249.112 243.239 249.128 243.223 249.151Z" fill="white"/>
<path d="M257.128 249.151C257.107 249.167 257.092 249.854 257.092 250.674V252.158H256.597H256.097L256.113 253.028L256.128 253.903L256.607 253.919L257.092 253.936L257.102 257.132L257.118 260.327L258.097 260.344L259.071 260.355V257.143V253.93H259.643H260.216V253.044V252.158H259.643H259.071V250.635V249.112H258.118C257.592 249.112 257.144 249.128 257.128 249.151Z" fill="white"/>
<path d="M286.932 250.635V252.158H286.438H285.943V253.044V253.93H286.438H286.932V257.143V260.355H287.896H288.859V257.143V253.93H289.432H290.005V253.044V252.164L289.448 252.147L288.885 252.13L288.87 250.618L288.859 249.112H287.896H286.932V250.635Z" fill="white"/>
<path d="M306.92 250.618L306.904 252.13L306.425 252.147L305.941 252.164V253.044V253.93H306.436H306.93V257.143V260.355H307.894H308.857V257.143V253.93H309.43H310.003V253.044V252.158H309.43H308.857V250.635V249.112H307.894H306.93L306.92 250.618Z" fill="white"/>
<path d="M270.58 254.789V260.3H271.543H272.507V254.789V249.278H271.543H270.58V254.789Z" fill="#DB2777"/>
<path d="M238.036 252.025C237.599 252.147 237.167 252.424 236.864 252.768C235.885 253.897 236.156 255.448 237.5 256.384C237.693 256.523 238.14 256.789 238.495 256.977C239.177 257.348 239.557 257.669 239.625 257.941C239.724 258.367 239.271 258.733 238.703 258.677C238.328 258.644 237.833 258.389 237.458 258.04L237.182 257.785L236.594 258.445C236.271 258.81 236.005 259.126 236 259.148C236 259.237 236.578 259.807 236.88 260.012C238.083 260.843 239.88 260.704 240.812 259.713C241.593 258.882 241.687 257.481 241.026 256.517C240.755 256.135 240.255 255.769 239.26 255.227C238.771 254.961 238.323 254.689 238.255 254.617C238.088 254.44 238.094 254.158 238.265 253.986C238.364 253.886 238.474 253.848 238.698 253.831C239.073 253.803 239.437 253.953 239.849 254.307L240.125 254.551L240.718 253.925C241.046 253.576 241.312 253.283 241.312 253.266C241.312 253.244 241.166 253.078 240.989 252.889C240.604 252.48 240.01 252.131 239.5 252.02C239.057 251.92 238.401 251.92 238.036 252.025Z" fill="white"/>
<path d="M249.707 252.048C249.092 252.219 248.634 252.513 248.16 253.017C247.322 253.914 246.988 254.839 246.988 256.268C246.988 257.653 247.363 258.611 248.259 259.508C248.962 260.217 249.691 260.538 250.608 260.538C251.394 260.544 251.988 260.328 252.623 259.813L252.972 259.53L252.988 259.929L253.004 260.328H253.967H254.93L254.946 256.24L254.956 252.158H253.967H252.977V252.574V252.989L252.691 252.74C252.373 252.463 252.014 252.258 251.571 252.092C251.134 251.926 250.202 251.904 249.707 252.048ZM251.754 253.992C252.53 254.307 253.004 255.033 253.066 256.002C253.139 257.121 252.712 258.001 251.889 258.433C251.571 258.6 251.514 258.611 250.998 258.611C250.514 258.611 250.415 258.594 250.155 258.461C249.368 258.073 248.915 257.254 248.915 256.229C248.915 255.038 249.525 254.147 250.504 253.903C250.842 253.814 251.42 253.859 251.754 253.992Z" fill="white"/>
<path d="M263.961 252.014C262.924 252.247 261.966 252.984 261.419 253.975C260.716 255.243 260.68 257.132 261.341 258.395C262.07 259.796 263.325 260.538 264.955 260.538C266.007 260.533 266.789 260.3 267.476 259.779C267.814 259.525 268.393 258.893 268.393 258.777C268.393 258.744 268.033 258.539 267.601 258.328L266.809 257.935L266.544 258.146C265.685 258.838 264.481 258.926 263.653 258.362C263.211 258.062 262.862 257.531 262.789 257.049L262.758 256.838H265.82H268.887L268.919 256.628C268.96 256.351 268.887 255.448 268.783 255.022C268.455 253.626 267.419 252.507 266.091 252.098C265.596 251.948 264.466 251.904 263.961 252.014ZM265.523 253.765C266.08 253.909 266.601 254.341 266.851 254.867C266.924 255.022 266.986 255.16 266.986 255.177C266.986 255.194 266.049 255.205 264.898 255.205H262.81L262.95 254.939C263.18 254.523 263.336 254.324 263.591 254.125C264.096 253.731 264.841 253.593 265.523 253.765Z" fill="white"/>
<path d="M293.801 252.02C292.255 252.346 291.062 253.659 290.755 255.354C290.604 256.201 290.692 257.259 290.974 257.996C291.265 258.754 291.953 259.591 292.614 259.984C293.374 260.438 294.327 260.626 295.296 260.521C296.379 260.405 297.03 260.084 297.754 259.325C298.015 259.048 298.233 258.799 298.233 258.771C298.228 258.743 297.864 258.538 297.416 258.317L296.609 257.918L296.431 258.079C295.723 258.743 294.583 258.915 293.713 258.5C293.177 258.239 292.656 257.547 292.598 257.015L292.583 256.866L295.655 256.849L298.728 256.838L298.718 256.146C298.712 255.575 298.686 255.365 298.572 254.955C298.353 254.163 298.124 253.753 297.556 253.149C297.15 252.717 296.983 252.585 296.609 252.385C295.822 251.975 294.702 251.831 293.801 252.02ZM295.364 253.764C295.687 253.847 295.968 254.013 296.239 254.279C296.468 254.501 296.775 254.994 296.775 255.132C296.775 255.188 296.327 255.204 294.718 255.204C293.588 255.204 292.661 255.188 292.661 255.171C292.661 255.055 293.015 254.517 293.234 254.296C293.77 253.764 294.567 253.565 295.364 253.764Z" fill="white"/>
<path d="M301.832 251.998C301.191 252.131 300.525 252.657 300.207 253.283C300.035 253.615 300.03 253.643 300.03 254.263C300.03 254.844 300.04 254.927 300.171 255.204C300.478 255.863 300.983 256.318 302.098 256.927C303.17 257.514 303.462 257.852 303.264 258.289C303.144 258.561 302.795 258.716 302.394 258.677C302.035 258.644 301.499 258.361 301.124 258.012L300.874 257.774L300.28 258.455L299.681 259.137L299.848 259.358C300.098 259.691 300.66 260.117 301.103 260.3C301.988 260.66 303.097 260.627 303.879 260.206C304.243 260.012 304.748 259.475 304.915 259.115C305.3 258.284 305.217 257.209 304.717 256.517C304.441 256.135 303.915 255.747 302.972 255.238C302.03 254.723 301.827 254.567 301.827 254.346C301.827 253.98 302.103 253.792 302.582 253.831C302.952 253.864 303.123 253.947 303.524 254.296L303.821 254.551L304.425 253.908L305.03 253.26L304.639 252.862C304.207 252.424 303.759 252.153 303.217 252.02C302.868 251.931 302.196 251.92 301.832 251.998Z" fill="white"/>
<path d="M66.0068 253.606C57.2456 253.606 57.2456 260 49 260H200C191.752 260 191.752 251.401 182.994 251.401C174.748 251.401 174.748 246.551 166.502 246.551C158.256 246.551 158.256 236.189 149.495 236.189C141.249 236.189 141.249 236.85 133.003 236.85C124.758 236.85 124.758 232 115.997 232C107.236 232 107.751 247.433 99.5053 247.433C90.7442 247.433 91.7845 241.039 82.498 241.039C73.2121 241.039 74.2524 253.606 66.0068 253.606Z" fill="#EC4899" fill-opacity="0.5"/>
<path opacity="0.7" d="M66.0068 257.653C57.2456 257.653 57.2456 260 49 260H200C191.752 260 191.752 253.174 182.994 253.174C174.748 253.174 174.922 247.523 166.676 247.523C158.43 247.523 158.256 244 149.495 244C141.422 243.966 141.249 247.2 133.003 247.2C124.758 247.2 124.409 245.517 115.648 245.517C107.057 245.295 107.751 253.814 99.5053 253.814C90.7442 253.814 90.7442 248.48 82.498 248.48C74.2524 248.48 74.2524 257.653 66.0068 257.653Z" fill="#EC4899"/>
<path opacity="0.8" d="M81.9998 253.89C73.9999 253.89 73.9999 260 66 260H81.9998H98.5003H114.5H131H147H163.5H179.501H196C187.998 260 187.998 254.342 179.501 254.342C171.5 254.342 171.5 249.816 163.5 249.816C155.5 249.816 155.498 247 146.998 247C138.998 247 138.833 252.673 130.833 252.673C122.833 252.673 123 250.495 114.5 250.495C106.5 250.495 106.5 259.547 98.5003 259.547C90.0002 259.547 90.0002 253.89 81.9998 253.89Z" fill="#DB2777"/>
<defs>
<filter id="filter0_dd" x="0" y="31" width="390" height="410" filterUnits="userSpaceOnUse" color-interpolation-filters="sRGB">
<feFlood flood-opacity="0" result="BackgroundImageFix"/>
<feColorMatrix in="SourceAlpha" type="matrix" values="0 0 0 0 0 0 0 0 0 0 0 0 0 0 0 0 0 0 127 0" result="hardAlpha"/>
<feOffset dy="30"/>
<feGaussianBlur stdDeviation="15"/>
<feColorMatrix type="matrix" values="0 0 0 0 0 0 0 0 0 0 0 0 0 0 0 0 0 0 0.05 0"/>
<feBlend mode="normal" in2="BackgroundImageFix" result="effect1_dropShadow"/>
<feColorMatrix in="SourceAlpha" type="matrix" values="0 0 0 0 0 0 0 0 0 0 0 0 0 0 0 0 0 0 127 0" result="hardAlpha"/>
<feOffset dy="5"/>
<feGaussianBlur stdDeviation="2.5"/>
<feColorMatrix type="matrix" values="0 0 0 0 0 0 0 0 0 0 0 0 0 0 0 0 0 0 0.05 0"/>
<feBlend mode="normal" in2="effect1_dropShadow" result="effect2_dropShadow"/>
<feBlend mode="normal" in="SourceGraphic" in2="effect2_dropShadow" result="shape"/>
</filter>
<filter id="filter1_d" x="204" y="194" width="140" height="48" filterUnits="userSpaceOnUse" color-interpolation-filters="sRGB">
<feFlood flood-opacity="0" result="BackgroundImageFix"/>
<feColorMatrix in="SourceAlpha" type="matrix" values="0 0 0 0 0 0 0 0 0 0 0 0 0 0 0 0 0 0 127 0" result="hardAlpha"/>
<feOffset dy="4"/>
<feGaussianBlur stdDeviation="2"/>
<feComposite in2="hardAlpha" operator="out"/>
<feColorMatrix type="matrix" values="0 0 0 0 0 0 0 0 0 0 0 0 0 0 0 0 0 0 0.25 0"/>
<feBlend mode="normal" in2="BackgroundImageFix" result="effect1_dropShadow"/>
<feBlend mode="normal" in="SourceGraphic" in2="effect1_dropShadow" result="shape"/>
</filter>
<filter id="filter2_dd" x="25" y="252" width="217" height="130" filterUnits="userSpaceOnUse" color-interpolation-filters="sRGB">
<feFlood flood-opacity="0" result="BackgroundImageFix"/>
<feColorMatrix in="SourceAlpha" type="matrix" values="0 0 0 0 0 0 0 0 0 0 0 0 0 0 0 0 0 0 127 0" result="hardAlpha"/>
<feOffset/>
<feGaussianBlur stdDeviation="15"/>
<feColorMatrix type="matrix" values="0 0 0 0 0 0 0 0 0 0 0 0 0 0 0 0 0 0 0.1 0"/>
<feBlend mode="normal" in2="BackgroundImageFix" result="effect1_dropShadow"/>
<feColorMatrix in="SourceAlpha" type="matrix" values="0 0 0 0 0 0 0 0 0 0 0 0 0 0 0 0 0 0 127 0" result="hardAlpha"/>
<feOffset dy="5"/>
<feGaussianBlur stdDeviation="2.5"/>
<feColorMatrix type="matrix" values="0 0 0 0 0 0 0 0 0 0 0 0 0 0 0 0 0 0 0.05 0"/>
<feBlend mode="normal" in2="effect1_dropShadow" result="effect2_dropShadow"/>
<feBlend mode="normal" in="SourceGraphic" in2="effect2_dropShadow" result="shape"/>
</filter>
<linearGradient id="paint0_linear" x1="195" y1="80" x2="171" y2="-55" gradientUnits="userSpaceOnUse">
<stop stop-color="#20C9E3"/>
<stop offset="0.49208" stop-color="#61E1B3"/>
<stop offset="1" stop-color="#B2F58B"/>
</linearGradient>
</defs>
</svg>
