<svg width="632" height="342" viewBox="0 0 632 342" fill="none" xmlns="http://www.w3.org/2000/svg">
<g filter="url(#filter0_dd)">
<rect x="30" y="30" width="572" height="282" rx="5" fill="white"/>
</g>
<path d="M99.3333 164.873V250.236C99.3333 254.544 102.826 258.036 107.133 258.036C111.441 258.036 114.933 254.544 114.933 250.236V164.873C114.933 160.565 111.441 157.073 107.133 157.073C102.826 157.073 99.3333 160.565 99.3333 164.873Z" fill="#DB2777"/>
<path d="M128.8 124.836V250.236C128.8 254.543 132.292 258.036 136.6 258.036C140.908 258.036 144.4 254.543 144.4 250.236V124.836C144.4 120.528 140.908 117.036 136.6 117.036C132.292 117.036 128.8 120.528 128.8 124.836Z" fill="#DB2777"/>
<path d="M187.733 91.7619V250.235C187.733 254.543 191.226 258.035 195.533 258.035C199.841 258.035 203.333 254.543 203.333 250.235V91.7619C203.333 87.4541 199.841 83.9619 195.533 83.9619C191.226 83.9619 187.733 87.4541 187.733 91.7619Z" fill="#DB2777"/>
<path d="M158.267 124.58V250.236C158.267 254.544 161.759 258.036 166.067 258.036C170.374 258.036 173.867 254.544 173.867 250.236V124.58C173.867 120.272 170.374 116.78 166.067 116.78C161.759 116.78 158.267 120.272 158.267 124.58Z" fill="#DB2777"/>
<path d="M99.3333 222.319V250.237C99.3333 254.545 102.826 258.037 107.133 258.037C111.441 258.037 114.933 254.545 114.933 250.237V222.319C114.933 218.011 111.441 214.519 107.133 214.519C102.826 214.519 99.3333 218.011 99.3333 222.319Z" fill="#84D5F7"/>
<path d="M128.8 182.279V250.235C128.8 254.543 132.292 258.035 136.6 258.035C140.908 258.035 144.4 254.543 144.4 250.235V182.279C144.4 177.972 140.908 174.479 136.6 174.479C132.292 174.479 128.8 177.972 128.8 182.279Z" fill="#84D5F7"/>
<path d="M187.733 164.871V250.234C187.733 254.542 191.226 258.034 195.533 258.034C199.841 258.034 203.333 254.542 203.333 250.234V164.871C203.333 160.563 199.841 157.071 195.533 157.071C191.226 157.071 187.733 160.563 187.733 164.871Z" fill="#84D5F7"/>
<path d="M158.267 182.279V250.235C158.267 254.543 161.759 258.035 166.067 258.035C170.374 258.035 173.867 254.543 173.867 250.235V182.279C173.867 177.972 170.374 174.479 166.067 174.479C161.759 174.479 158.267 177.972 158.267 182.279Z" fill="#84D5F7"/>
<path d="M428.667 192.727V250.238C428.667 254.546 432.159 258.038 436.467 258.038C440.775 258.038 444.267 254.546 444.267 250.238V192.727C444.267 188.419 440.775 184.927 436.467 184.927C432.159 184.927 428.667 188.419 428.667 192.727Z" fill="#D0F4FB"/>
<path d="M458.133 150.947V250.236C458.133 254.544 461.625 258.036 465.933 258.036C470.241 258.036 473.733 254.544 473.733 250.236V150.947C473.733 146.64 470.241 143.147 465.933 143.147C461.625 143.147 458.133 146.64 458.133 150.947Z" fill="#D0F4FB"/>
<path d="M517.067 91.7619V250.235C517.067 254.543 520.559 258.035 524.867 258.035C529.174 258.035 532.667 254.543 532.667 250.235V91.7619C532.667 87.4541 529.174 83.9619 524.867 83.9619C520.559 83.9619 517.067 87.4541 517.067 91.7619Z" fill="#D0F4FB"/>
<path d="M487.6 124.58V250.236C487.6 254.544 491.092 258.036 495.4 258.036C499.708 258.036 503.2 254.544 503.2 250.236V124.58C503.2 120.272 499.708 116.78 495.4 116.78C491.092 116.78 487.6 120.272 487.6 124.58Z" fill="#D0F4FB"/>
<path d="M428.667 239.725V250.236C428.667 254.544 432.159 258.036 436.467 258.036C440.775 258.036 444.267 254.544 444.267 250.236V239.725C444.267 235.417 440.775 231.925 436.467 231.925C432.159 231.925 428.667 235.417 428.667 239.725Z" fill="#DB2777"/>
<path d="M458.133 211.871V250.234C458.133 254.542 461.625 258.034 465.933 258.034C470.241 258.034 473.733 254.542 473.733 250.234V211.871C473.733 207.563 470.241 204.071 465.933 204.071C461.625 204.071 458.133 207.563 458.133 211.871Z" fill="#DB2777"/>
<path d="M517.067 164.871V250.234C517.067 254.542 520.559 258.034 524.867 258.034C529.174 258.034 532.667 254.542 532.667 250.234V164.871C532.667 160.563 529.174 157.071 524.867 157.071C520.559 157.071 517.067 160.563 517.067 164.871Z" fill="#DB2777"/>
<path d="M487.6 182.279V250.235C487.6 254.543 491.092 258.035 495.4 258.035C499.708 258.035 503.2 254.543 503.2 250.235V182.279C503.2 177.972 499.708 174.479 495.4 174.479C491.092 174.479 487.6 177.972 487.6 182.279Z" fill="#DB2777"/>
<path d="M316.867 97.8911C330.209 97.8911 343.301 101.53 354.744 108.42C366.188 115.31 375.554 125.191 381.841 137.009C388.128 148.828 391.102 162.139 390.444 175.522C389.785 188.905 385.52 201.858 378.104 212.996L344.423 190.378C347.761 185.366 349.68 179.537 349.976 173.515C350.273 167.493 348.934 161.502 346.105 156.184C343.276 150.866 339.061 146.419 333.912 143.319C328.762 140.219 322.871 138.581 316.867 138.581L316.867 97.8911Z" fill="#DB2777"/>
<path d="M378.104 212.996C371.172 223.407 361.722 231.88 350.639 237.622C339.556 243.363 327.203 246.185 314.738 245.823C302.272 245.461 290.102 241.927 279.368 235.552C268.634 229.177 259.687 220.17 253.366 209.374L288.291 188.748C291.136 193.606 295.162 197.66 299.992 200.528C304.823 203.397 310.299 204.987 315.909 205.15C321.518 205.313 327.077 204.043 332.064 201.46C337.051 198.876 341.304 195.063 344.423 190.378L378.104 212.996Z" fill="#84D5F7"/>
<path d="M253.366 209.374C246.416 197.506 242.902 183.925 243.22 170.16C243.537 156.395 247.673 142.993 255.162 131.46L289.1 153.687C285.73 158.877 283.868 164.908 283.726 171.102C283.583 177.296 285.164 183.407 288.291 188.748L253.366 209.374Z" fill="#D0F4FB"/>
<path d="M255.162 131.46C264.494 117.089 278.509 106.423 294.808 101.286L306.94 140.108C299.606 142.42 293.299 147.22 289.1 153.687L255.162 131.46Z" fill="white"/>
<path d="M294.808 101.286C301.947 99.0358 309.385 97.8911 316.867 97.8911L316.867 138.581C313.5 138.581 310.153 139.096 306.94 140.108L294.808 101.286Z" fill="white"/>
<defs>
<filter id="filter0_dd" x="0" y="0" width="632" height="342" filterUnits="userSpaceOnUse" color-interpolation-filters="sRGB">
<feFlood flood-opacity="0" result="BackgroundImageFix"/>
<feColorMatrix in="SourceAlpha" type="matrix" values="0 0 0 0 0 0 0 0 0 0 0 0 0 0 0 0 0 0 127 0" result="hardAlpha"/>
<feOffset/>
<feGaussianBlur stdDeviation="15"/>
<feColorMatrix type="matrix" values="0 0 0 0 0 0 0 0 0 0 0 0 0 0 0 0 0 0 0.1 0"/>
<feBlend mode="normal" in2="BackgroundImageFix" result="effect1_dropShadow"/>
<feColorMatrix in="SourceAlpha" type="matrix" values="0 0 0 0 0 0 0 0 0 0 0 0 0 0 0 0 0 0 127 0" result="hardAlpha"/>
<feOffset dy="5"/>
<feGaussianBlur stdDeviation="2.5"/>
<feColorMatrix type="matrix" values="0 0 0 0 0 0 0 0 0 0 0 0 0 0 0 0 0 0 0.05 0"/>
<feBlend mode="normal" in2="effect1_dropShadow" result="effect2_dropShadow"/>
<feBlend mode="normal" in="SourceGraphic" in2="effect2_dropShadow" result="shape"/>
</filter>
</defs>
</svg>
