<svg width="61" height="42" viewBox="0 0 61 42" fill="none" xmlns="http://www.w3.org/2000/svg">
<path d="M2.4522 25.4407H1.83915C1.62458 25.4713 1.53274 25.502 1.53274 25.7472C1.53274 28.6592 1.53274 31.5712 1.53274 34.4832C1.53274 35.2188 1.59393 35.648 2.14567 36.0158C2.48285 36.2304 2.97329 36.4756 3.37177 36.4756C8.33092 36.4756 19.6176 36.4756 19.6176 36.4756C19.6176 36.4756 19.631 38.0867 19.6176 38.3147C19.1271 38.3454 18.5754 38.3147 18.085 38.3147C12.9966 38.3147 2.8508 38.1921 2.8508 38.1921C1.39348 38.1921 0 36.6168 0 35.0962C0 30.5597 0 25.9924 0 21.4559C0 20.4443 0.214687 19.4328 1.07296 18.8811C1.50588 18.6213 2.23197 18.3906 2.75872 18.3906C9.88031 18.3906 16.7874 18.4287 23.9089 18.3906C25.7745 18.3906 26.9742 19.5992 26.9742 21.4559C26.9742 23.6016 26.9742 25.7472 26.9742 27.8929H25.7481C25.7481 27.2384 25.7481 26.7086 25.7481 26.0538C25.7481 25.7779 25.5643 25.5633 25.3191 25.5633C17.6867 25.5633 10.0847 25.4407 2.4522 25.4407ZM25.7481 22.3755C25.7481 22.3755 25.7481 21.8544 25.7481 21.7624C25.7481 20.7522 25.0664 19.9232 23.9089 19.9232C16.8589 19.9232 9.80879 19.9232 2.75872 19.9232C1.99241 19.9232 1.31818 21.18 1.50209 21.9157C1.53274 22.0383 1.68601 22.1609 1.80862 22.1915C1.96188 22.2528 2.17644 22.1915 2.32971 22.1915C9.7983 22.2523 18.2793 22.3755 25.7481 22.3755Z" fill="white"/>
<path fill-rule="evenodd" clip-rule="evenodd" d="M48.1241 10.2946C48.1241 6.88963 46.4876 4.20294 43.3598 4.20294C40.2187 4.20294 38.3183 6.88963 38.3183 10.268C38.3183 14.2714 40.5619 16.2931 43.7821 16.2931C45.3526 16.2931 46.5404 15.934 47.4378 15.4285V12.7684C46.5404 13.2207 45.511 13.5 44.2044 13.5C42.9243 13.5 41.7893 13.0478 41.6441 11.4783H48.0977C48.0977 11.3054 48.1241 10.6138 48.1241 10.2946ZM41.6045 9.03101C41.6045 7.52805 42.5151 6.90293 43.3466 6.90293C44.1516 6.90293 45.0095 7.52805 45.0095 9.03101H41.6045Z" fill="#5458DE"/>
<path fill-rule="evenodd" clip-rule="evenodd" d="M33.224 4.20294C31.9307 4.20294 31.0992 4.81476 30.6373 5.24037L30.4657 4.41574H27.5623V19.9241L30.8617 19.2192L30.8748 15.4551C31.35 15.801 32.0494 16.2931 33.2108 16.2931C35.5732 16.2931 37.7244 14.3778 37.7244 10.1616C37.7112 6.30441 35.5336 4.20294 33.224 4.20294ZM32.4322 13.367C31.6535 13.367 31.1916 13.0877 30.8748 12.7418L30.8617 7.80736C31.2048 7.42165 31.6799 7.15564 32.4322 7.15564C33.6331 7.15564 34.4646 8.51229 34.4646 10.2547C34.4646 12.0369 33.6463 13.367 32.4322 13.367Z" fill="#5458DE"/>
<path fill-rule="evenodd" clip-rule="evenodd" d="M23.0223 3.41822L26.3349 2.7V0L23.0223 0.704925V3.41822Z" fill="#5458DE"/>
<path d="M26.3349 4.42909H23.0223V16.067H26.3349V4.42909Z" fill="#5458DE"/>
<path fill-rule="evenodd" clip-rule="evenodd" d="M19.4721 5.41333L19.261 4.4291H16.4103V16.067H19.7097V8.17983C20.4883 7.1557 21.8081 7.3419 22.2172 7.48821V4.4291C21.7949 4.26949 20.2508 3.97688 19.4721 5.41333Z" fill="#5458DE"/>
<path fill-rule="evenodd" clip-rule="evenodd" d="M12.8733 1.54284L9.65308 2.23446L9.63988 12.8881C9.63988 14.8566 11.1048 16.3064 13.0581 16.3064C14.1403 16.3064 14.9321 16.1069 15.3676 15.8675V13.1675C14.9453 13.3404 12.8601 13.9522 12.8601 11.9837V7.26205H15.3676V4.42904H12.8601L12.8733 1.54284Z" fill="#5458DE"/>
<path fill-rule="evenodd" clip-rule="evenodd" d="M3.95179 7.80737C3.95179 7.28865 4.37411 7.08914 5.07358 7.08914C6.0766 7.08914 7.34357 7.39505 8.34658 7.94037V4.81476C7.25118 4.37584 6.16898 4.20294 5.07358 4.20294C2.39447 4.20294 0.612793 5.61279 0.612793 7.96697C0.612793 11.6379 5.62788 11.0527 5.62788 12.6354C5.62788 13.2473 5.09998 13.4468 4.36091 13.4468C3.26551 13.4468 1.86656 12.9946 0.757966 12.3827V15.5482C1.98534 16.0803 3.22592 16.3064 4.36091 16.3064C7.10601 16.3064 8.99327 14.9364 8.99327 12.5556C8.98007 8.59209 3.95179 9.29702 3.95179 7.80737Z" fill="#5458DE"/>
<path d="M30.085 22.4219C30.8003 22.4219 31.3214 22.5624 31.6483 22.8433C31.9753 23.1243 32.1388 23.5203 32.1388 24.0311C32.1388 24.3325 32.0698 24.6161 31.9319 24.8817C31.799 25.1423 31.5717 25.3543 31.2498 25.5178C30.9331 25.6813 30.5014 25.763 29.9548 25.763H29.3264V27.8933H28.6367V22.4219H30.085ZM30.0237 23.0119H29.3264V25.1729H29.8781C30.3992 25.1729 30.7875 25.0886 31.0429 24.9201C31.2984 24.7515 31.4261 24.4654 31.4261 24.0618C31.4261 23.7093 31.3137 23.4462 31.0889 23.2725C30.8641 23.0988 30.5091 23.0119 30.0237 23.0119Z" fill="white"/>
<path d="M34.8168 23.7169C35.3174 23.7169 35.6878 23.8268 35.9279 24.0465C36.168 24.2661 36.2881 24.6161 36.2881 25.0963V27.8933H35.7977L35.6674 27.3109H35.6367C35.4579 27.5357 35.2689 27.7018 35.0697 27.809C34.8755 27.9163 34.6048 27.97 34.2574 27.97C33.8844 27.97 33.5754 27.8729 33.3301 27.6788C33.0849 27.4795 32.9623 27.1705 32.9623 26.7515C32.9623 26.3428 33.1232 26.0286 33.4451 25.809C33.7669 25.5842 34.2625 25.4616 34.9317 25.4411L35.6291 25.4182V25.1729C35.6291 24.8306 35.555 24.5931 35.4068 24.4603C35.2587 24.3274 35.0492 24.261 34.7785 24.261C34.5639 24.261 34.3596 24.2942 34.1654 24.3606C33.9713 24.4219 33.7899 24.4935 33.6213 24.5752L33.4144 24.0694C33.5932 23.9724 33.8053 23.8906 34.0505 23.8242C34.2957 23.7527 34.5511 23.7169 34.8168 23.7169ZM35.6214 25.8856L35.016 25.9086C34.5051 25.929 34.1501 26.0108 33.9509 26.1538C33.7567 26.2969 33.6597 26.4987 33.6597 26.7592C33.6597 26.9891 33.7286 27.1577 33.8666 27.265C34.0096 27.3722 34.191 27.4259 34.4106 27.4259C34.758 27.4259 35.0467 27.3314 35.2766 27.1424C35.5065 26.9482 35.6214 26.6519 35.6214 26.2534V25.8856Z" fill="white"/>
<path d="M36.9896 23.7859H37.71L38.5989 26.1232C38.6755 26.3275 38.7445 26.5242 38.8058 26.7132C38.8671 26.8971 38.9131 27.0734 38.9437 27.242H38.9744C39.005 27.1143 39.0536 26.9482 39.12 26.7439C39.1864 26.5344 39.2554 26.325 39.3269 26.1155L40.1622 23.7859H40.8902L39.12 28.4604C38.9769 28.8487 38.7905 29.1578 38.5606 29.3876C38.3358 29.6175 38.0242 29.7325 37.6257 29.7325C37.5031 29.7325 37.3958 29.7248 37.3038 29.7095C37.2119 29.6993 37.1327 29.6865 37.0663 29.6712V29.1348C37.1225 29.145 37.1889 29.1552 37.2655 29.1654C37.3472 29.1756 37.4315 29.1807 37.5184 29.1807C37.7534 29.1807 37.9424 29.1143 38.0855 28.9815C38.2336 28.8487 38.3486 28.6724 38.4303 28.4527L38.6449 27.9087L36.9896 23.7859Z" fill="white"/>
<path d="M46.1223 23.7093C46.5872 23.7093 46.9346 23.8293 47.1645 24.0694C47.3944 24.3044 47.5093 24.6876 47.5093 25.2189V27.8933H46.8426V25.2496C46.8426 24.6008 46.5642 24.2763 46.0073 24.2763C45.6088 24.2763 45.3228 24.3913 45.1491 24.6212C44.9805 24.8511 44.8962 25.1857 44.8962 25.6251V27.8933H44.2295V25.2496C44.2295 24.6008 43.9485 24.2763 43.3865 24.2763C42.9727 24.2763 42.6866 24.4041 42.5283 24.6595C42.3699 24.9149 42.2907 25.2828 42.2907 25.763V27.8933H41.6164V23.7859H42.1604L42.2601 24.3453H42.2984C42.4261 24.1308 42.5972 23.9724 42.8118 23.8702C43.0315 23.7629 43.2639 23.7093 43.5092 23.7093C44.1529 23.7093 44.5718 23.9392 44.7659 24.399H44.8042C44.9422 24.164 45.1286 23.9903 45.3636 23.8779C45.6037 23.7655 45.8566 23.7093 46.1223 23.7093Z" fill="white"/>
<path d="M50.441 23.7093C50.7935 23.7093 51.0949 23.7859 51.3452 23.9392C51.6007 24.0924 51.7948 24.3096 51.9276 24.5905C52.0656 24.8664 52.1345 25.1908 52.1345 25.5638V25.9699H49.3222C49.3324 26.4348 49.4499 26.7899 49.6747 27.0351C49.9046 27.2752 50.2239 27.3952 50.6326 27.3952C50.8931 27.3952 51.123 27.3722 51.3222 27.3263C51.5266 27.2752 51.736 27.2037 51.9506 27.1117V27.7018C51.7412 27.7937 51.5343 27.8601 51.3299 27.901C51.1256 27.947 50.8829 27.97 50.6019 27.97C50.2136 27.97 49.8688 27.8908 49.5674 27.7324C49.2711 27.574 49.0386 27.339 48.87 27.0274C48.7066 26.7107 48.6248 26.325 48.6248 25.8703C48.6248 25.4207 48.6989 25.035 48.8471 24.7131C49.0003 24.3913 49.2123 24.1435 49.4831 23.9698C49.759 23.7961 50.0783 23.7093 50.441 23.7093ZM50.4333 24.261C50.1115 24.261 49.856 24.3658 49.667 24.5752C49.4831 24.7796 49.3733 25.0657 49.3375 25.4335H51.4295C51.4244 25.0861 51.3427 24.8051 51.1843 24.5905C51.0259 24.3709 50.7756 24.261 50.4333 24.261Z" fill="white"/>
<path d="M55.2339 23.7093C55.7243 23.7093 56.0947 23.8293 56.3451 24.0694C56.5954 24.3044 56.7205 24.6876 56.7205 25.2189V27.8933H56.0539V25.2649C56.0539 24.6059 55.7473 24.2763 55.1343 24.2763C54.6796 24.2763 54.3654 24.4041 54.1917 24.6595C54.018 24.9149 53.9312 25.2828 53.9312 25.763V27.8933H53.2568V23.7859H53.8009L53.9005 24.3453H53.9388C54.0717 24.1308 54.2556 23.9724 54.4906 23.8702C54.7256 23.7629 54.9734 23.7093 55.2339 23.7093Z" fill="white"/>
<path d="M59.4422 27.4182C59.5444 27.4182 59.6491 27.4106 59.7564 27.3952C59.8637 27.3748 59.9505 27.3544 60.0169 27.3339V27.8474C59.9454 27.8831 59.8432 27.9112 59.7104 27.9317C59.5776 27.9572 59.4499 27.97 59.3273 27.97C59.1127 27.97 58.9135 27.9342 58.7295 27.8627C58.5507 27.7861 58.4051 27.6558 58.2927 27.4719C58.1804 27.288 58.1242 27.03 58.1242 26.6979V24.307H57.5418V23.9852L58.1318 23.7169L58.4 22.8433H58.7985V23.7859H59.9863V24.307H58.7985V26.6826C58.7985 26.9329 58.8573 27.1194 58.9748 27.242C59.0974 27.3595 59.2532 27.4182 59.4422 27.4182Z" fill="white"/>
<path fill-rule="evenodd" clip-rule="evenodd" d="M24.8281 30.8061C24.2356 30.8061 23.7553 31.2864 23.7553 31.8789V34.6376H27.7401V31.8789C27.7401 31.2864 27.2598 30.8061 26.6673 30.8061H24.8281ZM22.2227 31.8789V34.6376L22.0694 34.6376C21.3922 34.6376 20.8433 35.1865 20.8433 35.8637V39.8485C20.8433 40.5257 21.3922 41.0746 22.0694 41.0746H29.426C30.1031 41.0746 30.652 40.5257 30.652 39.8485V35.8637C30.652 35.1865 30.1031 34.6376 29.426 34.6376L29.2727 34.6376V31.8789C29.2727 30.4399 28.1062 29.2734 26.6673 29.2734H24.8281C23.3892 29.2734 22.2227 30.4399 22.2227 31.8789ZM26.9742 37.3964C26.9742 37.8501 26.7277 38.2463 26.3614 38.4583V39.236C26.3614 39.5746 26.0869 39.849 25.7483 39.849C25.4097 39.849 25.1353 39.5746 25.1353 39.236V38.4586C24.7686 38.2466 24.522 37.8503 24.522 37.3964C24.522 36.7192 25.0709 36.1703 25.7481 36.1703C26.4252 36.1703 26.9742 36.7192 26.9742 37.3964Z" fill="#EC5E1A"/>
<path fill-rule="evenodd" clip-rule="evenodd" d="M7.96899 34.0202C8.53164 33.5423 8.88865 32.8296 8.88865 32.0335C8.88865 31.2375 8.53164 30.5248 7.96899 30.0469C7.40633 30.5248 7.04932 31.2375 7.04932 32.0335C7.04932 32.8296 7.40633 33.5423 7.96899 34.0202Z" fill="#798486"/>
<path fill-rule="evenodd" clip-rule="evenodd" d="M8.88914 32.0314C8.88909 31.2354 8.53209 30.5228 7.96947 30.0449C7.40682 30.5228 7.0498 31.2355 7.0498 32.0316C7.0498 32.8275 7.40674 33.5402 7.96928 34.0181C7.51491 34.4039 6.92648 34.6367 6.28368 34.6367C4.84473 34.6367 3.67822 33.4702 3.67822 32.0312C3.67822 30.5923 4.84473 29.4258 6.28368 29.4258C7.72264 29.4258 8.88914 30.5923 8.88914 32.0312C8.88914 32.0313 8.88914 32.0314 8.88914 32.0314Z" fill="#C9CECF"/>
<path fill-rule="evenodd" clip-rule="evenodd" d="M9.65575 34.6367C11.0947 34.6367 12.2612 33.4702 12.2612 32.0312C12.2612 30.5923 11.0947 29.4258 9.65575 29.4258C8.2168 29.4258 7.05029 30.5923 7.05029 32.0312C7.05029 33.4702 8.2168 34.6367 9.65575 34.6367ZM8.89061 32.0317C8.89061 32.8278 8.53359 33.5405 7.97094 34.0184C7.40829 33.5405 7.05127 32.8278 7.05127 32.0317C7.05127 31.2357 7.40829 30.523 7.97094 30.0451C8.53359 30.523 8.89061 31.2357 8.89061 32.0317Z" fill="white"/>
</svg>
