<?xml version="1.0" encoding="UTF-8"?>
<svg width="24px" height="24px" viewBox="0 0 24 24" version="1.1" xmlns="http://www.w3.org/2000/svg" xmlns:xlink="http://www.w3.org/1999/xlink">
    <title>45EA8985-3E37-4562-BF08-13316DAC6FA4</title>
    <g id="ðŸžï¸-UI-(Web)" stroke="none" stroke-width="1" fill="none" fill-rule="evenodd">
        <g id="Homepage" transform="translate(-387.000000, -5501.000000)">
            <g id="Footer" transform="translate(0.000000, 5389.000000)">
                <g id="Social" transform="translate(333.000000, 112.000000)" fill="#FFFFFF">
                    <g id="twitter" transform="translate(54.000000, 0.000000)">
                        <path d="M24,5.20177563 C23.1179173,5.59241324 22.1623277,5.84100081 21.1699847,5.94753834 C22.1990812,5.34382567 22.9709035,4.4205004 23.338438,3.31961259 C22.3828484,3.85230024 21.3169985,4.27845036 20.2143951,4.49152542 C19.3323124,3.56820016 18.0459418,3 16.6125574,3 C13.8928025,3 11.6875957,5.13075061 11.6875957,7.75867635 C11.6875957,8.14931396 11.7243492,8.50443906 11.797856,8.85956416 C7.71822358,8.6464891 4.07963247,6.76432607 1.65390505,3.88781275 C1.21286371,4.59806295 0.992343032,5.41485069 0.992343032,6.26715093 C0.992343032,7.9362389 1.87442573,9.39225182 3.19754977,10.2445521 C2.38897397,10.2090395 1.61715161,9.99596449 0.955589587,9.64083939 C0.955589587,9.6763519 0.955589587,9.6763519 0.955589587,9.71186441 C0.955589587,12.0201776 2.64624809,13.9378531 4.92496172,14.3640032 C4.52067381,14.4705408 4.07963247,14.5415658 3.63859112,14.5415658 C3.30781011,14.5415658 3.01378254,14.5060533 2.71975498,14.4705408 C3.34456355,16.3527038 5.18223583,17.7376917 7.31393568,17.7732042 C5.62327718,19.0516546 3.49157734,19.7974173 1.17611026,19.7974173 C0.771822358,19.7974173 0.404287902,19.7619048 0,19.7263923 C2.16845329,21.0758676 4.77794793,21.8571429 7.5712098,21.8571429 C16.6493109,21.8571429 21.611026,14.6125908 21.611026,8.291364 C21.611026,8.07828894 21.611026,7.86521388 21.611026,7.68765133 C22.4931087,7.01291364 23.338438,6.1606134 24,5.20177563 L24,5.20177563 Z"></path>
                    </g>
                </g>
            </g>
        </g>
    </g>
</svg>