<svg width="329" height="391" viewBox="0 0 329 391" fill="none" xmlns="http://www.w3.org/2000/svg">
<path d="M306.348 23.5402C299.126 23.5402 294.727 22.5627 287.885 20.282C285.007 19.3046 284.246 18.9245 281.531 19.4675C278.762 20.0105 275.015 22.5627 272.734 21.2595C271.756 20.7165 271.322 19.3046 270.29 18.7615C269.096 18.1642 267.032 18.2185 265.729 18.0013C262.199 17.404 259.484 17.7298 257.203 15.2319C254.27 12.0823 256.171 12.0823 252.37 12.4624C248.188 12.8968 243.681 14.6345 239.608 15.6663C237.545 16.155 235.155 16.4265 233.2 17.2954C231.789 17.8927 230.702 19.4132 229.236 19.9019C226.63 20.8251 228.802 20.3906 225.978 19.5761C224.566 19.1417 223.643 19.0874 223.046 19.3589C221.579 20.0648 220.385 22.0197 219.081 22.9429C216.801 24.572 214.303 25.0607 211.533 25.9295C208.818 26.7441 204.582 29.0791 201.758 28.9162C199.532 28.8076 196.328 26.2553 194.319 25.2779C191.875 24.0289 190.354 22.8886 187.911 23.1058C185.739 23.2687 180.905 25.2236 179.113 26.6355C177.104 28.1559 172.868 33.4233 172.108 35.7584C171.891 36.4643 171.728 39.6682 172.162 40.2112C172.923 41.1343 174.986 40.0483 176.181 40.537C180.308 42.329 174.28 45.0985 172.38 46.5103C170.37 47.9765 168.415 49.5513 166.461 51.1261C165.537 51.8863 165.429 53.2439 166.243 54.1127C167.275 55.1988 168.035 56.4478 166.841 57.8596C165.755 59.0543 162.659 57.6967 161.682 58.7828C159.727 60.9549 160.759 63.9416 163.039 64.6475C164.668 65.1362 167.166 64.919 168.524 63.7786C171.837 61.0635 172.597 53.5154 178.027 58.1311C178.516 58.5656 182.317 64.2674 183.023 61.3893C183.241 60.5748 181.286 58.4027 180.091 56.9908C179.656 56.5021 180.2 55.7961 180.797 56.0676C182.643 56.9908 184.707 60.4119 186.119 62.6926C186.716 63.6157 188.128 63.3985 188.345 62.3125C188.508 61.6065 188.508 61.0635 190.083 60.6834C190.789 60.5205 191.549 62.3125 192.635 60.8463C192.907 60.5205 191.929 58.4027 191.984 57.8596C192.255 53.4611 197.794 55.959 201.378 57.208C202.247 57.5338 202.627 58.5113 202.138 59.3258C201.161 61.0092 199.695 60.5748 196.871 61.0092C194.699 61.335 193.667 61.878 192.309 62.9098C191.44 63.6157 191.712 65.0819 192.852 65.2991C193.993 65.5706 195.133 65.3534 196.382 65.0819C197.305 64.919 198.066 65.6793 197.957 66.6024C197.523 69.1546 197.034 71.1095 193.776 71.0552C191.332 71.0552 186.988 67.5256 185.576 69.752C185.087 70.5665 184.109 70.8923 183.241 70.5122C181.611 69.8606 179.874 69.1546 178.679 68.1772C177.484 67.1454 177.213 66.8196 177.104 65.8422C176.941 64.8647 176.018 64.2674 175.041 64.4846L169.23 65.9508C167.112 66.4938 163.202 66.6024 161.519 67.96C159.564 69.4805 158.152 73.4446 156.849 75.5624C155.22 78.2232 155.22 78.8206 155.328 82.0244C155.382 83.9793 154.948 86.8031 155.926 88.4322C157.012 90.2242 161.627 94.6227 163.582 95.3829C167.438 96.8491 174.009 91.3102 177.81 95.6545C178.896 96.9034 177.973 100.162 178.353 101.845C178.896 104.234 181.014 106.461 181.286 108.904C181.557 111.457 179.928 114.335 180.308 116.833C180.688 119.113 182.535 121.774 183.512 123.892C184.327 125.63 185.576 130.843 187.15 131.929C187.802 132.363 193.395 132.472 194.21 132.037C195.893 131.169 197.577 126.498 198.554 124.869C200.292 121.991 199.858 121.503 200.455 118.462C200.944 116.072 203.659 114.769 204.148 112.543C204.636 109.99 201.758 106.461 202.573 104.017C203.55 101.085 208.112 98.9669 209.741 96.2518C210.718 94.5684 211.207 92.4506 211.642 90.4414C211.859 89.4096 210.881 88.5951 209.904 88.9209C208.329 89.5182 206.483 90.1699 205.56 89.8983C204.311 89.5725 203.442 87.1832 202.736 85.8799C200.727 82.2959 195.676 77.2458 198.12 73.2817C199.26 75.2366 200.346 77.1915 201.487 79.1464C202.301 80.6125 204.365 86.2057 205.885 86.8031C207.623 87.509 213.216 84.1965 216.529 82.2959C217.507 81.7529 217.832 80.4496 217.181 79.5265C216.746 78.9292 216.258 78.3318 215.769 77.9517C214.465 77.0829 214.303 77.7888 212.782 77.1372C210.501 76.1597 209.795 74.0962 208.383 71.6526C210.501 70.7837 210.393 73.0645 211.859 73.9333C212.619 74.3677 214.411 74.422 215.226 74.5849C217.832 75.0737 222.014 75.0737 224.295 76.4312C228.639 78.9835 230.54 84.8482 232.223 89.7354C232.549 90.7129 233.961 90.7129 234.287 89.6811C234.938 87.6719 235.59 85.5541 236.73 84.0336C238.088 82.2416 240.586 80.7212 242.649 79.255C243.41 78.7119 244.441 78.8749 245.039 79.5808C247.157 82.2416 250.089 85.3369 251.012 88.215C251.501 89.7897 251.067 91.4188 251.664 92.9936C252.37 94.7313 253.782 96.469 254.922 98.0981C255.465 98.8583 256.768 98.3696 256.606 97.4464C256.388 96.2518 254.651 94.8399 253.89 93.8082C252.641 92.0705 252.37 91.4188 252.478 90.007C252.533 89.1924 253.456 88.8123 254.053 89.3553L255.194 90.4414C255.954 91.1473 257.203 91.093 257.855 90.2242C258.723 89.1381 259.647 87.8348 259.647 87.1832C259.647 85.717 257.149 84.4138 256.931 82.8933C256.497 79.5265 262.145 79.7437 264.534 78.4947C266.109 77.6259 270.073 73.4989 270.182 71.5983C270.29 69.9692 267.629 68.1772 267.629 66.5481C267.629 65.7879 268.172 64.7561 268.715 63.833C269.204 62.9641 270.453 62.9098 270.996 63.7243C271.919 64.9733 272.897 66.2223 274.2 66.4938C275.015 66.6567 275.612 65.7336 275.232 65.0276L274.254 63.3442C273.82 62.584 274.091 61.6608 274.797 61.2264C278.327 59.1629 281.205 57.3166 282.943 53.0267C283.649 51.2347 283.812 49.5513 283.378 47.4335C282.997 45.4786 282.943 45.0985 282.02 45.0985C281.151 45.0442 280.662 44.0667 281.26 43.4151C282.291 42.2204 283.378 40.9171 284.518 40.2655C286.201 39.288 288.699 39.5053 290.654 39.1251C293.044 38.6907 293.641 38.1477 295.813 37.0073C297.388 36.1385 298.42 35.9213 299.832 35.867C300.538 35.8127 300.863 36.6815 300.375 37.1159C298.528 38.745 296.139 40.7542 295.542 42.5462C295.107 43.7409 295.705 45.5872 296.248 47.2163C296.519 48.0308 297.605 48.1937 298.094 47.5421C299.071 46.2931 300.049 44.9898 300.483 43.7409C301.081 41.9489 300.592 40.6456 301.678 39.1794C304.393 35.3782 308.738 38.4192 312.159 34.7809C313.625 33.2061 312.539 32.3373 313.516 31.034C314.222 30.0565 317.155 29.7307 318.241 29.785C320.087 29.8936 322.965 32.2287 324.703 31.7942C325.681 31.5227 326.875 30.2738 327.961 29.0791C328.559 28.3732 328.178 27.2871 327.31 27.1242L306.348 23.5402ZM210.447 64.6475C209.578 64.6475 208.926 63.8873 209.035 63.0727C209.144 62.3125 209.198 61.4979 209.089 60.8463C208.872 59.7602 207.46 58.8914 207.297 57.8596C207.026 56.2305 208.438 55.3617 210.121 54.3842C210.827 53.9498 211.75 54.3842 211.859 55.1445L213.379 63.0727C213.542 63.8873 212.891 64.6475 212.076 64.6475H210.447ZM286.636 58.0768L285.604 58.5656C285.17 58.7828 284.626 58.4027 284.735 57.9139L284.898 56.8279C284.952 56.3935 285.495 56.1219 285.876 56.3935L286.744 56.9908C287.125 57.2623 287.07 57.9139 286.636 58.0768ZM283.703 60.9006C284.029 60.7377 284.464 60.6834 284.844 60.5748C285.224 60.5205 285.55 60.792 285.495 61.1721C285.332 63.2356 285.332 65.2991 284.029 66.6024C282.509 68.1229 279.196 68.9374 276.861 69.8606C276.372 70.0235 275.829 69.6977 275.829 69.2089C275.666 67.1997 277.676 66.9825 279.576 66.0051C282.291 64.5932 282.4 64.1045 283.486 61.2807C283.432 61.0635 283.54 60.9549 283.703 60.9006ZM257.149 103.583L257.04 103.691C256.443 104.452 255.302 104.452 254.651 103.691L248.134 95.6545C247.591 95.0028 248.297 93.9711 249.112 94.3512C251.881 95.4915 254.976 99.1841 257.04 101.411C257.637 101.954 257.692 102.931 257.149 103.583ZM264.643 107.492L258.778 106.678C257.8 106.515 257.692 105.157 258.615 104.886C260.461 104.343 263.339 104.886 265.131 105.972C265.946 106.461 265.511 107.601 264.643 107.492ZM267.303 93.3737C267.955 93.6452 268.172 94.4055 267.792 95.0028C266.489 97.2292 269.258 100.705 265.837 102.877C263.448 104.397 261.493 101.954 260.244 99.8358C259.809 99.1298 260.19 98.261 260.95 97.9895C262.633 97.3921 263.991 95.4915 265.186 93.9711C265.674 93.2651 266.543 93.0479 267.303 93.3737ZM269.367 82.4588C271.431 83.2191 271.431 83.5992 270.833 85.4998C270.453 86.6402 268.77 86.6945 268.444 85.4998C268.227 84.8482 268.227 84.0336 268.281 83.2191C268.227 82.6761 268.77 82.2416 269.367 82.4588ZM271.105 91.9619L272.354 91.3102C272.951 90.9844 273.766 91.2559 274.037 91.9075C274.635 93.2108 275.069 94.677 273.168 94.8942C272.245 95.0028 272.028 93.5366 271.105 92.9936C270.725 92.7221 270.725 92.1791 271.105 91.9619ZM269.258 97.8266L271.376 96.7948C271.865 96.5233 272.517 97.012 272.299 97.5551C271.865 98.7497 269.367 98.2067 269.801 100.379C270.29 100.107 270.942 100.053 271.485 99.8901C271.865 99.7815 272.137 100.216 271.919 100.487C271.756 100.759 271.431 100.976 270.779 101.248L273.223 103.746C271.811 105.049 271.159 104.071 270.453 102.877C270.344 102.66 270.019 102.768 270.019 102.985C270.019 103.203 270.019 103.42 270.019 103.637C270.019 104.234 269.258 104.56 268.878 104.18C267.738 103.094 268.607 99.7272 268.987 98.261C268.987 98.0981 269.096 97.9352 269.258 97.8266ZM277.513 99.6186C280.608 99.6186 280.499 99.6729 281.748 102.497C283.486 99.7272 286.31 100.542 289.025 102.062C291.958 103.691 291.632 106.949 294.456 108.416C292.501 109.013 291.034 107.927 290.274 106.189C288.156 110.751 285.332 105.157 283.758 104.18C282.78 103.528 281.26 103.854 280.336 103.365C279.522 102.931 277.404 100.487 277.513 99.6186ZM294.347 118.244C296.573 121.828 297.714 126.01 297.334 130.191C297.171 132.092 296.682 133.938 295.65 135.133C294.13 136.87 290.926 137.631 288.862 136.599C287.016 135.676 286.419 133.666 285.55 131.657C285.441 131.386 285.17 131.277 284.898 131.386C283.215 132.255 280.554 129.431 278.382 129.539C275.503 129.702 272.137 131.386 269.204 132.472C268.661 132.689 268.009 132.363 267.792 131.82C266.652 128.725 263.991 122.752 264.697 120.742C265.077 119.656 266.706 119.439 268.064 118.95C270.616 117.973 270.507 117.919 271.974 116.235C273.168 114.823 273.44 113.411 275.503 112.271C276.264 111.837 276.264 113.031 277.024 112.597C277.784 112.163 278.219 110.914 279.033 110.642C280.445 110.099 281.857 111.076 282.617 111.62C282.563 111.62 283.323 113.411 283.758 113.737C284.192 114.117 285.061 114.389 285.821 114.606C286.31 114.769 286.799 114.443 286.962 113.955C287.342 112.325 288.048 109.339 288.319 109.339C288.591 109.122 291.958 114.389 294.347 118.244ZM291.849 139.205H294.13C294.401 139.205 294.564 139.477 294.456 139.748L293.424 141.758C293.315 142.029 292.935 142.029 292.772 141.758L291.523 139.748C291.36 139.477 291.577 139.205 291.849 139.205ZM314.44 139.205H315.526C315.689 139.205 315.851 139.423 315.743 139.585L312.973 145.342C312.81 145.667 312.376 145.83 312.05 145.613L309.715 144.364C309.335 144.147 309.226 143.604 309.552 143.278L313.516 139.531C313.842 139.314 314.168 139.205 314.44 139.205ZM318.241 135.567H319.273C319.49 135.567 319.653 135.839 319.49 136.001C319.001 136.653 318.078 137.794 317.372 138.662C317.209 138.88 316.829 138.771 316.775 138.499L315.797 133.395C315.743 133.069 316.177 132.906 316.34 133.178L317.535 135.133C317.698 135.404 317.969 135.567 318.241 135.567ZM96.4081 100.107C101.241 101.465 114.111 102.388 107.975 109.284C106.943 110.479 105.966 110.696 105.586 112.054C104.988 114.117 106.617 117.158 105.803 119.168C104.662 121.883 99.6663 121.448 97.6028 123.62C96.0823 125.304 97.2227 127.965 96.028 130.028C94.1816 133.286 89.6201 135.241 87.2307 138.228C85.5472 140.346 82.5062 144.636 81.9632 147.242C81.583 149.089 82.3976 151.804 83.1036 154.139C83.4294 155.17 82.3433 156.094 81.3658 155.605C79.791 154.845 78.2162 153.921 77.5102 152.835C76.4241 151.152 76.1526 147.459 76.0983 145.505C75.9354 138.282 77.7817 130.517 78.5963 123.349C78.8135 121.611 79.8453 118.299 79.3566 116.561C78.6506 114.172 74.8493 111.185 73.2745 109.339C71.9169 107.71 69.8533 106.135 69.6904 104.18C69.5275 101.682 73.2202 96.6862 71.6454 94.1883C70.8851 92.9393 66.4322 93.4823 65.0746 91.9619C64.26 91.0387 65.3461 89.1381 64.6944 88.1607C64.0971 87.1832 61.1103 86.0971 60.0786 85.6627C55.2998 83.5449 51.3356 83.8164 47.9687 79.6894C45.5793 76.757 43.1357 73.8247 40.7463 70.8923C38.8456 68.5573 35.2072 65.5163 34.0125 62.6926C33.2523 60.792 33.9582 59.3801 34.447 57.0994C35.3701 53.1896 35.9132 53.1353 33.6867 50.3115C28.745 44.121 23.749 39.5596 15.6034 38.3106C14.0829 38.0934 14.3544 37.8219 12.9968 38.202C11.3677 38.6907 9.62995 41.4602 7.94652 41.5688C6.20878 41.6774 3.33066 39.6682 1.15849 38.2563C0.343927 37.7133 0.12671 36.5729 0.77836 35.8127C2.13597 34.1293 3.98231 31.8485 3.928 30.7625C3.8737 29.5678 1.70153 27.3414 0.289623 25.8752C-0.144811 25.3865 -0.090507 24.6263 0.452535 24.2461C3.22205 22.1826 4.95979 20.5535 8.59817 20.988C12.7796 21.4767 16.6895 21.9111 20.4365 23.6488C24.6179 25.6037 26.5186 22.5628 30.8086 22.78C34.5556 22.9972 38.2483 27.0156 41.941 27.8301C44.982 28.4818 51.1184 28.2103 54.1051 27.45C58.1779 26.4183 60.8388 24.0289 65.509 24.6806C67.3553 24.9521 68.8215 24.3547 68.4414 27.5043C68.2242 29.3506 67.2467 29.4592 65.2375 30.6539C61.6534 32.826 60.4044 34.9981 58.4494 38.4192C58.1236 39.0165 58.2865 39.7225 58.8839 40.1026C62.0335 42.1118 66.8123 45.7501 69.6904 45.37C75.7182 44.5554 72.7315 39.2337 71.1566 35.4325C70.9937 34.9981 71.3738 34.5094 71.8083 34.6723C75.5553 35.5954 76.75 36.5186 79.6281 39.3966C79.9539 39.7225 80.4426 39.6682 80.7142 39.3966C82.3433 37.6047 81.7459 37.9305 83.8638 39.1794C85.6015 40.2112 87.828 42.6005 89.077 44.1753C91.0863 46.7275 92.4982 49.9314 93.3671 53.0267C93.4757 53.4068 93.1498 53.7326 92.7697 53.6783L82.9406 51.6691C82.6148 51.6148 82.3433 51.9406 82.5062 52.2121C83.1036 53.2439 83.9724 54.7644 83.9724 55.4703C83.9181 56.7193 82.5605 57.3709 82.4519 57.4252C79.9539 58.6742 75.9897 59.5973 74.4692 61.7694C73.003 63.833 73.8175 66.8196 72.0798 69.1546C69.3646 72.8472 68.8215 72.5214 64.5315 71.7069C62.1964 71.2725 58.6667 70.838 57.0918 73.4989C56.0601 75.2909 56.7117 79.2007 58.015 80.2324C59.97 81.8072 64.0428 82.0244 66.3235 83.5992C69.3103 85.6084 68.4957 86.0971 68.0613 89.9527C70.9937 90.1156 73.4374 90.6043 75.9354 89.4639C78.8135 88.1607 81.2572 86.966 84.9499 87.8891C89.3485 89.0838 93.53 96.6862 96.4081 100.107ZM36.1304 21.3681C34.7185 21.6396 33.2523 21.0423 32.5463 19.7933C31.8947 18.6529 32.0576 17.4583 34.0668 16.2636C35.6417 15.2862 38.737 15.9378 40.4747 16.5894C41.7237 17.0782 42.9727 18.8159 44.276 18.9788C45.4164 19.1417 46.8283 17.7841 47.9687 18.0013C49.6522 18.3271 50.9011 20.8251 52.0415 22.6714C52.3131 23.1058 52.0958 23.6488 51.6071 23.7574C48.8919 24.6263 44.4933 26.5812 42.3211 26.0381C40.7463 25.658 39.7145 22.3455 38.2483 21.6396C37.4337 21.2595 36.8364 21.2052 36.1304 21.3681ZM60.3501 17.5669C59.5898 19.3589 59.1554 20.3363 59.7527 22.1283C59.97 22.78 59.5898 23.4316 58.9382 23.5402C56.1687 23.9203 54.4309 20.988 52.9647 18.5443C52.6932 18.1099 52.9647 17.5669 53.5078 17.5126L59.807 16.8066C60.1872 16.7523 60.513 17.1868 60.3501 17.5669ZM83.0493 28.699L81.04 29.1334C80.5513 29.242 80.2797 29.785 80.5513 30.2195C81.4201 31.7942 81.8003 32.7717 81.9632 34.4551C82.0175 35.0524 81.3658 35.4868 80.8771 35.161C78.1619 33.6948 75.7725 32.5545 72.7858 31.7399C72.297 31.577 72.1341 30.9797 72.4599 30.5996L75.1208 27.9387C75.501 27.5586 75.501 26.9613 75.1208 26.5812C73.8718 25.3865 72.297 23.5945 70.8851 23.1601C69.0388 22.5627 66.6494 23.7574 64.6944 23.3773C60.9474 22.6714 60.4044 18.2728 64.3143 17.1868C72.6228 14.906 78.8135 21.8025 83.4837 27.5586C83.8095 27.9387 83.5923 28.5904 83.0493 28.699ZM39.986 14.0372L36.239 13.3856C35.7503 13.277 35.6417 12.7339 36.0218 12.4081C37.1622 11.5936 38.5741 10.4532 39.4973 10.4532C40.692 10.3989 41.7237 12.028 42.9727 12.4081C45.6336 13.277 46.9369 12.7339 49.0548 13.7657C49.5435 13.9829 49.4349 14.7431 48.8919 14.8517C45.3621 15.612 43.4072 16.2636 39.986 14.0372ZM43.5701 11.1591C43.027 10.8333 42.484 10.4532 41.941 10.0731C41.6151 9.85587 41.6694 9.31284 42.0496 9.14994L45.7966 7.73806C46.1224 7.62945 46.4482 7.90097 46.3396 8.28109C45.8509 9.80157 45.4164 11.5393 43.5701 11.1591ZM61.4905 8.76982L56.2773 5.62025C55.8971 5.40304 55.8971 4.86001 56.223 4.6428C64.4229 -1.05901 73.2202 -0.407374 82.6148 1.0045C83.2122 1.11311 83.3751 1.92765 82.7777 2.19917C79.9539 3.50243 76.6957 4.7514 74.4692 6.5977C71.9712 8.71551 71.4281 12.3538 69.1474 14.363C67.0838 16.155 62.7395 15.612 59.6984 15.4491C55.517 15.2319 53.8879 15.5034 51.0641 13.1684C50.7382 12.8968 50.8468 12.4081 51.2813 12.2995L61.3819 9.58436C61.762 9.47575 61.8163 8.98703 61.4905 8.76982ZM50.3581 9.96448L49.3263 8.17248C49.1091 7.84667 49.3806 7.41224 49.7608 7.41224C51.7157 7.52085 52.6389 7.52085 53.4534 9.31285C53.6707 9.74727 53.4535 10.236 52.9647 10.3446C52.0958 10.6161 51.6614 10.4532 51.0098 10.3446C50.7382 10.3989 50.4667 10.236 50.3581 9.96448ZM55.517 8.87842C55.4627 8.71551 55.4084 8.5526 55.3541 8.3897C55.2455 8.06388 55.5713 7.73806 55.8971 7.90097L58.1236 8.98703C58.2865 9.04133 58.2322 9.31285 58.0693 9.31285H56.223C55.8971 9.31285 55.6256 9.09563 55.517 8.87842ZM118.075 7.62945C117.424 8.06388 117.207 8.93272 117.587 9.63866C118.999 12.2995 120.03 13.9286 119.107 16.9696C118.13 20.1191 117.098 22.4541 114.546 24.2461C111.342 26.5269 106.563 27.6129 103.739 30.3281C102.327 31.6856 101.404 34.0207 100.535 36.0842C100.101 37.0616 98.9604 37.4417 98.0372 36.8987C95.8651 35.5954 93.53 34.3465 92.7154 32.2287C91.3578 28.8619 93.4214 24.1918 92.0638 20.8251C91.0863 18.3814 87.0135 13.82 84.7327 13.0597C82.7234 12.4081 79.5738 14.0372 77.7817 13.0597C77.2387 12.7882 76.75 12.0823 76.2612 11.3221C75.6639 10.2903 76.1526 8.98703 77.293 8.5526C77.7274 8.3897 78.1619 8.22679 78.4334 8.00957C79.5195 7.14073 79.0307 6.21758 79.791 5.56594C80.9314 4.58849 83.2665 4.15407 84.8956 3.66534C88.8055 2.41638 92.7154 0.732987 96.7882 0.352867C106.02 -0.515979 114.763 0.244261 123.615 2.36207C124.266 2.52498 124.429 3.39383 123.832 3.77395L118.075 7.62945Z" fill="#D0F4FB"/>
<g clip-path="url(#clip0)">
<path d="M173.689 41.9044C171.237 41.9044 169.159 43.4768 168.392 45.6482H178.987C178.219 43.4768 176.141 41.9044 173.689 41.9044Z" fill="black"/>
<path d="M173.69 53.1362C176.142 53.1362 178.22 51.5825 178.987 49.3924H168.393C169.16 51.5825 171.238 53.1362 173.69 53.1362Z" fill="#FEC509"/>
<path d="M168.392 45.6484C168.186 46.2286 168.074 46.8651 168.074 47.5202C168.074 48.1754 168.186 48.8118 168.392 49.3921H178.987C179.193 48.8118 179.305 48.1754 179.305 47.5202C179.305 46.8651 179.193 46.2286 178.987 45.6484H168.392Z" fill="#D1002E"/>
</g>
<g clip-path="url(#clip1)">
<path d="M172.848 58.7008C172.848 61.1529 174.421 63.2307 176.592 63.9981V53.4034C174.402 54.1708 172.848 56.2486 172.848 58.7008Z" fill="#118336"/>
<path d="M184.08 58.7017C184.08 56.2495 182.508 54.1717 180.336 53.4043V63.999C182.508 63.2316 184.08 61.1538 184.08 58.7017Z" fill="#C0162A"/>
<path d="M176.592 63.9991C177.173 64.205 177.809 64.3173 178.464 64.3173C179.119 64.3173 179.756 64.205 180.336 63.9991V53.4044C179.737 53.1984 179.119 53.0861 178.464 53.0861C177.809 53.0861 177.173 53.1984 176.592 53.4044V63.9991Z" fill="#F9F9F9"/>
</g>
<g clip-path="url(#clip2)">
<path d="M203.827 63.3688C202.816 62.4329 201.487 61.8713 200.009 61.8713C198.53 61.8713 197.201 62.4329 196.19 63.3688H203.827Z" fill="#F9F9F9"/>
<path d="M196.19 71.6051C197.201 72.541 198.53 73.1026 200.009 73.1026C201.487 73.1026 202.816 72.541 203.827 71.6051H196.19Z" fill="#F9F9F9"/>
<path d="M194.393 67.4868C194.393 68.2917 194.561 69.0404 194.861 69.733H205.156C205.456 69.0404 205.624 68.2917 205.624 67.4868C205.624 66.6819 205.456 65.9331 205.156 65.2405H194.861C194.561 65.9331 194.393 66.6819 194.393 67.4868Z" fill="#F9F9F9"/>
<path d="M196.209 71.605H203.827C204.389 71.0809 204.857 70.4445 205.156 69.7332H194.861C195.179 70.4445 195.647 71.0809 196.209 71.605Z" fill="#0121A3"/>
<path d="M203.829 63.3688H196.211C195.649 63.8929 195.181 64.5294 194.882 65.2407H205.177C204.859 64.5294 204.391 63.8929 203.829 63.3688Z" fill="#0121A3"/>
<path d="M201.693 66.5513H200.57L200.008 65.6154L199.447 66.5513H198.324L198.885 67.4873L198.324 68.4232H199.447L200.008 69.3591L200.57 68.4232H201.693L201.132 67.4873L201.693 66.5513ZM200.008 66.1582L200.252 66.5513H199.784L200.008 66.1582ZM198.829 66.8321H199.297L199.072 67.2252L198.829 66.8321ZM198.829 68.1424L199.054 67.7493L199.278 68.1424H198.829ZM200.008 68.8163L199.784 68.4232H200.252L200.008 68.8163ZM200.42 68.1424H199.634L199.222 67.4873L199.615 66.8321H200.402L200.813 67.4873L200.42 68.1424ZM201.206 68.1424H200.738L200.963 67.7493L201.206 68.1424ZM200.982 67.2065L200.757 66.8134H201.225L200.982 67.2065Z" fill="#0121A3"/>
</g>
<g clip-path="url(#clip3)">
<path d="M195.946 41.9544V39.5085C195.347 37.2023 193.138 35.4902 190.48 35.4902C187.822 35.4902 185.613 37.2023 185.014 39.5085V41.9544C185.613 44.2605 187.822 45.9727 190.48 45.9727C193.138 45.9727 195.347 44.2605 195.946 41.9544Z" fill="#C94747"/>
<path opacity="0.15" d="M195.946 41.9544V39.5085C195.347 37.2023 193.138 35.4902 190.48 35.4902C187.822 35.4902 185.613 37.2023 185.014 39.5085V41.9544C185.613 44.2605 187.822 45.9727 190.48 45.9727C193.138 45.9727 195.347 44.2605 195.946 41.9544Z" fill="#8B1F2C"/>
<path d="M184.865 40.7316C184.865 41.1509 184.922 41.5702 185.015 41.9545H195.928C196.022 41.5702 196.078 41.1509 196.078 40.7316C196.078 40.3123 196.022 39.893 195.928 39.5086H185.015C184.922 39.893 184.865 40.3123 184.865 40.7316Z" fill="white"/>
</g>
<g clip-path="url(#clip4)">
<path d="M178.501 31.4971C176.049 31.4971 173.971 32.9646 173.203 34.9912H183.798C183.031 32.9646 180.953 31.4971 178.501 31.4971Z" fill="#FBAC13"/>
<path d="M178.501 41.9796C180.954 41.9796 183.031 40.5295 183.799 38.4854H173.204C173.972 40.5295 176.049 41.9796 178.501 41.9796Z" fill="#B11422"/>
<path d="M173.204 34.9917C172.998 35.5333 172.886 36.1273 172.886 36.7388C172.886 37.3503 172.998 37.9443 173.204 38.4859H183.799C184.005 37.9443 184.117 37.3503 184.117 36.7388C184.117 36.1273 184.005 35.5333 183.799 34.9917H173.204Z" fill="#0C5934"/>
</g>
<g clip-path="url(#clip5)">
<path d="M219.231 60.2732C216.779 60.2732 214.701 61.8456 213.934 64.0169H224.529C223.761 61.8456 221.683 60.2732 219.231 60.2732Z" fill="#CD0010"/>
<path d="M219.232 71.505C221.684 71.505 223.762 69.9513 224.53 67.7613H213.935C214.702 69.9513 216.78 71.505 219.232 71.505Z" fill="#ED9808"/>
<path d="M213.935 64.0177C213.729 64.598 213.617 65.2344 213.617 65.8896C213.617 66.5447 213.729 67.1812 213.935 67.7614H224.53C224.736 67.1812 224.848 66.5447 224.848 65.8896C224.848 65.2344 224.736 64.598 224.53 64.0177H213.935Z" fill="#021F8E"/>
</g>
<g clip-path="url(#clip6)">
<path d="M247.166 32.3199C244.733 32.3199 242.655 33.8923 241.887 36.0637H252.482C251.696 33.8923 249.618 32.3199 247.166 32.3199Z" fill="white"/>
<path d="M247.167 43.5517C249.619 43.5517 251.697 41.9793 252.464 39.808H241.888C242.656 41.998 244.734 43.5517 247.167 43.5517Z" fill="#C91618"/>
<path d="M241.889 36.0644C241.683 36.6447 241.571 37.2811 241.571 37.9363C241.571 38.5914 241.683 39.2278 241.889 39.8081H252.484C252.689 39.2278 252.802 38.5914 252.802 37.9363C252.802 37.2811 252.689 36.6447 252.484 36.0644H241.889Z" fill="#032495"/>
</g>
<g clip-path="url(#clip7)">
<path d="M200.864 57.1294C203.972 57.1294 206.48 54.6211 206.48 51.5138H195.249C195.249 54.6211 197.757 57.1294 200.864 57.1294Z" fill="#FECE0A"/>
<path d="M200.864 45.8976C197.757 45.8976 195.248 48.4059 195.248 51.5132H206.48C206.48 48.4059 203.971 45.8976 200.864 45.8976Z" fill="#0844AD"/>
</g>
<g clip-path="url(#clip8)">
<path d="M188.883 57.928C191.99 57.928 194.499 55.4197 194.499 52.3124H183.267C183.267 55.4197 185.776 57.928 188.883 57.928Z" fill="#D1002E"/>
<path d="M188.882 46.6963C185.775 46.6963 183.267 49.2046 183.267 52.3119H194.498C194.498 49.2046 191.99 46.6963 188.882 46.6963Z" fill="white"/>
</g>
<g clip-path="url(#clip9)">
<path d="M56.9042 45.1619C56.0244 44.6191 55.0136 44.3009 53.9092 44.3009V45.1619H56.9042Z" fill="#D1002E"/>
<path d="M53.9092 46.0228H57.9524C57.6342 45.7046 57.2785 45.4051 56.9042 45.1618H53.9092V46.0228Z" fill="white"/>
<path d="M53.9092 46.884H58.645C58.4391 46.5658 58.2145 46.285 57.9711 46.0229H53.9092V46.884Z" fill="#D1002E"/>
<path d="M53.9092 47.7451H59.0943C58.9632 47.4456 58.8135 47.1461 58.645 46.8841H53.9092V47.7451Z" fill="white"/>
<path d="M53.9092 48.6063H59.375C59.3002 48.3068 59.2066 48.026 59.0943 47.7452H53.9092V48.6063Z" fill="#D1002E"/>
<path d="M53.9092 49.4858H59.5061C59.4873 49.1863 59.4312 48.9055 59.375 48.6247H53.9092V49.4858Z" fill="white"/>
<path d="M59.5062 49.4859H53.9093V49.9164H48.2937C48.2937 50.0662 48.2937 50.1972 48.3124 50.3469H59.5062C59.5249 50.1972 59.5249 50.0662 59.5249 49.9164C59.5249 49.7667 59.5249 49.6169 59.5062 49.4859Z" fill="#D1002E"/>
<path d="M48.4435 51.2081H59.3752C59.4501 50.9273 59.4876 50.6465 59.5063 50.347H48.3125C48.3312 50.6278 48.3687 50.9273 48.4435 51.2081Z" fill="white"/>
<path d="M48.7239 52.0692H59.094C59.2064 51.7885 59.3 51.5077 59.3748 51.2082H48.4431C48.518 51.5077 48.6116 51.7885 48.7239 52.0692Z" fill="#D1002E"/>
<path d="M49.1734 52.9298H58.645C58.8135 52.649 58.9632 52.3682 59.0943 52.0687H48.7241C48.8552 52.3682 49.0049 52.649 49.1734 52.9298Z" fill="white"/>
<path d="M49.847 53.7909H57.9709C58.2142 53.5289 58.4576 53.2294 58.6448 52.9299H49.1731C49.3603 53.2481 49.6036 53.5289 49.847 53.7909Z" fill="#D1002E"/>
<path d="M50.8949 54.6521H56.9223C57.3154 54.4088 57.6524 54.1093 57.9706 53.791H49.8467C50.1649 54.128 50.5206 54.4088 50.8949 54.6521Z" fill="white"/>
<path d="M53.9092 55.532C55.0136 55.532 56.0431 55.2138 56.9229 54.6522H50.8955C51.7753 55.2138 52.8048 55.532 53.9092 55.532Z" fill="#D1002E"/>
<path d="M50.9129 45.1606C50.5198 45.404 50.1641 45.7035 49.8459 46.0217C49.5838 46.2837 49.3592 46.5832 49.172 46.8827C49.0035 47.1635 48.8351 47.4443 48.7228 47.7438C48.6105 48.0246 48.5169 48.3054 48.442 48.6049C48.3671 48.8856 48.3297 49.1664 48.311 49.4659C48.2922 49.6157 48.2922 49.7654 48.2922 49.9152H53.9078V44.2996C52.8034 44.2996 51.7926 44.6178 50.9129 45.1606Z" fill="#2E2B5B"/>
<path d="M52.598 44.4881L52.6915 44.7686H52.972L52.7476 44.9555L52.8224 45.236L52.598 45.0677L52.3737 45.236L52.4485 44.9555L52.2241 44.7686H52.5046L52.598 44.4881Z" fill="white"/>
<path d="M53.3471 45.6112L53.4405 45.8916H53.721L53.4966 46.0786L53.5714 46.359L53.3471 46.1908L53.1227 46.359L53.1975 46.0786L52.9731 45.8916H53.2536L53.3471 45.6112Z" fill="white"/>
<path d="M51.849 45.6112L51.9425 45.8916H52.2229L51.9986 46.0786L52.0734 46.359L51.849 46.1908L51.6247 46.359L51.6994 46.0786L51.4751 45.8916H51.7555L51.849 45.6112Z" fill="white"/>
<path d="M52.598 46.7343L52.6915 47.0147H52.972L52.7476 47.2017L52.8224 47.4821L52.598 47.3138L52.3737 47.4821L52.4485 47.2017L52.2241 47.0147H52.5046L52.598 46.7343Z" fill="white"/>
<path d="M51.1005 46.7343L51.194 47.0147H51.4744L51.25 47.2017L51.3248 47.4821L51.1005 47.3138L50.8761 47.4821L50.9509 47.2017L50.7266 47.0147H51.007L51.1005 46.7343Z" fill="white"/>
<path d="M49.6032 46.7343L49.6966 47.0147H49.9771L49.7527 47.2017L49.8275 47.4821L49.6032 47.3138L49.3788 47.4821L49.4536 47.2017L49.2292 47.0147H49.5097L49.6032 46.7343Z" fill="white"/>
<path d="M53.3471 47.8573L53.4405 48.1378H53.721L53.4966 48.3247L53.5714 48.6052L53.3471 48.4369L53.1227 48.6052L53.1975 48.3247L52.9731 48.1378H53.2536L53.3471 47.8573Z" fill="white"/>
<path d="M51.849 47.8573L51.9425 48.1378H52.2229L51.9986 48.3247L52.0734 48.6052L51.849 48.4369L51.6247 48.6052L51.6994 48.3247L51.4751 48.1378H51.7555L51.849 47.8573Z" fill="white"/>
<path d="M50.3515 47.8573L50.4449 48.1378H50.7254L50.501 48.3247L50.5758 48.6052L50.3515 48.4369L50.1271 48.6052L50.2019 48.3247L49.9775 48.1378H50.258L50.3515 47.8573Z" fill="white"/>
<path d="M52.598 48.9809L52.6915 49.2613H52.972L52.7476 49.4483L52.8224 49.7287L52.598 49.5605L52.3737 49.7287L52.4485 49.4483L52.2241 49.2613H52.5046L52.598 48.9809Z" fill="white"/>
<path d="M51.1005 48.9809L51.194 49.2613H51.4744L51.25 49.4483L51.3248 49.7287L51.1005 49.5605L50.8761 49.7287L50.9509 49.4483L50.7266 49.2613H51.007L51.1005 48.9809Z" fill="white"/>
<path d="M49.6032 48.9809L49.6966 49.2613H49.9771L49.7527 49.4483L49.8275 49.7287L49.6032 49.5605L49.3788 49.7287L49.4536 49.4483L49.2292 49.2613H49.5097L49.6032 48.9809Z" fill="white"/>
<path d="M50.1275 46.359L50.3518 46.1908L50.5762 46.359L50.4827 46.0786L50.707 45.8916H50.4266L50.3518 45.6112L50.2583 45.8916H49.9966L50.2209 46.0599L50.1275 46.359Z" fill="white"/>
<path d="M48.63 48.6052L48.8543 48.4369L49.0787 48.6052L48.9852 48.3247L49.2095 48.1378H48.9478L48.8543 47.8573L48.7608 48.1378H48.5739C48.5739 48.1565 48.5552 48.1752 48.5552 48.1939L48.7047 48.306L48.63 48.6052Z" fill="white"/>
</g>
<g clip-path="url(#clip10)">
<path d="M210.771 53.1979H208.525C206.335 53.6472 204.594 55.3693 204.145 57.5781V59.8243C204.594 62.0331 206.335 63.7553 208.525 64.2045H210.771C212.98 63.7553 214.702 62.0144 215.151 59.8243V57.5781C214.702 55.3693 212.961 53.6472 210.771 53.1979Z" fill="white"/>
<path d="M210.772 57.5791V53.1989C210.416 53.124 210.042 53.0866 209.649 53.0866C209.256 53.0866 208.881 53.124 208.526 53.1989V57.5791H204.146C204.071 57.9347 204.033 58.3091 204.033 58.7022C204.033 59.0953 204.071 59.4697 204.146 59.8253H208.526V64.2055C208.881 64.2804 209.256 64.3178 209.649 64.3178C210.042 64.3178 210.416 64.2804 210.772 64.2055V59.8253H215.152C215.227 59.4697 215.264 59.0953 215.264 58.7022C215.264 58.3091 215.227 57.9347 215.152 57.5791H210.772Z" fill="#D1002E"/>
<path d="M207.028 56.4554H206.279L206.466 55.3323L206.279 54.2092H207.028L206.84 55.3323L207.028 56.4554Z" fill="#D1002E"/>
<path d="M205.53 55.7067V54.9579L206.653 55.1451L207.776 54.9579V55.7067L206.653 55.5195L205.53 55.7067Z" fill="#D1002E"/>
<path d="M213.018 56.4554H212.269L212.456 55.3323L212.269 54.2092H213.018L212.83 55.3323L213.018 56.4554Z" fill="#D1002E"/>
<path d="M211.521 55.7067V54.9579L212.644 55.1451L213.767 54.9579V55.7067L212.644 55.5195L211.521 55.7067Z" fill="#D1002E"/>
<path d="M207.028 63.1943H206.279C206.279 63.1943 206.466 62.352 206.466 62.0712C206.466 61.7904 206.279 60.9481 206.279 60.9481H207.028C207.028 60.9481 206.84 61.7904 206.84 62.0712C206.84 62.352 207.028 63.1943 207.028 63.1943Z" fill="#D1002E"/>
<path d="M205.53 62.4456V61.6968L206.653 61.884L207.776 61.6968V62.4456L206.653 62.2584L205.53 62.4456Z" fill="#D1002E"/>
<path d="M213.018 63.1943H212.269L212.456 62.0712L212.269 60.9481H213.018L212.83 62.0712L213.018 63.1943Z" fill="#D1002E"/>
<path d="M211.521 62.4456V61.6968L212.644 61.884L213.767 61.6968V62.4456L212.644 62.2584L211.521 62.4456Z" fill="#D1002E"/>
</g>
<g clip-path="url(#clip11)">
<path d="M258.367 73.9009C261.468 73.9009 263.982 71.3867 263.982 68.2853C263.982 65.1838 261.468 62.6697 258.367 62.6697C255.265 62.6697 252.751 65.1838 252.751 68.2853C252.751 71.3867 255.265 73.9009 258.367 73.9009Z" fill="#D1002E"/>
<path d="M256.495 67.6118L257.993 68.6601L257.431 66.9379L258.929 65.8523H257.075L256.495 64.1676L255.934 65.8523H254.062L255.559 66.9379L254.998 68.6601L256.495 67.6118Z" fill="#FED80A"/>
<path d="M258.985 68.9029L258.554 68.9965L258.966 69.165V69.5955L259.247 69.2773L259.659 69.427L259.415 69.0714L259.677 68.7344L259.247 68.828L258.985 68.4724V68.9029Z" fill="#FED80A"/>
<path d="M259.621 67.6302L259.303 67.9109L259.733 67.8735L259.92 68.2853L259.995 67.8548L260.426 67.8173L260.051 67.5927L260.145 67.1622L259.827 67.443L259.452 67.2183L259.621 67.6302Z" fill="#FED80A"/>
<path d="M259.733 66.1702L259.864 66.6008L259.995 66.189H260.426L260.089 65.9269L260.22 65.4964L259.864 65.7584L259.527 65.4776L259.658 65.9082L259.303 66.1515L259.733 66.1702Z" fill="#FED80A"/>
<path d="M258.985 64.6728V65.1033L259.247 64.7477L259.677 64.8413L259.415 64.5043L259.659 64.1487L259.247 64.3172L258.966 63.9802V64.4107L258.554 64.5792L258.985 64.6728Z" fill="#FED80A"/>
</g>
<path d="M40.739 366.533V386.407C40.739 388.876 42.741 390.878 45.2105 390.878C47.68 390.878 49.682 388.876 49.682 386.407V366.533C49.682 364.064 47.68 362.062 45.2105 362.062C42.741 362.062 40.739 364.064 40.739 366.533Z" fill="#DBDBDB"/>
<path d="M23.8472 374.483V386.407C23.8472 388.876 25.8491 390.878 28.3186 390.878C30.7882 390.878 32.7901 388.876 32.7901 386.407V374.483C32.7901 372.013 30.7882 370.011 28.3186 370.011C25.8491 370.011 23.8472 372.013 23.8472 374.483Z" fill="white"/>
<path d="M28.3186 390.878C30.7882 390.878 32.7901 388.876 32.7901 386.407C32.7901 383.937 30.7882 381.935 28.3186 381.935C25.8491 381.935 23.8472 383.937 23.8472 386.407C23.8472 388.876 25.8491 390.878 28.3186 390.878Z" fill="#DB2777"/>
<path d="M57.6318 344.038V386.407C57.6318 388.876 59.6338 390.878 62.1033 390.878C64.5728 390.878 66.5748 388.876 66.5748 386.407V344.038C66.5748 341.568 64.5728 339.566 62.1033 339.566C59.6338 339.566 57.6318 341.568 57.6318 344.038Z" fill="white"/>
<path d="M74.5237 314.717V386.407C74.5237 388.876 76.5256 390.878 78.9952 390.878C81.4647 390.878 83.4666 388.876 83.4666 386.407V314.717C83.4666 312.247 81.4647 310.245 78.9952 310.245C76.5256 310.245 74.5237 312.247 74.5237 314.717Z" fill="#DBDBDB"/>
<path d="M91.4163 304.943V386.407C91.4163 388.877 93.4182 390.878 95.8877 390.878C98.3573 390.878 100.359 388.877 100.359 386.407V304.943C100.359 302.474 98.3573 300.472 95.8877 300.472C93.4182 300.472 91.4163 302.474 91.4163 304.943Z" fill="white"/>
<path d="M125.201 295.984V386.407C125.201 388.876 127.203 390.878 129.672 390.878C132.142 390.878 134.144 388.876 134.144 386.407V295.984C134.144 293.514 132.142 291.512 129.672 291.512C127.203 291.512 125.201 293.514 125.201 295.984Z" fill="#DBDBDB"/>
<path d="M74.5237 357.591V386.407C74.5237 388.877 76.5256 390.879 78.9952 390.879C81.4647 390.879 83.4666 388.877 83.4666 386.407V357.591C83.4666 355.122 81.4647 353.12 78.9952 353.12C76.5256 353.12 74.5237 355.122 74.5237 357.591Z" fill="#DB2777"/>
<path d="M57.6318 376.47V386.407C57.6318 388.877 59.6338 390.879 62.1033 390.879C64.5728 390.879 66.5748 388.877 66.5748 386.407V376.47C66.5748 374.001 64.5728 371.999 62.1033 371.999C59.6338 371.999 57.6318 374.001 57.6318 376.47Z" fill="#DB2777"/>
<path d="M40.739 382.432V386.407C40.739 388.876 42.741 390.878 45.2105 390.878C47.68 390.878 49.682 388.876 49.682 386.407V382.432C49.682 379.963 47.68 377.961 45.2105 377.961C42.741 377.961 40.739 379.963 40.739 382.432Z" fill="#DB2777"/>
<path d="M91.4163 347.654V386.407C91.4163 388.876 93.4182 390.878 95.8877 390.878C98.3573 390.878 100.359 388.876 100.359 386.407V347.654C100.359 345.185 98.3573 343.183 95.8877 343.183C93.4182 343.183 91.4163 345.185 91.4163 347.654Z" fill="#DB2777"/>
<path d="M108.308 362.559V378.458C108.308 380.927 110.31 382.929 112.78 382.929C115.249 382.929 117.251 380.927 117.251 378.458V362.559C117.251 360.09 115.249 358.088 112.78 358.088C110.31 358.088 108.308 360.09 108.308 362.559Z" fill="#DB2777"/>
<path d="M125.201 337.718V386.407C125.201 388.877 127.203 390.878 129.672 390.878C132.142 390.878 134.144 388.877 134.144 386.407V337.718C134.144 335.248 132.142 333.246 129.672 333.246C127.203 333.246 125.201 335.248 125.201 337.718Z" fill="#DB2777"/>
<path d="M108.308 314.717V386.407C108.308 388.876 110.31 390.878 112.78 390.878C115.249 390.878 117.251 388.876 117.251 386.407V314.717C117.251 312.247 115.249 310.245 112.78 310.245C110.31 310.245 108.308 312.247 108.308 314.717Z" fill="white"/>
<path d="M108.308 353.616V386.407C108.308 388.877 110.31 390.879 112.78 390.879C115.249 390.879 117.251 388.877 117.251 386.407V353.616C117.251 351.147 115.249 349.145 112.78 349.145C110.31 349.145 108.308 351.147 108.308 353.616Z" fill="#DB2777"/>
<path d="M248.912 301.895C256.56 301.895 264.065 303.972 270.626 307.905C277.186 311.838 282.555 317.478 286.159 324.225C289.764 330.971 291.468 338.569 291.091 346.209C290.713 353.848 288.268 361.242 284.017 367.6L264.709 354.689C266.622 351.828 267.722 348.501 267.892 345.063C268.062 341.625 267.295 338.206 265.673 335.17C264.051 332.134 261.635 329.596 258.683 327.826C255.731 326.056 252.353 325.122 248.912 325.122L248.912 301.895Z" fill="#FF89D8"/>
<path d="M284.017 367.6C280.043 373.543 274.625 378.379 268.272 381.657C261.918 384.934 254.837 386.545 247.691 386.338C240.545 386.132 233.568 384.114 227.415 380.475C221.261 376.836 216.132 371.695 212.509 365.532L232.53 353.759C234.161 356.532 236.469 358.845 239.238 360.483C242.007 362.12 245.147 363.028 248.362 363.121C251.578 363.214 254.765 362.489 257.624 361.015C260.483 359.54 262.921 357.363 264.709 354.689L284.017 367.6Z" fill="#EC4899"/>
<path d="M212.509 365.532C208.525 358.757 206.51 351.005 206.692 343.148C206.874 335.291 209.245 327.64 213.538 321.057L232.994 333.745C231.062 336.707 229.995 340.15 229.913 343.686C229.831 347.221 230.737 350.71 232.53 353.759L212.509 365.532Z" fill="#FF96CA" fill-opacity="0.8"/>
<path d="M213.538 321.057C218.888 312.854 226.922 306.765 236.266 303.832L243.221 325.994C239.016 327.313 235.401 330.053 232.994 333.745L213.538 321.057Z" fill="#DBDBDB"/>
<path d="M236.266 303.832C240.358 302.548 244.622 301.895 248.912 301.895V325.122C246.981 325.122 245.063 325.416 243.221 325.994L236.266 303.832Z" fill="white"/>
<path d="M52.3274 234.78C35.6081 234.78 35.6081 257.47 19.8723 257.47H308.034C292.298 257.47 292.298 226.956 275.579 226.956C259.843 226.956 259.843 209.743 244.108 209.743C228.372 209.743 228.372 172.97 211.652 172.97C195.917 172.97 195.917 175.317 180.181 175.317C164.445 175.317 164.445 158.104 147.726 158.104C131.006 158.104 131.99 212.873 116.254 212.873C99.5348 212.873 101.52 190.183 83.799 190.183C66.0776 190.183 68.0632 234.78 52.3274 234.78Z" fill="#FF96CA" fill-opacity="0.6"/>
<path d="M52.3279 248.864C35.6086 248.864 35.6086 257.471 19.8728 257.471H308.035C292.299 257.471 292.299 232.433 275.58 232.433C259.844 232.433 260.176 211.708 244.44 211.708C228.705 211.708 228.372 198.79 211.653 198.79C196.248 198.664 195.917 210.526 180.181 210.526C164.446 210.526 163.781 204.353 147.062 204.353C130.666 203.536 131.99 234.781 116.255 234.781C99.5353 234.781 99.5353 215.22 83.7995 215.22C68.0637 215.22 68.0637 248.864 52.3279 248.864Z" fill="#EC4899"/>
<path d="M83.7995 235.576C68.0637 235.576 68.0637 257.47 52.3279 257.47H83.7995H116.255H147.726H180.181H211.653H244.108H275.58H308.035C292.299 257.47 292.299 237.198 275.58 237.198C259.844 237.198 259.844 220.981 244.108 220.981C228.372 220.981 228.369 210.89 211.65 210.89C195.914 210.89 195.588 231.216 179.852 231.216C164.117 231.216 164.446 223.413 147.726 223.413C131.99 223.413 131.99 255.848 116.255 255.848C99.5353 255.848 99.5353 235.576 83.7995 235.576Z" fill="#DB2777"/>
<defs>
<clipPath id="clip0">
<rect width="11.98" height="11.98" fill="white" transform="translate(167.719 41.5304)"/>
</clipPath>
<clipPath id="clip1">
<rect width="11.98" height="11.98" fill="white" transform="translate(172.511 52.7116)"/>
</clipPath>
<clipPath id="clip2">
<rect width="11.98" height="11.98" fill="white" transform="translate(194.075 61.4972)"/>
</clipPath>
<clipPath id="clip3">
<rect width="11.98" height="11.1813" fill="white" transform="translate(184.49 35.1411)"/>
</clipPath>
<clipPath id="clip4">
<rect width="11.98" height="11.1813" fill="white" transform="translate(172.511 31.1478)"/>
</clipPath>
<clipPath id="clip5">
<rect width="11.98" height="11.98" fill="white" transform="translate(213.243 59.8995)"/>
</clipPath>
<clipPath id="clip6">
<rect width="11.98" height="11.98" fill="white" transform="translate(241.196 31.9463)"/>
</clipPath>
<clipPath id="clip7">
<rect width="11.98" height="11.98" fill="white" transform="translate(194.874 45.5237)"/>
</clipPath>
<clipPath id="clip8">
<rect width="11.98" height="11.98" fill="white" transform="translate(182.893 46.3223)"/>
</clipPath>
<clipPath id="clip9">
<rect width="11.98" height="11.98" fill="white" transform="translate(47.9197 43.9266)"/>
</clipPath>
<clipPath id="clip10">
<rect width="11.98" height="11.98" fill="white" transform="translate(203.659 52.7116)"/>
</clipPath>
<clipPath id="clip11">
<rect width="11.98" height="11.98" fill="white" transform="translate(252.377 62.2958)"/>
</clipPath>
</defs>
</svg>
