<?xml version="1.0" encoding="UTF-8"?>
<svg width="24px" height="24px" viewBox="0 0 24 24" version="1.1" xmlns="http://www.w3.org/2000/svg" xmlns:xlink="http://www.w3.org/1999/xlink">
    <title>114FC807-0EBE-4FD8-B36E-6B66936BBBAB</title>
    <g id="ðŸžï¸-UI-(Web)" stroke="none" stroke-width="1" fill="none" fill-rule="evenodd">
        <g id="Homepage" transform="translate(-495.000000, -5501.000000)">
            <g id="Footer" transform="translate(0.000000, 5389.000000)">
                <rect id="Background" fill="black" x="0" y="0" width="1920" height="308"></rect>
                <g id="Social" transform="translate(333.000000, 112.000000)" fill="#FFFFFF">
                    <g id="youtube" transform="translate(162.000000, 0.000000)">
                        <path d="M23.9999541,12.5227679 C23.9999541,12.5227679 23.9999541,16.4616072 23.5049097,18.3665179 C23.2274108,19.4062501 22.4174139,20.2258929 21.3899178,20.5066965 C19.5074251,21 11.9999539,21 11.9999539,21 C11.9999539,21 4.50748269,21 2.60998998,20.4763394 C1.58249392,20.1955358 0.772497033,19.3758929 0.494998099,18.3361608 C0,16.4616072 0,12.5 0,12.5 C0,12.5 0,8.56116073 0.494998099,6.6638393 C0.772497033,5.62410715 1.60499384,4.78169643 2.60998998,4.50089286 C4.49248274,4 11.9999539,4 11.9999539,4 C11.9999539,4 19.5074251,4 21.3899178,4.52366072 C22.4174139,4.80446429 23.2274108,5.62410715 23.5049097,6.6638393 C24.0149078,8.56116073 23.9999541,12.5227679 23.9999541,12.5227679 Z M9.6074631,16.1428572 L15.8549391,12.5 L9.6074631,8.85714288 L9.6074631,16.1428572 L9.6074631,16.1428572 Z"></path>
                    </g>
                </g>
            </g>
        </g>
    </g>
</svg>